<svg width="16" height="16" viewBox="0 0 16 16" fill="none" xmlns="http://www.w3.org/2000/svg">
<rect width="16" height="16" fill="#191919"/>
<path d="M3 3H13V6.14505H12.6655C12.6353 5.6941 12.5027 5.25244 12.2676 4.82008C12.0386 4.39238 11.6468 4.0251 11.0922 3.71827C10.5437 3.41144 9.82037 3.25802 8.92224 3.25802H7.53888V7.71409C8.0211 7.71409 8.44002 7.61878 8.79566 7.42817C9.15732 7.24221 9.42857 6.99582 9.6094 6.68898C9.79626 6.38215 9.88969 6.05672 9.88969 5.71269H10.2242V10.0014H9.88969C9.88969 9.62483 9.79325 9.28312 9.60036 8.97629C9.40145 8.66481 9.12116 8.42073 8.75949 8.24407C8.40386 8.06276 7.99699 7.97211 7.53888 7.97211V12.742H9.66365V13H3V12.742H4.94394V3.25802H3V3Z" fill="white"/>
</svg>
