<svg width="36" height="36" viewBox="0 0 36 36" fill="none" xmlns="http://www.w3.org/2000/svg">
<circle cx="18" cy="18" r="18" fill="#F8935B"/>
<path d="M14.96 26.64L16.4 26.28V15.72L14.96 15.36V15H18.08C19.52 15 20.24 15.72 20.24 17.16V26.28L21.68 26.64V27H14.96V26.64ZM18.08 13.56C17.6 13.56 17.2 13.4 16.88 13.08C16.56 12.76 16.4 12.36 16.4 11.88C16.4 11.4 16.56 11 16.88 10.68C17.2 10.36 17.6 10.2 18.08 10.2C18.56 10.2 18.96 10.36 19.28 10.68C19.6 11 19.76 11.4 19.76 11.88C19.76 12.36 19.6 12.76 19.28 13.08C18.96 13.4 18.56 13.56 18.08 13.56Z" fill="#1A1A1A"/>
</svg>
