<svg xmlns="http://www.w3.org/2000/svg" width="107" height="307"><path d="M41.388 260.787c.136-.083.208-.203.216-.36 1.566 1.081 3.122 2.262 4.368 3.712.404.47.744 1.284 1.257 1.581.707.408.864 1.341 1.288 1.979 1.59-1.873 3.441-3.607 5.646-4.73 1.818-.926 3.791-1.444 5.769-1.782.394-.067.796-.086 1.185-.185.207 0 .319.199.513.234.262.048.579-.148.836-.188.455-.071.922-.007 1.315.242.291.098.261-.144.504-.144.284.041.581.057.864 0 1.068.188 2.125.438 3.172.717.675.18 1.346.373 2.015.575.549.166 1.093.612 1.661.658.43.035.772.535 1.161.769.427.256.896.27 1.284.593.042.035.93 1.005.93.576.53.381 1.049.777 1.56 1.184 1.029.821 2.021 1.688 2.985 2.586.439.409.074.838.927.838.252.38.525.747.792 1.116 1.036 1.44 2.043 2.898 2.836 4.486.368.736 2.411 6.422 1.412 6.422.87 2.188-1.518 5.112-3.059 6.429-.952.813-2.045 1.446-3.2 1.923-.535.221-1.327.653-1.893.508-.632-.162-1.29-.167-1.928-.292.659.877.478 1.538-.104 2.376-.451.65-1.065 1.169-1.794 1.479-1.95.831-3.898-.031-5.793-.627-4.422-1.392-8.706-3.174-12.839-5.27-3.833-1.944-7.593-4.031-11.304-6.199-.975-.569-1.947-1.145-2.916-1.726-.97-.581-1.912-1.37-3.044-1.52-.729-.097-4.964-.621-5.046-.034-.173 0-.346-.236-.64-.211-.472.04-.939.138-1.401.24-.582.129-1.256.511-1.772.099-.401-.32-.471-.837-.398-1.316.135-.893.497-1.525 1.377-1.701 1.128-.226 2.321-.616 3.482-.423-3.146-2.65-6.251-5.418-8.934-8.547-1.109-1.294-2.103-2.83-2.733-4.423-.265-.669-.724-1.919-.519-2.645.075-.101.153-.2.233-.297-.047-.334-.047-.674 0-1.008.074-.511.287-.98.491-1.449.5-1.149 2.708-2.158 3.992-2.353.938-.143 2.129.164 3.058.321 1.204.203 2.393.487 3.558.85.837.261 1.703.557 2.509.903.334.143.514.523.808.598.45.116.779.48 1.235.59.509.123.714.074 1.089.495.316.354.886.465 1.323.723.467.275.905.597 1.35.907.47.328.316.175.316.721.144-.096 0-.096 0 0zm17.28 28.512c.109.149.482.208.697.301.527.227.977.575 1.529.725.985.268 1.948.621 2.904.977 1.19.443 2.374.899 3.597 1.246.493.14.992.264 1.498.352 0-.009.771.288.864.288-.15-.448-.792-.265-1.051-.346-.484-.151-.966-.312-1.445-.479-1.32-.461-2.625-.965-3.923-1.486-.741-.297-1.479-.6-2.215-.907-.256-.107-2.094-.725-2.094-.922 0-.012-1.256-.628-1.376-.7-.633-.376-1.085-.513-1.792-.201.984.123 1.931.716 2.807 1.152zM45.42 280.73c.679.559 1.437 1.017 2.235 1.383.32.146.789.193.789.633.422 0 .635.378 1.08.288.003-.005-.072.569-.072.288.343 0 .687.192.972.36.336.199 1.048.308 1.099.613.059.354 1.687 1.115 2.105 1.115-.165-.064-.261-.016-.288.144.528 0 .989.252 1.454.47.153.073.309.14.468.198.296.106.067.225.238.483-.137-.032-.257-.007-.36.072.209 0 .445.279.648.072-.039-.016-.288-.135-.288-.144.932.094 1.686.647 2.569.893.196.056.396.094.599.115.028.157.101.289.216.396.271.201.641.178.936.324-.36.241.533.392.072.504.101.201.734-.089.972.062.394.25.879.333 1.337.36.576.035.961.494 1.472.766.331.176 1.041.241 1.044.612.173-.026.341-.008.504.054.432.18.132.332.603.144.296-.118 1.22.013 1.053.522.856-.345 1.832.474 2.736.216-.051.161-.003.281.144.36.246.029.491.056.736.083.505.055 1.011.107 1.517.149.512.042 1.048.107 1.563.056-3.778-3.959-9.296-5.878-14.229-7.935-2.234-.931-4.393-1.763-6.724-2.442-1.531-.446-3.067-.874-4.607-1.288-.75-.201-1.502-.399-2.255-.594-.198-.051-.821-.331-1.021-.198-.259.173-.519-.147-.828-.072.355.274 1.016.938 1.511.938.817.673-.191 0 0 0zm14.904 9.217h.432c0 .288-.144.288-.432 0zm-1.296-.864h-.432c-.059 0 .613.54.432 0-.335 0 .049.144 0 0zm.288-.432c0 .297.325.057.306.009-.102-.105-.204-.108-.306-.009 0 .143.097 0 0 0zm13.176-.144c-.198 0-.058-.288-.432-.288 0 .204.432.49.432.288-.096 0 0 .048 0 0zm-14.256-.361l.144-.144c-.178-.051-.274-.003-.288.144h.144zm-8.208-9.863c.869-.26 1.665.509 2.48.586.968.091 1.848.872 2.74.919.969.052 1.667.94 2.67.9.805-.032 1.526.815 2.406.619-1.597-1.722-2.979-3.653-3.993-5.777-.248-.518-2.234-5.671-1.335-5.671.282 1.329.774 2.607 1.428 3.796.375.684.802 1.338 1.268 1.963.209.281.426.556.651.824.153.184.31.365.469.544l-.216.216c.313.105.441.477.657.693.245.245.512.117.565.426.059.342.383.534.603.765.101.099.178.213.233.342.066.177-.21.342-.115.438.287 0 .558-.093.504-.432-.012-.012.761 1.646.873 1.071-.025-.063-.056-.123-.09-.18-.003.011 1.249.512.873.981.125-.019.245-.007.36.036 0 .713.287.047.752.496.337.326.676.66 1.012.962 1.043.94 2.486 1.537 3.74 2.165 1.969.986 4.116 2.198 6.307 2.596.716.13 1.43.277 2.147.404.546.098.801.007 1.341-.072.688-.096 1.409-.039 2.096-.174.863-.17 1.906-.62 2.332-1.457.321-.631.774-1.1.808-1.773.017-.327.038-.655.084-.98.068-.475-.244-.307-.244-.548.09.022.195-.011.288 0-.048-.457-.055-1.018-.247-1.446-.079-.175-.261-.191-.221-.426.023-.145.214-.313.125-.401-.215-.214-.309-.594-.4-.871-.091-.276-.172-.556-.248-.837-.107-.394-.385-.487-.513-.865-.149-.438-.15-1.018-.657-1.273-.247-.596-.539-1.172-.873-1.724-.338-.558-.72-1.089-1.137-1.591-.393-.472-.378-.743-.813-1.201-1.945-2.045-3.901-4.1-6.366-5.497-2.518-1.427-5.246-2.488-8.093-3.028-4.171-.791-9.644-.476-12.949 2.537-.358.326-.731.675-1.012 1.072-.279.395-.381.965-.744 1.266-.376.312-.48.995-.876 1.176-.227.104-.432.256-.624.414-.172.144-.338.296-.497.456-.141-.031-.28-.02-.416.032-.992.353-1.677-1.72-2.154-2.467-.634-.992-1.326-1.964-2.155-2.804-1.677-1.7-3.839-3.035-5.89-4.239-2.538-1.489-5.29-2.773-8.194-3.334-1.234-.238-2.496-.341-3.751-.27-.58.033-1.113.032-1.596.374-.61.438-.477 1.04-.261 1.747.326 1.069.544 2.13 1.242 3.014.679.86 1.483 1.859 2.064 2.824.383.636 1.123 1.188 1.63 1.732.968 1.038 1.932 2.114 3.106 2.926.893.617 1.636 1.463 2.479 2.156 1.131.931 2.323 1.786 3.543 2.596.465.309.978.787 1.536.84.43.04.856.125 1.278.21.608.124 1.187.314 1.812.262.432-.036.751.14 1.195.218 1.125.199 2.124.574 3.228.755 1.073.176 2.194.362 3.202.788.202.083.346.179.553.201zm4.752 9.071l1.05.63c.158.095.15-.384-.1-.526-.376-.213-.79-.362-1.198-.5-.802-.271-1.611-.888-2.384-1.274-.428-.214-.854-.444-1.238-.731-.108-.08-.21-.167-.306-.261-.081 0-.313.455-.432.216l.144-.216c-1.396-.83-2.816-1.621-4.276-2.331-1.083-.526-2.18-1.865-3.5-1.773.422-.484-1.229-1.164-1.656-1.08.159-.583-.621-.374-1.008-.504 4.727 3.185 9.758 5.908 14.904 8.35zm2.016.217c.252-.252-.396-.717-.504-.288.197 0 .292.288.504.288.144-.144-.047 0 0 0zm-4.896-1.728c.057-.218.128-.194.216.072-.113.028-.137-.02-.216-.072zm12.6-1.584c0 .291.574.581.792.36-.385-.191-.722-.453-1.08-.504.046.125.142.174.288.144 0 .144-.191 0 0 0zm-.36-.072c-.041-.041-.354-.377-.432-.144.13-.001.325.363.432.144-.24-.24-.047.096 0 0zm2.232-.289c-.075 0-.315-.159-.216.144.023-.027.216-.195.216-.144-.047 0 0 .049 0 0zm-4.536-.071c-.141-.284-.8-.452-1.08-.36.299.223.724.295 1.08.36-.047-.096-.527-.096 0 0zm.432-.504c-1.319-.764-2.805-1.259-4.248-1.728-.158.532 1.016.567 1.418.724.916.358 1.833.905 2.83 1.004-.911-.528-.479-.048 0 0zm-.36-1.368c0-.207-.864-.507-.864-.36.211.263.538.36.864.36 0-.144-.384 0 0 0zm-6.768-.433c.132.128.672.36.936.36-.097-.161-.265-.253-.44-.303-.269-.075-.672-.273-.928-.273.061.181.269.216.432.216zm-9.288 0c0 .097.025.144.072.144 0-.095-.024-.144-.072-.144zm11.88.145c.098-.292-.432-.44-.432-.144.158.004.303.052.432.144.049-.145-.095 0 0 0zm-.648-.216c-.192-.385-1.161-.783-1.512-.432.53 0 .976.567 1.512.432-.095-.192-.191.048 0 0zm27.216-.216c0 .144.023.216.072.216 0-.144-.024-.216-.072-.216zm-23.616-.144c-.089.362.47.466.576.144-.18-.093-.373-.141-.576-.144l.072-.36c-.229-.113-.41.36-.072.36-.047.192-.191 0 0 0zm23.688.072c-.113-1.684-.811-3.259-1.62-4.715-.097-.173-1.842-3.559-2.268-3.133 1.816 2.32 3.081 5.023 3.888 7.848-.048-.72-.864-3.024 0 0zm-38.232-.072c-.101-.088-.101-.161 0-.216v.216zm-1.44-.072c0-.047-.119-.144-.36-.288 0 .048.12.144.36.288zm8.28-.289c-.031 0-.432-.044-.432.072.131.053.369.123.432-.072-.047 0-.047.145 0 0zm-7.56 0v-.216c.13.022.226.095.288.216-.093 0-.197.017-.288 0zm6.696-.144c-.115-.114-.3-.238-.36 0 .105-.05.36.168.36 0-.191-.19 0 .098 0 0zm2.88.073c-.549-.55-1.271-.802-2.016-.504.666-.164 1.341.504 2.016.504-.623-.624-.24 0 0 0zm-10.152-.288c.085-.252.403-.068 0 0zm6.408-.072c-.188 0-.503-.36-.648-.072.209 0 .446.279.648.072-.047 0-.047.048 0 0zm8.856.072c0-.144-.072-.216-.216-.216 0 .144.072.216.216.216zm.576-.36c0 .144.025.216.072.216 0-.144-.024-.216-.072-.216zm-11.52-.144c.174.164.996.487 1.224.144-.308 0-1.734-.489-1.872-.216.192.064.444.14.648.072zm3.744-.073c-.18.003-.348.052-.504.144.111 0 .589.11.504-.144-.047 0 .049.144 0 0zm-.864-.071c0 .097.024.144.072.144 0-.096-.023-.144-.072-.144zm-9.504-.144c0 .144.025.216.072.216 0-.144-.024-.216-.072-.216zm9.216.144c-.424-.212-1.231-.681-1.728-.432.607 0 1.104.558 1.728.432-.864-.432-.239.048 0 0zm33.264-.144c-.12-.196-.196-.12 0 0zm-25.632-.288c-.144-.144-.24-.144-.288 0h.288zm-13.32-.289c0 .097.024.144.072.144 0-.095-.023-.144-.072-.144zm2.952-.143c-.155-.056-.784-.315-.864 0 .192 0 .748.24.864 0-.527-.192-.047.097 0 0zm9.936-.144c-.103 0-.288-.153-.288.144l.288-.144c-.047 0 0 .048 0 0zm25.776.144c.248-.624-.432-1.079-.432-1.656-.189.47.252 1.251.432 1.656.096-.24-.384-.864 0 0zm-25.344-.288c0-.096-.047-.191-.144-.288 0 .144.048.24.144.288zm-12.528-.144c-.095-.193-1.008-.431-1.008-.144.338 0 .664.144 1.008.144-.047-.096-.144 0 0 0zm-2.448-.576c-.008.008-.216 0-.288 0 0 .105.288.192.288 0-.047.048 0 .096 0 0zm13.752 0c0-.146-.159-.391-.216-.504-.057.259-.046.453.216.504zm-.36-.577c-.119-.194-.196-.119 0 0zm26.208-.431c-.04.168.008.289.144.36.148-.371-.144-.216-.144-.453 0-.24.001-.343-.288-.267.023.174.118.294.288.36 0 .24-.192-.096 0 0zm-26.352.072c0-.133-.356-.576-.504-.432.24-.001.134.556.504.432 0-.096-.144.048 0 0zm26.928-.36c.095-.191.047-.288-.144-.288 0 .192.047.288.144.288zm-27.648-.648c0 .192.097.336.288.432 0-.096-.095-.24-.288-.432zm26.784.432c-.061-.209-.146-.499-.072-.72-.037-.021-.492-.315-.576-.144.502 0 .214.864.648.864-.097-.336-.144 0 0 0zm-27.216-1.224c.042.145.139.504.36.504.072-.216-.227-.416-.36-.504.198-.196.054-.504-.216-.504 0 .146.16.39.216.504.097.336-.144-.288 0 0zm26.712 0c-.247-.121-.259-.452-.504-.576.073.255.221.52.504.576-.096-.048-.241-.048 0 0zm-26.856-.576c0-.096-.047-.191-.144-.288 0 .192.049.288.144.288zm25.776-.648c.322 0 .127.617.576.504-.166-.269-.415-.854-.72-1.008.092.155.14.323.144.504.096 0 .048-.096 0 0zm-26.208-.216c-.191.144-.144.288.144.432.097-.288.049-.432-.144-.432zm-23.688-.432c.119.139.433.503.648.288-.415 0-.703-.625-1.08-.72 0 .241.236.367.432.432.288.336-.288-.096 0 0zm23.544 0c.12-.118-.038-.396-.144-.396-.075 0-.213.465.144.396zm26.064 0c.032-.126 0-.232-.096-.32-.17-.184-.258-.149-.264.104.237-.117.172.216.36.216.047-.192-.048 0 0 0zm-1.368-.216c-.288-.768-.673-1.199-1.152-1.296.528.72.912 1.152 1.152 1.296zm-48.816-.432c-.457-.228-.723-.864-1.296-.864.403.201.772.997 1.296.864-.095-.048-.191.048 0 0zm49.392-.432c-.027-.145-.099-.265-.216-.36-.076.26.025.266.216.36 0-.096-.097-.048 0 0zm-53.352-3.097c0 .615.959.829 1.08 1.44.607.152.93.848 1.512 1.08-.589-.784-1.376-1.407-2.099-2.062-.497-.45-.625-.918-1.286-1.25.08.428.321.792.793.792 0 .193-.432 0 0 0zm51.48 2.449c-.065-.195-.191-.432-.432-.432 0 .223.3.302.432.432-.097-.288-.048-.048 0 0zm2.16-.144c-.192-.288-.36-.456-.504-.504 0 .336.168.504.504.504zm-1.08-.216c-.285 0-.226-.641-.648-.432.215 0 .442.638.648.432-.048 0-.097.096 0 0zm.432-.361c.019-.089 0-.196 0-.288-.02.009-.216.229-.216.144.048.059.144.144.216.144zm-.288-.431c-.385-.539-.469-.936-1.152-.936.486.163.635.808 1.152.936zm-1.512-.432c-.241-.384-.409-.576-.504-.576 0 .144.168.336.504.576zm-.648-.577c-.081-.396-.395-.554-.632-.839-.257-.307-.054-.43-.466-.294-.176.058-.68-.639-.838-.764-.352-.28-.775-.479-1.232-.479 1.059.781 2.155 1.535 3.168 2.376-.048-.239-.288-.239 0 0zm1.008-.215c0-.491-.767-1.026-1.224-.936.471.237.66.825 1.224.936 0-.192-.24-.048 0 0zm-52.56-1.224c-.229-.113-.068.36-.216.36.305.102.287-.15.216-.36-.096-.048.049.144 0 0zm51.192.216c.072-.072.144-.145.216-.216-.426-.423-.951-.739-1.426-1.101-.225-.171-1.12-1.298-1.382-.771.909.632 1.807 1.304 2.592 2.088 0-.048-.624-.624 0 0zm-52.272-1.08c.048.241.216.457.504.648-.047-.24-.216-.456-.504-.648zm.072-.432c-.379-.125-.486-.592-.864-.72-.168.422.637 1.292.864.72-.144-.048-.095.24 0 0zm48.096-.648c.378.386.916.942 1.512.792-1.633-.8-2.911-1.923-4.752-2.304 1.08.503 2.16 1.008 3.24 1.512zm1.44-.073c0-.159-.167-.239-.288-.288 0 .184.105.288.288.288 0-.143-.192 0 0 0zm-50.976-.575c-.144-.432-.384-.744-.72-.936.144.432.385.744.72.936zm49.104-.576c-.125 0-.41-.262-.504-.072.127 0 .408.263.504.072-.048 0-.048.096 0 0zm-.72-.289c-.769-.432-1.272-.623-1.512-.576.864.386 1.368.576 1.512.576zm-2.448-.215c-.104-.062-.365-.206-.432 0 .053 0 .432.207.432 0-.241-.144 0 .096 0 0zm-.504-.216h-.36c.24.241.36.241.36 0zm-1.296-.216c-.092-.031-.631-.251-.72-.072.17 0 .609.293.72.072-.432-.144-.048.096 0 0zm-45.144-.072l-.216-.288c-.212.107.12.483.216.288-.047 0-.047.096 0 0zm46.224-.648c-.375-.07-.983-.271-1.368-.144.42 0 .964.415 1.368.144-.768-.144-.144.097 0 0zm-10.872-.361c-.197-.096-.576-.076-.576.216.142-.04.458-.095.576-.216-.096-.046-.047.049 0 0zm9.432 0c-.183-.09-.341-.038-.432.144.117.027.432.032.432-.144-.192-.095 0 .098 0 0zm-7.272-.287c-.512 0-1.288-.003-1.728.288.347-.045 1.456-.011 1.728-.288-.095 0-.047.048 0 0zm6.48.143c-.34-.113-1.208-.53-1.44-.072.421.001 1.081.431 1.44.072zm-4.752-.143c-.102-.411-.683-.27-.864 0h.864zm2.808-.144c-.389 0-.896-.324-1.224 0 .386 0 .89.338 1.224 0-.095 0-.095.097 0 0zm-26.352-1.584c0 .171.42.264.504.288-.092-.186-.936-.405-.936-.576-.126.257.34.195.432.288 0 .097-.047-.048 0 0zm-.648-.432c-.195 0-.283-.288-.504-.288 0 .165.347.449.504.288-.047 0-.047.048 0 0zm-.864-.36c.101-.3-.432-.278-.432-.072.155-.032.299-.008.432.072.049-.144-.047 0 0 0zm-1.008-.505l-.432-.216c-.083.254.318.452.432.216zm-.648-.287c-.198-.2-.547-.443-.504 0 .082-.04.504.03.504 0-.047-.048 0 .048 0 0zm-1.584-.505c-.211-.211-.508-.256-.792-.216.321-.105.495.216.792.216-.191-.19-.095 0 0 0zm.144-1.079c-.099 0-.504-.211-.504 0 .163.162.391.286.504 0-.047 0-.095.241 0 0zm-1.728-.216c0-.247-.428-.328-.575-.18-.217.218.597.168.575.18 0-.192-.095.048 0 0zm-2.52-.648c-.3 0-.144-.033-.144-.144-.764-.216.144.78.144.144-.144 0 0 .096 0 0zm.504.144c.554.042-.072-.381-.072-.144.143-.004.167.044.072.144zm.648 0c-.144-.096-.24-.096-.288 0h.288zM51.18 244.515c.517.13 1.077.051 1.584.216.639.214.841.814 1.388 1.066 1.18.544 2.076 1.532 2.861 2.541.658.845 1.325 1.571 1.628 2.587.324 1.084.944 2.588.099 3.597.629.49 3.779 1.544 4.111.995 1.002-1.658.567-3.854-.036-5.571-.604-1.721-1.19-3.574-2.08-5.167-.526-.943-1.027-1.9-1.491-2.875-.398-.836-.698-1.981-1.369-2.646.721-.178 1.128 1.416 1.512 1.8.077-.076.101-.172.072-.288 1.763 1.982 2.946 4.426 3.816 6.912 0-.72.001-1.583-.36-2.232.282.071.46.415.576.648.057-.088.093-.184.108-.288.004-.004 1.045 1.533 1.045 1.854 0 .554-.015.229.431.45.206.461.396.93.569 1.404.529 1.455 1.221 3.457.695 4.989-.892 2.602-3.646 3.119-6.092 2.924-1.757-.14-3.471-1.055-4.977-1.932-1.668-.97-3.251-2.138-4.515-3.606-.995-1.157-1.864-2.386-1.934-3.938-.017-.376-.101-.841.049-1.193.129-.304.38-.548.48-.864.083-.26.369-.255.618-.399.453-.26.846-.618 1.212-.984.193.048-.72.72 0 0zm1.296 5.616c0-.235-.44-.494-.216-.72.929 1.194 1.975 2.306 3.168 3.24-1.144-2.25-2.637-4.543-4.824-5.904.382 1.138.906 2.611 1.872 3.384 0-.095-.239-.191 0 0zm11.448 1.008c0-.374.063-.432.432-.432-.185-.296-.273-.662 0-.936-.31-.31-.365.233-.45-.414-.072-.552-.333-1.068-.63-1.53.51 1.019.072 2.352.648 3.312 0-.047-.144-.24 0 0z"/><path d="M60.036 228.819l-.072-.072c.11.127.182.234.252.396.153.361.379.328.608.597.345.405.443.967.78 1.392.976 1.229 2.166 2.269 3.238 3.41 1.14 1.213 2.399 2.643 2.945 4.245.28.822.311 1.703.06 2.536-.203.675-1.182.451-1.538.924-.057.076.202.252-.009.252-.276.184-.596.269-.882.432-.566.324-1.767-.23-2.385-.432-1.139-.369-2.254-.888-3.328-1.417-1.813-.895-3.44-2.227-5.042-3.446-1.064-.81-1.796-1.438-2.43-2.662-.611-1.18-.726-2.145-.275-3.396.863-2.399 2.742-3.167 4.981-1.822 0-1.116-1.084-2.24.324-2.966.603-.312 1.369-.394 2.036-.33.417.041 1.201.588 1.469.481 1.084-.433 2.279.399 3.394.295.379-.036.35-.02.269-.449-.091-.488-.197-.973-.318-1.454-.198-.784-.434-1.564-.735-2.315-1.827-4.553-6.005-8.092-9.391-11.478 3.444.431 5.456 3.624 7.547 6.03 1.405 1.618 2.434 3.636 3.397 5.562.16-.156-.144-.545-.144-.72.161 0 .145.36.36.36-1.005-2.762-3.379-4.714-4.608-7.344-.207 0 0 .381 0 .432-.183-.114-.523-.376-.144-.504-.851-.377-1.402-1.108-1.584-2.016 3.136 2.574 5.494 5.995 7.377 9.557.521.984 1.3 2.037 1.083 3.187-.184.988-.33 1.647-1.176 2.301-.939.725-2.1.563-3.241.565-.939 0-1.884-.019-2.818-.131zm5.544 12.456c-.284-.191-.237.36-.144.36.048-.12.096-.239.144-.36-.144-.097 0 .047 0 0zm-1.44-.432c.48.288.745.407.792.36-.384-.241-.648-.36-.792-.36zm.864-.576c-1.67-3.495-4.764-6.119-7.344-8.928-.524.659-2.14.36-2.88.36 1.336 4.671 6.292 6.582 10.224 8.568-.527-1.104-.191-.097 0 0zm-5.904-9.216c-.066.136.103.325.243.297.022-.004-.171-.349-.171-.441-.086-.059-.182-.083-.288-.072 0 .144.072.216.216.216-.047.097-.144 0 0 0zm-.432-.432c.188-.092-.077-.396-.188-.396-.207 0 .009.487.188.396.097-.047-.095.048 0 0zm6.624-6.912c-.011-.025-.181-.504-.288-.504 0 .205-.044.616.288.504-.144-.335-.144.048 0 0zm.288-.144c-.24-.479-.383-.72-.432-.72.097.385.241.625.432.72zm-2.592-2.016c-.101.206.034.484.216.576 0-.223-.206-.334-.216-.576.236.118.398.58.504.792l-.252-.126c-.087.043.589.515.324.846.448.167.678.189.407-.325-.332-.631-.678-1.254-1.041-1.867-.622-1.053-1.292-2.079-2.019-3.063-1.347-1.822-2.896-3.508-4.691-4.897 2.393 2.737 4.974 5.453 6.768 8.64-.047.097-.432-.767 0 0zm1.512.288c.19 0 .155.288.288.288-.155.156-.272-.241-.288-.288.097 0 .097.288 0 0zm-6.192-8.928c.411-.135.206.301.072.432-.079-.133-.103-.277-.072-.432.144-.047-.047.097 0 0zm-.648-.144c.177-.263.455.1.36.288-.151 0-.166-.288-.36-.288.097-.144.097 0 0 0zm-1.512.072c.144-.144.048-.263-.288-.36.144.241.241.36.288.36z"/><path d="M64.86 208.948c-.063.129-.007.333.072.432.032 0-.06-.325-.072-.432.511.343.506 1.134 1.008 1.512-.174-.702-.76-1.242-.936-1.944.946.8 1.567 2.076 1.792 3.28.108.583.104 1.188-.064 1.76-.43.431-.829.894-1.219 1.361-.524.627-.859.933-1.65 1.196-.568.189-1.162.322-1.763.329-1.32.016-2.702-.326-3.938-.768-2.572-.92-5.124-2.61-6.815-4.772-1.327-1.696-2.51-4.721-.853-6.574.926-1.036 2.046.221 3.136-.111.513-.156.559.394.269.76-.408.515-1.104.649-1.639.984-.633.396-.024.785.331 1.24.448.575.914 1.135 1.401 1.676.955 1.061 1.991 2.052 3.128 2.916.979.744 2.094 1.294 3.277 1.628.934.263 3.06.924 3.739.005.576-.78-.774-3.077-1.22-3.793-.808-1.298-1.769-2.476-2.766-3.631-.676-.783-1.354-1.582-1.914-2.453 1.102-.548 2.393.807 3.132 1.448.245.212.836.495.9.772.113.492.799 1.331 1.367 1.235-.392.658 1.297 1.233 1.297 1.944-.047.096 0-.288 0 0zm1.512 3.6c-.067-.402-.252-.085 0 0zm-2.16-4.248c0 .144.097.265.288.36 0-.144-.095-.264-.288-.36zm0-.792c.385.288.601.576.648.864-.288-.191-.504-.479-.648-.864zm-1.872-.864c-.096-.288-.216-.432-.36-.432.144.241.265.385.36.432zm-.432-.792c-.183 0-.044-.334-.288-.216-.085.174.184.428.288.216-.047 0-.047.097 0 0zm-.864-.648c.234-.076.161-.121-.072-.144.024.048.049.096.072.144zm-.144-.432c-.119-.041-.215-.113-.288-.216-.085.174.184.428.288.216-.047 0-.047.097 0 0zM51.036 195.053h-.216c0 .25.311-.077.504 0 .24.095-.366.118.303.283.289.071.573.162.849.274.516.209.999.498 1.419.864.207.18.397.378.571.59.248.304.234.16.579.261.616.18 1.082.715 1.728.803.301.041.349-.121.559.088.183.183.449.285.688.364.285.095.59.152.892.122.452-.045.158.038.486.256.39.26 1.023.15 1.359.486-1.396-1.597-3.146-2.833-4.448-4.524-.697-.906-1.23-1.901-1.5-3.017-.05-.208-.092-.419-.126-.631-.088-.555.078-.202.315-.558.163-.245-.023-.361.24-.558.32-.24.461-.153.488-.583.063-1.012 3.841-1.011 4.578-1.076 1.746-.154 4.22-.292 5.421-1.797 0-.12-.406-.045-.288-.288.71.355.228-1.878.162-2.132-.203-.786-.553-1.567-1.17-2.116-.957-1.539-2.023-3.01-3.104-4.463-2.422-3.255-5.031-6.378-7.336-9.72.993-.07 1.664.734 2.263 1.397.316.351.659.702 1.063.954.109.07.225.126.347.168 0 .201-.129.224-.288.144.265.265.404.674.776.82.374.146.37.836.88.836l-.216.288c.575.115.619.836 1.224.936-.104-.315-.35-.535-.432-.864.774.111.674 1.16 1.368 1.296-.023-.089.012-.195 0-.288.603.051.864.513.864 1.08.224 0 .386-.215.604-.215.414 0-.243.432-.244.432 1.075.27 1.439 1.608 2.446 2.019.211-.012.277.071.2.249-.057.228.227.309.414.456.451.356.871.751 1.252 1.18 1.457 1.641 2.528 3.745 2.091 5.958-.902 4.568-6.206 6.226-10.219 6.842 1.861 2.457 4.417 4.371 6.842 6.23 1.146.878 2.292 1.758 3.422 2.657.296.236.592.473.883.717.309.259.518.092.805.26.905 1.506-1.447 2.403-2.568 2.792-.885.307-1.381.244-2.271-.015-.858-.249-1.716-.498-2.574-.745-1.72-.497-3.441-1.053-5.187-1.456.066.37-.129.284-.432.36-.236.059-.545.094-.765-.045-.096-.062-.317-.387-.027-.387-1.906-1.327-4.762-1.53-6.984-1.8l.144-.216c-1.385-.233-2.66-.968-4.104-.792.19-.281-.445-.408-.591-.408-.093 0-.719.353-.272-.096-.085 0-.72-.142-.72-.072-.24.244-.354-.061-.547-.17-.492-.278-1.316-.058-1.685-.55-.076.076-.1.172-.072.288-.092-.186-.306-.249-.468-.351-.317-.199-.104.062-.252.207-.08-.101-1.079-.771-1.079-.522.055.144.151.198.287.162-.264-.063-2.089-.443-2.15-.684.067.066.127.138.18.216-.09.357-.599-.318-.621-.396-.41-.037-.815-.121-1.215-.216-1.048-.25-2.085-.648-3.177-.648 0-.203.237-.267-.089-.296-.332-.03-.662-.11-.984-.192-.637-.163-1.286-.376-1.951-.376l.288-.216c-.244 0-.506-.109-.72-.216.03.133.126.205.288.216-.373.094-.78-.229-1.078-.398-.066-.038-.861-.462-.579-.034-.188.063-.346.05-.216-.216-.4 0-.768-.208-1.147-.306-.26-.067-.531-.092-.797-.054 0-.309-.266-.266-.432-.432 0 .286-.293.046-.476-.016-.406-.138-.811-.276-1.216-.417-.315-.108-.629-.217-.945-.324-.083-.028-.854-.214-.819-.18.032.032.354.131.432.144-.733.295-1.263-1.005-2.016-.504.023-.09-.021-.197 0-.288-.327.041-.7.065-1.011-.07-.111-.046-.204-.116-.276-.211-.176-.238-.344-.087-.657-.15.426-.084-.391-.345-.464-.368-.416-.128-.734-.404-1.192-.208-.697-.488-1.542-.798-2.327-1.111-1.94-.773-4.613-1.696-4.941-4.093-.066-.481-.16-1.052.224-1.364.486-.396.742-1.009 1.052-1.536.484-.824 1.527-1.046 2.426-1.186 1.079-.167 2.185-.138 3.269-.032.416.041 1.707.054 1.792.395.072.289.539.281.45-.072.285.285 1.178.474 1.534.477.89.007 1.756.331 2.588.612.629.212 1.272.439 1.93.547.386.063-.123.594.573.452-.086-.059-.182-.083-.288-.072.581-.249 1.261.134 1.785.348.243.099.491.192.747.252.468.11.348.126.348.624.31-.304.098-.406.596-.253.527.161 1.043.358 1.555.562 1.078.429 2.164.954 3.321 1.131-.317.798.439.013.88.352.552.425.792.614 1.496.512-.025.114.03.248 0 .36.246-.243.401.216.66.216.337 0 .624.018.348.432.322 0 .284-.352.516-.252.375.161.589.662 1.068.468 0 .328.394.47.648.54.302.084.683.524.854.489.729-.147 1.308.71 2.018.759.487.033.319.127.744.436.126.087.265.114.416.08.119.238-.216.17-.216.36.354-.086 1.025.202 1.296-.072.386.43.908.733 1.419.991 1.09.549 2.47.883 3.189 1.961.185 0 .138-.194.144-.288.221.049.598.186.288.432.403-.136 1.47.292 1.507.719zm13.536 7.344c-.034-.448-.447-.035 0 0zm-.72-.216c.14-.279-.261-.026-.288 0 .093 0 .196.015.288 0zm-.576-.432c-.128.042-.792-.143-.792 0 .251 0 .708.512.792 0-.144.047-.047.288 0 0zm-1.44-.36c.011.106-.013.202-.072.288.11 0 .538.038.648-.072-.358-.193-.966-.467-1.296-.072.269.131.449-.144.72-.144 0 .144-.095 0 0 0zm-.864-.432c-.493 0-1.031-.458-1.512-.216.608.26.907.579 1.512.216-.191 0-.24.144 0 0zm1.44-1.296c-.425-.14-.633-.607-1.08-.72.181.468.531.885 1.08.72-.144-.048-.479.144 0 0zm-15.264-.72c0-.042.53-.614-.072-.468-.262.068.017.468.072.468 0-.047-.047 0 0 0zm13.968-.144c0-.187-.076-.34-.288-.288.032.183.122.288.288.288 0-.24-.047 0 0 0zm-14.544-.144c-.097-.393-1.188-.581-.936-.072.297 0 .648-.023.936.072-.047-.192-.144-.048 0 0zm-1.296-.36c.147-.291-.26-.385-.432-.216.131-.017.179.031.144.144-.189 0-.545-.378-.648-.072.269 0 .695.388.936.144.097-.191-.095.097 0 0zm16.488 0c.04-.209-.032-.209-.216 0h.216zm-1.296-.144c-.096-.335-.288-.504-.576-.504 0 .097.192.264.576.504zm-16.344-.072c0-.442-.567-.36-.864-.36.174-.518-.936-.586-.936-.216.364.364 1.336.455 1.8.576 0-.144-1.103-.288 0 0zm.36-.216c.119-.235-.229-.216-.36-.216 0 .19.221.216.36.216.049-.096-.239 0 0 0zm.72-.072c0-.047-.119-.191-.36-.432.097.288.216.432.36.432zm15.984-.072c-.131-.231-.348-.491-.648-.432.071.21.388.564.648.432-.191-.336-.095.048 0 0zm-13.896 0c0-.144-.072-.24-.216-.288 0 .144.072.24.216.288zm-5.328-.36c0-.218-.271-.591-.504-.36.303 0 0 .237 0 .36.141.141.393.227.504 0 0-.144-.047.097 0 0zm-1.872-.288c.68 0 .674.48 1.224-.072-.177-.03-.345-.006-.504.072.138-.197.117-.264-.063-.198-.068.012-.585.193-.585-.019.116.029.212.005.288-.072-.326-.325-.635.01-.36.289zm19.296.144c.407-.122-.144-.303-.144-.144l.144.144zm1.08-.144c-.096-.24-.263-.384-.504-.432.097.336.265.48.504.432zm-17.64 0c.107-.211-.337-.332-.432-.144.158.005.302.053.432.144.048-.096-.047-.048 0 0zm-6.552-.216c0-.166.465-.135.36.072-.118-.034-.238-.058-.36-.072 0-.096.097 0 0 0zm2.664.072c.318-.156.749-.17 1.008-.432-.259.065-1.172-.246-1.296 0 .3.1.103.247.288.432.097-.048-.047-.048 0 0zm.72-.072c-.144-.144-.263-.119-.36.072.241 0 .36-.024.36-.072zm-3.96-.216c.294.029.241.241 0 0 0 0 .049.048 0 0zm23.328 0c-.114-.147-.21-.147-.288 0 .122.055.3.13.432.144-.047-.048-.096-.096-.144-.144-.144-.144.049.096 0 0zm-20.664-.072c-.191-.335-.312-.504-.36-.504.144.384.265.552.36.504zm4.392 0c.147-.291-.349-.154-.432-.072.155-.032.299-.008.432.072.049-.096-.047 0 0 0zm-.072-3.6c-2.521-1.26-5.09-2.511-7.776-3.384.042-.084.083-.168.126-.251-.111-.22-.354.246-.486.18-.346-.166-.694-.327-1.044-.483-.894-.4-1.798-.774-2.708-1.134-2.346-.927-4.728-1.761-7.12-2.559-.122.372.432.151.432.36-4.154-.831-8.125-2.633-12.456-2.016.082.892.909 1.299 1.544 1.776.399.299.608.558 1.066.755 1.085.469 2.175.928 3.265 1.386 1.808.762 3.618 1.518 5.429 2.274.25 0 .471-.144.72-.144.281.219.611.375.936.513.976.416 2.016.651 3.006 1.026 2.911 1.103 6.139 1.608 9.156 2.461 3.653 1.033 7.328 2.147 11.094 2.696-1.473-.804-3.007-1.495-4.506-2.247-1.775-.891-3.447-1.841-5.287-2.6-3.933-1.622-7.854-3.275-11.735-5.017 4.15 1.188 8.06 3.072 12.008 4.784 1.598.693 3.203 1.38 4.84 1.974.747.271 1.223.805 1.928 1.187.911.493 1.899.81 2.824 1.272-.342-.741-1.242-1.052-1.976-1.226-.518-.123-.18-.278-.559-.531-.395-.263-.973-.259-1.426-.259 0-.39.149-.352-.327-.472-.322-.082-.685-.131-.968-.321-3.264-1.632.144.097 0 0zm-5.112 3.24c-.358 0-.724-.494-1.008-.072.362 0 .743.471 1.008.072-.047 0-.095.144 0 0zm15.192-.072c-.191-.191-.335-.167-.432.072.192.192.336.169.432-.072zm-10.656 0c-.169.085-.576-.165-.576.072-.03 0 .576.024.576-.072-.095.048 0 .048 0 0zm17.424 0c0-.208-.284-.31-.432-.36-.078.264.157.498.432.36 0-.144-.095.048 0 0zm-23.256-.144c-.004-.096 0-.192 0-.288-.16.027-.208.123-.144.288h.144zm-.504-.216c-.214-.3-.982-.748-1.188-.36-.147.303.97.36 1.188.36-.239-.335-.095 0 0 0zm23.256 0c.31-.206-.525-.92-.648-.432.323 0 .36.432.648.432.144-.096-.095 0 0 0zm-22.392-.072c.192-.096.384-.096.576 0 0-.425-.723-.549-1.008-.36.124.124.538.044.432.36.193-.096.049-.144 0 0zm14.184-.072c.097-.192-.191-.335-.288-.144.185 0 .058.26.288.144.049-.096-.095.048 0 0zm-14.976-.072c-.067-.403-.252-.085 0 0zm-1.512-.072c.02-.089 0-.196 0-.288-.507 0-.444.422 0 .288zm4.32-.144c-.127 0-.596-.15-.792-.216 0 .309.792.528.792.216-.095 0 0 .097 0 0zm-5.112 0c.136.05.256.026.36-.072-.124-.105-.268-.153-.432-.144.072.049.096.121.072.216.144.048 0-.144 0 0zm-.432-.288c0-.053.501-.399.09-.441-.462-.047-.731.441-.09.441 0-.048-.191 0 0 0zm25.272-.144c-.098 0-.386-.495-.504-.144.096 0 .389.495.504.144-.047 0-.047.144 0 0zm-24.048 0h.144c.101-.2-.288-.27-.288-.072l.144.072zm-2.16-.072c0-.14-.367-.391-.144-.504-.285 0-.615-.01-.504.36.215-.213.423.144.648.144 0-.047-.095 0 0 0zm15.192 0c.106-.039.188.037.144-.144-.23.005-.278.053-.144.144zm-12.168-.144c.072-.103.168-.127.288-.072-.169-.683-1.166-.258-.288.072.049-.096-.383-.144 0 0zm1.08 0c-.191-.191-.312-.191-.36 0h.36zm-5.112-.288c-.273-.135.216-.056.216-.216-.382-.047-.77-.047-1.152 0 0 .217.856.462.936.216-.096-.048-.047.144 0 0zm3.312-.072c-.108-.217-.57-.396-.792-.288.164.163.589.226.792.288-.047-.096-.479-.144 0 0zm-4.608-.144c.03-.106 0-.249 0-.36-.126.128-.318-.088-.45 0-.259.172.392.331.45.36zm1.944-.144c0-.335-.216-.36-.648-.072.048.048.265.072.648.072zm-2.952-.072c0-.128-.264-.335-.072-.432-.635-.124-.24.75.072.432 0-.096-.047.048 0 0zm3.816-.072c-.085-.252-.403-.068 0 0zm.648-.144c-.144 0-.216.048-.216.144.144 0 .216-.047.216-.144zm-4.032 0c-.004-.096 0-.192 0-.288-.16.027-.208.123-.144.288h.144zm-1.296-.216c-.338-.055-.627-.268-.864-.504-.299.302.672.899.864.504-.288-.047-.047.097 0 0zm1.368-.36c-.305.102-.833-.653-.936-.144.363 0 .648.578.936.144-.144.048-.095.144 0 0zm-1.224 0c-.174-.026-.318.021-.432.144.128.029.432.037.432-.144-.24 0 0 .048 0 0zm-1.44-.072c-.288-.24-.744-.312-1.368-.216.913.192 1.368.264 1.368.216zm3.888 0l-.432-.432c-.052.209-.232.288-.432.288.276 0 .614.02.864.144zm16.416-.144c-.199 0-.616-.485-.72-.072.198-.096.61.298.72.072-.047 0-.047.097 0 0zm-15.48-.288c-.144 0-.264.097-.36.288.144 0 .265-.096.36-.288zm-2.304.216c-.034-.447-.447-.035 0 0zm27.432 0c.259-.512-.641.069 0 0 .049-.096 0 0 0 0zm-31.32-.289c-.09-.09-.318-.158-.377.019-.073.218.377.256.377-.019-.095-.095 0 .193 0 0zm1.008.073c-.203 0-.367-.275-.576-.072.199-.001.389.263.576.072-.047 0-.047.048 0 0zm.72 0c-.085-.252-.402-.068 0 0zm-2.448-.073c-.316-.949-.859 0 0 0-.095-.287-.095 0 0 0zm1.656-.071c0-.246-.578-.569-.72-.288.28 0 .499.288.72.288 0-.096-.047 0 0 0zm-2.52-.216h.216c.066-.129-.216-.304-.216 0zm5.688 0c.04-.209-.032-.209-.216 0h.216zm-3.96-.144c.105-.208-.36-.238-.36-.072.111.07.231.094.36.072.048-.096-.047.048 0 0zm-1.944-.072c-.125-.038-.708-.249-.792 0 .155.154.621.086.792 0-.479-.144-.095.048 0 0zm18.864-.216c-.604-.456 0 .439 0 0-.191-.144 0 .096 0 0zm-15.408 0c-.384.129-.83-.443-1.08-.072.21.048.88.274 1.08.072-.144.048-.095.096 0 0zm-4.248-.216l-.216.216c.097 0 .169-.072.216-.216zm20.664.216c.254-.068.072-.029.072-.216h-.216c-.003.106.144.221.144.216zm-22.392-.576c.169.338.468.66.864.432-.097-.196-.348-.291-.54-.351-.345-.108-.316-.269-.612-.37.186.375-.36.093-.36.288.189.128.453.066.648.001.241.48-.288.096 0 0zm2.088.144v-.144c-.126-.009-.223.039-.288.144.096 0 .192.002.288 0zm.72-.216c.107-.211-.211-.125-.288-.072.11-.007.169.072.288.072.049-.096-.047 0 0 0zm-3.6-.216c-.297 0-.399-.229-.72-.072.202.202.539.433.72.072-.047 0-.144.288 0 0zm.504-.216c-.288 0-.432.072-.432.216.192 0 .336-.072.432-.216zm.72.072c-.21 0-.31-.394-.432-.288 0 .195.225.705.432.288-.191 0-.095.192 0 0zm-2.088.072c.112-.33-.421-.35-.576-.504.116.029.212.005.288-.072-.246-.243-.798.033-.441.211.243.122.486.243.729.365zm.936-.36v-.216c-.322 0-.165.187 0 .216zm.864-.288c-.067-.403-.252-.085 0 0zm-3.6-.144c.27 0 .278-.296.216-.504-.264-.087-.357.362-.216.504.097 0-.047-.048 0 0zm-.648-.216c.108-.322-.189-.169-.288-.072.109-.008.169.072.288.072.049-.144-.047 0 0 0zm20.304-.072c-.167 0-.288-.292-.288.072.117.029.213.005.288-.072-.047 0 0 .048 0 0zm-20.736-.288c-.084-.024-.199 0-.288 0-.095.387.38.273.288 0zm21.96.144c0-.653-.208 0 0 0 0-.048-.096 0 0 0zm-1.368-.144c.041-.19.043-.288-.144-.288-.506 0-.029.464.144.288zm-21.312-.072h.144c.101-.199-.288-.27-.288-.072.048.023.096.048.144.072zm1.584-.216c-.124-.106-.268-.154-.432-.144-.091.277.328.356.432.144-.047 0-.047.097 0 0zm17.28-.072c-.012 0-.335-.168-.216.072.096.024.167-.001.216-.072-.047 0 0 .048 0 0zm1.44-.144c0-.144-.096-.263-.288-.36 0 .241.097.36.288.36zm-1.944-.648c0-.283-.255-.319-.432-.144.165-.01.309.038.432.144 0-.144-.047 0 0 0zm-20.808-.144c.012-.094 0-.194 0-.288-.311 0-.173.236 0 .288zm-.792-1.368c-.112.116-.504-.083-.504.144.151.15.504.12.504-.144-.047.048 0 .097 0 0zm17.064-.288c-.062-.102-.576-.56-.576-.144.274 0 .29.24.576.144-.144-.24-.144.048 0 0zm-4.608-.432c.097-.096.192-.144.288-.144 0 .096-.095.144-.288.144zm2.16-.072c.03-.011.332.044.144-.144-.23.005-.278.053-.144.144zm2.16-.144c-.067-.403-.251-.085 0 0zm-5.76-.576v-.144c-.126-.009-.223.039-.288.144.096 0 .193.002.288 0zm-1.152-.288c-.067-.403-.252-.085 0 0zm-1.44-1.224c-.047-.239-.168-.263-.36-.072.192 0 .313.025.36.072zm-3.168-.36c.029-.131 0-.297 0-.432-.208 0-.216.301-.216.432h.216zm-1.728-.504c-.101-.204-.432-.047-.432.144.065 0 .432.018.432-.144-.047-.096 0 .096 0 0zm46.872-4.536c-.085-.252-.402-.068 0 0zm-.36-.576c-.113-.066-.233-.114-.36-.144 0 .321.2.32.36.144zm-.288-.36c-.671-.767-1.055-1.199-1.152-1.296.097.624.481 1.056 1.152 1.296zm-1.152-1.368c-.902-1.199-1.675-2.748-2.952-3.6 1.1 1.1 1.717 2.612 2.952 3.6-.144-.191-.479-.384 0 0zm.216-1.008c0-.047-.158-.775-.359-.576-.106.105.134.651.359.576 0-.288-.144.048 0 0zm-.576-.72c.198-.196-.279-.153-.324-.108-.125.126.312.108.324.108zm-.36-.576c-.059-.182-.27-.216-.432-.216-.083.339.432.618.432.216-.047-.144 0 .192 0 0zm-2.232-1.584c.183-.362-.684-1.042-.792-.72.317.158.33.837.792.72.097-.192-.191.048 0 0zm.864-.504c.097.048.241.216.432.504-.288-.096-.432-.263-.432-.504zm-.36-.072c0-.231.203-.207.36-.144-.127.031-.247.079-.36.144 0-.191.049 0 0 0zm-1.296-.432c-.098 0-.114-.409-.36-.288 0 .146.231.552.36.288-.047 0-.047.097 0 0zm-.576-.432c.36-.116-.035-.361-.144-.144.048.048.097.096.144.144zm-.288-.648c-.047-.24-.36-.576-.936-1.008.241.48.553.816.936 1.008zM51.036 133.421c.756.848 1.997 1.154 2.993 1.604.463.209.943.448 1.317.799.45.422.999.534 1.597.724.586.187 1.161.364 1.689.688.268.165.52.375.684.648.218.048.434.105.648.169 1.243.366 2.436.906 3.596 1.478 1.251.616 2.475 1.284 3.746 1.859.786.356 1.768.549 2.42 1.104 1.396 1.189 3.777 3.605 1.657 5.282-2.244 1.775-4.92 1.229-7.508.788-1.078-.185-2.169-.344-3.264-.384-1.144-.298-2.328-.448-3.501-.577-1.334-.146-2.674-.241-4.01-.381-.385-.041-.771-.083-1.154-.138-.533-.077-.321-.528-.106-.936.274-.524.729-.939 1.2-1.286.38-.28.499-.111.929-.049 1.102.157 2.251.072 3.355-.002 1.719-.115 3.435.351 5.154.549 1.608.185 3.218.359 4.829.516-4.287-3.081-9.456-4.68-13.947-7.422-.382-.234-.76-.476-1.129-.731-.484-.335-.95-.453-1.496-.673-1.261-.509-2.384-1.321-3.388-2.228-.449-.406-1.132-.817-1.055-1.469.065-.553.285-1.692.907-1.649 1.523.106 2.508 1.145 3.837 1.717.385.432-.335-.144 0 0zm10.152 7.344c.153.167 1.282.724 1.584.648.014-.04-1.194-.565-1.446-.628-.944-.237.191-.275.294-.38-.798-.378-2.098-1.296-3.024-1.296.25.25-.284.144-.432.144.899.605 1.949 1.297 3.024 1.512zm1.584.36c0-.332-.537-.611-.792-.36.194.192.552.241.792.36 0-.191-.095-.047 0 0zm-4.248-.792c-.479-.288-.768-.407-.864-.36.481.336.769.456.864.36zm1.584-.432c.258 0 .317.36.576.36-.211.213-.669-.077-.576-.36.097 0-.047.143 0 0zm-1.152-.36c.084-.417.864.095.864.36-.276-.138-.563-.285-.864-.36.048-.24.192.048 0 0zm2.016.36c.25-.095.072-.073.072-.288h-.216c-.062.197.144.215.144.288zm-3.456-.072c.091-.271-.432-.346-.432-.216l.432.216zm-2.52-1.152c.503.503 1.158.792 1.872.792-.249-.181-1.872-.803-1.872-.885 0-.426-.241-.246-.608-.411-.392-.177-.736-.504-1.192-.504.251.748 1.318.525 1.8 1.008zm-.648-1.872c0 .078-.03.803.216.72.122-.119-.161-.504 0-.504.647 1.188 2.236 1.962 3.528 2.16 0-.113-.303-.319-.36-.432.256-.125.614.395.72.072-1.055-.526-2.105-1.062-3.167-1.575-.465-.225-.846-.458-1.27-.729-.475-.305-1.157-.418-1.467-.937.157.106.277.083.36-.072-.748.188-1.418-.364-2.045-.677-.176-.088-.907.257-.907-.188.892 0-.216-.485-.216-.504 0-.19-.493-.4-.648-.504 0 .335-.142.506-.432.216.395-.248.167-.586-.036-.252-.284.477-.618-.399-.9-.54 0 .292.36.316.36.576-.146-.029-.242.019-.288.144.537.18.777.815 1.386.882.642.071.172.104.558.485.363-.103.706.042.972.288.176.163.395.331.641.365.342.048.555.322.85.525.614.423 1.298.738 2 .982 0-.241-.36-.299-.36-.504.169.003.337.003.505.003zm5.328 2.232c-.24-.24-.36-.24-.36 0h.36zm-3.312-.72c0-.861 1.055.708 0 0 0-.192.144.097 0 0zm-.504-.36c0-.338.432-.049.432.144-.165.009-.308-.038-.432-.144 0-.191.097.096 0 0zm-3.672-.432c.324-.121.66-.091.864.216.167-.496-.727-.773-.936-.36.143-.004.167.044.072.144.385-.144.097-.096 0 0zm-.072-.649c-.273-.18-1.008-.512-1.008 0 .252-.247.884.377 1.008 0-.144-.095-.047.145 0 0zm.72-.431c.089-.266.607-.06.504.144-.18-.004-.348-.052-.504-.144.049-.144.097 0 0 0zm-.864-.432c-.143-.661.879.255 0 0zm-.648-.432c-.111-.225.273-.158.36-.072-.102.08-.222.104-.36.072-.047-.096.241 0 0 0zm-2.232-.072c.454-.07 0-.432 0 0 0 0 0-.048 0 0zm1.512-.288c.034-.118.058-.238.072-.36.179.111.407.237.504.432-.2.029-.391.005-.576-.072 0-.048.048.048 0 0zm3.528-.144c.048-.096.12-.096.216 0h-.216zm-6.408-.216c-.12-.196-.196-.12 0 0zm2.016-.648c-.104.211.216.229.216.432-.655 0-1.274-.962-.216-.432zm-2.304-1.296c.051-.178.003-.274-.144-.288.01.177.144.127.144.288zM60.036 119.597l-.072-.072c.11.127.182.234.252.396.153.361.379.328.608.597.345.405.443.967.78 1.392.976 1.229 2.166 2.269 3.238 3.41 1.14 1.213 2.399 2.643 2.945 4.245.28.822.311 1.703.06 2.536-.203.675-1.182.451-1.538.924-.057.076.202.252-.009.252-.276.184-.596.269-.882.432-.566.324-1.767-.23-2.385-.431-1.139-.37-2.254-.888-3.328-1.417-1.813-.895-3.44-2.227-5.042-3.446-1.064-.81-1.796-1.438-2.43-2.662-.611-1.18-.726-2.145-.275-3.396.863-2.399 2.742-3.167 4.981-1.822 0-1.116-1.084-2.24.324-2.966.603-.312 1.369-.394 2.036-.33.417.041 1.201.588 1.469.481 1.084-.433 2.279.399 3.394.295.379-.036.35-.02.269-.449-.091-.488-.197-.973-.318-1.454-.198-.784-.434-1.564-.735-2.315-1.827-4.553-6.005-8.092-9.391-11.478 3.444.431 5.456 3.624 7.547 6.03 1.405 1.618 2.434 3.636 3.397 5.562.16-.156-.144-.546-.144-.72.161 0 .145.36.36.36-1.005-2.762-3.379-4.714-4.608-7.344-.207 0 0 .381 0 .432-.183-.114-.523-.376-.144-.504-.851-.377-1.402-1.108-1.584-2.016 3.136 2.574 5.494 5.995 7.377 9.557.521.984 1.3 2.037 1.083 3.187-.184.988-.33 1.647-1.176 2.301-.939.725-2.1.563-3.241.565-.939-.001-1.884-.02-2.818-.132zm5.544 12.456c-.284-.191-.237.36-.144.36l.144-.36c-.144-.097 0 .047 0 0zm-1.44-.432c.48.288.745.407.792.36-.384-.241-.648-.36-.792-.36zm.864-.576c-1.67-3.495-4.764-6.119-7.344-8.928-.524.659-2.14.36-2.88.36 1.336 4.671 6.292 6.582 10.224 8.568-.527-1.105-.191-.097 0 0zm-5.904-9.216c-.066.136.103.325.243.297.022-.004-.171-.349-.171-.441-.086-.059-.182-.083-.288-.072 0 .144.072.216.216.216-.047.097-.144 0 0 0zm-.432-.432c.188-.092-.077-.396-.188-.396-.207 0 .009.487.188.396.097-.047-.095.048 0 0zm6.624-6.912c-.011-.025-.181-.504-.288-.504 0 .205-.044.616.288.504-.144-.335-.144.048 0 0zm.288-.144c-.24-.479-.383-.72-.432-.72.097.385.241.625.432.72zm-2.592-2.016c-.101.206.034.484.216.576 0-.223-.206-.335-.216-.576.236.118.398.58.504.792l-.252-.126c-.087.043.589.516.324.846.448.167.678.189.407-.325-.332-.631-.678-1.254-1.041-1.867-.622-1.053-1.292-2.079-2.019-3.063-1.347-1.822-2.896-3.508-4.691-4.897 2.393 2.737 4.974 5.453 6.768 8.64-.047.097-.432-.767 0 0zm1.512.288c.19 0 .155.288.288.288-.155.156-.272-.241-.288-.288.097 0 .097.288 0 0zm-6.192-8.928c.411-.135.206.301.072.432-.079-.133-.103-.277-.072-.432.144-.047-.047.097 0 0zm-.648-.144c.177-.263.455.1.36.288-.151 0-.166-.288-.36-.288.097-.144.097 0 0 0zm-1.512.072c.144-.144.048-.263-.288-.36.144.241.241.36.288.36z"/><path d="M64.86 99.726c-.063.129-.007.333.072.432.032 0-.06-.325-.072-.432.511.343.506 1.134 1.008 1.512-.174-.702-.76-1.242-.936-1.944.946.8 1.567 2.076 1.792 3.28.108.583.104 1.188-.064 1.76-.43.431-.829.894-1.219 1.361-.524.627-.859.933-1.65 1.196-.568.189-1.162.322-1.763.329-1.32.016-2.702-.326-3.938-.768-2.572-.92-5.124-2.61-6.815-4.772-1.327-1.696-2.51-4.721-.853-6.574.926-1.035 2.046.222 3.136-.11.513-.156.559.394.269.76-.408.515-1.104.649-1.639.984-.633.396-.024.785.331 1.24.448.575.914 1.135 1.401 1.676.955 1.061 1.991 2.052 3.128 2.916.979.744 2.094 1.294 3.277 1.628.934.263 3.06.924 3.739.005.576-.78-.774-3.077-1.22-3.793-.808-1.298-1.769-2.476-2.766-3.631-.676-.782-1.354-1.581-1.914-2.453 1.102-.548 2.393.807 3.132 1.448.245.212.836.495.9.772.113.492.799 1.331 1.367 1.235-.392.657 1.297 1.232 1.297 1.943-.047.096 0-.288 0 0zm1.512 3.6c-.067-.403-.252-.085 0 0zm-2.16-4.248c0 .144.097.265.288.36 0-.144-.095-.264-.288-.36zm0-.792c.385.288.601.576.648.864-.288-.192-.504-.48-.648-.864zm-1.872-.864c-.096-.288-.216-.432-.36-.432.144.24.265.385.36.432zm-.432-.792c-.183 0-.044-.334-.288-.216-.085.174.184.428.288.216-.047 0-.047.097 0 0zm-.864-.648c.234-.076.161-.121-.072-.144.024.048.049.096.072.144zm-.144-.432c-.119-.041-.215-.113-.288-.216-.085.175.184.428.288.216-.047 0-.047.096 0 0zM60.036 81.511l-.072-.072c.11.127.182.234.252.396.153.361.379.328.608.597.345.405.443.967.78 1.392.976 1.229 2.166 2.269 3.238 3.41 1.14 1.213 2.399 2.643 2.945 4.245.28.822.311 1.703.06 2.536-.203.675-1.182.451-1.538.924-.057.076.202.252-.009.252-.276.184-.596.269-.882.432-.566.324-1.767-.23-2.385-.432-1.139-.369-2.254-.888-3.328-1.417-1.813-.895-3.44-2.227-5.042-3.446-1.064-.81-1.796-1.438-2.43-2.662-.611-1.18-.726-2.145-.275-3.396.863-2.399 2.742-3.167 4.981-1.822 0-1.116-1.084-2.24.324-2.966.603-.312 1.369-.394 2.036-.33.417.041 1.201.587 1.469.481 1.084-.433 2.279.399 3.394.295.379-.036.35-.02.269-.449-.091-.488-.197-.973-.318-1.454-.198-.784-.434-1.564-.735-2.315-1.827-4.553-6.005-8.092-9.391-11.478 3.444.431 5.456 3.624 7.547 6.03 1.405 1.618 2.434 3.636 3.397 5.562.16-.156-.144-.545-.144-.72.161 0 .145.36.36.36-1.005-2.762-3.379-4.714-4.608-7.344-.207 0 0 .381 0 .432-.183-.114-.523-.376-.144-.504-.851-.377-1.402-1.108-1.584-2.016 3.136 2.574 5.494 5.995 7.377 9.557.521.984 1.3 2.037 1.083 3.187-.184.988-.33 1.647-1.176 2.301-.939.725-2.1.563-3.241.565-.939 0-1.884-.019-2.818-.131zm5.544 12.456c-.284-.191-.237.36-.144.36l.144-.36c-.144-.097 0 .047 0 0zm-1.44-.432c.48.288.745.407.792.36-.384-.241-.648-.36-.792-.36zm.864-.577c-1.67-3.495-4.764-6.119-7.344-8.928-.524.659-2.14.36-2.88.36 1.336 4.672 6.292 6.582 10.224 8.568-.527-1.104-.191-.096 0 0zM59.1 83.743c-.066.136.103.325.243.297.022-.004-.171-.349-.171-.441-.086-.059-.182-.083-.288-.072 0 .143.072.216.216.216-.047.096-.144 0 0 0zm-.432-.432c.188-.092-.077-.396-.188-.396-.207 0 .009.486.188.396.097-.048-.095.048 0 0zm6.624-6.913c-.011-.025-.181-.504-.288-.504 0 .205-.044.616.288.504-.144-.335-.144.049 0 0zm.288-.144c-.24-.479-.383-.72-.432-.72.097.385.241.625.432.72zm-2.592-2.015c-.101.206.034.484.216.576 0-.224-.206-.335-.216-.576.236.118.398.58.504.792l-.252-.126c-.087.043.589.515.324.846.448.167.678.189.407-.325-.332-.631-.678-1.254-1.041-1.867-.622-1.053-1.292-2.079-2.019-3.063-1.347-1.822-2.896-3.508-4.691-4.897 2.393 2.736 4.974 5.453 6.768 8.64-.047.096-.432-.768 0 0zm1.512.287c.19 0 .155.288.288.288-.155.157-.272-.241-.288-.288.097 0 .097.288 0 0zm-6.192-8.927c.411-.135.206.301.072.432-.079-.134-.103-.278-.072-.432.144-.048-.047.096 0 0zm-.648-.144c.177-.263.455.1.36.288-.151 0-.166-.288-.36-.288.097-.144.097 0 0 0zm-1.512.071c.144-.144.048-.263-.288-.36.144.241.241.36.288.36z"/><path d="M16.62 49.832c1.11.441 2.694.111 3.528 1.15 1.256.082 2.499.366 3.712.689 2.47.657 4.866 1.689 7.376 2.191.173-1.385.144-2.801.115-4.192-.032-1.569.144-3.105.187-4.675.099-3.578.011-7.442 1.857-10.645.332.657-.051 1.472-.223 2.13-.236.904-.4 1.826-.531 2.75-.336 2.386-.425 4.792-.507 7.196-.064 1.903-.128 3.809-.259 5.709-.033.48-.064.963-.136 1.438.099.394.405.634.792.72.395 0 .143-.718.432-.864-.055-.021-.576-.171-.576-.288.337 0 .448-.498.416-.751-.025-.177-.116-.311-.272-.4.116-.289.192-.596.192-.908 0-.374-.121-.734-.121-1.108.024-.047.901-.576.36-.576 0-.01.122-.125.144-.143-.102-.312-.316.27-.368.008.036-.108.11-.183.224-.225 0-.208-.381 0-.432 0 .51-.445.943-3.455.504-3.455.208-.312-.026-.668.144-1.008-.117-.12-.311.432-.504.432.103-.204-.066-.865.216-.865-.042 0 .069.209.072.217.397-.554.287-1.295.272-1.931-.015-.617.401-1.406-.272-1.741 0-.21.633.021.504-.359 0-.072-.371.07-.432.07.125-.1.652-.607.864-.504 0-.239-.245-.287-.432-.287.363-.359.009-.863-.36-.863.538-.715.055-2.028.432-2.881.229.777.243 1.602 0 2.377.301.292.999.77.144.936.364.184.213.711.36 1.008.073.146.442.085.279.315-.094.133-.423.039-.423.261.406 0 .238.474.36.719-.283 0-.095-.432-.359-.255-.176.116.035.389.215.327 0 .317-.575.364-.096.761.388.321.15.939.105 1.438-.113 1.246-.172 2.498-.2 3.75-.03 1.353-.022 2.706.01 4.059.018.749.043 1.497.075 2.245.009.211-.075.73.12.873.214.157.57.126.735.352.181.246.91.205 1.263.281.651.14 1.288.344 1.913.571 1.058.385 2.167.617 3.218 1 2.471.901 4.941 1.804 7.411 2.708 1.848.677 3.608 1.41 5.353 2.33 2.385 1.258 4.79 2.746 7.506 3.146.621.092 1.265.041 1.893.104.535.054 1.052.222 1.586.198 1.136-.052 2.336-.1 3.453.162 2.411-.048 4.979-.228 7.223-1.19.83-.355 1.626-.846 2.209-1.545-.365 2.799-2.939 4.061-5.412 4.607-2.238.496-4.815.734-7.116.504.056-.094.134-.154.234-.18.047-.095-1.507-.092-1.747-.252.172.341.601.36.936.36-1.081 0-2.386.066-3.405-.372-.78-.336-2.546.012-3.219.516-1.521-1.536-4.26-1.422-6.292-1.801-5.708-1.064-11.354-2.47-16.964-3.959-.325 2.12.964 4.217.819 6.344-.079 1.156-.659 1.466-1.791 1.396-1.137-.071-1.978-.692-1.692-1.908-.533-2.14-.495-4.383-.817-6.557-.084-.569-1.564-.755-2.088-.914-1.357-.409-2.718-.809-4.079-1.206-4.239-1.235-8.552-2.422-12.724-3.866-1.157-.4-2.261-1.035-3.263-1.733-.512-.357-.997-.756-1.426-1.21-.446-.472-.393-.835-.139-1.428.455-1.062 1.542-1.533 2.613-1.732.719-.134 1.458-.135 2.178-.007.373.066.74.166 1.097.293.227-.226.563-.254.864-.217 0-.157-.266-.126-.36-.143.79-.396 1.513.593 2.304.432.009-.017-.072.391-.072.215.099.021.262.022.36 0-.074-.047-.041-.087-.07-.144zm54.432 17.856h.216c0 .144-.072.216-.216.216v-.216zm-4.968-.073c-.073-.001-.432-.041-.432.072.084.028.432.15.432-.072zm1.44-.072c-.161 0-.267-.191-.36 0-.017 0 .36.272.36 0-.048 0 0 .047 0 0zm.72-.072c.007 0-.432-.022-.432.072.119.12.432.19.432-.072-.288 0 0 .096 0 0zm-4.536.144c0-.241-.119-.36-.36-.36 0 .24.121.36.36.36zm2.952-.144c-.15 0-.496-.087-.576.072.15 0 .475.134.576-.072-.096 0-.047.096 0 0zm-4.176 0c-.132-.053-.367-.122-.432.072.031 0 .432.044.432-.072-.239-.096 0 .048 0 0zm6.48-.432c-.258 0-1.156-.214-1.296.072.205 0 1.296.262 1.296-.072-.096 0 0 .144 0 0zm-2.448-.072c.042 0-.59-.033-.504.144.181-.004.349-.051.504-.144-.383 0-.047.048 0 0zm1.008.072c-.247-.071-.549-.123-.792 0 .158.154.618.085.792 0-.336-.097-.097.047 0 0zm-4.104-.072c.19-.284-.36-.237-.36-.144.127.031.247.079.36.144.097-.144-.047 0 0 0zm-15.336-2.088c.176.064.208.105.417.168.156.047.15.336.16.336 0-.579.925-.001 1.184.081.526.167 1.068.315 1.62.36.396.033.604.073.978.164.582.142 1.107.51 1.69.187-.087.058-.111.13-.072.216.292.286.169-.216.288-.216.289 0 .36.432.648.432.012-.094-.051-.288.144-.288 0 .305.347.417.432.072.186.265.546.647.792.216-.322.106-.856-.358-1.156-.409-.757-.129-1.513-.269-2.268-.415-1.413-.273-2.819-.581-4.24-.812-2.146-.349-4.242-1.445-6.448-1.317.59.297 1.297.285 1.915.504.3.106 1.105.435 1.396.216 0 .318.617.141 1.027.281.267.093 1.532.78 1.493.224zm5.904.648c-.575 0-.859-.433-1.44-.144.472.05.965.144 1.44.144zm-1.728-.288c-.501 0-.988-.549-1.512-.288.55 0 .933.435 1.512.288-.047 0-.191.049 0 0zm-5.256-1.08c.275.224.921.136 1.182.315.412.284.975.12 1.41.333-.327-.433-1.155-.36-1.632-.487-.358-.095-.789-.047-1.056-.287-.3-.27-.853-.159-1.2-.09l1.296.216zm-1.872-.432l-.432-.216c-.127.26.306.216.432.216zm-.792-.216c-.223-.089-.69-.307-.936-.144.269 0 .695.388.936.144-.479-.191-.095.097 0 0zm-4.896-.719c.74.482 1.783 1.017 2.664.576-2.413-.753-4.916-1.178-7.344-1.872-.103.502 1.063.548 1.438.646 1.068.279 2.135.577 3.242.65 1.105.719-.72-.048 0 0zm3.456.287c-.191 0-.62-.298-.72 0h.72zm-.792-.287c-.313 0-.916-.425-1.152-.072.14.037 1.062.346 1.152.072-.095 0-.047.143 0 0zm-7.632-3.457c2.336.711 4.736 1.205 7.105 1.789.537.132 6.112 1.91 6.287 1.379-4.446-1.708-8.908-3.427-13.464-4.824-.092.564.072 1.097.072 1.656 1.105.337 0-.144 0 0zm6.264 3.168c-.116-.232-.934-.288-1.224-.288.197.461.838.371 1.224.288zm-2.16-.432v-.144c-.126-.009-.223.039-.288.144.096 0 .192.003.288 0zm-.792-.288c-.673 0-1.277-.618-1.944-.288.573 0 1.419.685 1.944.288-.191 0-.191.144 0 0zm2.376-4.032c0-.013-.401-.186-.432-.216 0 .407-.845-.19-1.116-.27-.137-.04-.687-.025-.707-.086-.241-.721-1.329-.373-1.921-.868-.118.358-.779.267-.864-.072h.144c-.697-.697-1.507.537-.704.687.951.177 1.848.545 2.747.891.805.311 1.719.452 2.479.835.979.495 2.026.863 3.11 1.043-.084.054-.134.16-.216.216.248.124.762-.172.936 0 0 .321-.493.205.256.377.471.108.93.264 1.38.439.89.348 1.753.823 2.685 1.055-.096-.192-.096-.384 0-.576-.214-.066-.426-.14-.636-.218-.582-.215-1.153-.458-1.72-.708-.941-.416-1.874-.852-2.829-1.234 0-.226.36.051.36-.144-.123.017-.195-.031-.216-.144-.251 0-.335.216-.576.216.106-.156.106-.299 0-.432-.23.185-.978.185-.576-.216-.307-.204-.488.216-.792.216 0-.15.123-.162.216-.216-.207-.207-.425.151-.576 0 .036-.141.108-.261.216-.36-.24.001-.408-.215-.648-.215 0-.047.097 0 0 0zm-4.392 3.672c0-.264-.795-.565-.936-.288.28.094.637.288.936.288 0-.095-.047 0 0 0zm-9.432-2.232c1.639.498 3.336 1.126 5.04 1.368-1.319-.481-2.663-.965-4.042-1.245-.461-.093-.895-.078-1.312-.291-.479-.245-1.073-.542-1.63-.48.415.415 1.413.516 1.944.648 2.689.817-1.152-.288 0 0zm5.04.864c-1.16-.574-2.588-.838-3.816-1.224-.026.458 3.217 1.158 3.816 1.224-.095-.047-.432-.047 0 0zm12.24-.864c-.096-.096-.167-.096-.216 0h.216zm-18.288-.864c.212.336 1.645.514 2.088.576-.58-.464-1.367-.576-2.088-.576zm7.056-.72c-.394 0-.313.889-.072 1.008 0-.327.463-.309.36-.72-.142-.009-.273.018-.396.081.559.136.314-1.367-.18-.873.441 0-.025.387-.144.504.151.152.309-.248.432 0-.096 0-.047-.095 0 0zm-8.064.936c0-.268-.434-.285-.576-.144.166 0 .452.02.576.144 0-.095-.047-.047 0 0zm-9.504-5.112c.362.182.316.653.864.432.25.088.975.845 1.296.36-.217 0-1.512-.279-1.512-.504 5.312 1.449 10.524 3.245 15.84 4.68.082-.407.038-.822.016-1.232-.022-.428.054-.476-.358-.586-.667-.179-1.33-.372-1.992-.568-2.017-.598-4.017-1.249-6.031-1.856-4.066-1.226-8.19-2.308-12.443-2.598 1.306.872 2.83 1.414 4.32 1.872.193.097-1.872-.576 0 0zm15.336 4.752c-.155-.104-.299-.104-.432 0 .142 0 .332.206.432 0-.239-.095-.047.097 0 0zm-6.552 0c-.354 0-.663-.477-.936-.072.21-.069.834.284.936.072-.047 0-.047.097 0 0zm1.44-.072c-.177-.053-.685-.249-.864-.072.251 0 .632.19.864.072-.479-.144-.095.049 0 0zm-2.448-.072c-.189-.264-.47-.448-.792-.288.273 0 .539.206.792.288-.24-.335-.144-.047 0 0zm6.552-.072c-.092-.112-.212-.184-.36-.216-.082.249.219.216.36.216 0-.047-.047 0 0 0zm-5.4-.216c-.075 0-.315-.16-.216.144.022-.027.216-.196.216-.144-.047 0 0 .049 0 0zm16.416 0c-.047.048-.096.097-.144.144 0-.095.048-.144.144-.144zm-12.168-.072c0-.19-.221-.216-.36-.216-.113.231.36.068.36.216zm-6.696-.072c-.154-.145-.712-.288-1.008-.288.332.112.669.204 1.008.288zm1.368 0c.03-.011.332.044.144-.144-.229.005-.277.053-.144.144zm-.72-.288c.119-.235-.229-.216-.36-.216-.112.231.36.067.36.216.049-.095 0-.047 0 0zm-1.8-.144c-.124 0-.36-.303-.36 0 .113 0 .252.028.36 0zm-.504-.071c-.028-.022-.33-.216-.432-.216.061.18.269.216.432.216zm6.264-.217c-.038.013-.288.14-.288.144.157.091.254.043.288-.144zm-5.256-.072c-.065 0-.671-.289-.576 0 .138 0 .576.314.576 0-.047 0 0 .144 0 0zm-1.656.072c-.093-.093-.38-.216-.504-.216 0 .223.383.216.504.216-.047-.047-.335 0 0 0zm-.864-.144h.216c.101-.199-.288-.27-.288-.072.089-.013.113.011.072.072zm1.584-.288c-.171.087-.576-.153-.576.144.105-.102.576.089.576-.144-.095.049 0 .049 0 0zm-.792-.143c-.012 0-.334-.17-.216.072.095.023.167-.001.216-.072-.047 0 0 .048 0 0zm13.464-.721c-.197 0-.195-.332-.432-.216 0 .241-.006.524.081.756.048.128.482.272.711.18 0-.272-.2-.559-.36-.72-.047 0 .097.097 0 0zm.792.432l.072-.144c-.156-.035-.229.013-.216.144h.144zm-15.552-.144c0 .048.072.072.216.072 0-.047-.072-.072-.216-.072zm13.464-.936c-.388-.258-.509.179-.882-.009-.207-.104-.411-.206-.63-.279-.46-.151-.401-.01-.611-.432-.098-.196-.17-.145-.361-.145-.279 0-.216.216-.324.216-.204-.101-.466-.136-.684-.18-.193-.031-.375-.095-.543-.192-.19-.096-.189-.164.003-.204-.333-.167-.772-.477-1.152-.288.185.185.586.017.72.288-.352.118-.992-.238-1.296-.36l.288-.144c-.953-.353-1.941-.718-2.952-.864.595.446 2.027.31 2.376 1.008-2.148-.536-4.252-1.24-6.387-1.826-1.199-.329-2.402-.643-3.624-.876-.691-.133-1.386-.241-2.085-.321 0-.134-.278.039-.324.045-.206.026-.221-.262-.396-.262-.067.17-.193.312-.36.145.532.212 1.104.332 1.665.44.403.077.809.145 1.216.204.234.035.469.067.704.099.619.081.304.024.304.409.316 0 .36-.241.642-.004.2.168.448.278.691.367.554.202 1.207.348 1.762.069.218.218-.152.456.264.543.208.043.416.09.623.139.489.115.975.242 1.458.375 1.265.346 2.52.731 3.77 1.13 2.111.674 4.236 1.41 6.414 1.845.079-.313-.317-.677-.504-.864.02 0 .152-.068.215-.072zm-10.008.577c-.065 0-.36-.204-.36 0 .12 0 .24.003.36 0zm-1.944-.577c-.099-.049-.568-.31-.648-.072.164 0 .507.216.648.072-.384-.191-.047.049 0 0zm-.864-.288c-.107 0-.576-.295-.576 0 .149 0 .576.298.576 0-.047 0 0 .144 0 0zm-.72-.072c.101-.3-.432-.278-.432-.072.152-.023.296.001.432.072.048-.144-.047 0 0 0zm11.088-.072c.011-.573.462.25 0 0zm-13.536-.792c-.027.01.36-.162.36 0-.12 0-.239.001-.36 0zm8.64-.144c-.143-.661.88.256 0 0zm-2.88-1.584c0-.242-.45-.247-.36-.432-.143.147-.504-.196-.504.144.294 0 .592.198.864.288 0-.144-.144-.047 0 0zm-3.024-.144c0-.144.072-.216.216-.216.059.118-.106.216-.216.216 0-.144.049 0 0 0zm2.016-.288c-.191-.144-.288-.144-.288 0 .193.144.288.144.288 0zm-.648 0c.029-.01.332.043.144-.144-.23.006-.278.054-.144.144zm2.808 0c-.12-.195-.196-.12 0 0zm-1.584-.36c-.093 0-.288-.177-.288.072.117.03.212.005.288-.072-.096 0 0 .049 0 0zm-2.736-.072c-.12-.196-.195-.12 0 0zm1.008-.719c-.144-.006-.288 0-.432 0 .173.086.298.044.432 0zm-5.904-.072c.075.022.071.12.144 0h-.144zm3.528-.217c-.099-.202-.476-.198-.576 0 .22 0 .425.316.576 0-.047-.096-.047.098 0 0zm16.632-.721c-.096.145-.312.266-.648.361.097-.144.313-.263.648-.361zm-.36-1.294c.024-.12.048-.239.072-.359.167-.001.136.463-.072.359 0-.047.097.048 0 0zm-.216-1.584c.058-.229.163-.58.432-.648-.008.115-.056.212-.144.289-.185.275.326.249.144.432-.058.058-.375-.016-.432-.073.097-.385.049.048 0 0zm1.512-.29c-.242-.118-.107.217-.288.217.172.018.268-.054.288-.217-.095-.046 0 .145 0 0zm-1.368-2.519c-.122-.246.288-.115.288-.287-.004.165-.1.261-.288.287-.047-.096.241-.096 0 0zm.144-.504c.059-.086.083-.182.072-.287.133 0 .099.287.288.287 0 .206-.268-.089-.36 0zm0-.576c-.071-.049-.095-.12-.072-.215h.216c-.059.047-.144.142-.144.215-.047 0 0-.047 0 0zm-.072-.504c0-.218.346-.247.432-.072 0 .159-.353.072-.432.072 0-.096.048 0 0 0zm1.08-.863c-.12-.197-.195-.12 0 0zm0-.504c-.144 0-.216.049-.216.143.193-.001.264-.048.216-.143zm-.72-.865c0-.191.097-.238.288-.143 0 .096-.095.143-.288.143zm0-.36c0-.096.097-.145.288-.145 0 .098-.095.145-.288.145z"/><path d="M62.34 47.455c.268-.051.67.98.864 1.225.104-.563-.236-.982-.72-1.225-.035-.322-.219-.643-.366-.925-.588-1.128-1.243-2.308-1.953-3.357-1.328-1.966-2.568-4.044-3.802-6.085.945 0 .933 1.29 1.517 1.914.376.402.657.581.914 1.085.302.593.632 1.172.981 1.739.69 1.121 1.413 2.223 2.132 3.325.375.574.747 1.149 1.115 1.729.097.152.541 1.08.685 1.08 0-.354-.635-1.094-.833-1.446-.245-.434-.49-.867-.741-1.298-.272-.469-.546-.934-.821-1.399-.633-1.072-1.346-2.094-2.036-3.129-.219-.328-.439-.656-.651-.99-.131-.206-.016-.146-.101-.422-.075-.246-.36-.317-.36-.604.229-.113.276.26.504.144 0 .485.131.488.396.756.094.094.618.706.468.108.123.113.171.258.144.432.279-.055.53.099.72.288 0 .346-.504.53-.504.072-.391.651 1.152 1.075 1.152 1.728.586-.635.596.385.216.288 0 .181.337.047.216.288.255 0 .042-.392.36-.288.192.288-.144.433-.144.721.27.09.205-.145.432-.145.096.192-.119.219-.162.369-.12.421.354-.081.306-.081.871.953 1.675 1.997 2.232 3.168 0 .039.328.077.389.312.06.225.221.386.432.475.534.228.836.877 1.119 1.386 1.338 2.409 1.9 5.558.525 8.079-.525.963-1.383 1.666-2.395 2.072-1.15.462-2.359.253-3.552.047-1.094-.189-2.146-.621-3.205-.951-1.373-.428-2.79-.869-4.036-1.605-.545-.322-1.043-.722-1.472-1.189-.453-.495-.438-.813-.157-1.418.221-.476 1.923-2.023 2.135-1.174.105.421-.043.389.396.639.328.187.659.367.994.541.646.335 1.305.647 1.976.93 1.364.576 2.779 1.033 4.229 1.332 1.075.222 1.934.58 3.065.439.534-.066.417-.542.399-1.021-.019-.532-.104-1.062-.224-1.58-.265-1.142-.698-2.243-1.187-3.307-.302-.657-.63-1.302-.974-1.938-.453-.836-.179.103-.547-.269-.041-.215-.177-.643-.07-.865zm-21.816 1.801c.946-.532 2.138-.545 3.04.096.338.24.596.572.757.954.2.473-.297 1.176-.584 1.566-.218.296-.489.563-.826.72-.493.23-.65-.212-.994-.548-.818-.8-1.501-1.572-1.393-2.788.768-.433-.047.528 0 0zm23.472-.721c0-.13-.024-.489-.288-.359.023.174.119.294.288.359 0-.143-.191-.096 0 0zm-2.16-1.223c-.021-.088 0-.197 0-.288.082 0 .288.2.288 0 .157.156-.239.271-.288.288zm-5.472-10.441c0-.25-.111-.346-.144-.575-.144 0-.216.071-.216.216-.264-.267-.476-.623-.864-.72.767 1.686 1.824 3.236 2.836 4.779.529.808 1.045 1.624 1.523 2.462.201.353.395.709.574 1.072.138.279.231.788.539.326.193.672.7 1.18 1.053 1.766.129.214.247.441.315.683-.34 0-.589-.56-.82-.892-1.028-1.474-2.031-2.965-2.995-4.48-1.451-2.281-2.838-4.622-3.961-7.084.224 0 .208.576.432.576.146 0-.134-.448-.072-.576.78.777 1.805 1.385 2.088 2.52-.085-.07-.181-.094-.288-.073 0-.239.049-.047 0 0zm4.248 7.561c0-.047.024-.072.072-.072 0 .048-.023.072-.072.072zm.072-.073c0-.047.025-.072.072-.072 0 .049-.024.072-.072.072zm-.072-2.952c.191-.474.734.205.504.433-.17 0-.348-.354-.504-.433.097-.239.097.049 0 0zm-.072-.216c-.191-.096-.191-.239 0-.432.097.049.097.193 0 .432zm-1.512-1.656c-.043-.222.071-.276.288-.216 0 .378-.11.216-.288.216zm-.864-.863c-.047 0-.072-.072-.072-.217.049.049.072.121.072.217zm-.072-.217c-.335-.047-.504-.359-.504-.936.241.193.409.504.504.936zm-.792-1.367c.048 0 .12.12.216.359-.144 0-.216-.119-.216-.359zm-1.08-.576c0 .229.121.354.144.576-.193-.097-.216-.288-.36-.433.073-.048.144-.095.216-.143 0 .192-.047 0 0 0zm-1.08-.792c0-.24-.072-.36-.216-.36 0 .241.072.36.216.36z"/><path d="M57.588 27.801c-.557-2.942-1.462-5.813-2.626-8.571-.307-.727-.632-1.446-.974-2.157 0-.661-.021-.753.576-.882.329-.07.489-.34.693-.004.151.248.305.495.459.742.421.674.837 1.356 1.152 2.088-.159.079-.327.103-.504.072.291.166.333.361 0 .504.362.725.988 0 .36 0 .382-.508.885.474.829.559-.091.136-.388.292-.054.458.024.013.772-.005.594.172-.071.069-.504.135-.504-.037.13.389.543.58.72.937.145.29-.569.504.216.504.127.254-.36.117-.36.288 0 .174.396.469.072.576.11.22.3-.145.432-.145-.147.303.059.634-.144.937.336 0 .096-.433.432-.433 0 .331.122.722-.36.576.044.262.072.526.072.792.25.051.23.203.072.36.141.14.517-.338.599.013.084.362.128.737.18 1.105.125.889.198 2.186.877 2.866.231.23.541.336.864.336.299.213.605.416.912.619.84.555 1.694 1.09 2.518 1.67 1.594 1.124 2.598 3.29 1.563 5.088-.984 1.71-3.159 2.321-5.018 2.275-1.908-.047-4.042-.73-5.349-2.184-.261-.289-.617-.223-.992-.156-.392.069-.86-.063-1.24-.178-.798-.241-1.504-.712-1.972-1.409-1.168-1.743-.89-4.032.136-5.768 1.248-2.113 3.576-2.823 5.769-1.613-.671-3.552-1.391-.768 0 0zm.936 7.992c.772.383 1.594.75 2.417 1.01.59.188 3.83.844 3.572-.333-.245-1.118-1.002-2.197-1.92-2.873-.709-.52-1.735-.865-2.34-1.477-.21 1.326-1.007 2.572-1.729 3.673.097.048 1.008-1.536 0 0zm-5.976-5.04c.747.997 1.146 2.574 2.471 2.975.266.081.548.086.821.044.493-.076.574.28.96.563.764.56.967.103 1.173-.662.183-.678.221-1.389.182-2.088-.027-.479.038-.662-.415-.832-.351-.132-.708-.249-1.053-.396-1.268-.547-3.185-.872-4.139.396.144.192.144-.191 0 0zm6.912-3.168c.001-.008-.167.458.072.216l-.072-.216zm-.288-1.152v.432c.241-.24.241-.384 0-.432zm-.72-.073c-.072.145-.144.288-.216.433.345.086.522-.433.216-.433zm-.216-.792c.07-.108.111-.21.072-.359-.286 0-.367.355-.072.359zm0 0c0-.047.024-.071.072-.071 0 .048-.023.071-.072.071zm-.36-.431c.583-.097.462-.979.144-1.296-.352.35-.004.881-.144 1.296.288-.048.049-.145 0 0zm-.216-1.8c-.229-.699.057-1.471-.288-2.16-.059.393-.118.784-.176 1.177-.02.128.304.983.464.983-.047-.145-.096 0 0 0zm-.504-2.088v-.288c-.161.021-.233.117-.216.288h.216zm.072-.505c0-.37-.36-.466-.36-.071.118.034.238.057.36.071 0-.239-.095 0 0 0zm-.288-.504c-.166.085-.247-.144-.432-.144-.081.411.432.476.432.144-.095.049 0 .145 0 0z"/><path d="M50.532 8.865c.253-.126.413-.118.424-.397.02-.464.237-.923.439-1.33.072.049.096.121.072.216.633-.634 1.624-1.468 2.592-1.08-.016 0-.095-.48 0-.576.271 0 .431.24.72.145-.018.173.006.341.072.504.089-.176.689-.177.504-.36.447-.146.43.36.792.36-.071-.137-.095-.28-.072-.432.57.57 1.533.435 2.16.936.081-.103.104-.223.072-.36 1.584.634 3.29.515 4.83-.188.824-.376.499.284.499.836-.482.604-1.102 1.092-1.824 1.376-2.971 1.17-6.281-.468-9.336-.008.412.658 1.092 1.115 1.688 1.589.639.507 1.081 1.044 1.804 1.42.819.426 1.619.893 2.376 1.422.633.441 1.182 1 1.85 1.386 1.342.774 2.904 1.351 3.971 2.516.573.625 1.038 1.309 1.167 2.164.109.72-.689 1.313-1.296 1.544-1.467.559-3.483.232-4.791-.593-1.081-.18-2.144-.598-3.172-.96-.842-.296-1.68-.605-2.515-.92-.548-.206-.34-.587-.255-1.106.067-.413.166-.83.345-1.21.303-.641.538-.742 1.17-.474.778.331 1.513.792 2.34.998-.507-.763-1.474-1.085-2.116-1.712-.525-.512-1.109-.877-1.736-1.275-1.599-1.019-3.205-2.274-2.774-4.431zm6.84 5.832c-.057-.465-.297-.17-.432.072.134-.079.277-.103.432-.072-.047-.384-.096-.047 0 0zm-5.76-4.752c.328.489 1.17.587 1.296 1.225-.443 0-.498-.827-1.152-.504.167 0-.052.254 0 .359.243.108.425.314.558.54.135.229.228.481.3.735.206.724.109.093.438.093 0 .31.623.847.864 1.008-.041-.123-.242-.64 0-.72.354 0 .144.687.144.936.235 0 .541-.108.432.217.36.12.28-.433.576-.433.116.231-.141.721.432.721.209-.412-.333-.294-.216-.648.151.082.308.153.468.216.25.17-.036.199-.036.396 0 .274.576.001.576.107-.063.104-.205.364 0 .433.19-.564.426-.072.72-.072 0-.668-.936-.657-1.166-1.195-.06-.148-.079-.302-.058-.461-.168-.045-.296-.141-.384-.287-.123-.246-.414-.293-.696-.577-.333-.333-.262-.443-.713-.642-.343-.151-.654-.372-.94-.611-.485-.404-.967-.986-1.586-1.194-.011.143.037.264.143.358h-.216c.045.091-.043.433.144.433.103-.129.127-.273.072-.433.097.145.049.193 0 0zm2.88 2.952c.192.097.288.241.288.432-.335 0-.432-.143-.288-.432zm.504.073c0-.48.648.005.648.288-.275 0-.392-.288-.648-.288 0-.288.097 0 0 0zm-1.656-.216c.657.131.221-.792-.288-.792 0 .261.197.359.432.359-.106.124-.154.268-.144.433.241.048-.047-.096 0 0zm1.512 0c.067-.404.252-.085 0 0zm-1.08-.864c.238-.077.67.269.432.504 0-.216-.432-.245-.432-.504.144-.047 0 .096 0 0zm-.72-.72c.122.244.388.389.576.575-.29-.071-.576-.241-.576-.575.049.097 0 .288 0 0zm-1.728-.721v-.216c-.144 0-.216.072-.216.216h.216zm8.208-2.303c0-.191-.144-.335-.432-.432 0 .336.144.48.432.432zm.504 0c0-.228-.36-.313-.36-.072.12.024.24.047.36.072 0-.144-.047 0 0 0zm-1.8-.289c.115-.228-.278-.113-.36-.072.107.08.227.105.36.072.049-.095-.095.049 0 0zm.504 0c.029-.011.333.043.144-.144-.23.006-.278.054-.144.144z"/></svg>