<svg width="40" height="54" viewBox="0 0 40 54" fill="none" xmlns="http://www.w3.org/2000/svg">
<path d="M12.2863 0L0 12.3762V54H40V0H12.2863ZM11.7143 3.35716V11.8H3.33278L11.7143 3.35716ZM38.0476 52.0333H1.95238V13.7667H13.6667V1.96667H38.0476C38.0476 21.5189 38.0476 32.4811 38.0476 52.0333Z" fill="#191919"/>
<path d="M15.5638 20.3608L12.7828 23.1428L10.0018 20.3608L8.61133 21.7513L11.3923 24.5333L8.61133 27.3152L10.0018 28.7057L12.7828 25.9238L15.5638 28.7057L16.9543 27.3152L14.1733 24.5333L16.9543 21.7513L15.5638 20.3608Z" fill="#191919"/>
<path d="M24.7518 28.7057L27.5328 25.9238L30.3138 28.7057L31.7043 27.3152L28.9233 24.5333L31.7043 21.7513L30.3138 20.3608L27.5328 23.1428L24.7518 20.3608L23.3613 21.7513L26.1423 24.5333L23.3613 27.3152L24.7518 28.7057Z" fill="#191919"/>
<path d="M12.0879 37.6047L13.4784 38.9952L14.3921 38.0815C17.8506 34.6322 23.449 34.6322 26.9075 38.0815L27.8212 38.9952L29.2117 37.6047L28.298 36.691C24.0713 32.4739 17.2283 32.4739 13.0016 36.691L12.0879 37.6047Z" fill="#191919"/>
</svg>
