<svg width="28" height="203" viewBox="0 0 28 203" fill="none" xmlns="http://www.w3.org/2000/svg">
<path d="M0.792969 202.455L0.792968 183.014L8.7207 183.014L8.7207 183.664C7.58398 183.723 6.4707 183.98 5.38086 184.437C4.30273 184.883 3.37695 185.645 2.60351 186.723C1.83008 187.789 1.44336 189.195 1.44336 190.941L1.44336 193.631L12.6758 193.631C12.6758 192.693 12.4355 191.879 11.9551 191.187C11.4863 190.484 10.8652 189.957 10.0918 189.605C9.31836 189.242 8.49805 189.061 7.63086 189.061L7.63086 188.41L18.4414 188.41L18.4414 189.061C17.4922 189.061 16.6309 189.248 15.8574 189.623C15.0723 190.01 14.457 190.555 14.0117 191.258C13.5547 191.949 13.3262 192.74 13.3262 193.631L25.3496 193.631L25.3496 189.5L26 189.5L26 202.455L25.3496 202.455L25.3496 198.676L1.44336 198.676L1.44336 202.455L0.792969 202.455ZM8.14062 171.124C8.14062 169.378 8.60351 167.831 9.5293 166.483C10.4434 165.136 11.627 164.104 13.0801 163.389C14.5215 162.663 15.9687 162.3 17.4219 162.3C18.8867 162.3 20.3457 162.663 21.7988 163.389C23.2402 164.116 24.4238 165.153 25.3496 166.501C26.2637 167.837 26.7207 169.378 26.7207 171.124C26.7207 172.846 26.2637 174.382 25.3496 175.729C24.4238 177.077 23.2344 178.12 21.7812 178.858C20.3398 179.585 18.8867 179.948 17.4219 179.948C15.9687 179.948 14.5156 179.585 13.0625 178.858C11.6211 178.12 10.4434 177.083 9.5293 175.747C8.60351 174.399 8.14062 172.858 8.14062 171.124ZM26.0703 171.124C26.0703 170.022 25.625 169.196 24.7344 168.645C23.8437 168.083 22.7949 167.731 21.5879 167.591C20.3809 167.438 18.9922 167.362 17.4219 167.362C15.8633 167.362 14.4805 167.438 13.2734 167.591C12.0547 167.731 11.0059 168.083 10.127 168.645C9.23633 169.196 8.79101 170.022 8.79101 171.124C8.79101 172.225 9.23047 173.057 10.1094 173.62C10.9883 174.171 12.0371 174.522 13.2559 174.675C14.4746 174.827 15.8633 174.903 17.4219 174.903C18.9922 174.903 20.3867 174.827 21.6055 174.675C22.8125 174.522 23.8613 174.171 24.752 173.62C25.6309 173.057 26.0703 172.225 26.0703 171.124ZM26 148.089L26 159.023L25.3496 159.023L25.3496 156L9.51172 156L9.51172 159.023L8.86133 159.023L8.86133 151.464L11.0234 151.464C10.2148 151.148 9.53515 150.632 8.98437 149.918C8.42187 149.203 8.14062 148.289 8.14062 147.175C8.14062 146.062 8.45117 145.183 9.07226 144.539C9.69336 143.882 10.5371 143.554 11.6035 143.554C12.4355 143.554 13.0977 143.806 13.5898 144.31C14.082 144.814 14.3281 145.412 14.3281 146.103C14.3281 146.841 14.1113 147.48 13.6777 148.019C13.2441 148.558 12.6582 148.828 11.9199 148.828C11.0527 148.828 10.4258 148.535 10.0391 147.949C9.85156 147.609 9.6289 147.439 9.37109 147.439C9.07812 147.439 8.93164 147.679 8.93164 148.16C8.93164 148.629 9.125 149.121 9.51172 149.636C9.88672 150.152 10.5078 150.586 11.375 150.937C12.2422 151.289 13.3262 151.464 14.627 151.464L25.3496 151.464L25.3496 148.107L26 148.089ZM0.792966 141.192L0.792966 129.414C0.792965 127.879 0.968747 126.579 1.32031 125.512C1.69531 124.446 2.17578 123.614 2.76172 123.016C3.33593 122.407 3.96875 121.973 4.66015 121.715C5.33984 121.457 6.03125 121.329 6.73437 121.329C8.05859 121.329 9.125 121.727 9.93359 122.524C10.7305 123.309 11.293 124.188 11.6211 125.161C11.9375 126.133 12.1426 127.047 12.2363 127.903L12.3945 127.903C12.4297 126.684 12.6406 125.541 13.0273 124.475C13.4141 123.397 14.0703 122.489 14.9961 121.75C15.9336 121 17.1641 120.567 18.6875 120.45C19.0742 120.426 19.8125 120.409 20.9023 120.397C22.0039 120.385 22.8887 120.338 23.5566 120.256C24.2129 120.174 24.7637 119.993 25.209 119.711C25.6426 119.418 25.8594 118.985 25.8594 118.411C25.8594 118 25.6426 117.555 25.209 117.075C24.7988 116.676 24.5937 116.342 24.5937 116.073C24.5937 115.944 24.6465 115.838 24.7519 115.756C24.8574 115.674 24.9863 115.633 25.1387 115.633C25.5371 115.633 25.9004 116.043 26.2285 116.864C26.5566 117.672 26.7207 118.463 26.7207 119.237C26.7207 121.897 25.8652 123.637 24.1543 124.457C22.4434 125.278 20.6328 125.705 18.7227 125.741C16.9648 125.776 15.7285 125.858 15.0137 125.987C14.2871 126.104 13.7422 126.444 13.3789 127.006C13.0039 127.557 12.8164 128.495 12.8164 129.819L12.8164 132.368L25.3496 132.368L25.3496 128.588L26 128.588L26 141.192L25.3496 141.192L25.3496 137.412L1.44336 137.412L1.44336 141.192L0.792966 141.192ZM1.44336 132.368L12.166 132.368L12.166 130.715C12.166 128.067 10.3906 126.743 6.83984 126.743C5.3164 126.743 4.16211 126.901 3.37695 127.217C2.58007 127.522 2.05859 127.926 1.8125 128.43C1.5664 128.922 1.44336 129.514 1.44336 130.205L1.44336 132.368ZM20.9551 97.7844L20.9551 97.0637C22.5957 97.3449 23.9668 98.1066 25.0684 99.3488C26.1699 100.579 26.7207 102.161 26.7207 104.095C26.7207 105.372 26.4687 106.556 25.9648 107.646C25.4609 108.724 24.7637 109.661 23.873 110.458C22.9941 111.243 21.998 111.853 20.8848 112.286C19.7715 112.708 18.6172 112.919 17.4219 112.919C15.9453 112.919 14.4922 112.556 13.0625 111.829C11.6211 111.103 10.4434 110.071 9.52929 108.736C8.60351 107.4 8.14062 105.853 8.14062 104.095C8.14062 102.489 8.55078 101.13 9.37109 100.017C10.2148 98.9035 11.3281 98.0773 12.7109 97.5383C14.0937 96.9875 15.6172 96.7121 17.2812 96.7121L17.2812 107.874C20.1055 107.874 22.2676 107.552 23.7676 106.907C25.2559 106.251 26 105.021 26 103.216C26 102.396 25.7832 101.593 25.3496 100.808C24.9043 100.011 24.3008 99.343 23.5391 98.8039C22.7656 98.2648 21.9043 97.925 20.9551 97.7844ZM16.6309 107.839L16.6309 101.669C14.3223 101.669 12.4414 101.868 10.9883 102.267C9.52343 102.654 8.79101 103.462 8.79101 104.693C8.79101 105.466 9.27734 106.187 10.25 106.855C11.2227 107.511 13.0508 107.839 15.7344 107.839L16.6309 107.839ZM13.5723 81.5527L13.5723 82.2031C12.2246 82.4492 11.0937 83.0586 10.1797 84.0312C9.2539 85.0039 8.79101 86.0762 8.79101 87.248C8.79101 87.998 9.00195 88.6543 9.42382 89.2168C9.83398 89.7793 10.4375 90.0605 11.2344 90.0605C12.582 90.0605 13.5195 89.3867 14.0469 88.0391C14.1641 87.7461 14.3809 87.002 14.6973 85.8066C15.0137 84.5996 15.3594 83.6152 15.7344 82.8535C16.0977 82.0918 16.6602 81.4473 17.4219 80.9199C18.1836 80.3926 19.2031 80.1289 20.4805 80.1289C21.793 80.1289 22.9238 80.3984 23.873 80.9375C24.8105 81.4766 25.5195 82.1855 26 83.0645C26.4805 83.9434 26.7207 84.8809 26.7207 85.877C26.7207 86.6621 26.5156 87.5645 26.1055 88.584C26.0117 88.7949 25.918 89.0293 25.8242 89.2871C25.7187 89.5332 25.6367 89.7676 25.5781 89.9902C25.5195 90.2012 25.4902 90.4531 25.4902 90.7461C25.4902 91.625 25.9473 92.0645 26.8613 92.0645L26.8613 92.7324L19.5137 92.7324L19.5137 92.082C20.709 91.9414 21.8105 91.5547 22.8184 90.9219C23.8262 90.2773 24.623 89.498 25.209 88.584C25.7832 87.6699 26.0703 86.7559 26.0703 85.8418C26.0703 84.8574 25.7773 84.0957 25.1914 83.5566C24.5937 83.0176 23.8906 82.748 23.082 82.748C21.9922 82.748 21.2187 83.1523 20.7617 83.9609C20.3047 84.7578 19.9121 85.8066 19.584 87.1074C19.1621 88.6777 18.5527 90.0078 17.7559 91.0977C16.9473 92.1875 15.5996 92.7324 13.7129 92.7324C12.3535 92.7324 11.2578 92.4336 10.4258 91.8359C9.58203 91.2383 8.99023 90.5234 8.65039 89.6914C8.31054 88.8594 8.14062 88.0566 8.14062 87.2832C8.14062 86.5332 8.32226 85.7305 8.68554 84.875C9.0371 83.9258 9.21289 83.375 9.21289 83.2227C9.21289 82.9062 9.10156 82.6602 8.8789 82.4844C8.64453 82.2969 8.35156 82.2031 7.99999 82.2031L7.99999 81.5527L13.5723 81.5527ZM9.51171 74.6902L9.51171 77.9422L8.86132 77.9422L8.86132 74.6902L4.67773 74.6902C4.67773 73.8348 4.49023 73.0027 4.11523 72.1941C3.72851 71.3855 2.98437 70.9227 1.88281 70.8055L1.88281 70.1551L8.86132 70.1551L8.86132 66.9207L9.51171 66.9207L9.51171 70.1551L23.6621 70.1551C24.8809 70.1551 25.4902 69.7742 25.4902 69.0125C25.4902 68.5672 25.3144 68.2156 24.9629 67.9578C24.6113 67.7 24.1777 67.5711 23.6621 67.5711L23.6621 66.9207C24.4824 66.9441 25.1973 67.2312 25.8066 67.782C26.416 68.3328 26.7207 69.1648 26.7207 70.2781C26.7207 73.2195 24.8809 74.6902 21.2012 74.6902L9.51171 74.6902ZM0.792963 64.5582L0.792962 54.8375L17.3516 48.8961L0.792962 44.3961L0.792961 35.0445L1.44335 35.0445L1.44335 38.8238L25.3496 38.8238L25.3496 35.0445L26 35.0445L26 47.6305L25.3496 47.6305L25.3496 43.8687L1.88281 43.8687L27.0898 50.7418L27.0898 50.8824L1.88281 60.0582L25.3496 60.0582L25.3496 56.2437L26 56.2437L26 64.5582L25.3496 64.5582L25.3496 60.7789L1.44335 60.7789L1.44335 64.5582L0.792963 64.5582ZM8.86132 32.3129L8.86132 24.7543L25.3496 24.7543L25.3496 21.7309L26 21.7309L26 32.3129L25.3496 32.3129L25.3496 29.2895L9.51171 29.2895L9.51171 32.3129L8.86132 32.3129ZM2.77929 29.7289C2.01757 29.7289 1.3789 29.4652 0.863274 28.9379C0.33593 28.3988 0.072258 27.7602 0.0722579 27.0219C0.0722579 26.2719 0.33593 25.6332 0.863273 25.1059C1.3789 24.5902 2.01757 24.3324 2.77929 24.3324C3.50585 24.3324 4.13866 24.5902 4.67773 25.1059C5.20507 25.6215 5.46874 26.2602 5.46874 27.0219C5.46874 27.7602 5.20507 28.393 4.67773 28.9203C4.13866 29.4594 3.50585 29.7289 2.77929 29.7289ZM8.86132 1.08711L9.51171 1.08711L9.51171 4.25117L15.5234 8.3293L25.3496 2.1418L25.3496 0.120314L26 0.120314L26 10.5617L25.3496 10.5617L25.3496 7.53828L18.6875 11.7395L25.3496 16.257L25.3496 13.2336L26 13.216L26 19.5793L25.3496 19.5793L25.3496 17.0832L18.0371 12.1438L9.51171 17.5227L9.51171 19.5793L8.86132 19.5793L8.86132 10.1398L9.51171 10.1398L9.51171 12.1086L14.9082 8.71602L9.51171 5.09492L9.51171 7.97774L8.86132 7.96016L8.86132 1.08711Z" fill="white"/>
</svg>
