<svg xmlns="http://www.w3.org/2000/svg">
<path d="M0.454102 0.994141H16.6553V7.60059H16.1133C16.0645 6.65332 15.8496 5.72559 15.4688 4.81738C15.0977 3.91895 14.4629 3.14746 13.5645 2.50293C12.6758 1.8584 11.5039 1.53613 10.0488 1.53613H7.80762V10.8965C8.58887 10.8965 9.26758 10.6963 9.84375 10.2959C10.4297 9.90527 10.8691 9.3877 11.1621 8.74316C11.4648 8.09863 11.6162 7.41504 11.6162 6.69238H12.1582V15.7012H11.6162C11.6162 14.9102 11.46 14.1924 11.1475 13.5479C10.8252 12.8936 10.3711 12.3809 9.78516 12.0098C9.20898 11.6289 8.5498 11.4385 7.80762 11.4385V21.458H11.25V22H0.454102V21.458H3.60352V1.53613H0.454102V0.994141ZM25.0635 7.11719C26.5186 7.11719 27.8076 7.50293 28.9307 8.27441C30.0537 9.03613 30.9131 10.0225 31.5088 11.2334C32.1143 12.4346 32.417 13.6406 32.417 14.8516C32.417 16.0723 32.1143 17.2881 31.5088 18.499C30.9033 19.7002 30.0391 20.6865 28.916 21.458C27.8027 22.2197 26.5186 22.6006 25.0635 22.6006C23.6279 22.6006 22.3486 22.2197 21.2256 21.458C20.1025 20.6865 19.2334 19.6953 18.6182 18.4844C18.0127 17.2832 17.71 16.0723 17.71 14.8516C17.71 13.6406 18.0127 12.4297 18.6182 11.2188C19.2334 10.0176 20.0977 9.03613 21.2109 8.27441C22.334 7.50293 23.6182 7.11719 25.0635 7.11719ZM25.0635 22.0586C25.9814 22.0586 26.6699 21.6875 27.1289 20.9453C27.5977 20.2031 27.8906 19.3291 28.0078 18.3232C28.1348 17.3174 28.1982 16.1602 28.1982 14.8516C28.1982 13.5527 28.1348 12.4004 28.0078 11.3945C27.8906 10.3789 27.5977 9.50488 27.1289 8.77246C26.6699 8.03027 25.9814 7.65918 25.0635 7.65918C24.1455 7.65918 23.4521 8.02539 22.9834 8.75781C22.5244 9.49023 22.2314 10.3643 22.1045 11.3799C21.9775 12.3955 21.9141 13.5527 21.9141 14.8516C21.9141 16.1602 21.9775 17.3223 22.1045 18.3379C22.2314 19.3438 22.5244 20.2178 22.9834 20.96C23.4521 21.6924 24.1455 22.0586 25.0635 22.0586ZM42.7588 22H33.6475V21.458H36.167V8.25977H33.6475V7.71777H39.9463V9.51953C40.21 8.8457 40.6396 8.2793 41.2354 7.82031C41.8311 7.35156 42.5928 7.11719 43.5205 7.11719C44.4482 7.11719 45.1807 7.37598 45.7178 7.89355C46.2646 8.41113 46.5381 9.11426 46.5381 10.0029C46.5381 10.6963 46.3281 11.248 45.9082 11.6582C45.4883 12.0684 44.9902 12.2734 44.4141 12.2734C43.7988 12.2734 43.2666 12.0928 42.8174 11.7314C42.3682 11.3701 42.1436 10.8818 42.1436 10.2666C42.1436 9.54395 42.3877 9.02148 42.876 8.69922C43.1592 8.54297 43.3008 8.35742 43.3008 8.14258C43.3008 7.89844 43.1006 7.77637 42.7002 7.77637C42.3096 7.77637 41.8994 7.9375 41.4697 8.25977C41.04 8.57227 40.6787 9.08984 40.3857 9.8125C40.0928 10.5352 39.9463 11.4385 39.9463 12.5225V21.458H42.7441L42.7588 22ZM47.0068 0.994141H56.8213C58.1006 0.994141 59.1846 1.14062 60.0732 1.43359C60.9619 1.74609 61.6553 2.14648 62.1533 2.63477C62.6611 3.11328 63.0225 3.64063 63.2373 4.2168C63.4521 4.7832 63.5596 5.35938 63.5596 5.94531C63.5596 7.04883 63.2275 7.9375 62.5635 8.61133C61.9092 9.27539 61.1768 9.74414 60.3662 10.0176C59.5557 10.2812 58.7939 10.4521 58.0811 10.5303V10.6621C59.0967 10.6914 60.0488 10.8672 60.9375 11.1895C61.8359 11.5117 62.5928 12.0586 63.208 12.8301C63.833 13.6113 64.1943 14.6367 64.292 15.9062C64.3115 16.2285 64.3262 16.8438 64.3359 17.752C64.3457 18.6699 64.3848 19.4072 64.4531 19.9639C64.5215 20.5107 64.6729 20.9697 64.9072 21.3408C65.1514 21.7021 65.5127 21.8828 65.9912 21.8828C66.333 21.8828 66.7041 21.7021 67.1045 21.3408C67.4365 20.999 67.7148 20.8281 67.9395 20.8281C68.0469 20.8281 68.1348 20.8721 68.2031 20.96C68.2715 21.0479 68.3057 21.1553 68.3057 21.2822C68.3057 21.6143 67.9639 21.917 67.2803 22.1904C66.6064 22.4639 65.9473 22.6006 65.3027 22.6006C63.0859 22.6006 61.6357 21.8877 60.9521 20.4619C60.2686 19.0361 59.9121 17.5273 59.8828 15.9355C59.8535 14.4707 59.7852 13.4404 59.6777 12.8447C59.5801 12.2393 59.2969 11.7852 58.8281 11.4824C58.3691 11.1699 57.5879 11.0137 56.4844 11.0137H54.3604V21.458H57.5098V22H47.0068V21.458H50.1562V1.53613H47.0068V0.994141ZM54.3604 1.53613V10.4717H55.7373C57.9443 10.4717 59.0479 8.99219 59.0479 6.0332C59.0479 4.76367 58.916 3.80176 58.6523 3.14746C58.3984 2.4834 58.0615 2.04883 57.6416 1.84375C57.2314 1.63867 56.7383 1.53613 56.1621 1.53613H54.3604ZM81.6797 17.7959H82.2803C82.0459 19.1631 81.4111 20.3057 80.376 21.2236C79.3506 22.1416 78.0322 22.6006 76.4209 22.6006C75.3564 22.6006 74.3701 22.3906 73.4619 21.9707C72.5635 21.5508 71.7822 20.9697 71.1182 20.2275C70.4639 19.4951 69.9561 18.665 69.5947 17.7373C69.2432 16.8096 69.0674 15.8477 69.0674 14.8516C69.0674 13.6211 69.3701 12.4102 69.9756 11.2188C70.5811 10.0176 71.4404 9.03613 72.5537 8.27441C73.667 7.50293 74.9561 7.11719 76.4209 7.11719C77.7588 7.11719 78.8916 7.45898 79.8193 8.14258C80.7471 8.8457 81.4355 9.77344 81.8848 10.9258C82.3438 12.0781 82.5732 13.3477 82.5732 14.7344H73.2715C73.2715 17.0879 73.54 18.8896 74.0771 20.1396C74.624 21.3799 75.6494 22 77.1533 22C77.8369 22 78.5059 21.8193 79.1602 21.458C79.8242 21.0869 80.3809 20.584 80.8301 19.9492C81.2793 19.3047 81.5625 18.5869 81.6797 17.7959ZM73.3008 14.1924H78.4424C78.4424 12.2686 78.2764 10.7012 77.9443 9.49023C77.6221 8.26953 76.9482 7.65918 75.9229 7.65918C75.2783 7.65918 74.6777 8.06445 74.1211 8.875C73.5742 9.68555 73.3008 11.209 73.3008 13.4453V14.1924ZM93.7061 11.6436H93.1641C92.959 10.5205 92.4512 9.57812 91.6406 8.81641C90.8301 8.04492 89.9365 7.65918 88.96 7.65918C88.335 7.65918 87.7881 7.83496 87.3193 8.18652C86.8506 8.52832 86.6162 9.03125 86.6162 9.69531C86.6162 10.8184 87.1777 11.5996 88.3008 12.0391C88.5449 12.1367 89.165 12.3174 90.1611 12.5811C91.167 12.8447 91.9873 13.1328 92.6221 13.4453C93.2568 13.748 93.7939 14.2168 94.2334 14.8516C94.6729 15.4863 94.8926 16.3359 94.8926 17.4004C94.8926 18.4941 94.668 19.4365 94.2188 20.2275C93.7695 21.0088 93.1787 21.5996 92.4463 22C91.7139 22.4004 90.9326 22.6006 90.1025 22.6006C89.4482 22.6006 88.6963 22.4297 87.8467 22.0879C87.6709 22.0098 87.4756 21.9316 87.2607 21.8535C87.0557 21.7656 86.8604 21.6973 86.6748 21.6484C86.499 21.5996 86.2891 21.5752 86.0449 21.5752C85.3125 21.5752 84.9463 21.9561 84.9463 22.7178H84.3896V16.5947H84.9316C85.0488 17.5908 85.3711 18.5088 85.8984 19.3486C86.4355 20.1885 87.085 20.8525 87.8467 21.3408C88.6084 21.8193 89.3701 22.0586 90.1318 22.0586C90.9521 22.0586 91.5869 21.8145 92.0361 21.3262C92.4854 20.8281 92.71 20.2422 92.71 19.5684C92.71 18.6602 92.373 18.0156 91.6992 17.6348C91.0352 17.2539 90.1611 16.9268 89.0771 16.6533C87.7686 16.3018 86.6602 15.7939 85.752 15.1299C84.8438 14.4561 84.3896 13.333 84.3896 11.7607C84.3896 10.6279 84.6387 9.71484 85.1367 9.02148C85.6348 8.31836 86.2305 7.8252 86.9238 7.54199C87.6172 7.25879 88.2861 7.11719 88.9307 7.11719C89.5557 7.11719 90.2246 7.26855 90.9375 7.57129C91.7285 7.86426 92.1875 8.01074 92.3145 8.01074C92.5781 8.01074 92.7832 7.91797 92.9297 7.73242C93.0859 7.53711 93.1641 7.29297 93.1641 7H93.7061V11.6436ZM97.9248 8.25977H95.2148V7.71777H97.9248V4.23145C98.6377 4.23145 99.3311 4.0752 100.005 3.7627C100.679 3.44043 101.064 2.82031 101.162 1.90234H101.704V7.71777H104.399V8.25977H101.704V20.0518C101.704 21.0674 102.021 21.5752 102.656 21.5752C103.027 21.5752 103.32 21.4287 103.535 21.1357C103.75 20.8428 103.857 20.4814 103.857 20.0518H104.399C104.38 20.7354 104.141 21.3311 103.682 21.8389C103.223 22.3467 102.529 22.6006 101.602 22.6006C99.1504 22.6006 97.9248 21.0674 97.9248 18.001V8.25977ZM104.868 0.994141H112.969L117.92 14.793L121.67 0.994141H129.463V1.53613H126.313V21.458H129.463V22H118.975V21.458H122.109V1.90234L116.382 22.9082H116.265L108.618 1.90234V21.458H111.797V22H104.868V21.458H108.018V1.53613H104.868V0.994141ZM130.239 7.71777H136.538V21.458H139.058V22H130.239V21.458H132.759V8.25977H130.239V7.71777ZM132.393 2.64941C132.393 2.01465 132.612 1.48242 133.052 1.05273C133.501 0.613281 134.033 0.393555 134.648 0.393555C135.273 0.393555 135.806 0.613281 136.245 1.05273C136.675 1.48242 136.89 2.01465 136.89 2.64941C136.89 3.25488 136.675 3.78223 136.245 4.23145C135.815 4.6709 135.283 4.89062 134.648 4.89062C134.033 4.89062 133.506 4.6709 133.066 4.23145C132.617 3.78223 132.393 3.25488 132.393 2.64941ZM154.761 7.71777V8.25977H152.124L148.726 13.2695L153.882 21.458H155.566V22H146.865V21.458H149.385L145.884 15.9062L142.119 21.458H144.639L144.653 22H139.351V21.458H141.431L145.547 15.3643L141.064 8.25977H139.351V7.71777H147.217V8.25977H145.576L148.403 12.7568L151.421 8.25977H149.019L149.033 7.71777H154.761Z" fill="white"/>
</svg>
