<svg width="13" height="13" viewBox="0 0 13 13" fill="none" xmlns="http://www.w3.org/2000/svg">
<path d="M0.213564 11.7612L2.66833 9.31367C1.87632 8.30465 1.44657 7.05865 1.44816 5.77592C1.44816 4.63355 1.78692 3.51684 2.42158 2.56699C3.05625 1.61715 3.95832 0.876833 5.01373 0.439668C6.06914 0.0025026 7.23049 -0.11188 8.35091 0.110985C9.47132 0.33385 10.5005 0.883953 11.3083 1.69173C12.116 2.49951 12.6661 3.52868 12.889 4.64909C13.1119 5.76951 12.9975 6.93086 12.5603 7.98627C12.1232 9.04168 11.3829 9.94375 10.433 10.5784C9.48316 11.2131 8.36645 11.5518 7.22408 11.5518C5.94135 11.5534 4.69535 11.1237 3.68633 10.3317L1.23879 12.7864C1.17167 12.8541 1.09182 12.9078 1.00384 12.9445C0.915854 12.9811 0.821486 13 0.726175 13C0.630864 13 0.536496 12.9811 0.448515 12.9445C0.360534 12.9078 0.280682 12.8541 0.213564 12.7864C0.145893 12.7193 0.0921793 12.6395 0.0555248 12.5515C0.0188704 12.4635 0 12.3691 0 12.2738C0 12.1785 0.0188704 12.0841 0.0555248 11.9962C0.0921793 11.9082 0.145893 11.8283 0.213564 11.7612ZM11.556 5.77592C11.556 4.91914 11.302 4.08161 10.826 3.36922C10.35 2.65684 9.6734 2.1016 8.88184 1.77373C8.09028 1.44586 7.21928 1.36007 6.37896 1.52722C5.53865 1.69437 4.76677 2.10694 4.16094 2.71278C3.55511 3.31861 3.14253 4.09049 2.97538 4.9308C2.80823 5.77111 2.89402 6.64212 3.22189 7.43368C3.54977 8.22524 4.105 8.90179 4.81739 9.37779C5.52977 9.85379 6.3673 10.1079 7.22408 10.1079C8.37298 10.1079 9.47483 9.65146 10.2872 8.83906C11.0996 8.02666 11.556 6.92482 11.556 5.77592Z" fill="#C3CAD3"/>
</svg>
