<svg width="28" height="24" viewBox="0 0 28 24" fill="none" xmlns="http://www.w3.org/2000/svg">
<path d="M21.5469 16.2549C25.1051 16.2549 28 13.36 28 9.80176C28 6.42672 25.3955 3.64898 22.0909 3.37177V0.703125C22.0909 0.401141 21.846 0.15625 21.544 0.15625H1.85648C1.55444 0.15625 1.3096 0.401141 1.3096 0.703125V9.0953C1.3096 10.6055 1.50473 12.1021 1.88967 13.5573C1.44884 13.4736 0.999359 13.4302 0.547039 13.4302C0.245 13.4302 0.000164062 13.6751 0.000164062 13.9771C0.000164062 16.5393 1.34958 18.7918 3.37482 20.0625H0.546875C0.244836 20.0625 0 20.3074 0 20.6094V20.6883C0 22.3938 1.38748 23.7812 3.09291 23.7812H9.14413C9.44617 23.7812 9.69101 23.5364 9.69101 23.2344C9.69101 22.9324 9.44617 22.6875 9.14413 22.6875H3.09291C2.15162 22.6875 1.36019 22.0337 1.14904 21.1562H7.17828C7.17883 21.1562 7.17938 21.1564 7.17998 21.1564C7.18058 21.1564 7.18107 21.1562 7.18162 21.1562H17.0151H22.061C21.8498 22.0337 21.0584 22.6875 20.1171 22.6875H14.066C13.7639 22.6875 13.5191 22.9324 13.5191 23.2344C13.5191 23.5364 13.7639 23.7812 14.066 23.7812H20.1171C21.8226 23.7812 23.21 22.3938 23.21 20.6883V20.6094C23.21 20.3074 22.9652 20.0625 22.6632 20.0625H18.213C19.1615 18.8901 19.947 17.6104 20.5572 16.2549H21.5469ZM26.9062 9.80176C26.9062 12.7569 24.5021 15.1611 21.5469 15.1611H21.0052C21.165 14.7298 21.3076 14.292 21.4328 13.8486H21.5469C23.7783 13.8486 25.5938 12.0332 25.5938 9.80176C25.5938 7.75486 24.0658 6.05916 22.0909 5.79251V4.46984C24.7915 4.74327 26.9062 7.0302 26.9062 9.80176ZM22.0909 6.89971C23.4601 7.15587 24.5 8.35932 24.5 9.80176C24.5 11.3769 23.2605 12.6677 21.7056 12.7505C21.9601 11.558 22.0909 10.3324 22.0909 9.09071V6.89971ZM20.9971 2.7847H16.8033V1.25H20.9972V2.7847H20.9971ZM15.7095 1.25V2.7847H2.40335V1.25H15.7095ZM1.12077 14.551C1.88945 14.6236 2.63785 14.8415 3.32281 15.1927C3.34715 15.7044 3.42634 16.2171 3.56207 16.7238C3.86843 17.8672 4.43866 18.8945 5.22063 19.739C2.99693 18.9809 1.34805 16.9695 1.12077 14.551ZM6.97036 19.826C5.81569 19.0082 4.98936 17.8245 4.61858 16.4407C4.48153 15.9292 4.41246 15.4103 4.40918 14.8944C4.41027 14.8746 4.41044 14.8547 4.40934 14.835C4.4123 13.9753 4.59845 13.1252 4.96267 12.333C7.33704 14.0181 8.18409 17.1794 6.97036 19.826ZM8.06083 20.0625C9.43523 16.7814 8.1865 12.9004 5.02627 11.0759C4.90071 11.0034 4.75147 10.9836 4.6113 11.0212C4.4712 11.0588 4.35176 11.1504 4.27924 11.276C3.78629 12.1298 3.47998 13.056 3.36563 14.0062C3.28694 13.9727 3.20775 13.9404 3.12796 13.9097C2.64731 12.3487 2.40335 10.7305 2.40335 9.0953V3.87839H15.7095V6.84863H14.8037C14.1158 6.84863 13.5562 7.40825 13.5562 8.09622V11.0699C13.5562 11.7578 14.1158 12.3174 14.8037 12.3174H17.7774C18.4653 12.3174 19.025 11.7578 19.025 11.0699V8.09622C19.025 7.4083 18.4653 6.84863 17.7774 6.84863H16.8033V3.87839H20.9972V9.09071C20.9972 10.464 20.826 11.8161 20.4955 13.1211C20.4848 13.1515 20.4769 13.183 20.4717 13.2155C20.2741 13.9767 20.0212 14.7211 19.7165 15.4442C19.6985 15.4767 19.6838 15.5111 19.6727 15.5472C18.9689 17.186 17.9953 18.7119 16.7747 20.0624H8.06083V20.0625ZM17.7774 7.94238C17.8622 7.94238 17.9312 8.0114 17.9312 8.09622V11.0699C17.9312 11.1547 17.8622 11.2237 17.7774 11.2237H14.8037C14.7189 11.2237 14.6499 11.1547 14.6499 11.0699V8.09622C14.6499 8.0114 14.7189 7.94238 14.8037 7.94238H17.7774Z" fill="#191919"/>
</svg>
