<svg width="22" height="21" viewBox="0 0 22 21" fill="none" xmlns="http://www.w3.org/2000/svg">
<path fill-rule="evenodd" clip-rule="evenodd" d="M12 21H22V19.9286C22 14.6115 17.9626 10.2857 13 10.2857H12V8.14286H14V6H8V8.14286H10V10.2857H9C4.0374 10.2857 0 14.6115 0 19.9286V21H10H12ZM13 12.4286H9C5.47967 12.4286 2.55787 15.2274 2.0712 18.8571H19.9288C19.4421 15.2274 16.5203 12.4286 13 12.4286Z" fill="#DCD0BF"/>
<path d="M14.9507 3.12915L18.0798 5.21749e-05L19.5548 1.47511L16.4257 4.60421L14.9507 3.12915Z" fill="#DCD0BF"/>
<path d="M17.7773 6.39502H21.9501V8.48139H17.7773V6.39502Z" fill="#DCD0BF"/>
</svg>
