<svg width="33" height="27" viewBox="0 0 33 27" fill="none" xmlns="http://www.w3.org/2000/svg">
<path d="M31.2926 16.3531H29.9572C30.0239 16.0784 30.0586 15.7968 30.0586 15.5102C30.0586 13.4518 28.2986 11.7773 26.1352 11.7773C25.7232 11.7773 25.3216 11.8388 24.9409 11.9541L29.8093 5.51453C30.2999 4.86566 30.152 3.94784 29.4796 3.46858C29.1248 3.21558 28.6719 3.11882 28.2376 3.20324C27.8031 3.28759 27.4264 3.54534 27.204 3.91039L22.2893 11.9804C21.7968 11.312 20.9814 10.8741 20.0601 10.8741C19.4197 10.8741 18.8087 11.0886 18.3265 11.468C18.1936 11.281 18.0359 11.1136 17.8595 10.9675C17.8681 10.8754 17.8711 10.7813 17.866 10.6961L17.8458 10.3621C17.7994 9.59373 17.2143 8.94564 16.423 8.78609L15.6259 8.62545C15.6181 8.62389 15.6073 8.62166 15.6021 8.60426C15.5968 8.58686 15.6047 8.57957 15.6106 8.57427L16.7687 7.51213C17.3983 6.93479 17.5009 6.01468 17.0131 5.32505L17.0059 5.31493C16.5127 4.61766 15.5715 4.36448 14.7676 4.71327L14.261 4.93297C14.2526 4.93664 14.243 4.94086 14.2277 4.92876C14.2124 4.91671 14.215 4.90696 14.2172 4.89841L14.5695 3.54438C14.9071 2.24736 14.2315 0.889416 12.9633 0.315566L12.8736 0.274986C11.9644 -0.136541 10.9086 -0.0836171 10.0497 0.416597C9.04266 1.00297 8.518 2.08179 8.65133 3.15495C8.09598 3.09956 7.52866 3.29385 7.13417 3.71501L6.76726 4.10667C6.76131 4.11299 6.75631 4.11847 6.73999 4.11419C6.72391 4.1098 6.72259 4.10257 6.721 4.09414L6.47193 2.73325C6.23311 1.42756 5.04911 0.45224 3.6568 0.414008L3.55853 0.411298C2.56197 0.384806 1.6244 0.833783 1.05506 1.61451C0.242909 2.72843 0.384785 4.23274 1.39222 5.19139L1.9815 5.75205C1.98909 5.75927 1.99409 5.76403 1.98725 5.77969C1.98048 5.7954 1.97333 5.7954 1.96257 5.7954H1.78589C0.835157 5.7954 0.0517362 6.50303 0.00244015 7.40646C-0.0447676 8.27251 0.597979 9.03126 1.49752 9.17124L3.11062 9.42237C3.12518 9.42466 3.13011 9.42538 3.13277 9.44399C3.13543 9.46265 3.13094 9.46458 3.11752 9.47048L2.78814 9.6151C2.0661 9.93216 1.64851 10.6755 1.77254 11.4228L1.79747 11.5728C1.90815 12.2398 2.42339 12.7811 3.10999 12.9517L6.16888 13.7121C5.56176 14.4544 5.16998 15.3629 5.08259 16.3531H4.14495C3.53435 16.3531 3.03753 16.8258 3.03753 17.4068V17.5874C3.03753 21.1563 6.08927 24.0598 9.84026 24.0598H9.91936V24.2104C9.91936 24.5275 9.7087 24.8124 9.39514 24.9192C8.95167 25.0703 8.65374 25.4661 8.65374 25.9041V25.9595C8.65374 26.5332 9.14436 27 9.74736 27H10.7895C11.0517 27 11.2641 26.7978 11.2641 26.5484C11.2641 26.299 11.0517 26.0969 10.7895 26.0969H9.74736C9.66769 26.0969 9.60296 26.0353 9.60296 25.9595V25.9041C9.60296 25.8455 9.647 25.7926 9.71522 25.7694C10.405 25.5343 10.8686 24.9077 10.8686 24.2103V24.0598H24.569V24.2103C24.569 24.9077 25.0324 25.5343 25.7223 25.7694C25.7905 25.7926 25.8346 25.8456 25.8346 25.9041V25.9595C25.8346 26.0352 25.7698 26.0969 25.6902 26.0969H13.0043C12.7421 26.0969 12.5297 26.299 12.5297 26.5484C12.5297 26.7978 12.7421 27 13.0043 27H25.6902C26.2932 27 26.7838 26.5333 26.7838 25.9595V25.9041C26.7838 25.4661 26.4859 25.0703 26.0424 24.9192C25.7288 24.8123 25.5182 24.5275 25.5182 24.2104V24.0598H25.5973C29.3483 24.0598 32.4 21.1563 32.4 17.5874V17.4068C32.4 16.8258 31.9032 16.3531 31.2926 16.3531ZM29.1094 15.5102C29.1094 15.7993 29.0639 16.0817 28.975 16.3531H25.5024C25.5859 16.1022 25.6289 15.839 25.6289 15.5704C25.6289 14.6075 25.0732 13.7664 24.2513 13.3204C24.7776 12.909 25.4375 12.6804 26.1352 12.6804C27.7752 12.6804 29.1094 13.9498 29.1094 15.5102ZM28.0254 4.36322C28.1132 4.21914 28.256 4.12142 28.4275 4.08812C28.5991 4.05501 28.7706 4.09149 28.9106 4.19132C29.1722 4.37773 29.2297 4.7347 29.0388 4.98716L22.9934 12.9835C22.9649 12.9826 22.9366 12.9814 22.9079 12.9814C22.8633 12.9814 22.8189 12.9834 22.7744 12.9855L28.0254 4.36322ZM10.5451 1.18691C11.1293 0.846728 11.8474 0.810602 12.4659 1.09057L12.5556 1.13115C13.4182 1.52149 13.8778 2.44515 13.6481 3.32739L13.2958 4.68142C13.2046 5.03195 13.3293 5.39303 13.6214 5.62374C13.9134 5.85447 14.3094 5.90462 14.6549 5.75488L15.1614 5.53518C15.5408 5.37051 15.9856 5.49002 16.2181 5.8187L16.2253 5.82882C16.4559 6.15479 16.4074 6.58931 16.11 6.862L14.9519 7.92414C14.6899 8.16437 14.5894 8.52039 14.6896 8.85316C14.7899 9.18593 15.0733 9.4373 15.4293 9.50901L16.2263 9.66965C16.6 9.74497 16.8763 10.0511 16.8983 10.414L16.9007 10.4539C16.6383 10.3746 16.3601 10.3322 16.0736 10.3322C15.042 10.3322 14.1196 10.8786 13.6581 11.7278C13.547 11.7113 13.4344 11.7031 13.3209 11.7031C12.876 11.7031 12.4447 11.832 12.0816 12.0691C11.7022 11.9398 11.3029 11.8508 10.8891 11.8078L12.3645 9.66423C12.715 9.15499 12.7518 8.50202 12.4607 7.96014L12.3022 7.66506C11.9366 6.98464 11.1319 6.61887 10.3463 6.7753L9.55663 6.93256C9.54879 6.93407 9.54081 6.93563 9.53056 6.92389C9.52037 6.91221 9.52341 6.90505 9.52645 6.89806L10.1301 5.4955C10.3986 4.87168 10.252 4.17434 9.79008 3.69911L9.78204 3.67943L9.71718 3.52035C9.36344 2.65353 9.71167 1.67219 10.5451 1.18691ZM3.6294 1.31684C4.57273 1.34273 5.37495 2.00352 5.53689 2.88816L5.78596 4.24906C5.8507 4.60309 6.11667 4.8842 6.47984 4.98276C6.84307 5.08133 7.22478 4.97584 7.47595 4.70761L7.84285 4.31601C8.11616 4.02412 8.56666 3.96391 8.9142 4.17272L8.9242 4.17874C8.95046 4.19451 8.97502 4.21179 8.99881 4.22979C9.03627 4.28621 9.08519 4.33293 9.14208 4.36773C9.3187 4.58695 9.3673 4.88468 9.25168 5.15327L8.64804 6.55578C8.51085 6.87452 8.56945 7.23698 8.80106 7.50171C9.03273 7.76651 9.39685 7.88723 9.7511 7.81655L10.5408 7.65928C10.9093 7.58607 11.2859 7.75736 11.457 8.07605L11.6156 8.37113C11.7519 8.62503 11.7347 8.93089 11.5705 9.16944L9.75578 11.806C9.44026 11.8379 9.13335 11.8973 8.83687 11.9802L2.98988 1.3697C3.16422 1.32852 3.34584 1.30877 3.53113 1.31407L3.6294 1.31684ZM2.73505 11.4319L2.71012 11.2819C2.65202 10.9319 2.84763 10.5836 3.18586 10.4351L3.51524 10.2905C3.90721 10.1184 4.13147 9.72926 4.07332 9.32231C4.01516 8.9153 3.68983 8.59733 3.26389 8.53104L1.65079 8.27997C1.2294 8.21434 0.928307 7.85893 0.950456 7.45325C0.97349 7.03004 1.34052 6.69853 1.78589 6.69853H1.96257C2.35872 6.69853 2.71271 6.47353 2.86427 6.12528C3.01583 5.77704 2.93274 5.3799 2.65266 5.11342L2.06345 4.55281C1.38083 3.90328 1.28471 2.88401 1.835 2.12935C1.92688 2.00334 2.03313 1.89039 2.15033 1.7911L7.94948 12.3149C7.57922 12.4934 7.23409 12.7121 6.92047 12.9655L3.34989 12.0779C3.02823 11.9979 2.78694 11.7444 2.73505 11.4319ZM10.3149 12.6804C12.5372 12.6804 14.3728 14.2931 14.5953 16.3531H13.6386C13.421 14.7921 12.014 13.5835 10.3149 13.5835C8.61577 13.5835 7.20871 14.7921 6.99115 16.3531H6.03453C6.25696 14.2928 8.09174 12.6804 10.3149 12.6804ZM12.678 16.3531H7.95176C8.16033 15.2922 9.14031 14.4866 10.3149 14.4866C11.4894 14.4866 12.4694 15.2922 12.678 16.3531ZM31.4508 17.5874C31.4508 20.6583 28.8249 23.1567 25.5973 23.1567H9.84026C6.6126 23.1567 3.98675 20.6583 3.98675 17.5874V17.4068C3.98675 17.3238 4.05769 17.2562 4.14495 17.2562H20.6613C20.9235 17.2562 21.136 17.0541 21.136 16.8047C21.136 16.5553 20.9235 16.3531 20.6613 16.3531H15.5471C15.4093 14.7925 14.5149 13.4335 13.2142 12.6108C13.2495 12.6079 13.285 12.6062 13.3207 12.6062C13.4735 12.6062 13.6232 12.6326 13.7657 12.6847C13.8873 12.7292 14.0229 12.7242 14.1405 12.6706C14.258 12.6172 14.3475 12.5201 14.3875 12.4021C14.6246 11.7043 15.3021 11.2354 16.0734 11.2354C16.8409 11.2354 17.5174 11.7015 17.7567 12.3951C17.8131 12.5582 17.9616 12.6768 18.1403 12.7012C18.319 12.7256 18.4966 12.6514 18.5988 12.51C18.9302 12.0512 19.4765 11.7773 20.0602 11.7773C21.0372 11.7773 21.832 12.5336 21.832 13.4632L21.8308 13.5016C21.8276 13.6444 21.8955 13.7803 22.014 13.8679C22.1326 13.9556 22.2877 13.9848 22.4324 13.9465C22.5877 13.9055 22.7477 13.8846 22.9078 13.8846C23.8848 13.8846 24.6797 14.6409 24.6797 15.5705C24.6797 15.8463 24.6092 16.1129 24.4764 16.3532H22.8762C22.614 16.3532 22.4016 16.5554 22.4016 16.8047C22.4016 17.0541 22.614 17.2563 22.8762 17.2563H31.2926C31.3798 17.2563 31.4508 17.3239 31.4508 17.4068V17.5874Z" fill="black"/>
</svg>
