<svg width="14" height="14" viewBox="0 0 14 14" fill="none" xmlns="http://www.w3.org/2000/svg">
<path d="M2.05023 8.92681C2.81266 8.18345 3.72014 7.63314 4.71026 7.30001C3.64982 6.58786 2.95312 5.39603 2.95312 4.04837C2.95312 1.87265 4.76856 0.102539 7 0.102539C9.23144 0.102539 11.0469 1.87265 11.0469 4.04837C11.0469 5.39603 10.3502 6.58786 9.28971 7.30001C10.2798 7.63314 11.1873 8.18345 11.9497 8.92681C13.2719 10.216 14 11.9299 14 13.753H12.9062C12.9062 10.5776 10.2567 7.99421 7 7.99421C3.74328 7.99421 1.09375 10.5776 1.09375 13.753H0C0 11.9299 0.728137 10.216 2.05023 8.92681ZM7 6.92776C8.62835 6.92776 9.95312 5.63609 9.95312 4.04837C9.95312 2.46065 8.62835 1.16898 7 1.16898C5.37165 1.16898 4.04688 2.46065 4.04688 4.04837C4.04688 5.63609 5.37165 6.92776 7 6.92776Z" fill="#191919"/>
</svg>
