<svg width="15" height="15" viewBox="0 0 15 15" fill="none" xmlns="http://www.w3.org/2000/svg">
<path d="M8.79716 7.50058L14.731 1.56723C15.0897 1.20834 15.0897 0.628059 14.731 0.271499C14.3724 -0.0873922 13.7925 -0.0873922 13.4362 0.271499L7.5 6.20252L1.56381 0.269168C1.20517 -0.0897227 0.625291 -0.0897227 0.26898 0.269168C-0.08966 0.628059 -0.08966 1.20834 0.26898 1.5649L6.20284 7.49825L0.26898 13.4339C-0.08966 13.7928 -0.08966 14.3731 0.26898 14.7297C0.4483 14.9091 0.683512 14.9977 0.916395 14.9977C1.15161 14.9977 1.38449 14.9091 1.56381 14.7297L7.5 8.79632L13.4362 14.732C13.6155 14.9114 13.8484 15 14.0836 15C14.3188 15 14.5517 14.9114 14.731 14.732C15.0897 14.3731 15.0897 13.7928 14.731 13.4363L8.79716 7.50058Z" fill="#191919"/>
</svg>
