<svg width="18" height="18" viewBox="0 0 18 18" fill="none" xmlns="http://www.w3.org/2000/svg">
<path d="M8.99673 0C11.4811 0 13.7305 1.00983 15.3634 2.6355C16.9898 4.26814 18 6.51661 18 9C18 11.4834 16.9898 13.7319 15.3634 15.3645C13.7301 16.9902 11.4811 18 8.99673 18C6.51232 18 4.26335 16.9902 2.63702 15.3645C1.00371 13.7319 0 11.4838 0 9C0 6.51661 1.00327 4.26814 2.63658 2.6355C4.26335 1.00983 6.51232 0 8.99673 0ZM13.5854 8.50881C13.8552 8.50881 14.0698 8.73022 14.0698 9C14.0698 9.26978 13.8552 9.49119 13.5854 9.49119H9.01068H8.99673C8.81666 9.49119 8.65751 9.38746 8.57467 9.24232L8.56769 9.23535L8.56071 9.22141V9.21443L8.55374 9.20048L8.54676 9.18654V9.17956L8.53979 9.16562L8.53281 9.15864V9.1447L8.52583 9.13075V9.12378L8.51886 9.10983V9.09588V9.08891V9.08194L8.51188 9.07496V9.06102V9.04707V9.03487V9.02789V9.01395V9V3.14063C8.51188 2.87085 8.7264 2.65642 8.99629 2.65642C9.26619 2.65642 9.48768 2.87085 9.48768 3.14063V8.50881H13.5854ZM14.6715 3.3276C13.2182 1.87496 11.2112 0.982373 8.99673 0.982373C6.78221 0.982373 4.77523 1.87453 3.322 3.3276C1.87574 4.78024 0.975801 6.78639 0.975801 9C0.975801 11.2136 1.8753 13.2198 3.322 14.6728C4.77523 16.1255 6.78221 17.0181 8.99673 17.0181C11.2112 17.0181 13.2182 16.1255 14.6715 14.6728C16.1247 13.2202 17.0246 11.214 17.0246 9C17.0246 6.78639 16.1251 4.78024 14.6715 3.3276Z" fill="#191919"/>
</svg>
