<svg width="27" height="34" viewBox="0 0 27 34" fill="none" xmlns="http://www.w3.org/2000/svg">
<path d="M9.33372 10.3686C8.74101 9.01785 8.43587 7.55887 8.43751 6.08395V3.375C8.74815 3.375 9.00001 3.12314 9.00001 2.8125V0.5625C9.00001 0.251862 8.74815 0 8.43751 0H3.93751C3.62688 0 3.37501 0.251862 3.37501 0.5625V2.8125C3.37501 3.12314 3.62688 3.375 3.93751 3.375V6.08395C3.93916 7.55887 3.63402 9.01785 3.04158 10.3686L1.46257 13.9787C0.495222 16.1815 -0.00300759 18.5614 1.36586e-05 20.9671V33.1875C1.36586e-05 33.4981 0.251875 33.75 0.562514 33.75H11.8125C12.1232 33.75 12.375 33.4981 12.375 33.1875V20.9671C12.378 18.5614 11.8801 16.1815 10.9125 13.9787L9.33372 10.3686ZM4.50001 1.125H7.87501V2.25H4.50001V1.125ZM11.25 32.625H1.12501V20.9671C1.12227 18.7163 1.58809 16.4897 2.49309 14.4286L4.0721 10.8185C4.72688 9.32629 5.06416 7.71378 5.06251 6.08395V3.375H7.31251V6.08395C7.31087 7.71378 7.64815 9.32629 8.30321 10.8185L9.88194 14.4286C10.7869 16.4897 11.2528 18.7163 11.25 20.9671V32.625Z" fill="black"/>
<path d="M7.35123 14.262L7.81924 15.3307C8.06094 15.8847 8.26694 16.4532 8.4364 17.0333C8.50671 17.2731 8.72644 17.4379 8.97638 17.4379C9.02994 17.4379 9.08322 17.4302 9.13458 17.4154C9.43286 17.3283 9.6037 17.0155 9.51636 16.7175C9.33261 16.0915 9.10904 15.4779 8.84756 14.8803L8.37955 13.8116C8.30347 13.621 8.12961 13.4872 7.92609 13.4622C7.72229 13.4372 7.52151 13.5251 7.40121 13.6913C7.28119 13.8577 7.26141 14.0761 7.34903 14.2615L7.35123 14.262Z" fill="black"/>
<path d="M6.62706 12.5999C6.71633 12.8051 6.91902 12.9375 7.14287 12.9375C7.22032 12.9377 7.29695 12.9215 7.36782 12.8902C7.65209 12.7655 7.78172 12.4343 7.6573 12.15L7.27223 11.2681C7.14205 10.9934 6.81713 10.8718 6.53862 10.9934C6.26012 11.1148 6.12856 11.4359 6.24172 11.718L6.62706 12.5999Z" fill="black"/>
<path d="M2.8125 19.6875C2.50186 19.6875 2.25 19.9394 2.25 20.25V29.8125C2.25 30.1231 2.50186 30.375 2.8125 30.375H9.5625C9.87314 30.375 10.125 30.1231 10.125 29.8125V20.25C10.125 19.9394 9.87314 19.6875 9.5625 19.6875H2.8125ZM9 29.25H3.375V20.8125H9V29.25Z" fill="black"/>
<path d="M25.1999 32.4001C24.0864 31.5687 22.7604 31.0693 21.375 30.96V23.0339C24.5586 22.7406 26.9959 20.072 27 16.875C27 16.8484 26.9984 16.8214 26.9945 16.7951L26.6984 14.7217V14.7178L25.8695 8.92007C25.8297 8.64322 25.5924 8.4375 25.3125 8.4375H16.3125C16.0326 8.4375 15.7953 8.64322 15.7558 8.92007L14.6308 16.7951C14.6269 16.8214 14.625 16.8484 14.625 16.875C14.6291 20.072 17.0664 22.7406 20.25 23.0339V30.9606C18.8646 31.0699 17.5386 31.5689 16.4251 32.4006L15.9749 32.7382C15.7819 32.8835 15.703 33.1361 15.7797 33.3655C15.8563 33.5948 16.0708 33.7497 16.3125 33.75H25.3125C25.5547 33.75 25.7695 33.5951 25.8462 33.3655C25.9228 33.1356 25.8437 32.8829 25.6501 32.7376L25.1999 32.4001ZM16.8003 9.5625H24.8247L25.4998 14.2874L24.4171 14.4086C23.1869 14.5462 21.9416 14.4426 20.7513 14.1029L20.6842 14.0834C19.3022 13.6909 17.855 13.5818 16.4295 13.7626L16.196 13.7914L16.8003 9.5625ZM15.75 16.9137L16.0312 14.945L16.5679 14.8793C17.8404 14.7159 19.133 14.8115 20.3676 15.1606L20.4335 15.1801C21.7675 15.5624 23.1633 15.6794 24.5424 15.5245L25.6591 15.3995L25.875 16.9137C25.875 19.7097 23.6085 21.9762 20.8125 21.9762C18.0165 21.9762 15.75 19.7097 15.75 16.9137ZM18.2384 32.625C19.8759 31.8908 21.7491 31.8908 23.3866 32.625H18.2384Z" fill="black"/>
</svg>
