<svg width="28" height="27" viewBox="0 0 28 27" fill="none" xmlns="http://www.w3.org/2000/svg">
<path d="M24.3229 4.00098C22.1549 4.00098 20.6441 7.02689 20.6441 9.74256C20.6441 10.0361 20.662 10.3196 20.6964 10.5925H1.42707C0.640172 10.5925 0 11.2359 0 12.0268C0 13.0103 0.111289 13.9819 0.328234 14.9256C0.329219 14.9306 0.330477 14.9355 0.331625 14.9404C0.664016 16.3787 1.24255 17.7519 2.05116 19.0027C3.29421 20.9255 5.01632 22.47 7.04616 23.488V24.5724C7.04616 25.5631 7.84689 26.3691 8.83121 26.3691H16.5623C17.5466 26.3691 18.3473 25.5631 18.3473 24.5724V23.4878C19.9132 22.7017 21.2929 21.6052 22.4123 20.2636V25.0786C22.4123 26.1383 23.2694 27.0003 24.3229 27.0003C25.3755 27.0003 26.2318 26.1383 26.2318 25.0786V13.7031C27.36 12.9381 28 11.5162 28 9.74256C28 7.02689 26.4899 4.00098 24.3229 4.00098ZM17.2443 24.5724C17.2443 24.9549 16.9384 25.266 16.5623 25.266H8.83121C8.45518 25.266 8.1492 24.9549 8.1492 24.5724V23.6943H17.2443V24.5724ZM17.6706 22.5913H7.72286C4.72489 21.1526 2.52077 18.4929 1.59097 15.37L13.5221 15.3671C13.8267 15.3671 14.0736 15.1201 14.0734 14.8154C14.0734 14.5108 13.8264 14.264 13.5218 14.2641L1.31988 14.2671C1.17742 13.5366 1.10299 12.787 1.10299 12.0268C1.10299 11.8442 1.24835 11.6956 1.42702 11.6956H20.9462C21.2394 12.5556 21.7388 13.2465 22.4123 13.7032V14.2676L18.4308 14.2704C18.1262 14.2706 17.8794 14.5177 17.8796 14.8223C17.8799 15.1268 18.1267 15.3734 18.4312 15.3734H18.4315L22.4123 15.3706V18.4067C21.2396 20.2193 19.6049 21.6621 17.6706 22.5913ZM25.4174 12.909C25.2396 13.0054 25.1288 13.1915 25.1288 13.3938V25.0786C25.1288 25.53 24.7673 25.8972 24.3229 25.8972C23.8776 25.8972 23.5154 25.5299 23.5154 25.0786V13.3938C23.5154 13.1915 23.4046 13.0054 23.2267 12.909C22.2865 12.3991 21.7472 11.245 21.7472 9.74262C21.7472 7.40166 23.023 5.10408 24.3229 5.10408C25.6219 5.10408 26.897 7.40166 26.897 9.74262C26.897 11.245 26.3577 12.3992 25.4174 12.909Z" fill="#191919"/>
<path d="M8.00347 19.5868C6.8336 19.0115 5.83632 18.0272 5.11936 16.7402C4.97116 16.474 4.635 16.3787 4.36916 16.5268C4.10305 16.6751 4.00751 17.0109 4.15577 17.2771C4.98232 18.7609 6.14454 19.9019 7.51664 20.5767C7.5949 20.6152 7.67786 20.6335 7.75962 20.6335C7.96328 20.6335 8.15906 20.5202 8.25498 20.3252C8.3894 20.0519 8.2768 19.7213 8.00347 19.5868Z" fill="#191919"/>
<path d="M11.9882 5.71783C11.7836 5.94358 11.8007 6.29232 12.0265 6.49691C12.1321 6.59256 12.2646 6.63975 12.3967 6.63975C12.547 6.63975 12.6967 6.57872 12.8056 6.45857C13.6911 5.48142 13.3789 4.67002 13.1282 4.01793C12.9857 3.64742 12.851 3.29736 12.8615 2.85604C12.8685 2.55558 12.8745 2.2962 13.4569 1.76004C13.681 1.55376 13.6954 1.20486 13.4891 0.980692C13.2828 0.756692 12.9339 0.742145 12.7098 0.948481C11.8542 1.73604 11.7708 2.30993 11.7587 2.83006C11.743 3.48948 11.9401 4.00201 12.0986 4.41386C12.3308 5.01783 12.4178 5.2438 11.9882 5.71783Z" fill="#191919"/>
<path d="M7.86239 7.37138C7.65802 7.59724 7.67541 7.94604 7.90132 8.15041C8.00687 8.24594 8.13921 8.29298 8.27123 8.29298C8.42162 8.29298 8.57152 8.23184 8.68035 8.11152C9.56459 7.13437 9.25254 6.32335 9.0018 5.6717C8.85912 5.30102 8.72442 4.95086 8.73449 4.50931C8.74143 4.20973 8.74745 3.95101 9.33146 3.41332C9.55551 3.20698 9.56995 2.85808 9.36367 2.63397C9.15733 2.40997 8.80842 2.39553 8.58432 2.60176C7.72736 3.39079 7.6438 3.96408 7.63166 4.48394C7.61673 5.14363 7.81388 5.65605 7.97231 6.06774C8.20451 6.67138 8.29146 6.89724 7.86239 7.37138Z" fill="#191919"/>
<path d="M16.1131 7.37108C15.9086 7.59683 15.9257 7.94557 16.1514 8.15016C16.257 8.2458 16.3896 8.293 16.5217 8.293C16.6719 8.293 16.8217 8.23197 16.9305 8.11182C17.8159 7.13483 17.5039 6.32387 17.2533 5.67227C17.1107 5.30159 16.976 4.95137 16.9865 4.50934C16.9935 4.20959 16.9995 3.95076 17.5824 3.41291C17.8062 3.20635 17.8202 2.85739 17.6137 2.6335C17.4072 2.40977 17.0583 2.39566 16.8343 2.60222C15.9792 3.3913 15.8958 3.96432 15.8837 4.48336C15.868 5.1436 16.0652 5.6563 16.2237 6.06831C16.4558 6.67152 16.5426 6.89721 16.1131 7.37108Z" fill="#191919"/>
<path d="M15.9769 14.2666H15.9738C15.6692 14.2666 15.4238 14.5135 15.4238 14.8181C15.4238 15.1227 15.6723 15.3696 15.9769 15.3696C16.2814 15.3696 16.5284 15.1227 16.5284 14.8181C16.5284 14.5135 16.2815 14.2666 15.9769 14.2666Z" fill="#191919"/>
</svg>
