<svg width="19" height="20" viewBox="0 0 19 20" fill="none" xmlns="http://www.w3.org/2000/svg">
<path d="M18.795 7.02933C18.3987 6.02018 17.6719 4.56413 16.4603 3.35823C15.2529 2.15648 13.8123 1.45052 12.8164 1.06985C11.723 0.651963 10.4805 0.915364 9.65114 1.74086L6.73666 4.64169C5.87272 5.50154 5.62372 6.82464 6.11701 7.93402C6.26997 8.27809 6.43633 8.61464 6.61409 8.93979L0.217386 15.3365C0.0781891 15.4756 0 15.6644 0 15.8613V19.1269C0 19.5368 0.332276 19.8691 0.742184 19.8691H4.0078C4.4177 19.8691 4.74998 19.5368 4.74998 19.1269V17.791L6.08591 17.7909C6.49582 17.7909 6.8281 17.4587 6.8281 17.0487V15.7128H8.16403C8.57394 15.7128 8.90621 15.3806 8.90621 14.9707C8.90621 14.5608 8.57394 14.2285 8.16403 14.2285H6.08591C5.676 14.2285 5.34373 14.5608 5.34373 14.9707V16.3066L4.0078 16.3066C3.59789 16.3066 3.26561 16.6389 3.26561 17.0488V18.3847H1.48437V16.1687L8.06587 9.58723C8.30768 9.34543 8.35299 8.96977 8.17564 8.67742C7.91844 8.25349 7.68216 7.80046 7.47342 7.33092C7.22854 6.78018 7.3533 6.12227 7.78388 5.6937L10.6983 2.79291C11.1144 2.3788 11.7378 2.24673 12.2865 2.4564C13.1483 2.78578 14.3902 3.39207 15.4132 4.41027C16.4424 5.43464 17.069 6.69498 17.4134 7.57187C17.6283 8.11915 17.4977 8.74092 17.0807 9.15595L14.131 12.0918C13.7015 12.5193 13.0604 12.6443 12.4976 12.4102C12.0335 12.2172 11.584 11.9878 11.1617 11.7286C10.8124 11.5142 10.3554 11.6236 10.1409 11.9729C9.92653 12.3223 10.0359 12.7793 10.3852 12.9937C10.8733 13.2933 11.3922 13.5581 11.9276 13.7807C13.0461 14.246 14.322 13.996 15.1782 13.1439L18.1278 10.2081C18.9644 9.37537 19.2263 8.12765 18.795 7.02933Z" fill="#1A1A1A"/>
</svg>
