<svg width="20" height="20" viewBox="0 0 20 20" fill="none" xmlns="http://www.w3.org/2000/svg">
<path d="M14.6089 11.9229L14.6014 11.9854C12.7689 11.072 12.5772 10.9503 12.3405 11.3053C12.1764 11.5512 11.698 12.1087 11.5539 12.2737C11.408 12.4362 11.263 12.4487 11.0155 12.3362C10.7655 12.2112 9.96302 11.9487 9.01301 11.0987C8.273 10.4362 7.77633 9.62367 7.62967 9.37367C7.3855 8.952 7.89633 8.892 8.36134 8.01199C8.44467 7.83699 8.40217 7.69949 8.3405 7.57532C8.278 7.45032 7.7805 6.22531 7.57216 5.73697C7.37216 5.2503 7.16633 5.31197 7.01216 5.31197C6.53216 5.2703 6.18132 5.27697 5.87215 5.59864C4.52714 7.07698 4.86631 8.60199 6.01715 10.2237C8.27884 13.1837 9.48385 13.7287 11.6872 14.4854C12.2822 14.6745 12.8247 14.6479 13.2539 14.5862C13.7322 14.5104 14.7264 13.9854 14.9339 13.3979C15.1464 12.8104 15.1464 12.3229 15.0839 12.2104C15.0222 12.0979 14.8589 12.0354 14.6089 11.9229Z"/>
<path d="M17.1001 2.87455C10.6926 -3.31966 0.088334 1.17287 0.0841673 9.91127C0.0841673 11.6579 0.541671 13.3613 1.41334 14.8655L0 20.0005L5.27921 18.6238C11.8668 22.1822 19.9968 17.4572 20.0001 9.91627C20.0001 7.26958 18.9668 4.77873 17.0876 2.90705L17.1001 2.87455ZM18.3351 9.88877C18.3301 16.2496 11.3476 20.2222 5.82504 16.9755L5.52504 16.7972L2.40002 17.6097L3.23752 14.5721L3.03836 14.2596C-0.398336 8.78876 3.55003 1.63871 10.0601 1.63871C12.2718 1.63871 14.3476 2.50121 15.9109 4.06372C17.4735 5.6129 18.3351 7.68875 18.3351 9.88877Z"/>
</svg>
