<svg width="46" height="46" viewBox="0 0 46 46" fill="none" xmlns="http://www.w3.org/2000/svg">
<path d="M45.9914 0.8682C45.9844 0.815189 45.9764 0.764177 45.9604 0.712166C45.9434 0.655153 45.9204 0.603142 45.8944 0.55013C45.8804 0.521123 45.8754 0.490117 45.8584 0.46211C45.8474 0.444106 45.8294 0.432104 45.8164 0.4151C45.7833 0.36909 45.7443 0.329081 45.7033 0.288072C45.6623 0.247063 45.6213 0.209054 45.5743 0.176047C45.5573 0.164044 45.5463 0.14704 45.5293 0.137038C45.5013 0.120034 45.4703 0.116034 45.4413 0.10203C45.3863 0.0750244 45.3322 0.0520193 45.2742 0.0350156C45.2252 0.0220127 45.1772 0.0150111 45.1272 0.00900978C45.0682 0.00200822 45.0112 -0.00199267 44.9522 0.001008C44.8971 0.00400867 44.8441 0.0150111 44.7901 0.028014C44.7561 0.0360158 44.7211 0.0330151 44.6871 0.0450178L0.677333 15.0483C0.279244 15.1824 0.00818408 15.5535 0.000182299 15.9746C-0.00781948 16.3956 0.248237 16.7767 0.642325 16.9278L21.2039 24.8285L30.0889 45.3971C30.2479 45.7642 30.61 46.0002 31.0071 46.0002C31.0241 46.0002 31.0401 46.0002 31.0571 45.9992C31.4742 45.9782 31.8333 45.7012 31.9603 45.3041L45.9634 1.2943C45.9734 1.26329 45.9704 1.23128 45.9764 1.19927C45.9884 1.14326 45.9974 1.08925 45.9994 1.03224C46.0014 0.976224 45.9984 0.923213 45.9914 0.8682ZM3.93506 16.0496L41.2603 3.32475L21.707 22.8781L3.93506 16.0496ZM30.864 42.1484L23.1423 24.2724L42.8097 4.60403L30.864 42.1484Z" fill="black"/>
<path d="M15.7107 30.2897C15.3197 29.8986 14.6875 29.8986 14.2964 30.2897L0.293315 44.2928C-0.0977717 44.6839 -0.0977717 45.316 0.293315 45.7071C0.488358 45.9022 0.744415 46.0002 1.00047 46.0002C1.25653 46.0002 1.51259 45.9022 1.70763 45.7071L15.7107 31.704C16.1018 31.3129 16.1018 30.6808 15.7107 30.2897Z" fill="black"/>
<path d="M18.2968 37.2913L11.2953 44.2929C10.9042 44.6839 10.9042 45.3161 11.2953 45.7072C11.4903 45.9022 11.7464 46.0002 12.0024 46.0002C12.2585 46.0002 12.5145 45.9022 12.7096 45.7072L19.7111 38.7056C20.1022 38.3145 20.1022 37.6824 19.7111 37.2913C19.32 36.9002 18.6879 36.9002 18.2968 37.2913Z" fill="black"/>
<path d="M1.00047 34.9978C1.25653 34.9978 1.51259 34.8998 1.70763 34.7047L8.70918 27.7032C9.10027 27.3121 9.10027 26.6799 8.70918 26.2889C8.3181 25.8978 7.68596 25.8978 7.29487 26.2889L0.293315 33.2904C-0.0977717 33.6815 -0.0977717 34.3136 0.293315 34.7047C0.488358 34.8998 0.744415 34.9978 1.00047 34.9978Z" fill="black"/>
</svg>
