<svg width="12" height="12" viewBox="0 0 12 12" fill="none" xmlns="http://www.w3.org/2000/svg">
<path d="M11.1 11V11.1H11H10.2188H10.1187V11C10.1187 8.729 8.271 6.88125 6 6.88125C3.729 6.88125 1.88125 8.729 1.88125 11V11.1H1.78125H1H0.9V11C0.9 9.63793 1.43063 8.35689 2.39374 7.39374L2.46445 7.46445L2.39374 7.39374C2.90341 6.88409 3.50233 6.49572 4.15528 6.2428C3.4583 5.69504 3.00938 4.84443 3.00938 3.89062C3.00938 2.24151 4.35088 0.9 6 0.9C7.64912 0.9 8.99062 2.24151 8.99062 3.89062C8.99062 4.84443 8.5417 5.69504 7.8447 6.2428C8.49766 6.49572 9.09657 6.88409 9.60624 7.39374L9.53553 7.46445L9.60624 7.39374C10.5694 8.35689 11.1 9.63793 11.1 11ZM6 5.9C7.10788 5.9 8.00938 4.99852 8.00938 3.89062C8.00938 2.78273 7.10788 1.88125 6 1.88125C4.89212 1.88125 3.99062 2.78273 3.99062 3.89062C3.99062 4.99852 4.89212 5.9 6 5.9Z" fill="#191919" stroke="#191919" stroke-width="0.2"/>
</svg>
