<?xml version="1.0" encoding="utf-8"?>
<!-- Generator: Adobe Illustrator 16.0.0, SVG Export Plug-In . SVG Version: 6.00 Build 0)  -->
<!DOCTYPE svg PUBLIC "-//W3C//DTD SVG 1.1//EN" "http://www.w3.org/Graphics/SVG/1.1/DTD/svg11.dtd">
<svg version="1.1" id="Layer_1" xmlns="http://www.w3.org/2000/svg" xmlns:xlink="http://www.w3.org/1999/xlink" x="0px" y="0px"
	 enable-background="new 0 0 80.667 151.046"
	 xml:space="preserve">
<g>
	<path fill="none" d="M2.639,115.867c0.054,0.374,0.16,0.348,0.32-0.08c-0.052-0.106-0.107-0.106-0.161,0
		C2.747,115.841,2.693,115.867,2.639,115.867c-0.105-0.105-0.105-0.319,0-0.639c0.054,0,0.108,0.027,0.16,0.08
		c0.054,0.054,0.134,0.054,0.241,0c0.054,0.108,0.067,0.28,0.04,0.52c-0.026,0.24,0.014,0.36,0.12,0.36l0.16-0.24
		c0.054-0.16,0.08-0.292,0.08-0.399c0-0.106-0.08-0.187-0.24-0.241c0.214-0.266,0.374-0.399,0.479-0.399
		c-0.052,0.16-0.092,0.387-0.12,0.679c-0.026,0.294-0.066,0.547-0.12,0.759c-0.052,0.214-0.16,0.348-0.32,0.399v-0.479
		c-0.267,0.053-0.24,0.319,0.08,0.799c0,0.107-0.066,0.134-0.2,0.08c-0.132-0.053-0.173-0.133-0.12-0.24
		c-0.16,0.107-0.16,0.614,0,1.519c0.054,0,0.107-0.08,0.16-0.239l0.16-0.081c0.054,0.107-0.013,0.24-0.2,0.4
		c-0.187,0.16-0.252,0.347-0.201,0.56c0.054,0.054,0.094,0.027,0.121-0.08c0.027-0.107,0.093-0.133,0.199-0.08
		c0,0.107,0,0.24,0,0.399s0.014,0.32,0.04,0.48c0.027,0.16,0.014,0.293-0.04,0.4c-0.053,0.107-0.16,0.16-0.32,0.16
		c0,0.107,0.094,0.187,0.281,0.24c0.187,0.054,0.279,0.107,0.279,0.16c0,0.107-0.106,0.134-0.319,0.081H2.799
		c0,0.16,0.108,0.214,0.32,0.16v0.639c-0.212,0-0.267-0.106-0.16-0.32c-0.32,0.534-0.32,1.173,0,1.919
		c0.16-0.052,0.187-0.266,0.08-0.639c-0.106-0.373-0.053-0.586,0.16-0.64c0.107,1.067,0.24,1.653,0.4,1.759
		c-0.106,0.587-0.026,0.907,0.239,0.959c-0.16,0.159-0.199,0.347-0.12,0.56c0.08,0.213,0.067,0.427-0.04,0.639
		c0.054,0.054,0.16,0.134,0.32,0.24l0.16,0.081c-0.691-3.091-0.879-6.316-0.559-9.674c0.053-0.32,0.16-0.772,0.319-1.359
		c0.16-0.585,0.293-1.105,0.4-1.559c0.107-0.453,0.16-0.786,0.16-1c0.054,0,0.213-0.212,0.48-0.64c0-0.16-0.067-0.2-0.201-0.12
		c-0.132,0.08-0.2,0.094-0.2,0.04c0-0.16,0.134-0.24,0.4-0.24c0.107-0.16,0.373-0.692,0.799-1.599c-0.32,0.32-0.612,0.8-0.879,1.439
		c0-0.426,0.24-1,0.72-1.719c0.479-0.719,0.747-1.186,0.799-1.399h-0.16c-0.053,0.107-0.132,0.134-0.24,0.08
		c0.107-0.106,0.133-0.267,0.08-0.48c-0.106,0.054-0.173,0.12-0.2,0.2c-0.026,0.08-0.026,0.187,0,0.32
		c0.027,0.133,0.014,0.28-0.04,0.44c-0.16,0-0.266,0.04-0.319,0.12c-0.053,0.08-0.133,0.12-0.24,0.12
		c0-0.266-0.106-0.372-0.319-0.319c0.16-0.267,0.453-0.667,0.879-1.2c-0.212-0.16-0.372-0.12-0.48,0.121
		c-0.106,0.239-0.212,0.307-0.319,0.199c-0.053,0.374-0.187,0.748-0.4,1.12c0.107-0.053,0.24-0.013,0.4,0.12
		c0.16,0.134,0.319,0.148,0.48,0.04c-0.107,0.054-0.213,0.147-0.32,0.28c-0.106,0.133-0.212,0.227-0.32,0.28
		c-0.053-0.053-0.026-0.213,0.081-0.48c-0.107,0-0.213-0.026-0.32-0.08c-0.106-0.052-0.212-0.052-0.32,0
		c0,0.16,0.107,0.24,0.32,0.24l-0.24,0.479c0.107,0.054,0.188,0.027,0.24-0.08c0.107-0.053,0.187-0.08,0.24-0.08
		c-0.053,0.107-0.106,0.267-0.16,0.479c-0.052,0.214-0.12,0.388-0.199,0.521c-0.081,0.133-0.227,0.2-0.44,0.2
		c0.213-0.32,0.347-0.586,0.4-0.8c-0.053-0.053-0.133-0.106-0.24-0.16c-0.106-0.052-0.081-0.16,0.08-0.32v-0.08
		c-0.053-0.053-0.106-0.053-0.16,0c-0.052,0.054-0.12,0.12-0.199,0.2c-0.081,0.08-0.173,0.12-0.28,0.12
		c0.054-0.052,0.134-0.226,0.24-0.52c0.108-0.292,0.228-0.492,0.36-0.599c0.134-0.106,0.308-0.187,0.52-0.24
		c-0.052-0.16-0.04-0.319,0.041-0.48c0.08-0.16,0.2-0.332,0.359-0.519c0.16-0.187,0.268-0.306,0.32-0.36
		c0.267,0,0.399,0.054,0.399,0.16c0.054,0,0.108-0.052,0.16-0.16c0.054-0.106,0.134-0.133,0.24-0.08c0-0.16-0.106-0.24-0.319-0.24
		c1.066-1.279,2.306-2.251,3.717-2.918c1.413-0.666,3.291-1.319,5.636-1.959c2.932,0.161,4.557,0.294,4.877,0.4
		c-0.106,0.107-0.292,0.12-0.56,0.04c-0.266-0.08-0.48-0.092-0.64-0.04c0.64,0.374,1.199,0.453,1.679,0.24
		c0.214,0.374,1.147,0.773,2.798,1.199c0-0.053-0.052-0.093-0.16-0.12c-0.106-0.026-0.133-0.093-0.081-0.2
		c1.387,0.747,2.292,1.333,2.719,1.759c-0.267-0.052-0.532-0.16-0.8-0.32c-0.266-0.16-0.48-0.266-0.64-0.319
		c1.013,1.119,1.786,1.786,2.318,1.998c-0.052-0.052-0.04-0.12,0.04-0.2c0.081-0.08,0.094-0.172,0.041-0.28
		c-0.053-0.052-0.201-0.146-0.44-0.28c-0.24-0.132-0.386-0.306-0.44-0.52c0.48,0.16,1.067,0.587,1.759,1.279l-0.08,0.161
		c0,0.053-0.027,0.08-0.08,0.08c0.053,0.16,0.24,0.4,0.559,0.719c0.108-0.106,0.081-0.252-0.08-0.44
		c-0.16-0.186-0.24-0.306-0.24-0.359c0.319,0.107,0.479,0.293,0.479,0.559c0.32-0.052,0.587,0.054,0.8,0.32
		c0.213,0.267,0.32,0.587,0.32,0.958c0.054,0.108,0.28,0.308,0.679,0.6c0.4,0.293,0.653,0.574,0.76,0.839c-0.053,0-0.106,0-0.16,0
		l-0.08-0.08c0,0.107,0.107,0.268,0.32,0.48c0.053-0.106,0.067-0.32,0.04-0.64c-0.026-0.32,0.013-0.532,0.12-0.64
		c0.107,0.373,0.319,0.72,0.64,1.039c-0.32-0.319-0.533-0.266-0.64,0.16c0.107,0.107,0.24,0.16,0.4,0.16
		c0.053,0.16,0.027,0.214-0.081,0.16c-0.16,0-0.239,0.054-0.239,0.161c0.107,0.16,0.228,0.16,0.36,0
		c0.133-0.161,0.253-0.24,0.359-0.24c-0.053,0.214,0.054,0.479,0.32,0.8c-0.053,0.16-0.106,0.187-0.16,0.08
		c-0.106-0.053-0.187-0.08-0.24-0.08c0.16,0.319,0.507,0.747,1.04,1.279c0-0.106,0.094-0.2,0.28-0.28
		c0.188-0.08,0.28-0.172,0.28-0.28c0.108,0,0.213,0.04,0.32,0.121c0.107,0.08,0.174,0.173,0.2,0.279
		c0.028,0.107,0.068,0.228,0.12,0.36c0.054,0.134,0.107,0.227,0.16,0.279c-0.16,0-0.292-0.08-0.4-0.239l-0.16-0.16
		c-0.267,0.16-0.212,0.32,0.16,0.479c0.214,0.108,0.347,0.08,0.4-0.08c0.213,0.108,0.347,0.268,0.399,0.48
		c-0.105,0-0.186-0.013-0.24-0.04c-0.053-0.026-0.106-0.04-0.16-0.04c0,0.054,0.053,0.133,0.16,0.24
		c0.107,0.107,0.188,0.2,0.24,0.28c0.054,0.08,0,0.147-0.16,0.2c0.055-0.107,0.028-0.187-0.08-0.241l-0.16-0.16
		c-0.053,0.16-0.053,0.28,0,0.36c0.053,0.08,0.133,0.094,0.239,0.041c0.055,0.319,0.28,0.707,0.68,1.159
		c0.4,0.453,0.626,0.813,0.679,1.079h0.4c0.213,0.907,0.827,1.653,1.838,2.239c-0.212,0.053-0.252,0.147-0.12,0.28
		c0.134,0.134,0.2,0.253,0.2,0.359c-0.212,0-0.346,0.028-0.399,0.081c1.279,2.079,2.266,3.571,2.958,4.477
		c0.054,0.108,0.028,0.214-0.08,0.32l-0.16,0.08c0,0.054,0.08,0.08,0.24,0.08c0.16,0,0.213,0.08,0.16,0.24h0.799
		c0-0.16-0.066-0.213-0.2-0.16c-0.132,0.054-0.226,0.054-0.279,0c0-0.106,0.08-0.146,0.239-0.12c0.16,0.028,0.268,0.014,0.32-0.04
		c-0.267-0.053-0.333-0.16-0.201-0.32c0.134-0.16,0.148-0.266,0.041-0.319c0.16-0.053,0.254,0,0.28,0.159
		c0.027,0.16,0.04,0.374,0.04,0.64c0.054,0,0.293,0.373,0.719,1.119c-0.532-0.426-0.959-0.585-1.279-0.479
		c0,0.213,0.093,0.387,0.28,0.52c0.187,0.134,0.28,0.253,0.28,0.359c-0.16,0-0.266-0.026-0.32-0.08c0,0.108,0.054,0.214,0.16,0.32
		c0.107,0.107,0.133,0.268,0.08,0.479c0.107,0.054,0.174,0.028,0.2-0.08c0.028-0.105,0.094-0.16,0.201-0.16
		c0,0.108,0.08,0.24,0.239,0.4c0.16,0,0.348-0.266,0.56-0.799c0.16,0.16,0.28,0.373,0.36,0.639c0.08,0.268,0.173,0.454,0.28,0.56
		c-0.053,0.054-0.132,0.08-0.24,0.08c-0.106,0-0.186-0.052-0.24-0.159c-0.053-0.106-0.08-0.212-0.08-0.32
		c-0.106,0-0.2,0.027-0.28,0.08c-0.08,0.054-0.172,0.054-0.28,0c0.054,0.107,0.134,0.188,0.24,0.24
		c0.107,0.054,0.187,0.133,0.24,0.24c0,0.16-0.132,0.24-0.4,0.24c0.054,0.213,0.32,0.48,0.8,0.799
		c0.054,0.054,0.027,0.108-0.08,0.16c-0.106,0.054-0.16,0.107-0.16,0.16c0.16,0.053,0.28,0.053,0.36,0
		c0.08-0.053,0.134-0.16,0.161-0.32c0.027-0.16,0.04-0.292,0.04-0.399s0-0.241,0-0.4v-0.08c0.054,0,0.107,0.013,0.16,0.04
		c0.054,0.027,0.107,0.04,0.16,0.04c1.759-3.464,3.558-6.422,5.396-8.874c1.839-2.451,4.065-4.45,6.676-5.996
		c0-0.052,0.053-0.132,0.16-0.24c3.89-1.599,6.956-2.158,9.193-1.678c0,0.107,0.16,0.239,0.48,0.399
		c-0.107,0.054-0.36,0.12-0.759,0.2c-0.4,0.08-0.654,0.2-0.76,0.36c-0.054-0.16-0.014-0.252,0.12-0.28
		c0.133-0.026,0.2-0.066,0.2-0.12c-0.214-0.053-0.653,0.027-1.319,0.239c-0.667,0.214-1.239,0.24-1.718,0.081
		c0.16,0.054,0.399,0.027,0.719-0.081c0.32-0.106,0.56-0.132,0.72-0.08c-0.108-0.16-0.4-0.2-0.879-0.12
		c-0.48,0.08-0.773,0.094-0.88,0.04c-0.427,0.214-1.093,0.427-1.999,0.64c-0.907,0.214-1.573,0.453-1.999,0.72
		c-0.16,0.054-0.239,0-0.239-0.16l-0.08-0.08c-0.108,0.054-0.228,0.134-0.36,0.24c-0.134,0.107-0.228,0.187-0.279,0.239
		c0,0.108,0.025,0.134,0.08,0.08c0.106-0.052,0.187-0.08,0.24-0.08c-3.038,1.759-5.437,4.157-7.195,7.195
		c-1.386,1.599-2.479,3.626-3.278,6.076c-0.053,0-0.121,0.027-0.201,0.08c-0.08,0.055-0.146,0.055-0.199,0
		c0.107,0.32,0.04,0.667-0.2,1.04c-0.24,0.374-0.306,0.64-0.2,0.8c-0.479,0.48-0.585,1.093-0.319,1.839
		c-0.106-0.052-0.212-0.026-0.32,0.08c-0.106,0.107-0.187,0.16-0.24,0.16c0.108,0.107,0.268,0.094,0.48-0.04
		c0.214-0.132,0.32-0.092,0.32,0.12c0.054-0.106,0.067-0.186,0.04-0.239c-0.026-0.053-0.052-0.146-0.08-0.28
		c-0.026-0.132-0.04-0.252-0.04-0.359c0.16,0,0.24,0.054,0.24,0.16c0.107-0.106,0.214-0.306,0.32-0.6
		c0.107-0.292,0.239-0.492,0.4-0.6c0.053-0.106,0.013-0.172-0.121-0.199c-0.132-0.026-0.2-0.066-0.2-0.12
		c0.054-0.052,0.107-0.132,0.16-0.24c0.054-0.106,0.108-0.186,0.161-0.239c0.107,0.107,0.133,0.213,0.08,0.32
		c0.319-0.426,0.667-1.013,1.039-1.759c0.374-0.746,0.64-1.226,0.799-1.439c-0.106,0-0.172-0.026-0.2-0.08
		c-0.026-0.053-0.04-0.132-0.04-0.24v-0.16c0.054-0.106,0.133-0.106,0.239,0c0.108,0.108,0.188,0.108,0.24,0
		c0.107-0.106,0.228-0.319,0.36-0.64c0.133-0.32,0.28-0.506,0.439-0.56c0-0.106-0.04-0.132-0.12-0.08c-0.08,0.054-0.12,0.054-0.12,0
		c0.054-0.106,0.094-0.266,0.12-0.479c0.027-0.212,0.093-0.373,0.2-0.479c0,0.107-0.012,0.239-0.04,0.399
		c-0.027,0.16-0.013,0.24,0.04,0.24c0.534-0.426,0.773-0.852,0.719-1.279c1.279-1.279,2.132-2.504,2.559-3.678
		c0.48-0.212,0.719-0.399,0.719-0.56c0,0.054,0.054,0.08,0.16,0.08c0,0.108,0.054,0.16,0.16,0.16c0.053-0.052,0.067-0.092,0.04-0.12
		c-0.027-0.026-0.093-0.041-0.2-0.041c0.107-0.425,0.48-0.839,1.119-1.239c0.64-0.4,1.04-0.786,1.199-1.159
		c0.32-0.106,0.612-0.346,0.879-0.719c0.053,0.054,0.106,0.107,0.16,0.16c0.053,0.054,0.106,0.08,0.161,0.08
		c0.426-0.426,0.932-0.719,1.519-0.879v-0.48c-0.16,0.108-0.374,0.188-0.64,0.241c-0.267,0.053-0.48,0.107-0.64,0.16
		c0.106-0.16,0.32-0.306,0.64-0.44c0.32-0.133,0.532-0.252,0.64-0.36c0.106,0,0.172,0.094,0.199,0.28
		c0.027,0.188-0.013,0.308-0.12,0.36c0.319-0.161,0.586-0.241,0.799-0.241c-0.16-0.266-0.12-0.492,0.12-0.679
		c0.24-0.186,0.52-0.172,0.839,0.04l-0.08,0.16c-0.054,0-0.16-0.026-0.32-0.08c-0.213-0.106-0.347-0.08-0.399,0.08
		c0.106,0,0.106,0.08,0,0.24c0.052,0,0.132-0.013,0.24-0.04c0.106-0.026,0.2-0.053,0.28-0.08s0.146-0.066,0.2-0.121
		c0.16,0,0.292-0.026,0.399-0.08c-0.054,0-0.107-0.04-0.16-0.12c-0.054-0.08-0.133-0.12-0.239-0.12
		c0.106-0.16,0.346-0.106,0.719,0.16c0.426-0.212,1.306-0.426,2.639-0.64c0,0.054-0.054,0.12-0.161,0.2
		c-0.107,0.08-0.107,0.147,0,0.2c0.053,0.054,0.147,0.067,0.28,0.04c0.132-0.026,0.252-0.066,0.36-0.12
		c0.106-0.053,0.212-0.053,0.319,0c0.106,0.054,0.16,0.16,0.16,0.32c-4.584,1.066-8.288,3.277-11.112,6.636
		c-2.824,3.358-5.303,7.675-7.435,12.951c0.107,0.214,0.24,0.548,0.4,1c0.16,0.453,0.32,0.787,0.48,0.999l-0.48,0.24
		c-0.106-0.639-0.132-0.986-0.08-1.04c0-0.16-0.132-0.292-0.4-0.399c-0.106,0.053-0.16,0.188-0.16,0.399
		c-0.053,0.107-0.08,0.188-0.08,0.24c0.107,0.107,0.199,0.253,0.279,0.439c0.08,0.188,0.173,0.307,0.28,0.36
		c0,0.107-0.066,0.24-0.201,0.399c-0.132,0.16-0.172,0.32-0.12,0.48c0.054,0.054,0.147,0.08,0.28,0.08
		c0.133,0,0.227,0.027,0.279,0.08v0.48c0.268,0.16,0.4,0.293,0.4,0.4c0.213-0.161,0.199-0.426-0.04-0.8
		c-0.241-0.373-0.36-0.639-0.36-0.8h0.32c0,0.054,0.028,0.08,0.081,0.08c0-0.052-0.027-0.08-0.081-0.08v-0.319l0.48,0.959
		c0,0.16-0.053,0.187-0.16,0.08c-0.053-0.052-0.106-0.08-0.16-0.08c0,0.16,0.213,0.319,0.64,0.479
		c0.053,0.108,0.134,0.467,0.24,1.08c0.107,0.613,0.239,1.039,0.399,1.278c0.16,0.241,0.427,0.334,0.8,0.28
		c-0.053,0.107-0.026,0.188,0.08,0.24c0.107,0.054,0.16,0.108,0.16,0.161c0.479-0.053,1.12,0.067,1.918,0.359
		c0.8,0.294,1.359,0.44,1.68,0.44c0.16,0.16,0.533,0.308,1.119,0.439c0.587,0.134,0.933,0.308,1.04,0.52
		c0.372,0,0.919,0.147,1.639,0.44c0.719,0.293,1.292,0.413,1.719,0.359c0.267,0.267,0.72,0.439,1.359,0.52
		c0.64,0.08,1.092,0.253,1.359,0.52c0.425,0,1.131,0.173,2.118,0.52c0.986,0.347,1.691,0.467,2.119,0.359
		c0.106,0.054,0.24,0.12,0.4,0.201c0.16,0.08,0.266,0.147,0.319,0.2c0.16,0.054,0.292,0.027,0.4-0.08
		c0.106-0.106,0.213-0.16,0.32-0.16c3.357,0.96,5.517,1.813,6.476,2.559c0.266-0.052,1.04,0.08,2.318,0.399
		c0.053,0.268-0.067,0.627-0.359,1.08c-0.293,0.453-0.439,0.759-0.439,0.919c-0.64,0.16-0.933,0.427-0.879,0.8
		c-0.427,0.374-1.159,0.387-2.198,0.04c-1.04-0.347-1.72-0.52-2.039-0.52c-0.055-0.052-0.081-0.16-0.081-0.32l-0.08-0.16
		c-7.995-2.558-14.791-4.13-20.387-4.716c-0.106,0.16-0.239,0.427-0.4,0.799c-0.16,0.374-0.292,0.64-0.399,0.8l-0.161-0.08
		c-0.106-0.053-0.186-0.106-0.239-0.16c-0.106,0.054-0.172,0.174-0.2,0.36c-0.027,0.188-0.067,0.28-0.12,0.28
		c-0.106,0-0.16-0.08-0.16-0.24c0-0.16-0.026-0.24-0.08-0.24c-0.532,1.013-1.492,1.758-2.878,2.238c-0.053,0-0.066,0.054-0.04,0.16
		c0.027,0.108,0.04,0.214,0.04,0.32c-0.586,1.172-1.839,0.987-3.758-0.56c0-0.212-0.105-0.532-0.319-0.959
		c-0.212-0.426-0.266-0.746-0.16-0.959c-0.64-0.532-0.666-1.439-0.08-2.718c-6.608-1.119-15.537-1.251-26.783-0.399
		c0,0.053,0.108,0.08,0.32,0.08c-0.052,0.374,0.147,0.707,0.6,0.999c0.454,0.294,0.707,0.547,0.76,0.76
		c0.373,0.054,0.719,0.24,1.04,0.56c0.319,0.319,0.587,0.507,0.799,0.56v0.799c-0.906,0.854-1.972,1.147-3.198,0.879
		c-2.291-0.851-3.97-2.184-5.037-3.998c-0.266-0.319-0.532-0.691-0.8-1.119c-0.266-0.426-0.56-0.92-0.879-1.479
		c-0.32-0.56-0.56-0.971-0.72-1.239c0-0.106,0-0.187,0-0.241c0-0.052,0-0.132,0-0.239c-0.212-0.426-0.48-1.065-0.799-1.919
		c-0.32-0.852-0.56-1.465-0.72-1.839c-0.692-1.385-1.759-4.423-3.198-9.114c-0.053-0.052-0.08-0.24-0.08-0.56
		c-0.586-3.304-0.56-6.716,0.08-10.233c0.107,0,0.188,0.053,0.24,0.16c0.054,0.107,0.134,0.16,0.24,0.16
		C2,115.815,1.948,116.561,2,117.466c0.16-0.106,0.253-0.346,0.28-0.72c0.027-0.372,0.094-0.612,0.2-0.719L2.639,115.867z
		 M44.532,145.447c-0.212,0.161-0.32,0.414-0.32,0.76c0,0.347,0.108,0.627,0.32,0.839c0.054-0.212,0.188-0.585,0.4-1.119
		c0.213-0.532,0.374-1.026,0.479-1.479c0.108-0.452,0.16-0.919,0.16-1.399c-0.212,0-0.466-0.052-0.759-0.161
		c-0.293-0.105-0.572-0.132-0.84-0.08C43.972,143.928,44.16,144.808,44.532,145.447z M64.759,146.087v-0.16h-0.16v0.16H64.759z
		 M62.44,145.447c0,0.108,0.026,0.161,0.08,0.161C62.52,145.501,62.492,145.447,62.44,145.447z M60.841,145.208
		c0-0.106-0.04-0.187-0.12-0.24c-0.08-0.052-0.188-0.066-0.32-0.04c-0.133,0.027-0.228,0.067-0.28,0.12
		c0.16-0.053,0.292-0.04,0.4,0.04C60.627,145.168,60.734,145.208,60.841,145.208z M59.961,144.888
		c-0.054-0.052-0.093-0.092-0.12-0.12c-0.027-0.026-0.067-0.04-0.12-0.04C59.722,144.835,59.802,144.888,59.961,144.888z
		 M60.841,144.888v-0.16h-0.24v0.16H60.841z M57.563,144.648c0.106,0.054,0.186-0.013,0.24-0.2c0.052-0.186,0-0.28-0.16-0.28
		C57.536,144.436,57.51,144.596,57.563,144.648z M52.207,143.129v-0.08c-0.266-0.052-0.452,0-0.559,0.16
		c-0.106-0.266-0.333-0.36-0.679-0.28c-0.347,0.081-0.573,0.068-0.681-0.041c0.214,0.108,0.32,0.081,0.32-0.08
		c-0.64-0.106-1.092-0.212-1.359-0.319c0,0.107-0.026,0.228-0.08,0.359c-0.053,0.134-0.053,0.253,0,0.36
		c0.107,0.054,0.24,0.067,0.399,0.04c0.16-0.026,0.308-0.026,0.44,0c0.134,0.027,0.228,0.12,0.279,0.28
		c0.694-0.052,1.387-0.026,2.079,0.081c0.693,0.107,1.519,0.279,2.478,0.519c0.96,0.24,1.731,0.414,2.319,0.52
		c-0.054-0.106-0.147-0.187-0.28-0.24c-0.133-0.053-0.267-0.092-0.399-0.12c-0.133-0.026-0.253-0.066-0.359-0.12
		c-0.108-0.052-0.16-0.16-0.16-0.32c-0.054,0-0.12,0.04-0.2,0.12c-0.08,0.081-0.173,0.094-0.28,0.041
		c0.053-0.213-0.013-0.36-0.2-0.439c-0.186-0.081-0.332-0.066-0.44,0.04l0.16,0.08l0.16,0.16c-0.32-0.053-0.839-0.2-1.559-0.44
		C52.886,143.169,52.42,143.077,52.207,143.129z M56.364,144.009h0.24v-0.24c-0.16-0.053-0.268-0.027-0.32,0.08
		C56.39,143.956,56.417,144.009,56.364,144.009z M46.93,143.769c0.213,0,0.294-0.08,0.24-0.24c-0.052-0.106-0.08-0.212-0.08-0.32
		h-0.24c-0.052,0.107-0.052,0.213,0,0.32C46.904,143.636,46.93,143.716,46.93,143.769z M52.207,143.129
		c-0.106,0.107-0.239,0.16-0.399,0.16C51.86,143.183,51.995,143.129,52.207,143.129z M47.09,142.49c-0.266,0-0.346,0.107-0.24,0.319
		C47.011,142.863,47.09,142.757,47.09,142.49z M47.57,142.729v-0.08h-0.16v0.08H47.57z M45.571,142.649v-0.64
		c-0.265,0.054-0.771,0.028-1.519-0.08c0,0.373,0.24,0.574,0.719,0.6C45.251,142.557,45.519,142.597,45.571,142.649z
		 M37.017,141.051c-0.266,0.107-0.8,0.12-1.6,0.04c-0.799-0.08-1.358-0.066-1.678,0.04c-0.212-0.106-0.212-0.212,0-0.32
		c-0.747,0.054-2.745,0.054-5.996,0c-3.25-0.052-5.409,0.054-6.476,0.32l0.08-0.08c0.107,0,0.188-0.026,0.24-0.08
		c-0.16,0-0.72,0.08-1.679,0.239c0-0.16-0.026-0.239-0.08-0.239c-0.053,0-0.121,0.053-0.2,0.159c-0.081,0.107-0.172,0.16-0.28,0.16
		c-0.106,0-0.186-0.04-0.24-0.12c-0.052-0.08-0.106-0.12-0.159-0.12c0.053,0.16-0.027,0.239-0.241,0.239
		c-0.372-0.105-0.585-0.132-0.639-0.08c0.108,0.054,0.054,0.08-0.16,0.08c-0.053,0-0.106,0-0.16,0c-0.32,0-0.506,0-0.561,0v-0.16
		H17.03c-0.053,0.107,0,0.16,0.159,0.16c-0.425,0.108-1.119,0.2-2.078,0.28c-0.96,0.08-1.679,0.2-2.159,0.36
		c5.437-0.32,8.714-0.56,9.833-0.72c0.054,0,0.174,0.014,0.36,0.04c0.188,0.027,0.308,0.067,0.36,0.12
		c2.398-0.106,4.131-0.146,5.196-0.12c1.067,0.027,2.746,0.108,5.037,0.24c2.292,0.134,3.891,0.227,4.796,0.28
		c0.268,0.107,0.854,0.16,1.759,0.16c-0.106-0.32-0.36-0.52-0.76-0.6c-0.399-0.08-0.865-0.12-1.399-0.12
		C37.604,141.21,37.231,141.158,37.017,141.051z M37.816,140.411c0.107,0.054,0.267,0.041,0.48-0.04
		c0.213-0.08,0.319-0.04,0.319,0.12c-0.212,0-0.319,0.107-0.319,0.319c0.319,0,0.693,0.027,1.119,0.08
		c0.427,0.054,0.773,0.081,1.04,0.081c0-0.161,0.04-0.4,0.12-0.72c0.08-0.319,0.121-0.586,0.121-0.799
		c-0.906-0.373-2.358-0.879-4.357-1.519c-1.999-0.64-3.504-1.171-4.517-1.599c-0.373-0.053-0.64-0.026-0.799,0.08
		c-1.652-0.8-4.158-1.732-7.515-2.798c-3.358-1.066-5.517-1.785-6.476-2.159c0-0.106,0.04-0.226,0.12-0.359
		c0.08-0.132,0.094-0.252,0.04-0.36c0-0.052-0.026-0.12-0.08-0.2c-0.053-0.08-0.08-0.172-0.08-0.28
		c0.214-1.279,0.56-2.051,1.039-2.319c0.108,0.107,0.507,0.08,1.199-0.08c4.531,1.866,8.209,3.225,11.033,4.077
		c0.32,0.268,0.813,0.547,1.479,0.839c0.667,0.293,1.079,0.494,1.239,0.6c0-0.052-0.012-0.12-0.04-0.2
		c-0.026-0.08-0.04-0.146-0.04-0.2l0.56,0.559c0.587,0.054,1.373,0.294,2.358,0.72c0.987,0.427,1.853,0.667,2.599,0.72
		c0.054,0.213,0.374,0.374,0.959,0.479c0.587,0.107,0.933,0.32,1.04,0.64h0.879c0.587-1.919,1.013-3.064,1.279-3.438
		c-0.159-0.106-0.212-0.2-0.159-0.279c0.054-0.08,0.12-0.213,0.199-0.4c0.081-0.186,0.094-0.36,0.04-0.52c0-0.052-0.066-0.052-0.2,0
		c-0.132,0.054-0.199,0.028-0.199-0.08c-0.053-0.426-0.213-0.945-0.48-1.559c-0.267-0.612-0.426-1.105-0.48-1.479
		c-0.585-0.639-1.065-1.439-1.439-2.398c-0.267-0.106-0.4-0.212-0.4-0.319c-0.426-0.852-2.079-3.57-4.957-8.155
		c-0.159,0-0.239-0.026-0.239-0.08c-0.106-0.212-0.32-0.492-0.64-0.839c-0.32-0.346-0.506-0.652-0.56-0.919
		c-3.784-4.317-6.396-7.062-7.835-8.235c-0.106-0.052-0.372-0.226-0.799-0.519c-0.426-0.293-0.747-0.52-0.959-0.68
		c0-0.052-0.026-0.12-0.08-0.2c-0.052-0.08-0.092-0.16-0.12-0.24c-0.026-0.08-0.066-0.146-0.12-0.2
		c-2.238-1.651-4.876-2.371-7.915-2.159c-3.944,0.96-6.808,3.105-8.595,6.436c-1.785,3.332-2.491,7.369-2.119,12.112
		c0.054,0.64,0.16,1.293,0.32,1.959c0.16,0.667,0.347,1.413,0.559,2.238c0.214,0.827,0.374,1.507,0.48,2.04
		c1.387,3.836,2.559,6.689,3.518,8.553c0.108,0.214,0.387,0.668,0.84,1.359c0.453,0.693,0.732,1.279,0.839,1.759
		c0.213,0.16,0.467,0.414,0.759,0.76c0.293,0.348,0.52,0.574,0.679,0.679c-0.053,0.054-0.053,0.108,0,0.16
		c0.108,0.107,0.16,0.188,0.16,0.24c0.267,0,0.667-0.12,1.199-0.36c0.534-0.239,0.933-0.386,1.199-0.439c0.107,0,0.24,0,0.399,0
		c0.16,0,0.347,0,0.56,0c0.214,0,0.374,0,0.48,0c0.108,0,0.68-0.066,1.719-0.2c1.039-0.132,1.798-0.226,2.278-0.28
		c1.439-0.16,2.186-0.24,2.238-0.24c0.054,0,0.108,0.054,0.161,0.16c0.053,0.107,0.107,0.16,0.16,0.16l0.4-0.081
		c1.066-0.212,1.918-0.292,2.558-0.24c0.054,0,0.12-0.026,0.2-0.08c0.08-0.052,0.16-0.08,0.24-0.08c0.08,0,0.147,0.028,0.2,0.08
		c0,0.054-0.08,0.107-0.24,0.16c-0.16,0-0.212,0.054-0.16,0.16c0.108-0.106,0.24-0.12,0.4-0.04s0.268,0.094,0.32,0.04
		c-0.053,0-0.027-0.08,0.08-0.24l0.08-0.16c0.213,0.213,0.533,0.399,0.959,0.56c-0.106-0.32-0.106-0.532,0-0.639
		c0.213-0.053,0.4,0,0.56,0.16s0.32,0.24,0.48,0.24c0.054,0,0.147-0.053,0.279-0.16c0.134-0.106,0.24-0.186,0.32-0.239
		c0.08-0.053,0.174,0,0.28,0.16c0,0.054-0.081,0.08-0.24,0.08c-0.106,0-0.172,0.014-0.2,0.04c-0.026,0.027-0.04,0.067-0.04,0.12
		c0.319,0.107,0.693,0.067,1.119-0.12c0.427-0.186,0.799-0.252,1.119-0.2c0.054,0,0.054,0.067,0,0.2c-0.053,0.133,0,0.2,0.16,0.2
		c0.108,0.054,0.2,0,0.28-0.16c0.08-0.16,0.147-0.24,0.2-0.24c0.054,0.107,0.054,0.24,0,0.399c0.16-0.106,0.268-0.16,0.319-0.16
		c0.054,0,0.174,0.04,0.36,0.12c0.187,0.08,0.333,0.12,0.439,0.12c0.054,0,0.094-0.053,0.12-0.16c0.027-0.106,0.093-0.16,0.2-0.16
		c0.108,0.268,0.374,0.374,0.799,0.32c-0.105-0.106-0.066-0.187,0.12-0.24c0.187-0.052,0.307,0,0.36,0.16
		c-0.213-0.052-0.32,0-0.32,0.16c0.64-0.053,1.733,0.027,3.278,0.24c0.054-0.106,0.014-0.186-0.12-0.24
		C37.884,140.518,37.816,140.465,37.816,140.411z M46.93,141.45c-0.052,0-0.132,0-0.24,0c-0.212,0-0.319,0.028-0.319,0.08
		c0,0.054,0,0.107,0,0.16C46.744,141.69,46.93,141.61,46.93,141.45z M50.528,141.53c0-0.052,0-0.106,0-0.16
		c-0.16,0-0.267,0.054-0.32,0.16H50.528z M45.411,141.45c0-0.052-0.052-0.106-0.16-0.16c-0.16,0-0.266,0.054-0.32,0.16H45.411z
		 M54.845,141.29c0,0.108,0.028,0.16,0.08,0.16C54.925,141.344,54.898,141.29,54.845,141.29z M40.215,141.13
		c-0.16,0.16-0.16,0.24,0,0.24c0.054,0,0.08-0.026,0.08-0.08C40.295,141.238,40.269,141.185,40.215,141.13z M44.612,141.37
		c0.16-0.319,0.268-0.506,0.32-0.56c-0.106,0-0.212-0.052-0.32-0.16c-0.106-0.106-0.239-0.133-0.4-0.08
		c0,0.16,0.054,0.293,0.161,0.4c0.053,0.159,0,0.293-0.161,0.399H44.612z M28.542,141.13c0-0.052,0-0.106,0-0.159
		c0.054,0,0.054,0.027,0,0.08C28.49,141.104,28.49,141.13,28.542,141.13z M46.451,141.13v-0.159H46.29v0.159H46.451z
		 M32.939,140.571c0,0.16,0.027,0.24,0.08,0.24C33.02,140.651,32.993,140.571,32.939,140.571z M38.776,140.571
		c0.054-0.16,0.16-0.24,0.319-0.24c0.16,0,0.36,0.028,0.6,0.08c0.24,0.054,0.414,0.081,0.52,0.081
		C39.949,140.811,39.469,140.838,38.776,140.571z M37.816,140.411c0,0.16-0.132,0.2-0.4,0.121c-0.266-0.08-0.452-0.121-0.56-0.121
		c0.054-0.052,0.213-0.08,0.479-0.08C37.604,140.331,37.764,140.359,37.816,140.411z M27.743,140.571c0-0.106-0.066-0.16-0.2-0.16
		c-0.132,0-0.172,0.054-0.12,0.16H27.743z M25.025,140.331c0,0.107,0.027,0.16,0.08,0.16
		C25.105,140.385,25.078,140.331,25.025,140.331z M31.42,140.411c0-0.106-0.026-0.186-0.08-0.24c-0.053-0.052-0.106-0.026-0.16,0.08
		c-0.052,0.054-0.052,0.108,0,0.16H31.42z M28.382,140.171c-0.052,0-0.08-0.026-0.08-0.08c-0.212,0-0.266,0.08-0.16,0.24h0.16
		C28.356,140.278,28.382,140.225,28.382,140.171z M44.612,140.091c0,0.16,0.027,0.24,0.08,0.24
		C44.691,140.171,44.666,140.091,44.612,140.091z M51.088,140.011v-0.16h-0.241v0.16H51.088z M6.877,139.531
		c0.214-0.211,0.133-0.399-0.24-0.559C6.637,139.025,6.717,139.212,6.877,139.531z M47.41,138.013c0-0.267-0.106-0.4-0.32-0.4
		l-0.08,0.08l-0.081,0.08L47.41,138.013z M47.73,137.693c-0.106-0.106-0.187-0.16-0.24-0.16v0.08h0.08
		C47.624,137.666,47.677,137.693,47.73,137.693z M46.29,137.533c0.161-0.692,0.028-1.146-0.399-1.36
		C46.051,136.921,46.185,137.373,46.29,137.533z M45.411,137.373v-0.16h-0.24v0.16H45.411z M46.851,137.213
		c0-0.106,0.04-0.132,0.12-0.08c0.08,0.054,0.093,0.107,0.04,0.16c0.267-0.053,0.427-0.053,0.479,0
		c-0.16-0.586-0.506-0.959-1.039-1.12C46.558,136.707,46.69,137.053,46.851,137.213z M45.491,136.813
		c-0.266,0-0.399,0.081-0.399,0.24C45.306,137.053,45.439,136.974,45.491,136.813z M44.932,136.414
		c-0.106,0.213-0.08,0.319,0.08,0.319c0.053,0.054,0.107,0.054,0.16,0C45.171,136.627,45.092,136.521,44.932,136.414z
		 M45.891,136.094v-0.799c-0.16,0-0.24-0.16-0.24-0.48c-0.212,0.108-0.266,0.32-0.16,0.64
		C45.599,135.774,45.731,135.988,45.891,136.094z M5.837,134.975c-0.053-0.052-0.106-0.146-0.16-0.28
		c-0.053-0.132-0.106-0.226-0.16-0.279c0,0.054-0.026,0.12-0.081,0.2c-0.052,0.08-0.052,0.148,0,0.2
		C5.651,134.922,5.785,134.975,5.837,134.975z M5.437,134.335h0.161v-0.161l-0.08-0.08H5.357v0.16
		C5.411,134.255,5.437,134.283,5.437,134.335z M5.357,133.776c-0.16-0.586-0.399-1.04-0.719-1.359
		C4.906,133.215,5.145,133.669,5.357,133.776z M46.29,132.576c-0.211,0-0.319,0.08-0.319,0.24
		C46.238,132.976,46.345,132.896,46.29,132.576z M44.292,131.937c0,0.054-0.026,0.134-0.081,0.239
		c-0.052,0.108-0.026,0.161,0.081,0.161C44.399,132.124,44.399,131.99,44.292,131.937z M3.04,128.818
		c0,0.054,0.067,0.081,0.199,0.081c0.134,0,0.2,0.053,0.2,0.16c-0.052,0.479,0.028,0.947,0.24,1.399
		c0.213,0.453,0.32,0.813,0.32,1.08c0.213-0.053,0.333,0.04,0.36,0.28c0.027,0.239,0.12,0.359,0.28,0.359
		c0.054-0.052,0.067-0.172,0.04-0.359c-0.026-0.187,0.014-0.307,0.12-0.36c-0.266,0-0.399-0.08-0.399-0.239
		c-0.266-0.426-0.506-1.16-0.72-2.199c-0.212-1.04-0.479-1.745-0.799-2.119c-0.053,0.053-0.066,0.16-0.04,0.32
		c0.028,0.16-0.013,0.267-0.12,0.32C2.933,127.7,3.04,128.127,3.04,128.818z M5.598,131.057l0.16,0.16l-0.08-0.081L5.598,131.057z
		 M44.771,130.737c-0.16,0-0.24,0.08-0.24,0.24C44.745,130.978,44.826,130.897,44.771,130.737z M43.252,130.178
		c-0.106-0.64-0.266-1.172-0.479-1.599c-0.212-0.426-0.532-0.906-0.959-1.438c-0.426-0.532-0.72-0.906-0.88-1.12
		c0.213,0.588,0.6,1.307,1.159,2.16C42.653,129.032,43.04,129.698,43.252,130.178z M43.572,129.298v-0.16h-0.239v0.16H43.572z
		 M4.798,128.259c0-0.161-0.08-0.267-0.24-0.32C4.558,128.207,4.638,128.313,4.798,128.259z M43.333,128.099
		c-0.053,0-0.081-0.08-0.081-0.239C43.307,127.859,43.333,127.939,43.333,128.099z M3.52,127.7c0,0.107,0.027,0.16,0.08,0.16
		C3.599,127.753,3.573,127.7,3.52,127.7z M4.638,127.779c0-0.16-0.052-0.36-0.16-0.6c-0.107-0.24-0.133-0.466-0.08-0.68h-0.4
		c0.16,0.427,0.267,0.667,0.32,0.72c-0.106-0.053-0.186,0-0.24,0.16c0.054-0.052,0.094-0.04,0.12,0.04
		c0.027,0.08,0.067,0.173,0.12,0.28C4.372,127.807,4.479,127.833,4.638,127.779z M46.531,127.379c0,0.213-0.053,0.32-0.16,0.32
		v-0.241c0.053,0,0.08-0.026,0.08-0.08H46.531z M47.25,127.3c0,0.159,0.028,0.24,0.08,0.24C47.33,127.379,47.304,127.3,47.25,127.3z
		 M1.68,121.224c0.16,0.374,0.228,0.854,0.2,1.439c-0.026,0.587,0.094,1.013,0.36,1.279c0,0.054-0.026,0.174-0.08,0.36
		c-0.053,0.188-0.081,0.333-0.081,0.439c0.054,0.107,0.12,0.267,0.2,0.48c0.08,0.213,0.174,0.374,0.28,0.479H2.24
		c0.053,0.16,0.12,0.348,0.2,0.56c0.08,0.213,0.147,0.399,0.199,0.559c0.32-0.052,0.454-0.266,0.4-0.639
		c-0.053-0.373-0.16-0.746-0.32-1.12c-0.16-0.372-0.132-0.692,0.08-0.959c-0.052,0-0.132,0.028-0.239,0.081
		c-0.106-0.213-0.08-0.453,0.08-0.72c-0.052-0.052-0.105-0.08-0.159-0.08c-0.053,0-0.106,0-0.16,0c0-0.372-0.04-1.291-0.12-2.758
		c-0.08-1.465-0.066-2.491,0.04-3.078c-0.212,0.053-0.346,0.227-0.4,0.519c-0.053,0.294-0.16,0.44-0.319,0.44
		c0.213,0.16,0.333,0.4,0.359,0.72c0.028,0.32,0,0.708-0.08,1.159C1.72,120.837,1.68,121.118,1.68,121.224z M42.374,126.1
		c0.213,0.054,0.319,0.24,0.319,0.56C42.48,126.608,42.374,126.42,42.374,126.1z M3.918,126.181c0,0.16,0.028,0.24,0.08,0.24
		C3.999,126.314,3.973,126.234,3.918,126.181z M40.854,125.94c-0.426-1.12-0.799-1.679-1.119-1.679
		c0.107,0.107,0.267,0.387,0.479,0.84C40.428,125.554,40.642,125.834,40.854,125.94z M48.45,125.381c-0.106,0-0.161,0.08-0.161,0.24
		c0-0.053,0.041-0.093,0.121-0.121C48.49,125.474,48.503,125.435,48.45,125.381z M47.011,125.541c-0.053,0-0.081-0.027-0.081-0.081
		c0-0.052,0.028-0.08,0.081-0.08V125.541z M41.334,124.981c0,0.107,0.028,0.16,0.08,0.16
		C41.414,125.034,41.388,124.981,41.334,124.981z M47.25,124.741c0.107,0.107,0.16,0.213,0.16,0.32
		C47.304,125.115,47.25,125.008,47.25,124.741z M47.33,124.662c-0.052,0-0.08-0.052-0.08-0.16c0.054,0,0.08,0.027,0.08,0.08V124.662
		z M3.199,124.262c0.107-0.053,0.133-0.212,0.08-0.479c-0.053-0.267-0.08-0.426-0.08-0.48c-0.212,0.054-0.307,0.199-0.279,0.44
		C2.947,123.981,3.04,124.155,3.199,124.262z M48.369,124.262l-0.08-0.08l0.08-0.081V124.262z M39.016,124.182
		c0-0.161-0.053-0.241-0.16-0.241C38.855,124.102,38.909,124.182,39.016,124.182z M40.774,123.623
		c0.213-0.053,0.373,0.08,0.48,0.399c0,0.054,0,0.108,0,0.161C41.042,124.129,40.882,123.941,40.774,123.623z M49.409,123.542
		c-0.106-0.053-0.186-0.012-0.24,0.12c-0.053,0.134-0.026,0.227,0.08,0.279c0-0.052,0.04-0.105,0.121-0.159
		C49.449,123.729,49.462,123.649,49.409,123.542z M39.575,123.782c0.054-0.106-0.012-0.2-0.199-0.281
		c-0.186-0.08-0.28-0.04-0.28,0.121c0.108,0,0.188,0.04,0.24,0.12C39.389,123.822,39.469,123.836,39.575,123.782z M39.975,122.343
		c0.054-0.106,0.12-0.226,0.2-0.36c0.081-0.132,0.121-0.226,0.121-0.279c0.213,0.054,0.4,0.279,0.559,0.679
		c0.16,0.399,0.348,0.627,0.56,0.679c0,0.108,0.027,0.228,0.08,0.36c0.054,0.134,0.054,0.254,0,0.36
		c-0.212-0.106-0.56-0.666-1.039-1.679c-0.106,0-0.172,0.054-0.2,0.16C40.229,122.37,40.134,122.396,39.975,122.343z M47.97,123.542
		v-0.16h0.239v0.16H47.97z M38.296,122.343c0.053,0.107,0.107,0.12,0.16,0.04c0.054-0.08,0.08-0.066,0.08,0.04
		c0.107,0.533,0.24,0.827,0.4,0.879c0.107,0.054,0.214,0.08,0.319,0.08c-0.052-0.16-0.16-0.359-0.319-0.6
		c-0.16-0.239-0.281-0.439-0.36-0.599c-0.08-0.161-0.12-0.346-0.12-0.56c-0.32-0.106-0.48-0.053-0.48,0.16
		C38.03,121.783,38.136,121.971,38.296,122.343z M48.369,122.822c0,0.268,0.028,0.4,0.081,0.4c-0.106,0.107-0.187,0.107-0.241,0
		C47.997,122.956,48.05,122.822,48.369,122.822z M39.495,122.423c-0.052,0-0.092-0.04-0.12-0.12c-0.026-0.08-0.066-0.12-0.12-0.12
		C39.203,122.291,39.283,122.37,39.495,122.423z M39.415,121.383c0.213,0.054,0.374,0.028,0.48-0.08c0.107,0.108,0.107,0.228,0,0.36
		c-0.106,0.133-0.24,0.2-0.4,0.2C39.443,121.811,39.415,121.651,39.415,121.383z M49.009,121.863c-0.053,0-0.08-0.053-0.08-0.16
		C48.983,121.704,49.009,121.757,49.009,121.863z M38.136,121.383c-0.266-0.426-0.399-0.719-0.399-0.879
		c-0.373,0.16-0.373,0.427,0,0.799C37.844,121.463,37.976,121.491,38.136,121.383z M38.456,119.065c0.054,0,0.12,0.054,0.199,0.16
		c0.081,0.107,0.174,0.159,0.281,0.159c0.107,0.427,0.319,0.614,0.639,0.56c0,0.268,0.054,0.427,0.161,0.479
		c0,0.054-0.041,0.094-0.12,0.121c-0.081,0.027-0.12,0.067-0.12,0.12c0.214,0,0.32,0.107,0.32,0.32
		c-0.053,0.107-0.133,0.187-0.241,0.239c0.054-0.32-0.052-0.48-0.319-0.48c-0.105,0-0.16,0.054-0.16,0.16
		c-0.106-0.106-0.132-0.266-0.08-0.48c0.053-0.212,0.16-0.292,0.32-0.239c-0.32-0.16-0.56-0.346-0.72-0.56
		c-0.053,0-0.08,0.08-0.08,0.239v0.16c-0.16,0-0.239-0.041-0.239-0.12c0-0.08,0.027-0.212,0.08-0.399
		C38.429,119.318,38.456,119.172,38.456,119.065z M49.649,120.424c0.107-0.052,0.199-0.026,0.28,0.081
		c0.08,0.107,0.147,0.16,0.199,0.16c0,0.16-0.092,0.2-0.28,0.12C49.662,120.704,49.596,120.584,49.649,120.424z M51.647,120.664
		v-0.24h-0.16v0.24H51.647z M37.496,120.504c-0.052,0-0.132-0.026-0.239-0.081l-0.08-0.08c-0.052,0.107-0.026,0.187,0.08,0.24
		C37.364,120.638,37.444,120.612,37.496,120.504z M37.257,120.185c0-0.053-0.026-0.132-0.08-0.24c-0.052-0.106-0.12-0.186-0.2-0.24
		c-0.081-0.053-0.172-0.08-0.28-0.08C36.805,119.999,36.99,120.185,37.257,120.185z M37.737,119.785c-0.053,0-0.08-0.026-0.08-0.08
		c-0.107-0.16-0.212-0.212-0.32-0.16c-0.052,0.16,0.028,0.267,0.24,0.319C37.63,119.864,37.684,119.838,37.737,119.785z
		 M50.847,119.625c-0.265-0.267-0.159-0.48,0.32-0.64c0.107,0,0.213,0,0.32,0L50.847,119.625z M37.816,119.464
		c0-0.16-0.16-0.345-0.48-0.559C37.444,119.225,37.604,119.413,37.816,119.464z M37.097,119.065c-0.16,0.16-0.16,0.267,0,0.319
		c0.054,0,0.107,0,0.16,0C37.257,119.279,37.204,119.172,37.097,119.065c-0.106-0.32-0.292-0.64-0.56-0.96
		c-0.266-0.32-0.506-0.479-0.719-0.479c0.107,0,0.187,0.067,0.239,0.2c0.054,0.134,0.108,0.228,0.16,0.28
		c-0.106,0.107-0.24,0.134-0.399,0.081c0,0.267,0.08,0.453,0.239,0.559c0.054,0.054,0.108,0.027,0.16-0.08
		c-0.16,0-0.213-0.08-0.16-0.24c0.32,0,0.508,0.028,0.56,0.08l-0.08,0.16c0.16,0.054,0.24,0.107,0.24,0.16l-0.08,0.16
		c-0.106,0.16-0.106,0.267,0,0.319C36.857,119.039,36.99,118.959,37.097,119.065z M36.857,117.466c0-0.106,0.054-0.212,0.16-0.319
		l0.16-0.24c0.054,0.107,0.213,0.294,0.48,0.56c0.267,0.268,0.467,0.52,0.599,0.76c0.134,0.24,0.2,0.467,0.2,0.68
		c-0.053,0-0.132-0.08-0.24-0.24c-0.105-0.16-0.24-0.186-0.399-0.08c0.054-0.213,0-0.346-0.16-0.399
		c0.053-0.106,0.04-0.212-0.041-0.32c-0.08-0.106-0.186-0.187-0.319-0.24C37.164,117.574,37.017,117.52,36.857,117.466z
		 M52.127,118.105c0,0.107-0.052,0.188-0.16,0.24c-0.107,0.055-0.16,0.134-0.16,0.24c-0.266-0.053-0.266-0.186,0-0.399
		C51.915,118.133,52.021,118.105,52.127,118.105z M35.658,118.105v-0.16h-0.241v0.16H35.658z M53.406,117.946
		c0,0.054,0,0.107,0,0.16V117.946z M52.207,117.866c0-0.16,0.134-0.24,0.4-0.24C52.447,117.893,52.314,117.974,52.207,117.866z
		 M34.379,116.267c0.107,0.479,0.427,0.959,0.959,1.439c-0.053-0.212-0.16-0.44-0.32-0.68c-0.16-0.24-0.266-0.412-0.32-0.52
		c0-0.16,0.16-0.24,0.48-0.24c0-0.053-0.092-0.146-0.28-0.28c-0.186-0.133-0.252-0.28-0.2-0.439l0.08,0.08l0.08,0.08l-0.16-0.159
		h-0.319c0,0.053,0.027,0.159,0.08,0.319C34.566,116.081,34.538,116.214,34.379,116.267z M53.566,116.427
		c-0.16,0.427-0.452,0.746-0.879,0.958c0.054-0.16,0.133-0.305,0.239-0.439c0.108-0.133,0.228-0.24,0.36-0.32
		C53.419,116.547,53.514,116.481,53.566,116.427z M35.178,116.586c0.054,0.32,0.239,0.507,0.56,0.56c0-0.053-0.026-0.133-0.08-0.24
		c-0.053-0.106-0.121-0.186-0.201-0.24C35.378,116.614,35.285,116.586,35.178,116.586v-0.08l-0.08-0.08h-0.241
		C34.858,116.534,34.965,116.586,35.178,116.586z M35.417,115.307c-0.105,0-0.12-0.052-0.04-0.16c0.08-0.106,0.094-0.212,0.04-0.32
		c0.32,0.108,0.64,0.414,0.96,0.919c0.32,0.507,0.533,0.787,0.64,0.839c0.053,0.16,0.027,0.24-0.081,0.24
		c-0.372-0.053-0.612-0.24-0.719-0.56c0.213-0.053,0.134-0.292-0.24-0.719C35.711,115.335,35.526,115.255,35.417,115.307z
		 M53.566,116.427c0-0.16,0.107-0.24,0.32-0.24v0.24H53.566z M33.979,115.867c0,0.16,0.028,0.24,0.081,0.24
		C34.059,116.001,34.032,115.921,33.979,115.867z M54.366,115.867c-0.053-0.052-0.04-0.146,0.04-0.279
		c0.081-0.132,0.214-0.24,0.4-0.32c0.188-0.08,0.333-0.092,0.44-0.04c-0.053,0.108-0.2,0.2-0.44,0.28
		C54.565,115.587,54.419,115.707,54.366,115.867z M35.577,115.627c-0.051-0.053-0.051-0.132,0-0.24c0.054,0,0.054,0.027,0,0.08
		C35.526,115.521,35.526,115.575,35.577,115.627z M57.004,115.228c0,0.108,0.026,0.16,0.08,0.16v-0.081
		C57.084,115.255,57.056,115.228,57.004,115.228z M33.339,115.307h0.16v-0.16c-0.052,0-0.08-0.026-0.08-0.08h-0.16v0.16
		C33.313,115.228,33.339,115.255,33.339,115.307z M2.799,114.828c0.054,0,0.108,0.014,0.161,0.04
		c0.053,0.028,0.107,0.041,0.16,0.041c0,0.053-0.026,0.107-0.08,0.16c-0.106,0.107-0.187,0.08-0.241-0.08
		C2.799,114.936,2.799,114.882,2.799,114.828z M55.404,114.908c0-0.053,0.08-0.121,0.24-0.201c0.16-0.08,0.24-0.199,0.24-0.359
		c0.213,0,0.32,0.133,0.32,0.399c-0.107-0.052-0.227-0.012-0.36,0.12C55.711,115.002,55.564,115.015,55.404,114.908z
		 M33.899,114.908c0.054-0.107,0-0.161-0.16-0.161l-0.16-0.08v0.24H33.899z M34.698,113.708c0.107-0.053,0.16,0.027,0.16,0.24
		c0.054,0,0.12-0.012,0.2-0.04c0.08-0.026,0.147-0.012,0.2,0.04c-0.053,0.267,0,0.4,0.159,0.4c-0.052,0.107-0.066,0.199-0.04,0.279
		c0.027,0.08,0.014,0.147-0.04,0.2c-0.426-0.16-0.64-0.292-0.64-0.399c0.107,0.107,0.24,0.16,0.4,0.16
		C34.938,114.428,34.806,114.136,34.698,113.708z M2.16,114.188c0.053,0.053,0.093,0.16,0.12,0.32
		c0.027,0.16-0.013,0.239-0.12,0.239c-0.106,0.054-0.187,0-0.24-0.16c-0.106-0.212-0.08-0.346,0.08-0.399H2.16z M32.939,114.748
		c0-0.16-0.106-0.292-0.32-0.399C32.62,114.508,32.728,114.642,32.939,114.748z M57.563,114.748v-0.16h-0.24v0.16H57.563z
		 M2.799,114.668c-0.052-0.106-0.052-0.2,0-0.28c0.054-0.08,0.081-0.146,0.081-0.2c0,0.053,0.067,0.12,0.2,0.2
		c0.133,0.08,0.227,0.174,0.279,0.28H2.799z M32.939,114.349c0.053,0,0.134,0.027,0.24,0.08c0.107,0.054,0.213,0.054,0.319,0
		c-0.16-0.372-0.452-0.64-0.879-0.799c0,0.107,0.08,0.214,0.24,0.319C33.02,114.056,33.047,114.188,32.939,114.349z M4.158,112.909
		c0,0.267-0.052,0.573-0.16,0.919c-0.106,0.348-0.16,0.547-0.16,0.6C3.626,114.108,3.732,113.602,4.158,112.909z M56.204,114.268
		c0.533-0.32,0.88-0.479,1.04-0.479C57.244,114.002,56.896,114.162,56.204,114.268z M3.52,112.509c0,0.16-0.013,0.308-0.041,0.44
		c-0.026,0.134-0.066,0.307-0.12,0.52c-0.052,0.213-0.106,0.427-0.16,0.639C2.987,113.896,3.093,113.363,3.52,112.509z
		 M2.32,113.869c0.214,0,0.319-0.026,0.319-0.08c0.16,0.054,0.134,0.108-0.08,0.16C2.399,114.056,2.32,114.028,2.32,113.869z
		 M32.38,113.948c0-0.16-0.08-0.24-0.24-0.24C32.14,113.869,32.22,113.948,32.38,113.948z M2.32,113.869
		c-0.106,0.054-0.187,0.028-0.24-0.08c-0.052-0.106-0.026-0.212,0.081-0.319C2.267,113.522,2.32,113.656,2.32,113.869z
		 M32.54,113.629v-0.24h-0.16v0.24H32.54z M56.125,113.389c0,0.16,0.026,0.24,0.08,0.24c-0.053,0-0.08-0.053-0.08-0.16V113.389z
		 M2.24,112.909c0.267,0,0.427,0.027,0.479,0.08c0,0.107-0.012,0.187-0.04,0.239c-0.026,0.054-0.04,0.108-0.04,0.16
		C2.48,113.389,2.347,113.229,2.24,112.909z M61.401,112.829c-0.213,0-0.374,0.054-0.48,0.16
		C61.241,113.096,61.401,113.043,61.401,112.829z M32.06,112.909v-0.16c-0.16,0-0.212,0.054-0.16,0.16H32.06z M61.96,112.669h-0.24
		c-0.16,0.054-0.24,0.108-0.24,0.16l0.56-0.08L61.96,112.669z M2.24,112.749l0.16-0.16c0.107-0.106,0.214-0.133,0.32-0.08v0.24H2.24
		z M33.499,112.749v-0.16h-0.16v0.16H33.499z M31.34,112.43c-0.106,0-0.212,0.054-0.319,0.16
		C31.128,112.643,31.234,112.589,31.34,112.43z M58.763,112.43c0.16-0.053,0.186-0.106,0.08-0.16
		c-0.107-0.053-0.187-0.027-0.239,0.08c0.052,0,0.08,0.014,0.08,0.04C58.683,112.417,58.709,112.43,58.763,112.43z M61.241,112.109
		v0.32c-0.054,0-0.16-0.08-0.32-0.24C60.921,112.137,61.027,112.109,61.241,112.109z M2.639,112.35c-0.052-0.052-0.052-0.133,0-0.24
		V112.35z M3.599,112.189l0.08-0.08c0-0.16,0.08-0.212,0.24-0.16C3.918,112.163,3.813,112.243,3.599,112.189z M31.181,112.029
		c0-0.265-0.08-0.399-0.24-0.399C30.888,111.79,30.969,111.924,31.181,112.029z M32.779,111.71v-0.24
		c0.16-0.052,0.24,0.027,0.24,0.24c0.054,0.107,0.08,0.188,0.08,0.24c-0.107,0.054-0.16,0-0.16-0.16
		C32.887,111.737,32.833,111.71,32.779,111.71z M59.722,111.95c0.479-0.16,0.719-0.266,0.719-0.32
		c-0.054,0.054-0.173,0.094-0.36,0.12C59.894,111.777,59.774,111.844,59.722,111.95z M2.879,111.71l-0.081-0.16
		C2.799,111.657,2.827,111.71,2.879,111.71z M63.639,111.63v-0.16h-0.239v0.16H63.639z M3.918,111.55c0-0.266,0.134-0.4,0.4-0.4
		C4.212,111.47,4.079,111.604,3.918,111.55z M2.959,111.47c-0.052,0-0.08-0.106-0.08-0.32C2.933,111.15,2.959,111.258,2.959,111.47z
		 M4.958,110.59c-0.053,0-0.081-0.053-0.081-0.16C4.931,110.431,4.958,110.484,4.958,110.59z M4.079,110.511
		c-0.052,0-0.08-0.08-0.08-0.24C4.052,110.325,4.079,110.405,4.079,110.511z M5.837,109.631c0,0.054-0.026,0.107-0.08,0.16
		c-0.052,0.054-0.052,0.107,0,0.16c0.054,0.054,0.107,0.014,0.16-0.12C5.971,109.698,5.945,109.631,5.837,109.631z M29.981,109.312
		c0,0.16,0.028,0.24,0.081,0.24v-0.08C30.062,109.365,30.036,109.312,29.981,109.312z M5.518,108.432
		c-0.107,0-0.187,0.054-0.24,0.16v0.16C5.437,108.752,5.518,108.646,5.518,108.432z M6.637,107.393
		c-0.106,0.213-0.16,0.374-0.16,0.48c0.214,0.054,0.374-0.026,0.48-0.24c-0.053,0-0.092-0.052-0.12-0.16
		C6.811,107.367,6.744,107.34,6.637,107.393z M7.196,107.393c0-0.052,0.027-0.132,0.08-0.24c0.054-0.106,0.028-0.16-0.08-0.16
		C7.091,107.261,7.091,107.393,7.196,107.393z M27.663,107.153c-0.16-0.106-0.267-0.106-0.32,0H27.663z M6.796,106.993v-0.16h-0.16
		v0.16H6.796z M7.597,106.513c-0.267,0.268-0.267,0.4,0,0.4C7.704,106.701,7.704,106.567,7.597,106.513z M27.423,106.753
		c0,0.108,0.028,0.16,0.08,0.16C27.503,106.807,27.477,106.753,27.423,106.753z M8.556,105.874c-0.16,0-0.32,0.068-0.479,0.2
		c-0.16,0.134-0.213,0.254-0.16,0.36c0-0.106,0.094-0.2,0.28-0.28C8.383,106.073,8.503,105.981,8.556,105.874z M26.064,105.394
		c-0.052,0-0.08-0.026-0.08-0.08C26.092,105.314,26.118,105.342,26.064,105.394z M9.755,104.834c-0.267,0-0.426,0.107-0.48,0.319
		C9.595,105.154,9.755,105.048,9.755,104.834z M22.066,103.075c0.054-0.052,0.12-0.066,0.2-0.04c0.08,0.027,0.174,0.067,0.28,0.12
		c0.107,0.054,0.188,0.08,0.239,0.08c-0.052,0.16-0.186,0.16-0.399,0L22.066,103.075z M20.228,102.436h0.32
		C20.495,102.543,20.388,102.543,20.228,102.436z"/>
	<path fill="none" d="M45.092,93.962c-0.746-3.944-2.079-7.916-3.998-11.912c0-0.053,0-0.2,0-0.44s0.053-0.412,0.16-0.52
		c0.267,0.054,0.639-0.026,1.119-0.239c0.16,0.268,0.374,0.613,0.64,1.039c0.267,0.427,0.507,0.827,0.719,1.199
		c0.214,0.374,0.399,0.747,0.56,1.119c-0.107,0.054-0.187,0.08-0.24,0.08c-0.106,0-0.212,0-0.32,0c0.374,0.213,0.374,0.399,0,0.56
		c0.054,0.107,0.147,0.187,0.28,0.239c0.134,0.054,0.228,0.108,0.28,0.16l0.08-0.08l0.08-0.08c0.107-0.16,0-0.239-0.32-0.239
		c0.161-0.213,0.268-0.292,0.32-0.241c0.054,0.054,0.147,0.188,0.279,0.4c0.134,0.214,0.254,0.319,0.36,0.319
		c0,0.108-0.053,0.188-0.16,0.24c-0.106,0.054-0.132,0.133-0.08,0.24c0.054,0.16,0.188,0.227,0.4,0.2
		c0.214-0.026,0.347-0.012,0.4,0.04c0.053,0.108,0,0.16-0.16,0.16c-0.266,0.054-0.399,0.028-0.399-0.08
		c0.053,0.16,0.187,0.347,0.399,0.559c0.213,0.214,0.347,0.374,0.4,0.48c0.054,0.108,0.027,0.188-0.08,0.24
		c-0.107,0.053-0.16,0.107-0.16,0.16c0,0.107,0.16,0.16,0.479,0.16c0.054,0.108,0,0.174-0.16,0.2c-0.16,0.027-0.24,0.067-0.24,0.12
		c0,0.053,0.053,0.16,0.16,0.32c0.107,0.16,0.08,0.267-0.08,0.319c0.054,0.108,0.133,0.108,0.239,0
		c0.107-0.106,0.188-0.16,0.239-0.16c-0.052,0.107-0.066,0.268-0.04,0.479c0.028,0.213-0.012,0.4-0.12,0.56
		c0.159,0,0.24-0.08,0.24-0.241c0-0.16,0.08-0.239,0.239-0.239v0.639h-0.4c0.054,0.32,0.08,0.614,0.08,0.879
		c0.268,0.054,0.294,0.188,0.081,0.4c0.053,0.054,0.133,0.04,0.239-0.04c0.107-0.08,0.24-0.092,0.4-0.04
		c0.053,0.16,0.146,0.733,0.279,1.719c0.134,0.987,0.333,1.759,0.6,2.319c0.267,0.56,0.693,0.839,1.279,0.839
		c0.374,0.268,1.013,0.694,1.919,1.279c0.907,0.587,1.599,1.053,2.079,1.399c0.479,0.347,0.947,0.893,1.399,1.64
		c0.454,0.747,0.68,1.572,0.68,2.478c-0.373,1.652-1.372,2.785-2.999,3.398c-1.625,0.612-3.344,0.692-5.156,0.24
		c-1.812-0.454-3.171-1.239-4.077-2.359c-0.586,0-0.932,0.028-1.04,0.08c-1.811-0.16-3.051-0.919-3.718-2.278
		c-0.666-1.359-0.76-2.798-0.28-4.317s1.307-2.705,2.479-3.558C42.001,93.056,43.546,93.109,45.092,93.962z M46.131,102.836
		c0.107,0.053,0.467,0.213,1.079,0.479c0.613,0.268,1.067,0.454,1.359,0.56c0.293,0.107,0.719,0.228,1.279,0.36
		s1.08,0.172,1.559,0.12c0.479-0.054,0.959-0.186,1.439-0.4c-0.052-0.372-0.146-0.732-0.279-1.079c-0.132-0.346-0.32-0.679-0.56-1
		c-0.24-0.32-0.426-0.572-0.56-0.759c-0.133-0.187-0.399-0.426-0.799-0.72c-0.4-0.292-0.666-0.48-0.8-0.56
		c-0.132-0.08-0.452-0.266-0.959-0.56c-0.506-0.292-0.786-0.466-0.839-0.519C47.89,99.772,47.25,101.131,46.131,102.836z
		 M39.495,97.239c0.16,0.213,0.4,0.6,0.72,1.159c0.32,0.56,0.587,0.987,0.799,1.28c0.214,0.293,0.533,0.547,0.959,0.759
		c0.427,0.214,0.933,0.24,1.519,0.08c0.587,0.694,1.119,1.04,1.599,1.04c0.587-1.065,0.773-2.451,0.56-4.158
		c-0.106-0.052-0.346-0.146-0.72-0.279c-0.373-0.132-0.652-0.24-0.84-0.32c-0.186-0.08-0.466-0.172-0.839-0.28
		c-0.372-0.106-0.666-0.173-0.879-0.2c-0.213-0.026-0.466-0.04-0.76-0.04c-0.292,0-0.559,0.027-0.799,0.08
		c-0.24,0.054-0.479,0.16-0.72,0.32C39.855,96.84,39.655,97.027,39.495,97.239z M47.17,93.722l-0.08,0.08
		c-0.053,0.054-0.053,0.108,0,0.16c0.053,0.054,0.107,0.054,0.16,0C47.25,93.855,47.224,93.775,47.17,93.722z M46.851,92.443v0.48
		C47.118,92.656,47.118,92.497,46.851,92.443z M46.051,92.363l-0.239,0.479c0.213,0.054,0.347-0.013,0.399-0.2
		C46.264,92.457,46.21,92.363,46.051,92.363z M45.812,91.483l0.08-0.08v-0.32c-0.267,0-0.346,0.134-0.24,0.4H45.812z M45.812,91.483
		c0-0.052,0.027-0.08,0.08-0.08C45.891,91.457,45.865,91.483,45.812,91.483z M45.411,91.004c0.32-0.053,0.467-0.267,0.44-0.64
		c-0.026-0.372-0.12-0.64-0.28-0.799c-0.16,0.159-0.212,0.399-0.16,0.719C45.465,90.604,45.465,90.844,45.411,91.004z
		 M45.171,89.005c-0.053-0.16-0.08-0.52-0.08-1.079s-0.08-0.999-0.24-1.319l-0.24,1.599c0.16,0,0.254,0.053,0.28,0.16
		c0.028,0.107,0.054,0.239,0.08,0.399C44.999,88.925,45.065,89.005,45.171,89.005z M44.612,86.686v-0.319
		c-0.16,0-0.239,0.107-0.239,0.319H44.612z M44.691,86.127c0-0.266-0.08-0.4-0.239-0.4c0,0.054-0.026,0.108-0.08,0.16
		c-0.053,0.054-0.08,0.107-0.08,0.159c0.053,0,0.107,0.014,0.16,0.041C44.506,86.114,44.586,86.127,44.691,86.127z M44.373,85.567
		c-0.106,0.054-0.187,0.027-0.241-0.08c-0.106-0.052-0.186-0.08-0.239-0.08c-0.053,0.267,0.014,0.399,0.199,0.399
		C44.28,85.807,44.373,85.727,44.373,85.567z"/>
	<path fill="none" d="M45.092,73.097c-0.746-3.944-2.079-7.916-3.998-11.912c0-0.052,0-0.2,0-0.439c0-0.241,0.053-0.413,0.16-0.52
		c0.267,0.054,0.639-0.026,1.119-0.24c0.16,0.267,0.374,0.613,0.64,1.039c0.267,0.427,0.507,0.827,0.719,1.2
		c0.214,0.373,0.399,0.746,0.56,1.119c-0.107,0.053-0.187,0.08-0.24,0.08c-0.106,0-0.212,0-0.32,0c0.374,0.213,0.374,0.4,0,0.56
		c0.054,0.107,0.147,0.187,0.28,0.239c0.134,0.054,0.228,0.107,0.28,0.16l0.08-0.08l0.08-0.08c0.107-0.16,0-0.239-0.32-0.239
		c0.161-0.212,0.268-0.292,0.32-0.24c0.054,0.054,0.147,0.188,0.279,0.4c0.134,0.214,0.254,0.319,0.36,0.319
		c0,0.108-0.053,0.188-0.16,0.24c-0.106,0.054-0.132,0.134-0.08,0.24c0.054,0.16,0.188,0.227,0.4,0.2
		c0.214-0.026,0.347-0.012,0.4,0.04c0.053,0.108,0,0.161-0.16,0.161c-0.266,0.053-0.399,0.027-0.399-0.08
		c0.053,0.16,0.187,0.347,0.399,0.56c0.213,0.213,0.347,0.374,0.4,0.48c0.054,0.107,0.027,0.187-0.08,0.239
		c-0.107,0.054-0.16,0.107-0.16,0.16c0,0.107,0.16,0.16,0.479,0.16c0.054,0.107,0,0.173-0.16,0.2c-0.16,0.027-0.24,0.067-0.24,0.12
		c0,0.054,0.053,0.161,0.16,0.32s0.08,0.268-0.08,0.32c0.054,0.107,0.133,0.107,0.239,0c0.107-0.106,0.188-0.16,0.239-0.16
		c-0.052,0.108-0.066,0.268-0.04,0.479c0.028,0.214-0.012,0.4-0.12,0.56c0.159,0,0.24-0.081,0.24-0.24c0-0.16,0.08-0.24,0.239-0.24
		v0.64h-0.4c0.054,0.319,0.08,0.613,0.08,0.879c0.268,0.055,0.294,0.188,0.081,0.4c0.053,0.054,0.133,0.04,0.239-0.04
		c0.107-0.08,0.24-0.092,0.4-0.04c0.053,0.16,0.146,0.733,0.279,1.719c0.134,0.987,0.333,1.759,0.6,2.319
		c0.267,0.56,0.693,0.839,1.279,0.839c0.374,0.268,1.013,0.694,1.919,1.279c0.907,0.587,1.599,1.053,2.079,1.399
		c0.479,0.347,0.947,0.893,1.399,1.639c0.454,0.748,0.68,1.572,0.68,2.479c-0.373,1.651-1.372,2.784-2.999,3.397
		c-1.625,0.613-3.344,0.692-5.156,0.24c-1.812-0.454-3.171-1.239-4.077-2.359c-0.586,0-0.932,0.027-1.04,0.08
		c-1.811-0.16-3.051-0.919-3.718-2.278c-0.666-1.359-0.76-2.798-0.28-4.317c0.48-1.519,1.307-2.705,2.479-3.558
		C42.001,72.191,43.546,72.244,45.092,73.097z M46.131,81.97c0.107,0.054,0.467,0.214,1.079,0.48
		c0.613,0.268,1.067,0.454,1.359,0.56c0.293,0.108,0.719,0.228,1.279,0.36c0.56,0.132,1.08,0.172,1.559,0.12
		c0.479-0.054,0.959-0.186,1.439-0.4c-0.052-0.372-0.146-0.732-0.279-1.079c-0.132-0.346-0.32-0.679-0.56-1
		c-0.24-0.319-0.426-0.572-0.56-0.759c-0.133-0.186-0.399-0.426-0.799-0.72c-0.4-0.292-0.666-0.479-0.8-0.56
		c-0.132-0.08-0.452-0.266-0.959-0.56c-0.506-0.292-0.786-0.466-0.839-0.52C47.89,78.907,47.25,80.266,46.131,81.97z M39.495,76.374
		c0.16,0.214,0.4,0.6,0.72,1.16s0.587,0.987,0.799,1.279c0.214,0.293,0.533,0.547,0.959,0.76c0.427,0.213,0.933,0.239,1.519,0.08
		c0.587,0.693,1.119,1.04,1.599,1.04c0.587-1.065,0.773-2.451,0.56-4.158c-0.106-0.052-0.346-0.146-0.72-0.28
		c-0.373-0.132-0.652-0.239-0.84-0.32c-0.186-0.08-0.466-0.172-0.839-0.279c-0.372-0.106-0.666-0.172-0.879-0.199
		c-0.213-0.027-0.466-0.041-0.76-0.041c-0.292,0-0.559,0.028-0.799,0.08c-0.24,0.054-0.479,0.16-0.72,0.319
		C39.855,75.975,39.655,76.162,39.495,76.374z M47.17,72.856l-0.08,0.081c-0.053,0.054-0.053,0.107,0,0.16
		c0.053,0.054,0.107,0.054,0.16,0C47.25,72.991,47.224,72.911,47.17,72.856z M46.851,71.578v0.48
		C47.118,71.791,47.118,71.631,46.851,71.578z M46.051,71.498l-0.239,0.479c0.213,0.053,0.347-0.013,0.399-0.2
		C46.264,71.591,46.21,71.498,46.051,71.498z M45.812,70.618l0.08-0.08v-0.32c-0.267,0-0.346,0.134-0.24,0.399H45.812z
		 M45.812,70.618c0-0.052,0.027-0.08,0.08-0.08C45.891,70.592,45.865,70.618,45.812,70.618z M45.411,70.139
		c0.32-0.053,0.467-0.266,0.44-0.64c-0.026-0.372-0.12-0.64-0.28-0.799c-0.16,0.16-0.212,0.399-0.16,0.72
		C45.465,69.738,45.465,69.979,45.411,70.139z M45.171,68.14c-0.053-0.16-0.08-0.52-0.08-1.079s-0.08-0.999-0.24-1.319l-0.24,1.6
		c0.16,0,0.254,0.053,0.28,0.16c0.028,0.107,0.054,0.239,0.08,0.399C44.999,68.06,45.065,68.14,45.171,68.14z M44.612,65.821v-0.32
		c-0.16,0-0.239,0.107-0.239,0.32H44.612z M44.691,65.262c0-0.266-0.08-0.399-0.239-0.399c0,0.054-0.026,0.107-0.08,0.16
		c-0.053,0.054-0.08,0.107-0.08,0.159c0.053,0,0.107,0.014,0.16,0.04C44.506,65.25,44.586,65.262,44.691,65.262z M44.373,64.702
		c-0.106,0.054-0.187,0.027-0.241-0.08c-0.106-0.052-0.186-0.08-0.239-0.08c-0.053,0.268,0.014,0.4,0.199,0.4
		C44.28,64.942,44.373,64.862,44.373,64.702z"/>
	<path fill="none" d="M39.735,58.467c0,0.054,0.027,0.081,0.08,0.081C39.815,58.495,39.789,58.467,39.735,58.467
		c-0.053-0.16-0.48-0.639-1.279-1.438c-0.799-0.8-1.146-1.679-1.04-2.639c0.214-0.319,0.613-0.706,1.199-1.159
		c0.587-0.453,0.987-0.786,1.2-1c1.332-0.16,3.185,0.16,5.556,0.959c2.372,0.8,3.957,1.279,4.756,1.439
		c-0.691-1.332-2.158-3.184-4.397-5.557c-2.238-2.371-3.704-4.437-4.397-6.196c0.054-0.052,0.399-0.452,1.04-1.2
		c0.64-0.745,1.227-1.225,1.758-1.438c0,0.054-0.026,0.08-0.08,0.08c-0.053,0-0.08,0.027-0.08,0.08
		c0.854-0.16,2.053-0.052,3.598,0.32c1.546,0.373,2.718,0.453,3.518,0.239c1.172-2.61-0.106-6.502-3.838-11.672
		c-0.64-1.225-1.785-2.838-3.438-4.836c-1.652-1.999-2.691-3.291-3.118-3.878c0.747,0,1.478,0.28,2.198,0.839
		c0.719,0.56,1.106,1.133,1.159,1.719c0.107,0,0.454,0.16,1.04,0.479c-0.053-0.212-0.2-0.479-0.44-0.799s-0.386-0.666-0.44-1.039
		c0.108,0.053,0.24,0.147,0.4,0.279c0.16,0.134,0.268,0.214,0.32,0.24c0.054,0.028,0.187-0.012,0.4-0.12
		c3.731,3.678,6.769,8.395,9.114,14.151c0.214,1.973-0.026,3.731-0.719,5.276c-0.16,0.054-0.48,0.32-0.96,0.8
		c-1.971,1.013-4.343,1.387-7.115,1.119c0.32,0.32,0.933,1.106,1.838,2.359c0.907,1.252,1.707,2.172,2.398,2.758
		c1.014,0.854,1.772,1.546,2.278,2.079c0.507,0.533,0.987,1.279,1.439,2.239c0.454,0.959,0.52,1.892,0.2,2.798
		c-0.16,0.16-0.506,0.374-1.04,0.639c-0.532,0.268-0.906,0.507-1.119,0.72c-1.226,0.16-2.372,0.174-3.438,0.04
		c-1.065-0.132-2.304-0.412-3.717-0.839c-1.412-0.426-2.359-0.692-2.838-0.799c1.227,1.279,2.786,2.506,4.677,3.677
		c1.892,1.173,3.425,2.026,4.597,2.559c1.173,0.534,3.092,1.385,5.756,2.558c0,0.16,0.04,0.346,0.12,0.56
		c0.08,0.212,0.092,0.4,0.04,0.56c-0.907,0.532-1.545,0.772-1.919,0.719c-0.905,0.586-2.478,0.452-4.717-0.399
		c-5.862-2.292-9.726-3.624-11.592-3.998c-0.852,0.534-1.625,0.454-2.318-0.24c0-0.64,0.2-1.172,0.599-1.599
		c0.4-0.426,0.788-0.72,1.16-0.88C38.429,58.867,38.989,58.681,39.735,58.467z M48.05,56.309c-0.053,0-0.093-0.04-0.12-0.12
		c-0.026-0.08-0.092-0.093-0.2-0.04c-0.053,0.107-0.013,0.188,0.12,0.239C47.983,56.442,48.05,56.416,48.05,56.309z M46.851,55.829
		h-0.32C46.69,55.937,46.798,55.937,46.851,55.829z M46.131,47.594l0.159-0.16c-0.265,0-0.372,0.054-0.319,0.16H46.131z
		 M45.891,47.035c-0.16-0.212-0.452-0.426-0.879-0.64C45.012,46.715,45.306,46.929,45.891,47.035z M45.092,46.235
		c0-0.266-0.16-0.52-0.48-0.759c-0.319-0.24-0.48-0.52-0.48-0.84c-0.266,0-0.399,0.107-0.399,0.32c0.16,0.107,0.374,0.32,0.64,0.64
		C44.639,45.916,44.879,46.129,45.092,46.235z M43.732,44.476c-0.106-0.105-0.186-0.105-0.24,0H43.732z M43.413,44.316
		c0.054-0.052,0.08-0.146,0.08-0.28c0-0.132-0.026-0.252-0.08-0.36c-0.32,0-0.48,0.134-0.48,0.4c0.107,0,0.174,0.054,0.2,0.16
		C43.16,44.344,43.252,44.371,43.413,44.316z M48.45,28.967v-0.16h-0.161v0.16H48.45z M46.29,26.408
		c-0.211,0-0.372,0.054-0.479,0.16C46.185,26.568,46.345,26.516,46.29,26.408z M45.411,23.69c0.108,0.054,0.12,0.174,0.04,0.36
		c-0.08,0.188-0.12,0.308-0.12,0.36c0.16,0.16,0.333,0.427,0.52,0.8c0.187,0.373,0.373,0.68,0.56,0.919
		c0.187,0.24,0.413,0.36,0.679,0.36c-0.053-0.106-0.226-0.333-0.52-0.68c-0.292-0.346-0.506-0.652-0.64-0.919
		c-0.132-0.267-0.147-0.506-0.04-0.72l0.16,0.479c0-0.266-0.053-0.426-0.16-0.479c-0.053-0.053-0.092-0.12-0.12-0.2
		c-0.026-0.08-0.066-0.146-0.12-0.201C45.599,23.718,45.519,23.69,45.411,23.69v-0.16h-0.24
		C45.171,23.638,45.251,23.69,45.411,23.69z M43.173,22.411c0.054,0.107,0.16,0.307,0.32,0.599c0.16,0.294,0.293,0.52,0.4,0.68
		c0.107,0.161,0.253,0.334,0.44,0.52c0.187,0.188,0.387,0.333,0.599,0.44c0,0.054-0.052,0.08-0.16,0.08l-0.08,0.08
		c0.054,0.214,0.134,0.4,0.24,0.56c0.107,0.16,0.253,0.347,0.44,0.56c0.187,0.213,0.333,0.373,0.44,0.479
		c0.213-0.212,0.16-0.506-0.16-0.879c-0.32-0.372-0.426-0.666-0.32-0.879h-0.4c0.054-0.052,0.04-0.132-0.04-0.24
		c-0.08-0.106-0.066-0.213,0.04-0.32c-0.212,0.054-0.373-0.013-0.479-0.2c-0.106-0.187-0.186-0.306-0.24-0.36
		c0.214,0,0.32-0.053,0.32-0.16c-0.32,0.054-0.612-0.08-0.879-0.4C43.387,22.651,43.227,22.465,43.173,22.411
		c-0.053-0.052-0.08-0.132-0.08-0.24c-0.053-0.212-0.16-0.292-0.32-0.239C42.933,22.251,43.066,22.411,43.173,22.411z
		 M43.732,21.452c0.054-0.106,0.147-0.12,0.28-0.04c0.134,0.08,0.173,0.174,0.12,0.279c-0.106,0.055-0.172,0.028-0.199-0.08
		C43.906,21.505,43.84,21.452,43.732,21.452z"/>
	<path fill="none" d="M45.651,9.061c0.16,0,0.24-0.053,0.24-0.161c0-0.052-0.013-0.08-0.04-0.08c-0.026,0-0.04-0.026-0.04-0.08
		C45.705,8.688,45.651,8.794,45.651,9.061c-0.692-0.747-1.639-1.879-2.838-3.398c-1.2-1.519-2.091-2.598-2.679-3.237
		c0.214-0.106,0.32-0.24,0.32-0.4c1.546,0.427,2.532,1.119,2.958,2.078c0.16,0.054,0.213,0,0.16-0.159c0-0.053,0-0.106,0-0.16
		c0.748,0.479,1.067,0.879,0.959,1.199c0.054,0.108,0.107,0.134,0.16,0.081c0.108-0.053,0.188-0.081,0.24-0.081
		c0.32,0.907,0.799,1.493,1.439,1.759c0,0.32,0.107,0.653,0.319,1c0.214,0.347,0.479,0.707,0.799,1.079
		c0.32,0.374,0.534,0.668,0.64,0.879c0.16-0.265,0.054-0.572-0.32-0.919c-0.372-0.346-0.56-0.68-0.56-1
		c0.107-0.052,0.188-0.026,0.24,0.08c0.054,0.054,0.107,0.08,0.16,0.08c0-0.052-0.053-0.133-0.16-0.24
		c-0.106-0.106-0.132-0.239-0.08-0.399c-0.053,0-0.16,0.04-0.32,0.12c-0.16,0.08-0.266,0.067-0.32-0.041
		c0.108-0.266,0.028-0.56-0.239-0.879c-0.267-0.32-0.4-0.585-0.4-0.799h0.56c0,0.159,0.094,0.359,0.28,0.599
		c0.187,0.241,0.227,0.44,0.12,0.6c0.213,0,0.32-0.051,0.32-0.159c0.747,0.693,1.679,1.879,2.798,3.557
		c1.119,1.679,1.839,2.707,2.159,3.078c0,0.054-0.026,0.08-0.08,0.08l-0.16,0.08c0.853,0.96,2.118,2.613,3.797,4.958
		c1.679,2.346,3.05,4.05,4.117,5.116c0.48-0.052,2.131-0.306,4.957-0.759c2.825-0.452,5.037-0.572,6.636-0.36
		c1.386,0.32,2.851,0.986,4.397,1.999c2.291,2.718,3.064,5.169,2.318,7.355c-1.013,1.759-3.117,3.063-6.315,3.917
		c-1.333,0.212-2.292,0.212-2.878,0c-1.493-0.587-3.025-1.453-4.597-2.598c-1.573-1.146-2.692-2.039-3.357-2.678
		c-0.667-0.64-1.906-1.867-3.718-3.678c-0.267,0-0.692,0.026-1.279,0.08c-0.587,0.053-1.039,0.053-1.359,0v-0.319
		c-1.279,0.105-2.224,0.146-2.837,0.12c-0.612-0.028-1.639-0.094-3.078-0.2c-1.439-0.107-2.611-0.16-3.518-0.16
		c-0.426-0.214-1.079-0.493-1.958-0.839c-0.879-0.348-1.572-0.64-2.079-0.879c-0.506-0.24-1.052-0.574-1.639-1
		c-0.585-0.426-1.065-0.932-1.439-1.519c0.907-2.185,1.999-3.09,3.277-2.718c-0.052,0.639,0.214,1.307,0.8,1.999
		c2.346,1.172,4.531,1.933,6.556,2.278c2.026,0.348,4.344,0.386,6.955,0.121c-0.427-0.64-1.451-2.106-3.078-4.397
		c-1.625-2.291-2.784-4.05-3.478-5.277c-0.053,0-0.106,0.027-0.16,0.08c-0.053,0.054-0.106,0.054-0.16,0
		c-0.053-0.213-0.28-0.56-0.68-1.039c-0.4-0.48-0.626-0.959-0.68-1.439h-0.32c0.108-0.106,0.214-0.132,0.32-0.08
		c-0.053-0.106-0.36-0.439-0.92-0.999C46.17,10.06,45.812,9.54,45.651,9.061z M67.717,34.324c0-0.053-0.028-0.107-0.081-0.16
		c-0.213-0.054-0.347-0.027-0.399,0.08c0.052,0,0.133,0.027,0.24,0.08C67.583,34.376,67.663,34.376,67.717,34.324z M66.837,33.844
		c0-0.16-0.08-0.24-0.24-0.24C66.81,33.764,66.89,33.844,66.837,33.844z M65.958,33.604c0.052-0.214,0.132-0.24,0.239-0.08
		c0.053,0.106,0.133,0.16,0.24,0.16c0-0.214-0.214-0.374-0.639-0.479C65.69,33.47,65.745,33.604,65.958,33.604z M65.638,33.205
		c-0.053-0.268-0.293-0.454-0.719-0.56c0,0.106,0.04,0.2,0.12,0.279c0.08,0.081,0.186,0.133,0.32,0.16
		C65.491,33.111,65.584,33.151,65.638,33.205z M74.512,32.885c0.16-0.213,0.28-0.427,0.359-0.64c0.08-0.213,0.107-0.467,0.08-0.759
		c-0.027-0.293-0.054-0.533-0.08-0.72c-0.027-0.188-0.107-0.467-0.239-0.839c-0.134-0.374-0.228-0.614-0.28-0.72
		c-0.054-0.108-0.16-0.348-0.319-0.719l-0.32-0.64c-1.066-1.439-2.826-2.346-5.276-2.719c-2.453-0.374-4.665-0.24-6.636,0.4
		c-0.054,0-0.08,0.026-0.08,0.08c0.16,0.16,0.56,0.56,1.199,1.199c0.64,0.64,1.08,1.065,1.319,1.279
		c0.24,0.212,0.666,0.6,1.279,1.159c0.612,0.56,1.105,0.959,1.479,1.2c0.373,0.24,0.892,0.546,1.559,0.919
		c0.666,0.373,1.279,0.64,1.839,0.8c0.56,0.159,1.199,0.32,1.918,0.479C73.033,32.805,73.765,32.885,74.512,32.885z M64.119,32.166
		c-0.373-0.8-0.826-1.12-1.359-0.959c0.16,0.052,0.372,0.212,0.64,0.479C63.666,31.952,63.905,32.111,64.119,32.166z M62.52,30.806
		v-0.16c0.052,0,0.08-0.054,0.08-0.16c-0.159,0.052-0.333-0.014-0.52-0.201c-0.188-0.187-0.333-0.279-0.44-0.279
		C61.801,30.487,62.093,30.752,62.52,30.806z M61,29.767h0.161v-0.319h-0.32v0.239C60.947,29.687,61,29.713,61,29.767z
		 M59.882,28.248l-0.08-0.08c-0.054-0.107-0.108-0.16-0.16-0.16v0.319C59.802,28.328,59.882,28.3,59.882,28.248z M59.082,27.449
		c-0.054,0.16,0.027,0.292,0.24,0.4C59.322,27.741,59.242,27.608,59.082,27.449c0-0.16-0.107-0.294-0.319-0.4
		C58.763,27.208,58.869,27.34,59.082,27.449z M57.323,26.489c-0.586-0.107-1.199-0.054-1.839,0.16c0.107,0,0.4,0,0.88,0
		C56.844,26.649,57.164,26.595,57.323,26.489z M56.444,23.611c0.213,0,0.452-0.066,0.72-0.2c0.266-0.132,0.453-0.092,0.56,0.12
		c-0.054-0.212,0.026-0.32,0.239-0.32c-0.374-0.852-0.773-1.332-1.199-1.438c0.212,0.213,0.346,0.373,0.4,0.479
		c-0.427,0-0.72,0.08-0.88,0.24c0.053,0.053,0.146,0.053,0.281,0c0.132-0.052,0.226-0.026,0.279,0.08l-0.08,0.08v0.16
		c0.053-0.053,0.16-0.053,0.32,0c0.16,0.054,0.239,0.134,0.239,0.24c-0.054,0-0.133,0.04-0.239,0.12
		c-0.108,0.08-0.214,0.12-0.32,0.12l-0.719-0.48c0.053,0.16,0.132,0.307,0.239,0.44C56.39,23.385,56.444,23.505,56.444,23.611z
		 M56.044,22.732v-0.16h-0.16v0.16H56.044z M56.204,20.813c-0.053-0.16-0.2-0.32-0.439-0.48c-0.24-0.16-0.387-0.292-0.44-0.399
		c0.053,0,0.132,0.04,0.24,0.12c0.106,0.08,0.16,0.04,0.16-0.12c-0.054,0-0.107-0.053-0.16-0.16
		c-0.054-0.106-0.134-0.132-0.24-0.081v0.24c-0.053-0.053-0.146-0.053-0.279,0c-0.133,0.054-0.253,0.08-0.36,0.08
		c-0.105,0-0.16-0.106-0.16-0.32c0.054-0.052,0.213-0.026,0.479,0.081c-0.106-0.267-0.106-0.4,0-0.4c0.054,0,0.134,0.027,0.24,0.08
		c-0.106-0.266-0.347-0.625-0.72-1.08c-0.372-0.452-0.613-0.811-0.72-1.079c-0.106,0-0.2,0.093-0.28,0.279
		c-0.08,0.188-0.146,0.28-0.2,0.28c-0.319-0.212-0.48-0.426-0.48-0.64c0.054,0,0.148,0.067,0.28,0.2
		c0.133,0.133,0.227,0.12,0.279-0.04c0.054-0.372-0.12-0.786-0.52-1.239c-0.399-0.452-0.626-0.813-0.68-1.08
		c-0.106,0.054-0.266,0.028-0.479-0.08c-0.212-0.105-0.4-0.159-0.56-0.159c-0.052-0.212-0.24-0.532-0.56-0.959
		c-0.32-0.426-0.585-0.692-0.799-0.799c0.16,0.053,0.16,0.159,0,0.319c-0.053,0-0.106-0.052-0.16-0.16
		c0-0.159-0.053-0.212-0.16-0.159c0.479,0.958,0.853,1.492,1.119,1.599c0.054,0,0.08-0.04,0.08-0.121c0-0.08,0.027-0.12,0.08-0.12
		c0.16,0.32,0.24,0.507,0.24,0.559c-0.161,0.214-0.066,0.614,0.279,1.2c0.348,0.587,0.708,0.987,1.08,1.199
		c0-0.32,0.028-0.48,0.081-0.48c0,0.054,0.027,0.108,0.08,0.16c0.054,0.054,0.08,0.108,0.08,0.161
		c-0.159,0.267-0.212,0.479-0.159,0.64c0.053,0.053,0.187,0.133,0.399,0.239c0.32,0.108,0.427,0.214,0.32,0.32
		c-0.053,0-0.093-0.041-0.12-0.12c-0.027-0.08-0.093-0.092-0.201-0.04c0.853,1.547,1.493,2.186,1.919,1.918
		c-0.212,0.587-0.106,1.053,0.32,1.399c0.425,0.347,0.985,0.52,1.678,0.52c0-0.106-0.054-0.212-0.16-0.319
		c-0.214,0-0.293-0.081-0.24-0.24c0.266,0,0.399-0.053,0.399-0.16c-0.268-0.267-0.399-0.452-0.399-0.56H56.204z M55.805,21.692
		l0.08,0.081c0.053,0,0.106,0,0.16,0c0,0.053-0.028,0.107-0.08,0.16C55.911,21.826,55.857,21.746,55.805,21.692z M55.805,21.692
		h-0.32c0-0.212,0.133-0.266,0.4-0.16c0,0.054-0.014,0.08-0.04,0.08C55.817,21.612,55.805,21.64,55.805,21.692z M56.204,20.813
		c-0.16,0.534-0.374,0.639-0.64,0.32C55.617,20.92,55.831,20.813,56.204,20.813z M55.245,20.573c-0.053-0.052-0.026-0.106,0.08-0.16
		h0.16c-0.054,0.108-0.067,0.188-0.04,0.24c0.027,0.054,0.013,0.107-0.04,0.16c-0.054,0-0.08-0.04-0.08-0.12
		C55.325,20.613,55.299,20.573,55.245,20.573z M53.486,18.814c0.267,0.108,0.587,0.454,0.959,1.04
		C54.073,19.642,53.753,19.294,53.486,18.814z M54.285,18.495c0.107,0.107,0.16,0.214,0.16,0.319
		C54.339,18.868,54.285,18.762,54.285,18.495z M52.606,17.855v-0.16h0.24v0.16H52.606z M51.487,14.976
		c0.107,0,0.188,0.068,0.24,0.201c0.054,0.134,0.107,0.253,0.16,0.359c0.054,0.108,0.134,0.108,0.24,0c0.054,0,0.094,0.068,0.12,0.2
		c0.028,0.133,0.094,0.173,0.201,0.12c-0.107,0.054-0.201,0.094-0.281,0.12c-0.08,0.027-0.172-0.04-0.28-0.2
		c-0.106-0.16-0.186-0.292-0.239-0.4C51.595,15.271,51.541,15.137,51.487,14.976z M47.25,9.54c0,0.373,0.188,0.614,0.56,0.72
		c0.054,0.693,0.453,1.413,1.2,2.159c0.053-0.106,0.067-0.226,0.04-0.36c-0.027-0.133,0.013-0.227,0.12-0.28
		c-0.586-0.16-0.96-0.639-1.119-1.439c0.639,0.268,1.279,0.88,1.918,1.839s1.173,1.599,1.599,1.918
		c-1.119-1.811-1.918-2.958-2.398-3.438c-0.106,0.16-0.08,0.293,0.08,0.4c-0.052-0.053-0.12-0.213-0.199-0.48
		c-0.081-0.266-0.172-0.479-0.28-0.64c-0.106-0.16-0.24-0.212-0.4-0.16c0.214,0.053,0.24,0.16,0.081,0.32
		c-0.053,0.054-0.132,0.08-0.241,0.08C47.73,9.648,47.41,9.435,47.25,9.54c0-0.105-0.066-0.24-0.2-0.399
		c-0.132-0.16-0.172-0.292-0.12-0.4c-0.16,0-0.252,0.054-0.28,0.16c-0.026,0.108,0.014,0.24,0.12,0.4l0.16,0.32
		c0.054,0,0.107-0.012,0.16-0.04C47.144,9.554,47.197,9.54,47.25,9.54z M48.689,13.138c0-0.053-0.16-0.24-0.48-0.56
		C48.317,12.952,48.477,13.138,48.689,13.138z M49.489,12.978c0-0.16-0.026-0.292-0.08-0.399c-0.053-0.107-0.16-0.132-0.32-0.081
		C49.089,12.818,49.223,12.978,49.489,12.978z M48.769,11.219v-0.16h-0.16v0.16H48.769z M46.29,9.7c0-0.105-0.052-0.211-0.159-0.319
		C46.131,9.594,46.185,9.7,46.29,9.7z M46.61,8.741c0-0.16-0.12-0.386-0.36-0.679c-0.24-0.293-0.252-0.52-0.04-0.68
		c-0.852-0.053-0.879,0.268-0.08,0.959C46.345,8.555,46.504,8.688,46.61,8.741z M45.332,8.341c0-0.106-0.026-0.2-0.08-0.279
		c-0.053-0.08-0.12-0.16-0.2-0.24c-0.08-0.08-0.146-0.146-0.2-0.2c-0.052,0.054-0.012,0.173,0.12,0.36
		C45.105,8.169,45.225,8.289,45.332,8.341z M45.491,7.381c0-0.053,0.067-0.12,0.2-0.199c0.133-0.08,0.174-0.172,0.12-0.281
		c-0.053,0-0.213,0.134-0.48,0.4c0.054,0,0.08,0.014,0.08,0.04C45.411,7.369,45.439,7.381,45.491,7.381z M43.413,5.862
		c0.32,0.534,0.613,0.88,0.88,1.039C43.972,6.37,43.68,6.022,43.413,5.862c0.054-0.106,0.028-0.186-0.08-0.24
		c-0.106-0.052-0.187-0.026-0.24,0.081c0.053,0,0.107,0.027,0.16,0.08C43.307,5.836,43.36,5.862,43.413,5.862z M45.251,6.662
		c-0.106,0-0.133-0.092-0.08-0.28c0.054-0.186,0.08-0.333,0.08-0.439c-0.16,0.107-0.252,0.16-0.28,0.16
		c-0.026,0-0.092-0.04-0.2-0.12c-0.106-0.08-0.212-0.121-0.319-0.121C44.771,6.502,45.039,6.769,45.251,6.662z M45.171,4.104
		c0.48,0.108,0.827,0.56,1.039,1.359c-0.426,0.16-0.745-0.132-0.959-0.879c0-0.053,0-0.16,0-0.32
		C45.199,4.211,45.171,4.158,45.171,4.104z M43.013,4.504c0.16,0,0.267-0.027,0.32-0.08c0.107,0.373,0.399,0.719,0.879,1.039
		c-0.052-0.212-0.16-0.426-0.319-0.64c-0.16-0.212-0.346-0.399-0.56-0.56l-0.4-0.239c-0.106,0.054-0.106,0.16,0,0.32
		C42.986,4.397,43.013,4.451,43.013,4.504z M44.373,3.544l0.559,0.56c-0.16,0.054-0.266,0.054-0.32,0
		c-0.053-0.052-0.093-0.146-0.12-0.28C44.465,3.691,44.426,3.598,44.373,3.544z M42.613,3.864c0-0.107-0.08-0.187-0.239-0.24
		c0.053,0,0.093,0.054,0.12,0.16C42.521,3.892,42.561,3.918,42.613,3.864z M41.894,3.544c-0.106,0.054-0.2,0.04-0.28-0.04
		c-0.08-0.08-0.146-0.12-0.199-0.12c-0.052,0.16,0,0.267,0.16,0.32C41.733,3.757,41.841,3.704,41.894,3.544z"/>
</g>
</svg>
