<?xml version="1.0" encoding="utf-8"?>
<!-- Generator: Adobe Illustrator 16.0.0, SVG Export Plug-In . SVG Version: 6.00 Build 0)  -->
<!DOCTYPE svg PUBLIC "-//W3C//DTD SVG 1.1//EN" "http://www.w3.org/Graphics/SVG/1.1/DTD/svg11.dtd">
<svg version="1.1" id="Layer_1" xmlns="http://www.w3.org/2000/svg" xmlns:xlink="http://www.w3.org/1999/xlink" x="0px" y="0px"
	 width="118.75px" height="150.5px" viewBox="0 0 118.75 150.5" enable-background="new 0 0 118.75 150.5" xml:space="preserve">
<g>
	<path fill="none" d="M35.233,114.553c0.136-0.083,0.208-0.203,0.216-0.359c1.566,1.08,3.122,2.262,4.368,3.712
		c0.404,0.47,0.744,1.284,1.257,1.581c0.707,0.408,0.864,1.341,1.288,1.979c1.59-1.873,3.441-3.607,5.646-4.73
		c1.818-0.926,3.791-1.443,5.769-1.781c0.394-0.067,0.796-0.086,1.185-0.186c0.207,0,0.319,0.199,0.513,0.234
		c0.262,0.048,0.579-0.148,0.836-0.188c0.455-0.071,0.922-0.008,1.315,0.242c0.291,0.098,0.261-0.145,0.504-0.145
		c0.284,0.041,0.581,0.057,0.864,0c1.068,0.188,2.125,0.438,3.172,0.717c0.675,0.18,1.346,0.373,2.016,0.575
		c0.549,0.166,1.092,0.612,1.66,0.657c0.43,0.035,0.771,0.535,1.161,0.77c0.427,0.256,0.896,0.27,1.284,0.594
		c0.042,0.034,0.93,1.004,0.93,0.575c0.53,0.382,1.049,0.777,1.561,1.185c1.029,0.82,2.021,1.688,2.984,2.586
		c0.439,0.408,0.074,0.838,0.928,0.838c0.252,0.38,0.524,0.746,0.791,1.115c1.037,1.44,2.043,2.898,2.836,4.486
		c0.369,0.736,2.412,6.422,1.412,6.422c0.871,2.188-1.518,5.112-3.059,6.43c-0.952,0.813-2.045,1.445-3.199,1.923
		c-0.535,0.221-1.328,0.653-1.894,0.508c-0.632-0.162-1.29-0.167-1.929-0.292c0.66,0.877,0.479,1.538-0.104,2.376
		c-0.451,0.649-1.064,1.169-1.794,1.479c-1.95,0.83-3.897-0.031-5.793-0.627c-4.422-1.393-8.706-3.175-12.839-5.271
		c-3.833-1.944-7.593-4.031-11.304-6.199c-0.975-0.569-1.947-1.146-2.916-1.726c-0.97-0.581-1.912-1.37-3.044-1.521
		c-0.729-0.097-4.964-0.62-5.046-0.034c-0.173,0-0.346-0.235-0.64-0.211c-0.472,0.041-0.939,0.139-1.401,0.24
		c-0.582,0.129-1.256,0.512-1.772,0.1c-0.401-0.32-0.471-0.838-0.398-1.316c0.135-0.893,0.497-1.525,1.377-1.701
		c1.128-0.226,2.321-0.615,3.482-0.423c-3.146-2.649-6.251-5.418-8.934-8.547c-1.109-1.294-2.103-2.83-2.733-4.423
		c-0.265-0.67-0.724-1.92-0.519-2.646c0.075-0.101,0.153-0.2,0.233-0.297c-0.047-0.334-0.047-0.674,0-1.008
		c0.074-0.511,0.287-0.979,0.491-1.449c0.5-1.149,2.708-2.157,3.992-2.353c0.938-0.144,2.129,0.164,3.058,0.32
		c1.204,0.203,2.393,0.487,3.558,0.851c0.837,0.261,1.703,0.557,2.509,0.903c0.334,0.143,0.514,0.522,0.808,0.598
		c0.45,0.115,0.779,0.48,1.235,0.59c0.509,0.123,0.714,0.074,1.089,0.495c0.316,0.354,0.886,0.465,1.323,0.723
		c0.467,0.275,0.905,0.597,1.35,0.907C35.388,114.16,35.233,114.007,35.233,114.553C35.377,114.458,35.233,114.458,35.233,114.553z
		 M52.513,143.064c0.109,0.149,0.482,0.209,0.697,0.302c0.527,0.227,0.977,0.575,1.529,0.725c0.985,0.269,1.948,0.621,2.904,0.978
		c1.19,0.442,2.375,0.898,3.597,1.246c0.492,0.14,0.992,0.264,1.498,0.352c0-0.009,0.771,0.288,0.863,0.288
		c-0.149-0.448-0.791-0.265-1.051-0.347c-0.484-0.15-0.966-0.312-1.445-0.479c-1.319-0.461-2.625-0.965-3.922-1.486
		c-0.741-0.297-1.479-0.6-2.215-0.906c-0.256-0.107-2.094-0.726-2.094-0.922c0-0.013-1.256-0.629-1.376-0.7
		c-0.633-0.376-1.085-0.513-1.792-0.201C50.69,142.037,51.638,142.63,52.513,143.064z M39.266,134.497
		c0.678,0.56,1.437,1.017,2.235,1.383c0.32,0.146,0.789,0.193,0.789,0.634c0.422,0,0.635,0.377,1.08,0.287
		c0.003-0.005-0.072,0.569-0.072,0.288c0.343,0,0.687,0.192,0.972,0.36c0.336,0.199,1.048,0.308,1.099,0.613
		c0.059,0.354,1.687,1.114,2.105,1.114c-0.165-0.063-0.261-0.016-0.288,0.144c0.528,0,0.989,0.253,1.454,0.471
		c0.153,0.073,0.309,0.141,0.468,0.198c0.296,0.105,0.067,0.225,0.238,0.483c-0.137-0.033-0.257-0.008-0.36,0.071
		c0.209,0,0.445,0.279,0.648,0.072c-0.039-0.017-0.288-0.136-0.288-0.144c0.932,0.094,1.686,0.646,2.569,0.893
		c0.196,0.056,0.396,0.094,0.599,0.115c0.028,0.156,0.101,0.289,0.216,0.396c0.271,0.201,0.641,0.179,0.936,0.324
		c-0.36,0.241,0.533,0.392,0.072,0.504c0.101,0.201,0.734-0.089,0.972,0.062c0.394,0.25,0.879,0.334,1.337,0.36
		c0.576,0.035,0.961,0.494,1.472,0.767c0.331,0.176,1.041,0.24,1.044,0.611c0.173-0.025,0.341-0.008,0.504,0.055
		c0.432,0.18,0.132,0.332,0.603,0.144c0.296-0.118,1.221,0.013,1.053,0.522c0.856-0.346,1.832,0.474,2.736,0.215
		c-0.051,0.162-0.003,0.281,0.145,0.36c0.246,0.029,0.49,0.056,0.735,0.083c0.505,0.055,1.011,0.107,1.517,0.149
		c0.513,0.042,1.049,0.106,1.563,0.056c-3.778-3.959-9.296-5.878-14.229-7.936c-2.234-0.93-4.393-1.762-6.724-2.441
		c-1.531-0.445-3.067-0.874-4.607-1.288c-0.75-0.2-1.502-0.399-2.255-0.594c-0.198-0.052-0.821-0.331-1.021-0.198
		c-0.259,0.174-0.519-0.146-0.828-0.072C38.109,133.833,38.771,134.497,39.266,134.497C40.082,135.17,39.074,134.497,39.266,134.497
		z M54.169,143.713h0.432C54.602,144.001,54.458,144.001,54.169,143.713z M52.874,142.85c-0.144,0-0.288,0-0.432,0
		C52.382,142.85,53.055,143.391,52.874,142.85C52.538,142.85,52.922,142.993,52.874,142.85z M53.162,142.417
		c0,0.297,0.325,0.058,0.306,0.009C53.365,142.32,53.263,142.318,53.162,142.417C53.162,142.561,53.258,142.417,53.162,142.417z
		 M66.337,142.273c-0.198,0-0.058-0.289-0.433-0.289C65.904,142.189,66.337,142.477,66.337,142.273
		C66.241,142.273,66.337,142.322,66.337,142.273z M52.082,141.913c0.048-0.048,0.096-0.097,0.144-0.144
		c-0.178-0.052-0.274-0.004-0.288,0.144C51.985,141.913,52.034,141.913,52.082,141.913z M43.874,132.049
		c0.869-0.26,1.665,0.51,2.48,0.586c0.968,0.092,1.848,0.872,2.74,0.92c0.969,0.051,1.667,0.939,2.67,0.899
		c0.805-0.032,1.526,0.815,2.406,0.619c-1.597-1.722-2.979-3.653-3.993-5.777c-0.248-0.519-2.234-5.671-1.335-5.671
		c0.282,1.329,0.774,2.607,1.428,3.796c0.375,0.685,0.802,1.338,1.268,1.963c0.209,0.281,0.426,0.556,0.651,0.824
		c0.153,0.185,0.31,0.365,0.469,0.544c-0.072,0.072-0.144,0.145-0.216,0.216c0.313,0.105,0.441,0.478,0.657,0.693
		c0.245,0.245,0.512,0.116,0.565,0.426c0.059,0.343,0.383,0.534,0.603,0.765c0.101,0.1,0.178,0.213,0.233,0.342
		c0.066,0.178-0.21,0.343-0.115,0.438c0.287,0,0.558-0.093,0.504-0.432c-0.012-0.013,0.761,1.646,0.873,1.071
		c-0.025-0.063-0.056-0.123-0.09-0.181c-0.003,0.011,1.249,0.513,0.873,0.981c0.125-0.02,0.245-0.008,0.36,0.035
		c0,0.713,0.287,0.048,0.752,0.496c0.337,0.326,0.676,0.66,1.012,0.963c1.043,0.939,2.485,1.537,3.74,2.164
		c1.969,0.986,4.116,2.199,6.307,2.597c0.716,0.13,1.431,0.276,2.147,0.403c0.546,0.099,0.801,0.008,1.341-0.071
		c0.688-0.097,1.409-0.039,2.096-0.175c0.863-0.17,1.906-0.619,2.332-1.457c0.321-0.631,0.774-1.1,0.808-1.772
		c0.018-0.327,0.039-0.655,0.084-0.979c0.068-0.476-0.244-0.308-0.244-0.549c0.091,0.022,0.195-0.011,0.289,0
		c-0.049-0.457-0.055-1.018-0.248-1.445c-0.078-0.176-0.26-0.191-0.221-0.426c0.023-0.146,0.215-0.313,0.125-0.401
		c-0.215-0.214-0.309-0.595-0.399-0.871s-0.171-0.556-0.248-0.837c-0.106-0.395-0.386-0.487-0.513-0.865
		c-0.149-0.438-0.15-1.018-0.657-1.273c-0.247-0.596-0.539-1.172-0.873-1.724c-0.339-0.558-0.72-1.089-1.138-1.591
		c-0.393-0.473-0.377-0.743-0.813-1.201c-1.945-2.045-3.9-4.1-6.366-5.497c-2.518-1.427-5.245-2.487-8.093-3.028
		c-4.171-0.791-9.644-0.476-12.949,2.537c-0.358,0.326-0.731,0.676-1.012,1.072c-0.279,0.395-0.381,0.965-0.744,1.266
		c-0.376,0.313-0.48,0.996-0.876,1.177c-0.227,0.104-0.432,0.256-0.624,0.414c-0.172,0.144-0.338,0.296-0.497,0.456
		c-0.141-0.031-0.28-0.021-0.416,0.031c-0.992,0.354-1.677-1.72-2.154-2.467c-0.634-0.992-1.326-1.964-2.155-2.804
		c-1.677-1.7-3.839-3.035-5.89-4.239c-2.538-1.488-5.29-2.773-8.194-3.334c-1.234-0.238-2.496-0.341-3.751-0.27
		c-0.58,0.033-1.113,0.031-1.596,0.374c-0.61,0.438-0.477,1.04-0.261,1.747c0.326,1.068,0.544,2.13,1.242,3.014
		c0.679,0.859,1.483,1.859,2.064,2.824c0.383,0.636,1.123,1.188,1.63,1.732c0.968,1.037,1.932,2.113,3.106,2.926
		c0.893,0.617,1.636,1.463,2.479,2.156c1.131,0.93,2.323,1.785,3.543,2.596c0.465,0.309,0.978,0.787,1.536,0.84
		c0.43,0.04,0.856,0.125,1.278,0.21c0.608,0.124,1.187,0.313,1.812,0.262c0.432-0.036,0.751,0.14,1.195,0.218
		c1.125,0.199,2.124,0.574,3.228,0.756c1.073,0.176,2.194,0.361,3.202,0.787C43.522,131.932,43.666,132.027,43.874,132.049z
		 M48.625,141.121c0.35,0.21,0.7,0.42,1.05,0.63c0.158,0.095,0.15-0.384-0.1-0.526c-0.376-0.213-0.79-0.361-1.198-0.5
		c-0.802-0.271-1.611-0.888-2.384-1.273c-0.428-0.215-0.854-0.444-1.238-0.731c-0.108-0.079-0.21-0.167-0.306-0.261
		c-0.081,0-0.313,0.455-0.432,0.216c0.048-0.071,0.096-0.144,0.144-0.216c-1.396-0.83-2.816-1.621-4.276-2.331
		c-1.083-0.526-2.18-1.864-3.5-1.772c0.422-0.484-1.229-1.164-1.656-1.08c0.159-0.584-0.621-0.375-1.008-0.504
		C38.448,135.956,43.479,138.68,48.625,141.121z M50.642,141.337c0.252-0.252-0.396-0.717-0.504-0.288
		C50.334,141.049,50.43,141.337,50.642,141.337C50.786,141.193,50.594,141.337,50.642,141.337z M45.746,139.609
		c0.057-0.219,0.128-0.194,0.216,0.072C45.849,139.709,45.824,139.661,45.746,139.609z M58.345,138.025
		c0,0.291,0.574,0.58,0.792,0.359c-0.385-0.191-0.722-0.453-1.08-0.504C58.104,138.007,58.199,138.055,58.345,138.025
		C58.345,138.169,58.154,138.025,58.345,138.025z M57.985,137.953c-0.041-0.041-0.354-0.377-0.432-0.145
		C57.684,137.809,57.878,138.172,57.985,137.953C57.746,137.714,57.938,138.05,57.985,137.953z M60.217,137.665
		c-0.074,0-0.314-0.159-0.216,0.144C60.023,137.782,60.217,137.614,60.217,137.665C60.17,137.665,60.217,137.714,60.217,137.665z
		 M55.682,137.593c-0.141-0.284-0.8-0.452-1.08-0.36C54.9,137.457,55.326,137.529,55.682,137.593
		C55.634,137.498,55.154,137.498,55.682,137.593z M56.113,137.089c-1.319-0.764-2.805-1.259-4.248-1.728
		c-0.158,0.531,1.016,0.566,1.418,0.724C54.199,136.443,55.116,136.991,56.113,137.089
		C55.202,136.563,55.634,137.042,56.113,137.089z M55.753,135.721c0-0.207-0.864-0.507-0.864-0.359
		C55.1,135.625,55.427,135.721,55.753,135.721C55.753,135.577,55.37,135.721,55.753,135.721z M48.985,135.289
		c0.132,0.128,0.672,0.359,0.936,0.359c-0.097-0.16-0.265-0.252-0.44-0.303c-0.269-0.074-0.672-0.272-0.928-0.272
		C48.614,135.254,48.822,135.289,48.985,135.289z M39.697,135.289c0,0.097,0.025,0.145,0.072,0.145
		C39.77,135.337,39.746,135.289,39.697,135.289z M51.578,135.434c0.098-0.293-0.432-0.44-0.432-0.145
		C51.304,135.294,51.448,135.342,51.578,135.434C51.626,135.289,51.482,135.434,51.578,135.434z M50.929,135.217
		c-0.192-0.385-1.161-0.783-1.512-0.432C49.947,134.785,50.394,135.354,50.929,135.217
		C50.834,135.025,50.738,135.266,50.929,135.217z M78.146,135.001c0,0.144,0.022,0.216,0.071,0.216
		C78.217,135.073,78.193,135.001,78.146,135.001z M54.529,134.857c-0.089,0.361,0.47,0.466,0.576,0.144
		C54.925,134.908,54.732,134.859,54.529,134.857c0.024-0.121,0.048-0.24,0.072-0.36C54.372,134.385,54.191,134.857,54.529,134.857
		C54.482,135.05,54.338,134.857,54.529,134.857z M78.217,134.93c-0.113-1.685-0.811-3.26-1.619-4.716
		c-0.098-0.173-1.843-3.559-2.269-3.133C76.145,129.4,77.41,132.104,78.217,134.93C78.169,134.209,77.354,131.905,78.217,134.93z
		 M39.985,134.857c-0.101-0.088-0.101-0.162,0-0.217C39.985,134.713,39.985,134.785,39.985,134.857z M38.545,134.785
		c0-0.047-0.119-0.145-0.36-0.288C38.186,134.545,38.306,134.641,38.545,134.785z M46.825,134.497c-0.031,0-0.432-0.044-0.432,0.071
		C46.524,134.622,46.762,134.691,46.825,134.497C46.778,134.497,46.778,134.641,46.825,134.497z M39.266,134.497
		c0-0.072,0-0.144,0-0.216c0.13,0.021,0.226,0.095,0.288,0.216C39.46,134.497,39.356,134.514,39.266,134.497z M45.961,134.354
		c-0.115-0.114-0.3-0.238-0.36,0C45.707,134.302,45.961,134.521,45.961,134.354C45.77,134.162,45.961,134.45,45.961,134.354z
		 M48.841,134.425c-0.549-0.55-1.271-0.802-2.016-0.504C47.491,133.757,48.167,134.425,48.841,134.425
		C48.218,133.802,48.602,134.425,48.841,134.425z M38.689,134.137C38.774,133.885,39.092,134.07,38.689,134.137L38.689,134.137z
		 M45.098,134.064c-0.188,0-0.503-0.359-0.648-0.071C44.658,133.993,44.895,134.271,45.098,134.064
		C45.05,134.064,45.05,134.114,45.098,134.064z M53.954,134.137c0-0.144-0.072-0.216-0.216-0.216
		C53.737,134.064,53.81,134.137,53.954,134.137z M54.529,133.777c0,0.144,0.025,0.216,0.072,0.216
		C54.602,133.85,54.578,133.777,54.529,133.777z M43.009,133.633c0.174,0.164,0.996,0.487,1.224,0.145
		c-0.308,0-1.734-0.489-1.872-0.217C42.553,133.626,42.805,133.702,43.009,133.633z M46.753,133.561
		c-0.18,0.004-0.348,0.053-0.504,0.145C46.36,133.705,46.838,133.814,46.753,133.561C46.706,133.561,46.802,133.705,46.753,133.561z
		 M45.89,133.489c0,0.097,0.024,0.144,0.072,0.144C45.961,133.538,45.938,133.489,45.89,133.489z M36.385,133.345
		c0,0.145,0.025,0.216,0.072,0.216C36.458,133.417,36.434,133.345,36.385,133.345z M45.602,133.489
		c-0.424-0.212-1.231-0.681-1.728-0.433C44.48,133.057,44.978,133.615,45.602,133.489C44.737,133.057,45.362,133.538,45.602,133.489
		z M78.865,133.345C78.746,133.148,78.669,133.227,78.865,133.345L78.865,133.345z M53.233,133.057c-0.144-0.144-0.24-0.144-0.288,0
		H53.233z M39.914,132.77c0,0.097,0.024,0.144,0.072,0.144C39.985,132.816,39.962,132.77,39.914,132.77z M42.865,132.625
		c-0.155-0.057-0.784-0.314-0.864,0C42.193,132.625,42.749,132.865,42.865,132.625C42.338,132.434,42.818,132.723,42.865,132.625z
		 M52.801,132.48c-0.103,0-0.288-0.152-0.288,0.145C52.609,132.577,52.705,132.529,52.801,132.48
		C52.754,132.48,52.801,132.53,52.801,132.48z M78.578,132.625c0.248-0.624-0.432-1.079-0.432-1.656
		C77.957,131.439,78.396,132.22,78.578,132.625C78.673,132.386,78.193,131.761,78.578,132.625z M53.233,132.337
		c0-0.096-0.047-0.19-0.144-0.288C53.089,132.193,53.138,132.29,53.233,132.337z M40.706,132.193
		c-0.095-0.193-1.008-0.432-1.008-0.145C40.035,132.049,40.361,132.193,40.706,132.193
		C40.658,132.098,40.562,132.193,40.706,132.193z M38.257,131.617c-0.008,0.008-0.216,0-0.288,0
		C37.969,131.723,38.257,131.811,38.257,131.617C38.21,131.666,38.257,131.714,38.257,131.617z M52.009,131.617
		c0-0.146-0.159-0.391-0.216-0.504C51.736,131.373,51.748,131.566,52.009,131.617z M51.649,131.041
		C51.53,130.846,51.454,130.921,51.649,131.041L51.649,131.041z M77.857,130.609c-0.041,0.168,0.008,0.289,0.144,0.359
		c0.147-0.371-0.144-0.216-0.144-0.453c0-0.24,0-0.343-0.289-0.267C77.592,130.424,77.688,130.544,77.857,130.609
		C77.857,130.85,77.665,130.514,77.857,130.609z M51.505,130.682c0-0.134-0.356-0.576-0.504-0.433
		C51.241,130.249,51.135,130.805,51.505,130.682C51.505,130.585,51.361,130.729,51.505,130.682z M78.434,130.32
		c0.096-0.19,0.047-0.287-0.144-0.287C78.29,130.227,78.336,130.32,78.434,130.32z M50.786,129.673c0,0.192,0.097,0.336,0.288,0.433
		C51.073,130.01,50.978,129.866,50.786,129.673z M77.568,130.105c-0.061-0.209-0.146-0.5-0.071-0.721
		c-0.037-0.021-0.492-0.314-0.576-0.144C77.423,129.241,77.134,130.105,77.568,130.105C77.473,129.77,77.425,130.105,77.568,130.105
		z M50.354,128.881c0.042,0.145,0.139,0.504,0.36,0.504C50.786,129.17,50.486,128.97,50.354,128.881
		c0.198-0.195,0.054-0.504-0.216-0.504C50.137,128.523,50.297,128.768,50.354,128.881C50.45,129.218,50.209,128.593,50.354,128.881z
		 M77.064,128.881c-0.246-0.121-0.258-0.451-0.504-0.576C76.634,128.561,76.782,128.826,77.064,128.881
		C76.969,128.834,76.825,128.834,77.064,128.881z M50.209,128.305c0-0.096-0.047-0.19-0.144-0.287
		C50.065,128.209,50.114,128.305,50.209,128.305z M75.984,127.657c0.322,0,0.127,0.616,0.576,0.504
		c-0.166-0.269-0.414-0.854-0.72-1.009C75.934,127.309,75.982,127.477,75.984,127.657C76.081,127.657,76.033,127.563,75.984,127.657
		z M49.777,127.441c-0.191,0.144-0.144,0.287,0.144,0.432C50.018,127.585,49.97,127.441,49.777,127.441z M26.089,127.009
		c0.119,0.14,0.433,0.503,0.648,0.288c-0.415,0-0.703-0.625-1.08-0.72C25.657,126.818,25.894,126.943,26.089,127.009
		C26.377,127.346,25.801,126.914,26.089,127.009z M49.633,127.009c0.12-0.118-0.038-0.396-0.144-0.396
		C49.414,126.613,49.276,127.078,49.633,127.009z M75.697,127.009c0.031-0.126,0-0.231-0.096-0.319
		c-0.17-0.185-0.259-0.149-0.265,0.104C75.574,126.676,75.509,127.009,75.697,127.009C75.745,126.818,75.648,127.009,75.697,127.009
		z M74.33,126.793c-0.288-0.768-0.673-1.199-1.152-1.296C73.705,126.217,74.089,126.648,74.33,126.793z M25.513,126.361
		c-0.457-0.229-0.723-0.864-1.296-0.864C24.62,125.698,24.989,126.494,25.513,126.361C25.418,126.314,25.322,126.41,25.513,126.361z
		 M74.904,125.93c-0.026-0.146-0.098-0.266-0.215-0.361C74.613,125.829,74.714,125.835,74.904,125.93
		C74.904,125.833,74.809,125.882,74.904,125.93z M21.553,122.833c0,0.615,0.959,0.829,1.08,1.44c0.607,0.151,0.93,0.848,1.512,1.08
		c-0.589-0.785-1.376-1.408-2.099-2.063c-0.497-0.45-0.625-0.918-1.286-1.25C20.84,122.468,21.081,122.833,21.553,122.833
		C21.553,123.025,21.122,122.833,21.553,122.833z M73.033,125.281c-0.065-0.195-0.191-0.432-0.432-0.432
		C72.602,125.072,72.9,125.152,73.033,125.281C72.938,124.993,72.984,125.234,73.033,125.281z M75.193,125.137
		c-0.192-0.287-0.36-0.455-0.504-0.504C74.689,124.97,74.857,125.137,75.193,125.137z M74.113,124.921
		c-0.285,0-0.227-0.641-0.648-0.432C73.68,124.489,73.907,125.127,74.113,124.921C74.064,124.921,74.018,125.018,74.113,124.921z
		 M74.545,124.561c0.02-0.088,0-0.195,0-0.287c-0.02,0.009-0.216,0.229-0.216,0.144C74.377,124.477,74.473,124.561,74.545,124.561z
		 M74.257,124.129c-0.385-0.539-0.469-0.936-1.151-0.936C73.591,123.355,73.74,124.002,74.257,124.129z M72.746,123.697
		c-0.241-0.385-0.409-0.576-0.504-0.576C72.241,123.266,72.409,123.458,72.746,123.697z M72.098,123.121
		c-0.08-0.396-0.395-0.555-0.632-0.839c-0.257-0.308-0.054-0.431-0.466-0.294c-0.176,0.058-0.68-0.639-0.838-0.764
		c-0.352-0.281-0.775-0.479-1.232-0.479C69.988,121.525,71.084,122.28,72.098,123.121C72.049,122.882,71.811,122.882,72.098,123.121
		z M73.105,122.905c0-0.491-0.768-1.026-1.225-0.937C72.352,122.207,72.541,122.794,73.105,122.905
		C73.105,122.714,72.865,122.857,73.105,122.905z M20.545,121.682c-0.229-0.113-0.068,0.359-0.216,0.359
		C20.634,122.145,20.616,121.893,20.545,121.682C20.45,121.634,20.594,121.825,20.545,121.682z M71.736,121.896
		c0.072-0.071,0.145-0.145,0.217-0.215c-0.426-0.424-0.951-0.74-1.426-1.102c-0.226-0.171-1.12-1.298-1.383-0.771
		C70.055,120.441,70.952,121.113,71.736,121.896C71.736,121.85,71.113,121.273,71.736,121.896z M19.465,120.816
		c0.048,0.242,0.216,0.457,0.504,0.648C19.922,121.227,19.753,121.01,19.465,120.816z M19.538,120.385
		c-0.379-0.125-0.486-0.592-0.864-0.72C18.505,120.087,19.31,120.958,19.538,120.385C19.394,120.338,19.442,120.626,19.538,120.385z
		 M67.633,119.736c0.379,0.387,0.916,0.943,1.512,0.793c-1.633-0.801-2.91-1.924-4.752-2.305
		C65.475,118.729,66.553,119.232,67.633,119.736z M69.073,119.665c0-0.159-0.167-0.239-0.288-0.288
		C68.786,119.561,68.891,119.665,69.073,119.665C69.073,119.521,68.881,119.665,69.073,119.665z M18.098,119.089
		c-0.144-0.432-0.384-0.744-0.72-0.937C17.521,118.585,17.762,118.898,18.098,119.089z M67.201,118.514
		c-0.125,0-0.41-0.263-0.504-0.072C66.824,118.441,67.105,118.705,67.201,118.514C67.152,118.514,67.152,118.609,67.201,118.514z
		 M66.48,118.225c-0.769-0.432-1.271-0.623-1.512-0.576C65.833,118.034,66.337,118.225,66.48,118.225z M64.033,118.009
		c-0.104-0.062-0.365-0.206-0.432,0C63.654,118.009,64.033,118.217,64.033,118.009C63.792,117.865,64.033,118.105,64.033,118.009z
		 M63.529,117.793h-0.36C63.409,118.034,63.529,118.034,63.529,117.793z M62.232,117.577c-0.092-0.031-0.631-0.251-0.719-0.072
		C61.684,117.505,62.123,117.799,62.232,117.577C61.801,117.434,62.186,117.674,62.232,117.577z M17.089,117.505
		c-0.072-0.096-0.144-0.192-0.216-0.288C16.662,117.324,16.994,117.7,17.089,117.505C17.042,117.505,17.042,117.602,17.089,117.505z
		 M63.313,116.857c-0.375-0.07-0.982-0.271-1.367-0.145C62.365,116.713,62.909,117.129,63.313,116.857
		C62.545,116.713,63.169,116.954,63.313,116.857z M52.441,116.497c-0.197-0.097-0.576-0.076-0.576,0.216
		C52.007,116.673,52.323,116.618,52.441,116.497C52.346,116.45,52.394,116.545,52.441,116.497z M61.874,116.497
		c-0.183-0.09-0.341-0.038-0.433,0.144C61.559,116.667,61.874,116.673,61.874,116.497C61.682,116.402,61.874,116.594,61.874,116.497
		z M54.602,116.209c-0.512,0-1.288-0.003-1.728,0.288C53.22,116.452,54.33,116.486,54.602,116.209
		C54.506,116.209,54.554,116.258,54.602,116.209z M61.082,116.354c-0.34-0.113-1.208-0.53-1.44-0.072
		C60.063,116.281,60.723,116.712,61.082,116.354z M56.33,116.209c-0.102-0.411-0.683-0.27-0.864,0
		C55.753,116.209,56.042,116.209,56.33,116.209z M59.137,116.064c-0.389,0-0.896-0.323-1.224,0
		C58.299,116.064,58.804,116.404,59.137,116.064C59.042,116.064,59.042,116.162,59.137,116.064z M32.786,114.48
		c0,0.172,0.42,0.265,0.504,0.289c-0.092-0.187-0.936-0.405-0.936-0.576C32.228,114.45,32.693,114.389,32.786,114.48
		C32.786,114.578,32.738,114.434,32.786,114.48z M32.137,114.049c-0.195,0-0.283-0.288-0.504-0.288
		C31.633,113.926,31.98,114.211,32.137,114.049C32.09,114.049,32.09,114.098,32.137,114.049z M31.273,113.689
		c0.101-0.301-0.432-0.278-0.432-0.072C30.996,113.586,31.14,113.609,31.273,113.689C31.322,113.545,31.226,113.689,31.273,113.689z
		 M30.266,113.186c-0.144-0.072-0.288-0.145-0.432-0.217C29.75,113.223,30.151,113.421,30.266,113.186z M29.617,112.896
		c-0.198-0.199-0.547-0.442-0.504,0C29.195,112.857,29.617,112.927,29.617,112.896C29.57,112.85,29.617,112.945,29.617,112.896z
		 M28.033,112.393c-0.211-0.211-0.508-0.256-0.792-0.216C27.563,112.072,27.736,112.393,28.033,112.393
		C27.842,112.202,27.938,112.393,28.033,112.393z M28.177,111.313c-0.099,0-0.504-0.211-0.504,0
		C27.836,111.477,28.064,111.6,28.177,111.313C28.13,111.313,28.082,111.555,28.177,111.313z M26.449,111.098
		c0-0.248-0.428-0.328-0.575-0.181C25.657,111.135,26.472,111.085,26.449,111.098C26.449,110.906,26.354,111.146,26.449,111.098z
		 M23.929,110.449c-0.3,0-0.144-0.033-0.144-0.145C23.021,110.089,23.929,111.085,23.929,110.449
		C23.786,110.449,23.929,110.546,23.929,110.449z M24.434,110.593c0.554,0.042-0.072-0.381-0.072-0.144
		C24.504,110.445,24.528,110.493,24.434,110.593z M25.082,110.593c-0.144-0.096-0.24-0.096-0.288,0H25.082z"/>
	<path fill="none" d="M45.025,98.282c0.517,0.13,1.077,0.051,1.584,0.216c0.639,0.214,0.841,0.814,1.388,1.066
		c1.181,0.543,2.076,1.531,2.861,2.541c0.658,0.845,1.325,1.57,1.628,2.586c0.324,1.084,0.944,2.589,0.099,3.598
		c0.629,0.49,3.779,1.544,4.111,0.995c1.002-1.658,0.567-3.854-0.036-5.571c-0.604-1.721-1.19-3.574-2.08-5.167
		c-0.526-0.942-1.027-1.899-1.491-2.875c-0.398-0.836-0.698-1.981-1.369-2.646c0.721-0.178,1.128,1.416,1.512,1.8
		c0.077-0.076,0.101-0.173,0.072-0.288c1.763,1.982,2.946,4.426,3.816,6.912c0-0.721,0.001-1.583-0.36-2.232
		c0.282,0.071,0.46,0.415,0.576,0.648c0.057-0.088,0.093-0.184,0.108-0.288c0.004-0.004,1.045,1.532,1.045,1.854
		c0,0.553-0.015,0.229,0.431,0.449c0.206,0.461,0.396,0.93,0.569,1.404c0.529,1.455,1.221,3.457,0.695,4.988
		c-0.892,2.603-3.646,3.119-6.092,2.925c-1.757-0.14-3.471-1.056-4.977-1.933c-1.668-0.97-3.251-2.138-4.515-3.605
		c-0.995-1.157-1.864-2.387-1.934-3.938c-0.017-0.377-0.101-0.842,0.049-1.193c0.129-0.305,0.38-0.549,0.48-0.864
		c0.083-0.26,0.369-0.255,0.618-0.399C44.266,99.006,44.66,98.646,45.025,98.282C45.218,98.33,44.305,99.002,45.025,98.282z
		 M46.321,103.898c0-0.235-0.44-0.494-0.216-0.721c0.929,1.194,1.975,2.307,3.168,3.24c-1.144-2.25-2.637-4.543-4.824-5.904
		C44.831,101.652,45.355,103.125,46.321,103.898C46.321,103.802,46.082,103.707,46.321,103.898z M57.77,104.906
		c0-0.374,0.063-0.432,0.432-0.432c-0.185-0.297-0.273-0.662,0-0.937c-0.31-0.31-0.365,0.233-0.45-0.414
		c-0.072-0.552-0.333-1.067-0.63-1.53C57.631,102.613,57.193,103.945,57.77,104.906C57.77,104.857,57.625,104.666,57.77,104.906z"/>
	<path fill="none" d="M53.881,82.586l-0.072-0.072c0.11,0.127,0.182,0.234,0.252,0.396c0.153,0.361,0.379,0.328,0.608,0.597
		c0.345,0.405,0.443,0.968,0.78,1.392c0.976,1.229,2.166,2.27,3.238,3.41c1.14,1.213,2.399,2.644,2.945,4.246
		c0.28,0.821,0.312,1.702,0.06,2.535c-0.203,0.676-1.182,0.451-1.537,0.924c-0.057,0.076,0.201,0.252-0.01,0.252
		c-0.275,0.185-0.596,0.27-0.881,0.433c-0.566,0.323-1.767-0.23-2.385-0.433c-1.139-0.369-2.254-0.888-3.328-1.416
		c-1.813-0.896-3.44-2.228-5.042-3.447c-1.064-0.81-1.796-1.438-2.43-2.661c-0.611-1.181-0.726-2.146-0.275-3.396
		c0.863-2.399,2.742-3.168,4.981-1.822c0-1.116-1.084-2.24,0.324-2.967c0.603-0.312,1.369-0.394,2.036-0.33
		c0.417,0.041,1.201,0.588,1.469,0.481c1.084-0.433,2.279,0.399,3.394,0.295c0.379-0.036,0.35-0.021,0.269-0.448
		c-0.091-0.488-0.197-0.974-0.318-1.455c-0.198-0.783-0.434-1.563-0.735-2.314c-1.827-4.553-6.005-8.092-9.391-11.478
		c3.444,0.431,5.456,3.624,7.547,6.03c1.405,1.618,2.434,3.636,3.397,5.562c0.16-0.155-0.144-0.545-0.144-0.719
		c0.161,0,0.145,0.359,0.36,0.359c-1.005-2.762-3.379-4.714-4.608-7.344c-0.207,0,0,0.381,0,0.432
		c-0.183-0.114-0.523-0.376-0.144-0.504c-0.851-0.377-1.402-1.108-1.584-2.016c3.136,2.574,5.494,5.995,7.377,9.557
		c0.521,0.984,1.3,2.037,1.083,3.188c-0.185,0.987-0.33,1.646-1.177,2.301c-0.938,0.725-2.1,0.563-3.24,0.564
		C55.76,82.717,54.815,82.698,53.881,82.586z M59.425,95.042c-0.284-0.19-0.237,0.36-0.144,0.36
		C59.33,95.282,59.377,95.162,59.425,95.042C59.281,94.945,59.425,95.089,59.425,95.042z M57.985,94.609
		c0.48,0.289,0.745,0.408,0.792,0.36C58.394,94.729,58.129,94.609,57.985,94.609z M58.85,94.034
		c-1.67-3.495-4.764-6.119-7.344-8.929c-0.524,0.66-2.14,0.36-2.88,0.36C49.961,90.137,54.917,92.047,58.85,94.034
		C58.322,92.93,58.658,93.938,58.85,94.034z M52.945,84.818c-0.066,0.136,0.103,0.324,0.243,0.297
		c0.022-0.004-0.171-0.35-0.171-0.441c-0.086-0.059-0.182-0.083-0.288-0.072C52.729,84.746,52.801,84.818,52.945,84.818
		C52.898,84.915,52.801,84.818,52.945,84.818z M52.513,84.386c0.188-0.092-0.077-0.396-0.188-0.396
		C52.119,83.99,52.334,84.477,52.513,84.386C52.61,84.338,52.418,84.434,52.513,84.386z M59.137,77.475
		c-0.011-0.025-0.181-0.505-0.288-0.505C58.85,77.174,58.805,77.585,59.137,77.475C58.994,77.139,58.994,77.521,59.137,77.475z
		 M59.425,77.33c-0.24-0.479-0.383-0.721-0.432-0.721C59.09,76.995,59.234,77.234,59.425,77.33z M56.833,75.314
		c-0.101,0.206,0.034,0.484,0.216,0.577C57.049,75.667,56.843,75.555,56.833,75.314c0.236,0.118,0.398,0.581,0.504,0.792
		c-0.084-0.041-0.168-0.084-0.252-0.125c-0.087,0.043,0.589,0.515,0.324,0.846c0.448,0.167,0.678,0.189,0.407-0.325
		c-0.332-0.631-0.678-1.254-1.041-1.867c-0.622-1.053-1.292-2.079-2.019-3.063c-1.347-1.822-2.896-3.508-4.691-4.897
		C52.458,69.411,55.039,72.127,56.833,75.314C56.786,75.411,56.401,74.546,56.833,75.314z M58.345,75.602
		c0.19,0,0.155,0.289,0.288,0.289C58.479,76.046,58.361,75.648,58.345,75.602C58.442,75.602,58.442,75.891,58.345,75.602z
		 M52.153,66.674c0.411-0.135,0.206,0.301,0.072,0.432C52.146,66.973,52.122,66.829,52.153,66.674
		C52.297,66.626,52.106,66.771,52.153,66.674z M51.505,66.53c0.177-0.263,0.455,0.1,0.36,0.288
		C51.714,66.818,51.699,66.53,51.505,66.53C51.602,66.386,51.602,66.53,51.505,66.53z M49.994,66.602
		c0.144-0.144,0.048-0.263-0.288-0.36C49.85,66.482,49.946,66.602,49.994,66.602z"/>
	<path fill="none" d="M50.425,40.322c0.133,0.051,0.253,0.123,0.36,0.216c0-0.492-0.563-1.142-0.72-1.728
		c1.928,0.665,3.331,1.882,4.579,3.44c1.405,1.755,3.01,3.506,3.938,5.58c0.675,1.51,1.004,3.314,0.023,4.772
		c-1.015,1.509-2.959,2.133-4.651,2.479c0.975,1.558,2.456,2.923,3.672,4.284c1.689,1.892,3.415,4.01,4.248,6.444
		c0.077,2.648-2.385,3.589-4.662,3.743c-1.553,0.104-2.855-0.235-4.287-0.703c-2.146-0.702-4.294-1.392-6.443-2.083
		c-0.672-0.216-0.862-0.435-1.344-0.916c-0.432-0.432,0.188-0.876,0.536-1.283c0.35-0.408,0.459-0.501,0.998-0.423
		c0.638,0.092,1.271,0.223,1.896,0.378c2.718,0.674,5.254,1.89,7.953,2.624c0.318,0.086,2.472,0.738,2.472,0.248
		c0-1.167-1.226-2.729-1.899-3.724c-1.153-1.703-2.482-3.288-3.857-4.813c-0.677-0.751-1.36-1.498-2.028-2.258
		c-0.397-0.453-0.872-1.312-1.324-1.652c-0.117,0.021-0.225,0.066-0.324,0.135c0.338-0.902,1.184-1.533,1.772-2.264
		c0.322-0.4,0.404-0.276,0.903-0.204c0.444,0.065,0.894,0.099,1.342,0.117c0.548,0.022,1.098,0.02,1.646,0.004
		c0.248-0.007,0.496-0.017,0.743-0.03c0.108-0.34,0.181-0.691,0.208-1.048c0.089-1.153-0.359-2.193-0.913-3.176
		c-0.6-1.064-1.362-2.006-2.078-2.99c-0.471-0.648-0.84-1.393-1.383-1.965c-0.361-0.379-0.65-0.827-1.087-1.13
		c-0.475-0.33,0.166-0.394-0.288-0.684c-0.895-0.571-1.606-1.631-2.234-2.47c-0.103,0.418,0.36,0.554,0.36,0.936
		c-0.74-0.318-1.176-1.038-1.728-1.584c0.179-0.087,0.942,0.195,0.945,0.18c-0.062-0.123-0.089-0.255-0.081-0.396
		c0.335,0.167,1.08,0.112,1.08,0.648c0.195,0,0.111-0.181,0.243-0.233c0.115-0.046,0.301,0.334,0.477,0.377
		c0,0.297-0.261,0.171-0.36,0.072c0.131,0.35,0.373,0.643,0.72,0.792c0.226-0.224-0.216-0.487-0.216-0.72
		c0.161,0,0.706,0.627,0.648,0.685c0.006-0.006-0.262,0.101-0.288,0.107c0.096,0.144,0.216,0.264,0.36,0.36
		C50.377,40.418,50.401,40.37,50.425,40.322C50.522,40.322,50.425,40.419,50.425,40.322z M56.833,62.066
		C57.056,62.022,56.833,61.499,56.833,62.066C56.833,62.066,56.833,62.019,56.833,62.066z M56.545,61.347
		c-0.369-0.369-0.5-1.08-1.08-1.08C55.646,60.627,56.021,61.422,56.545,61.347C56.21,61.011,56.21,61.395,56.545,61.347z
		 M55.538,59.763c-0.221,0.032-0.898-0.196-0.432-0.432C54.253,58.765,55.161,60.64,55.538,59.763
		C55.202,59.811,55.394,60.099,55.538,59.763z M52.513,56.522c-0.12-0.024-0.24-0.048-0.36-0.072
		c0.071,0.282,0.415,0.459,0.648,0.576c0,0.453,0.227,0.859,0.484,1.217c0.129,0.167,0.258,0.335,0.388,0.503
		c0.271,0.379,0.053,0.295,0.551,0.35c0.72,0.08,0.089-0.029,0.089-0.414c0.151,0,0.356,0.439,0.504,0.288
		c-0.264-0.352-0.408-0.926-0.827-0.891c-0.327,0.027-0.752-0.257-0.973-0.478c0.17-0.168-0.228-0.725-0.396-0.792
		c-0.531-0.21,0.578-0.543,0.396,0c-0.07-0.035-0.057-0.073-0.144-0.072c0,0.301,0.55,0.424,0.648,0.72
		c0.084-0.163,0.156-0.331,0.216-0.504c-0.293-0.293-0.561,0.221-0.607-0.304c-0.035-0.395-0.696-0.613-0.473-1.064
		c-0.197,0-0.454-0.12-0.648,0.072c0.342,0.098,0.38,0.362,0.216,0.648C52.401,56.263,52.513,56.336,52.513,56.522
		C52.466,56.522,52.513,56.331,52.513,56.522z M52.37,55.154c-0.144,0-0.264,0.097-0.36,0.288
		C52.25,55.442,52.37,55.347,52.37,55.154z M53.018,44.066c0.367,0.184,0.313-0.268,0.239-0.406c-0.126-0.236-0.318-0.483-0.6-0.53
		C52.568,43.497,53.157,43.792,53.018,44.066C53.114,44.115,53.066,43.971,53.018,44.066z M52.37,42.267
		c-0.214-0.106-0.317-0.504-0.576-0.504C51.852,41.996,52.032,42.606,52.37,42.267C52.274,42.219,52.13,42.507,52.37,42.267z
		 M51.578,41.763c0-0.425-0.432-0.281-0.432,0C51.279,41.763,51.449,41.793,51.578,41.763z M51.793,41.69
		c0-0.229-0.488-0.687-0.072-0.792c-0.187-0.093-0.475-0.056-0.576,0.144C51.428,41.184,51.51,41.55,51.793,41.69
		C51.793,41.595,51.698,41.643,51.793,41.69z M50.929,41.187C51.126,40.476,50.308,41.307,50.929,41.187L50.929,41.187z
		 M50.713,40.827c0.062-0.122-0.046-0.322-0.198-0.297C50.308,40.564,50.565,40.901,50.713,40.827
		C50.762,40.731,50.618,40.875,50.713,40.827z M51.29,40.61c-0.24-0.096-0.36-0.023-0.36,0.216
		C51.17,40.827,51.29,40.754,51.29,40.61z M48.122,39.099C48.087,38.651,47.674,39.064,48.122,39.099L48.122,39.099z"/>
	<path fill="none" d="M10.465,23.906c1.109,0.448,2.694,0.108,3.528,1.152c1.256,0.082,2.499,0.366,3.712,0.688
		c2.47,0.657,4.866,1.689,7.376,2.191c0.173-1.385,0.144-2.801,0.115-4.193c-0.032-1.568,0.144-3.104,0.187-4.674
		c0.099-3.579,0.012-7.441,1.857-10.645c0.329,0.662-0.05,1.468-0.223,2.13c-0.236,0.904-0.4,1.826-0.531,2.75
		c-0.336,2.386-0.425,4.792-0.507,7.197c-0.064,1.903-0.128,3.809-0.259,5.709c-0.033,0.479-0.064,0.962-0.136,1.438
		c0.099,0.394,0.405,0.634,0.792,0.72c0.395,0,0.143-0.718,0.432-0.864c-0.055-0.021-0.576-0.171-0.576-0.288
		c0.337,0,0.448-0.498,0.416-0.751c-0.025-0.177-0.116-0.311-0.272-0.4c0.116-0.289,0.192-0.596,0.192-0.908
		c0-0.374-0.121-0.735-0.121-1.108c0.024-0.048,0.9-0.576,0.36-0.576c0-0.012,0.121-0.125,0.144-0.144
		c-0.102-0.31-0.316,0.268-0.368,0.008c0.036-0.108,0.11-0.183,0.224-0.225c0-0.207-0.381,0-0.432,0
		c0.511-0.445,0.943-3.456,0.504-3.456c0.208-0.311-0.025-0.668,0.144-1.008c-0.12-0.12-0.309,0.432-0.504,0.432
		c0.103-0.204-0.066-0.864,0.216-0.864c-0.042,0,0.069,0.208,0.072,0.216c0.397-0.554,0.287-1.295,0.272-1.93
		c-0.015-0.62,0.4-1.404-0.272-1.742c0-0.211,0.632,0.021,0.504-0.36c0-0.071-0.372,0.072-0.432,0.072
		c0.125-0.1,0.652-0.609,0.864-0.504c0-0.239-0.244-0.288-0.432-0.288c0.362-0.359,0.009-0.864-0.36-0.864
		c0.538-0.713,0.055-2.028,0.432-2.88c0.229,0.777,0.243,1.601,0,2.376c0.295,0.295,1.003,0.767,0.144,0.936
		c0.364,0.182,0.213,0.712,0.36,1.008c0.073,0.146,0.443,0.084,0.279,0.315c-0.094,0.132-0.423,0.04-0.423,0.261
		c0.406,0,0.238,0.475,0.36,0.72c-0.283,0-0.095-0.433-0.359-0.256c-0.176,0.118,0.035,0.388,0.215,0.328
		c0,0.318-0.574,0.362-0.096,0.76c0.388,0.322,0.15,0.94,0.105,1.438c-0.113,1.247-0.172,2.498-0.2,3.75
		c-0.03,1.353-0.022,2.706,0.01,4.059c0.018,0.749,0.043,1.497,0.075,2.245c0.009,0.211-0.075,0.73,0.12,0.873
		c0.214,0.157,0.57,0.126,0.735,0.352c0.181,0.246,0.91,0.205,1.263,0.281c0.651,0.14,1.288,0.344,1.913,0.571
		c1.058,0.385,2.167,0.617,3.218,1c2.471,0.901,4.941,1.804,7.411,2.708c1.848,0.677,3.608,1.41,5.353,2.33
		c2.385,1.258,4.79,2.746,7.506,3.146c0.621,0.092,1.265,0.041,1.893,0.104c0.535,0.054,1.052,0.222,1.586,0.198
		c1.135-0.052,2.336-0.1,3.454,0.162c2.41-0.047,4.979-0.228,7.223-1.19c0.83-0.355,1.625-0.846,2.209-1.545
		c-0.365,2.799-2.939,4.061-5.412,4.607c-2.238,0.496-4.815,0.733-7.116,0.504c0.056-0.094,0.134-0.154,0.234-0.18
		c0.047-0.095-1.507-0.092-1.747-0.252c0.172,0.341,0.601,0.36,0.936,0.36c-1.081,0-2.386,0.066-3.405-0.372
		c-0.78-0.336-2.546,0.012-3.219,0.516c-1.521-1.536-4.26-1.422-6.292-1.801c-5.708-1.064-11.354-2.47-16.964-3.959
		c-0.325,2.12,0.964,4.217,0.819,6.344c-0.079,1.156-0.659,1.466-1.791,1.396c-1.137-0.071-1.978-0.692-1.692-1.908
		c-0.533-2.14-0.495-4.383-0.817-6.557c-0.084-0.569-1.564-0.755-2.088-0.914c-1.357-0.409-2.718-0.809-4.079-1.206
		c-4.239-1.235-8.552-2.422-12.724-3.866c-1.157-0.4-2.261-1.035-3.263-1.733c-0.512-0.357-0.997-0.756-1.426-1.21
		c-0.446-0.472-0.393-0.835-0.139-1.428c0.454-1.061,1.542-1.533,2.613-1.732c0.719-0.133,1.458-0.135,2.178-0.007
		c0.373,0.066,0.74,0.166,1.097,0.293c0.227-0.226,0.563-0.253,0.864-0.216c0-0.158-0.265-0.127-0.36-0.144
		c0.79-0.395,1.513,0.592,2.304,0.432c0.009-0.016-0.072,0.395-0.072,0.216c0.099,0.021,0.262,0.022,0.36,0
		C10.459,24.004,10.495,23.964,10.465,23.906z M64.896,41.763c0.072,0,0.145,0,0.217,0c0,0.144-0.072,0.216-0.217,0.216
		C64.896,41.907,64.896,41.834,64.896,41.763z M59.93,41.69c-0.074-0.001-0.433-0.041-0.433,0.072
		C59.581,41.791,59.93,41.912,59.93,41.69z M61.37,41.619c-0.161,0-0.267-0.191-0.36,0C60.993,41.619,61.37,41.891,61.37,41.619
		C61.32,41.619,61.37,41.666,61.37,41.619z M62.089,41.546c0.007,0-0.432-0.022-0.432,0.072
		C61.775,41.738,62.089,41.808,62.089,41.546C61.801,41.546,62.089,41.642,62.089,41.546z M57.553,41.69
		c0-0.241-0.119-0.36-0.36-0.36C57.193,41.57,57.314,41.69,57.553,41.69z M60.505,41.546c-0.149,0-0.496-0.087-0.575,0.072
		C60.079,41.619,60.404,41.752,60.505,41.546C60.41,41.546,60.458,41.642,60.505,41.546z M56.33,41.546
		c-0.132-0.053-0.367-0.122-0.432,0.072C55.929,41.619,56.33,41.663,56.33,41.546C56.09,41.45,56.33,41.594,56.33,41.546z
		 M62.811,41.114c-0.259,0-1.156-0.214-1.297,0.072C61.718,41.187,62.811,41.448,62.811,41.114
		C62.713,41.114,62.811,41.258,62.811,41.114z M60.361,41.042c0.041,0-0.59-0.033-0.504,0.144
		C60.038,41.183,60.206,41.135,60.361,41.042C59.979,41.042,60.314,41.09,60.361,41.042z M61.37,41.114
		c-0.247-0.071-0.55-0.123-0.792,0C60.734,41.269,61.195,41.199,61.37,41.114C61.033,41.018,61.271,41.162,61.37,41.114z
		 M57.266,41.042c0.19-0.284-0.36-0.237-0.36-0.144C57.032,40.93,57.152,40.978,57.266,41.042
		C57.362,40.898,57.218,41.042,57.266,41.042z M41.929,38.955c0.176,0.064,0.208,0.105,0.417,0.168
		c0.156,0.047,0.15,0.336,0.16,0.336c0-0.579,0.925-0.001,1.184,0.081c0.526,0.167,1.068,0.315,1.62,0.36
		c0.396,0.033,0.604,0.073,0.978,0.164c0.582,0.142,1.107,0.51,1.69,0.187c-0.087,0.058-0.111,0.13-0.072,0.216
		c0.292,0.286,0.169-0.216,0.288-0.216c0.289,0,0.36,0.432,0.648,0.432c0.012-0.094-0.051-0.288,0.144-0.288
		c0,0.305,0.347,0.417,0.432,0.072c0.186,0.265,0.546,0.647,0.792,0.216c-0.322,0.106-0.856-0.358-1.156-0.409
		c-0.757-0.129-1.513-0.269-2.268-0.415c-1.413-0.273-2.819-0.581-4.24-0.812c-2.146-0.349-4.242-1.445-6.448-1.317
		c0.59,0.297,1.297,0.285,1.915,0.504c0.3,0.106,1.105,0.435,1.396,0.216c0,0.318,0.617,0.141,1.027,0.281
		C40.704,38.823,41.968,39.51,41.929,38.955z M47.833,39.603c-0.575,0-0.859-0.433-1.44-0.144
		C46.865,39.508,47.358,39.603,47.833,39.603z M46.105,39.314c-0.501,0-0.988-0.549-1.512-0.288
		C45.143,39.026,45.526,39.461,46.105,39.314C46.058,39.314,45.914,39.363,46.105,39.314z M40.85,38.234
		c0.275,0.224,0.921,0.136,1.182,0.315c0.412,0.284,0.975,0.12,1.41,0.333c-0.327-0.433-1.155-0.36-1.632-0.487
		c-0.358-0.095-0.789-0.047-1.056-0.287c-0.3-0.27-0.853-0.159-1.2-0.09C39.985,38.09,40.417,38.163,40.85,38.234z M38.978,37.802
		c-0.144-0.072-0.288-0.144-0.432-0.216C38.418,37.846,38.851,37.802,38.978,37.802z M38.186,37.586
		c-0.223-0.089-0.69-0.307-0.936-0.144C37.518,37.442,37.944,37.83,38.186,37.586C37.706,37.395,38.09,37.683,38.186,37.586z
		 M33.29,36.867c0.74,0.482,1.783,1.017,2.664,0.576c-2.413-0.753-4.916-1.178-7.344-1.872c-0.103,0.502,1.063,0.548,1.438,0.646
		C31.115,36.497,32.183,36.794,33.29,36.867C34.394,37.586,32.569,36.819,33.29,36.867z M36.746,37.154c-0.191,0-0.62-0.298-0.72,0
		C36.266,37.154,36.505,37.154,36.746,37.154z M35.954,36.867c-0.313,0-0.916-0.425-1.152-0.072
		C34.941,36.832,35.863,37.141,35.954,36.867C35.858,36.867,35.906,37.01,35.954,36.867z M28.321,33.411
		c2.336,0.711,4.736,1.205,7.105,1.789c0.537,0.132,6.112,1.91,6.287,1.379c-4.446-1.708-8.908-3.427-13.464-4.824
		C28.157,32.318,28.321,32.851,28.321,33.411C29.426,33.747,28.321,33.267,28.321,33.411z M34.585,36.579
		c-0.116-0.232-0.934-0.288-1.224-0.288C33.559,36.751,34.2,36.661,34.585,36.579z M32.425,36.146c0-0.048,0-0.096,0-0.144
		c-0.126-0.009-0.223,0.039-0.288,0.144C32.233,36.146,32.33,36.149,32.425,36.146z M31.633,35.858
		c-0.673,0-1.277-0.618-1.944-0.288C30.262,35.57,31.108,36.255,31.633,35.858C31.442,35.858,31.442,36.002,31.633,35.858z
		 M34.009,31.827c0-0.013-0.401-0.186-0.432-0.216c0,0.407-0.845-0.19-1.116-0.27c-0.137-0.04-0.687-0.025-0.707-0.086
		c-0.241-0.721-1.329-0.373-1.921-0.868c-0.118,0.358-0.779,0.267-0.864-0.072c0.048,0,0.096,0,0.144,0
		c-0.697-0.697-1.507,0.537-0.704,0.687c0.951,0.177,1.848,0.545,2.747,0.891c0.805,0.311,1.719,0.452,2.479,0.835
		c0.979,0.495,2.026,0.863,3.11,1.043c-0.084,0.054-0.134,0.16-0.216,0.216c0.248,0.124,0.762-0.172,0.936,0
		c0,0.321-0.493,0.205,0.256,0.377c0.471,0.108,0.93,0.264,1.38,0.438c0.89,0.348,1.753,0.823,2.685,1.055
		c-0.096-0.192-0.096-0.384,0-0.576c-0.214-0.066-0.426-0.14-0.636-0.218c-0.582-0.215-1.153-0.458-1.72-0.708
		c-0.941-0.416-1.874-0.852-2.829-1.234c0-0.226,0.36,0.051,0.36-0.144c-0.123,0.017-0.195-0.031-0.216-0.144
		c-0.251,0-0.335,0.216-0.576,0.216c0.106-0.155,0.106-0.299,0-0.432c-0.23,0.185-0.978,0.185-0.576-0.216
		c-0.307-0.204-0.488,0.216-0.792,0.216c0-0.15,0.123-0.162,0.216-0.216c-0.207-0.207-0.425,0.151-0.576,0
		c0.036-0.141,0.108-0.261,0.216-0.36C34.417,32.042,34.25,31.827,34.009,31.827C34.009,31.779,34.106,31.827,34.009,31.827z
		 M29.617,35.499c0-0.264-0.795-0.565-0.936-0.288C28.961,35.305,29.318,35.499,29.617,35.499
		C29.617,35.403,29.57,35.499,29.617,35.499z M20.186,33.267c1.639,0.498,3.336,1.126,5.04,1.368
		c-1.319-0.481-2.663-0.965-4.042-1.245c-0.461-0.093-0.895-0.078-1.312-0.291c-0.479-0.245-1.073-0.542-1.63-0.48
		C18.656,33.033,19.654,33.134,20.186,33.267C22.874,34.083,19.033,32.979,20.186,33.267z M25.226,34.13
		c-1.16-0.574-2.588-0.838-3.816-1.224C21.383,33.364,24.626,34.064,25.226,34.13C25.13,34.083,24.793,34.083,25.226,34.13z
		 M37.465,33.267c-0.096-0.096-0.167-0.096-0.216,0H37.465z M19.177,32.402c0.212,0.336,1.645,0.514,2.088,0.576
		C20.686,32.514,19.898,32.402,19.177,32.402z M26.233,31.683c-0.394,0-0.313,0.889-0.072,1.008c0-0.327,0.463-0.309,0.36-0.72
		c-0.142-0.009-0.273,0.018-0.396,0.081c0.559,0.136,0.313-1.367-0.18-0.873c0.441,0-0.025,0.387-0.144,0.504
		C25.953,31.834,26.11,31.434,26.233,31.683C26.138,31.683,26.186,31.587,26.233,31.683z M18.169,32.619
		c0-0.268-0.434-0.285-0.576-0.144C17.759,32.475,18.045,32.494,18.169,32.619C18.169,32.523,18.122,32.571,18.169,32.619z
		 M8.666,27.506c0.362,0.182,0.316,0.653,0.864,0.432c0.25,0.088,0.975,0.845,1.296,0.36c-0.217,0-1.512-0.279-1.512-0.504
		c5.312,1.449,10.524,3.245,15.84,4.68c0.082-0.407,0.038-0.822,0.016-1.232c-0.022-0.428,0.054-0.476-0.358-0.586
		c-0.667-0.179-1.33-0.372-1.992-0.568c-2.017-0.598-4.017-1.249-6.031-1.856c-4.066-1.226-8.19-2.308-12.443-2.598
		C5.651,26.506,7.175,27.048,8.666,27.506C8.858,27.603,6.793,26.931,8.666,27.506z M24.001,32.258
		c-0.155-0.104-0.299-0.104-0.432,0C23.711,32.258,23.901,32.464,24.001,32.258C23.762,32.163,23.954,32.355,24.001,32.258z
		 M17.449,32.258c-0.354,0-0.663-0.477-0.936-0.072C16.724,32.117,17.347,32.47,17.449,32.258
		C17.402,32.258,17.402,32.355,17.449,32.258z M18.89,32.187c-0.177-0.053-0.685-0.249-0.864-0.072
		C18.276,32.114,18.657,32.304,18.89,32.187C18.41,32.042,18.794,32.235,18.89,32.187z M16.441,32.114
		c-0.189-0.264-0.47-0.448-0.792-0.288C15.922,31.827,16.188,32.032,16.441,32.114C16.202,31.779,16.297,32.067,16.441,32.114z
		 M22.994,32.042c-0.092-0.112-0.212-0.184-0.36-0.216C22.551,32.076,22.853,32.042,22.994,32.042
		C22.994,31.995,22.946,32.042,22.994,32.042z M17.593,31.827c-0.075,0-0.315-0.16-0.216,0.144
		C17.399,31.943,17.593,31.774,17.593,31.827C17.546,31.827,17.593,31.875,17.593,31.827z M34.009,31.827
		c-0.047,0.048-0.096,0.097-0.144,0.144C33.865,31.875,33.914,31.827,34.009,31.827z M21.841,31.754c0-0.19-0.221-0.216-0.36-0.216
		C21.369,31.769,21.841,31.606,21.841,31.754z M15.146,31.683c-0.154-0.145-0.712-0.288-1.008-0.288
		C14.469,31.506,14.807,31.598,15.146,31.683z M16.513,31.683c0.03-0.011,0.332,0.044,0.144-0.144
		C16.428,31.543,16.38,31.591,16.513,31.683z M15.793,31.395c0.119-0.235-0.229-0.216-0.36-0.216
		C15.321,31.409,15.793,31.245,15.793,31.395C15.842,31.299,15.793,31.347,15.793,31.395z M13.994,31.25c-0.124,0-0.36-0.303-0.36,0
		C13.746,31.25,13.885,31.278,13.994,31.25z M13.489,31.179c-0.028-0.022-0.33-0.216-0.432-0.216
		C13.118,31.143,13.326,31.179,13.489,31.179z M19.753,30.962c-0.038,0.013-0.288,0.14-0.288,0.144
		C19.623,31.197,19.719,31.149,19.753,30.962z M14.498,30.891c-0.065,0-0.671-0.289-0.576,0
		C14.06,30.891,14.498,31.205,14.498,30.891C14.45,30.891,14.498,31.035,14.498,30.891z M12.841,30.962
		c-0.093-0.093-0.38-0.216-0.504-0.216C12.337,30.969,12.721,30.962,12.841,30.962C12.794,30.915,12.506,30.962,12.841,30.962z
		 M11.978,30.818c0.072,0,0.144,0,0.216,0c0.101-0.199-0.288-0.27-0.288-0.072C11.994,30.733,12.018,30.757,11.978,30.818z
		 M13.562,30.53c-0.171,0.087-0.576-0.153-0.576,0.144C13.09,30.572,13.562,30.763,13.562,30.53
		C13.466,30.579,13.562,30.579,13.562,30.53z M12.77,30.387c-0.012,0-0.334-0.17-0.216,0.072
		C12.648,30.482,12.72,30.458,12.77,30.387C12.722,30.387,12.77,30.435,12.77,30.387z M26.233,29.667
		c-0.197,0-0.195-0.332-0.432-0.216c0,0.241-0.006,0.524,0.081,0.756c0.048,0.128,0.482,0.272,0.711,0.18
		C26.593,30.114,26.394,29.827,26.233,29.667C26.186,29.667,26.33,29.763,26.233,29.667z M27.025,30.099
		c0.024-0.048,0.048-0.096,0.072-0.144c-0.156-0.035-0.229,0.013-0.216,0.144C26.929,30.099,26.978,30.099,27.025,30.099z
		 M11.474,29.955c0,0.048,0.072,0.072,0.216,0.072C11.689,29.979,11.617,29.955,11.474,29.955z M24.938,29.019
		c-0.388-0.258-0.509,0.179-0.882-0.009c-0.207-0.104-0.411-0.206-0.63-0.279c-0.46-0.151-0.401-0.01-0.611-0.432
		c-0.098-0.196-0.17-0.145-0.361-0.145c-0.279,0-0.216,0.216-0.324,0.216c-0.204-0.101-0.466-0.136-0.684-0.18
		c-0.193-0.031-0.375-0.095-0.543-0.192c-0.19-0.096-0.189-0.164,0.003-0.204c-0.333-0.167-0.772-0.477-1.152-0.288
		c0.185,0.185,0.586,0.017,0.72,0.288c-0.352,0.118-0.992-0.238-1.296-0.36c0.096-0.048,0.192-0.096,0.288-0.144
		c-0.953-0.353-1.941-0.718-2.952-0.864c0.595,0.446,2.027,0.31,2.376,1.008c-2.148-0.536-4.252-1.24-6.387-1.826
		c-1.199-0.329-2.402-0.643-3.624-0.876C8.188,24.6,7.492,24.491,6.794,24.41c0-0.134-0.278,0.04-0.324,0.045
		c-0.206,0.025-0.222-0.262-0.396-0.262c-0.068,0.171-0.193,0.311-0.36,0.144c0.532,0.213,1.104,0.332,1.665,0.44
		c0.403,0.078,0.809,0.145,1.216,0.205c0.234,0.035,0.469,0.068,0.704,0.099c0.619,0.082,0.304,0.025,0.304,0.409
		c0.316,0,0.36-0.241,0.642-0.004c0.2,0.168,0.448,0.278,0.691,0.367c0.554,0.202,1.207,0.348,1.762,0.069
		c0.218,0.218-0.152,0.456,0.264,0.543c0.208,0.043,0.416,0.09,0.623,0.139c0.489,0.115,0.975,0.242,1.458,0.375
		c1.265,0.346,2.52,0.731,3.77,1.13c2.111,0.674,4.236,1.41,6.414,1.845c0.079-0.313-0.317-0.677-0.504-0.864
		C24.743,29.09,24.875,29.022,24.938,29.019z M14.929,29.595c-0.065,0-0.36-0.204-0.36,0C14.689,29.595,14.81,29.598,14.929,29.595z
		 M12.985,29.019c-0.099-0.049-0.568-0.31-0.648-0.072C12.501,28.946,12.844,29.163,12.985,29.019
		C12.602,28.827,12.938,29.067,12.985,29.019z M12.122,28.73c-0.107,0-0.576-0.295-0.576,0C11.694,28.73,12.122,29.028,12.122,28.73
		C12.074,28.73,12.122,28.875,12.122,28.73z M11.401,28.659c0.101-0.3-0.432-0.278-0.432-0.072
		C11.121,28.563,11.265,28.587,11.401,28.659C11.45,28.515,11.354,28.659,11.401,28.659z M22.489,28.586
		C22.5,28.013,22.951,28.836,22.489,28.586L22.489,28.586z M8.954,27.794c-0.027,0.01,0.36-0.162,0.36,0
		C9.193,27.794,9.074,27.795,8.954,27.794z M17.593,27.65C17.45,26.989,18.473,27.906,17.593,27.65L17.593,27.65z M14.713,26.066
		c0-0.242-0.45-0.247-0.36-0.432c-0.143,0.147-0.504-0.196-0.504,0.144C14.143,25.778,14.441,25.977,14.713,26.066
		C14.713,25.922,14.569,26.019,14.713,26.066z M11.689,25.922c0-0.144,0.072-0.216,0.216-0.216
		C11.964,25.824,11.799,25.922,11.689,25.922C11.689,25.778,11.738,25.922,11.689,25.922z M13.706,25.634
		c-0.191-0.144-0.288-0.144-0.288,0C13.61,25.778,13.706,25.778,13.706,25.634z M13.058,25.634c0.029-0.01,0.332,0.043,0.144-0.144
		C12.971,25.496,12.923,25.544,13.058,25.634z M15.865,25.634C15.746,25.439,15.669,25.515,15.865,25.634L15.865,25.634z
		 M14.281,25.274c-0.093,0-0.288-0.176-0.288,0.072C14.11,25.375,14.206,25.352,14.281,25.274
		C14.186,25.274,14.281,25.323,14.281,25.274z M11.545,25.203C11.426,25.007,11.35,25.083,11.545,25.203L11.545,25.203z
		 M12.553,24.482c-0.144-0.005-0.288,0-0.432,0C12.296,24.57,12.419,24.528,12.553,24.482z M6.649,24.411
		c0.075,0.022,0.071,0.119,0.144,0C6.746,24.411,6.697,24.411,6.649,24.411z M10.177,24.194c-0.099-0.201-0.476-0.198-0.576,0
		C9.822,24.194,10.025,24.509,10.177,24.194C10.13,24.099,10.13,24.291,10.177,24.194z M26.81,23.475
		c-0.096,0.144-0.312,0.264-0.648,0.36C26.258,23.69,26.474,23.571,26.81,23.475z M26.449,22.179c0.024-0.12,0.048-0.24,0.072-0.36
		C26.688,21.818,26.657,22.282,26.449,22.179C26.449,22.131,26.546,22.227,26.449,22.179z M26.233,20.595
		c0.058-0.229,0.163-0.581,0.432-0.647c-0.008,0.115-0.056,0.211-0.144,0.288c-0.183,0.275,0.325,0.252,0.144,0.432
		C26.606,20.726,26.291,20.652,26.233,20.595C26.33,20.211,26.282,20.643,26.233,20.595z M27.746,20.307
		c-0.241-0.12-0.108,0.216-0.288,0.216C27.629,20.54,27.725,20.468,27.746,20.307C27.65,20.259,27.746,20.451,27.746,20.307z
		 M26.377,17.787c-0.122-0.247,0.288-0.116,0.288-0.288C26.662,17.664,26.565,17.76,26.377,17.787
		C26.33,17.691,26.618,17.691,26.377,17.787z M26.521,17.283c0.059-0.086,0.083-0.182,0.072-0.288c0.132,0,0.099,0.288,0.288,0.288
		C26.881,17.488,26.614,17.191,26.521,17.283z M26.521,16.707c-0.071-0.049-0.095-0.121-0.072-0.216c0.072,0,0.144,0,0.216,0
		C26.607,16.538,26.521,16.634,26.521,16.707C26.474,16.707,26.521,16.659,26.521,16.707z M26.449,16.203
		c0-0.219,0.346-0.247,0.432-0.072C26.881,16.289,26.527,16.203,26.449,16.203C26.449,16.107,26.498,16.203,26.449,16.203z
		 M27.529,15.338C27.41,15.143,27.333,15.219,27.529,15.338L27.529,15.338z M27.529,14.834c-0.144,0-0.216,0.048-0.216,0.144
		C27.506,14.979,27.578,14.931,27.529,14.834z M26.81,13.971c0-0.191,0.097-0.24,0.288-0.144
		C27.098,13.923,27.002,13.971,26.81,13.971z M26.81,13.61c0-0.096,0.097-0.144,0.288-0.144C27.098,13.563,27.002,13.61,26.81,13.61
		z"/>
	<path fill="none" d="M58.777,16.635c-3.154-3.764-6.311-7.528-9.419-11.33c-0.421-0.516-0.841-1.032-1.258-1.55
		c-0.237-0.294-0.441-0.42-0.351-0.813c0.121-0.52,0.345-1.078,0.817-1.374c0.777-0.489,1.564,0.778,2.08,1.311
		c0.883,0.913,1.742,1.85,2.588,2.797c3.361,3.767,6.433,7.819,10.007,11.391c5.603,0,11.183,0.805,16.7,1.707
		c4.816,0.788,9.625,1.735,14.313,3.106c1.985,0.581,3.916,1.304,5.906,1.854c3.022,0.835,5.704,2.311,8.387,3.893
		c2.269,1.338,4.492,2.884,6.16,4.954c0.817,1.014,1.424,2.182,1.787,3.432c0.345,1.189,0.812,3.092,0.323,4.267
		c-0.186,0.449-0.381,0.925-0.44,1.411c-0.386,0.153-0.444,0.033-0.612,0.415c-0.121,0.271-0.267,0.532-0.434,0.777
		c-0.798,1.177-2.087,2.088-3.35,2.709c-2.453,1.206-5.101,1.729-7.818,1.438c-2.307-0.247-4.551-0.984-6.678-1.89
		c-2.221-0.945-4.451-1.862-6.625-2.915c-2.34-1.133-4.637-2.376-6.791-3.834c-2.168-1.467-4.381-2.886-6.5-4.424
		c-4.17-3.025-7.951-6.488-11.805-9.896c-1.215-1.073-2.33-2.147-3.453-3.307c-0.453-0.469-0.914-0.932-1.375-1.394
		c-0.746-0.045-1.491-0.091-2.235-0.137c-1.337-0.082-2.675-0.166-4.012-0.25c-1.613-0.103-3.229-0.191-4.84-0.332
		c2.646,3.3,6.219,5.908,8.18,9.736c0.433,0.845-0.584,2.336-1.266,2.813c-1.051,0.733-2.366,0.541-3.557,0.366
		c-2.335-0.343-4.392-1.466-6.669-1.971c1.049-3.927,6.052-0.965,8.424-0.288c-2.463-4.133-6.089-7.678-9.432-11.088
		c-0.362-0.544-0.391-1.239,0.038-1.757c0.412-0.496,0.863-0.479,1.444-0.463c1.199,0.034,2.397,0.115,3.593,0.203
		C53.317,16.402,56.053,16.733,58.777,16.635C53.066,9.819,57.434,16.683,58.777,16.635z M78.793,30.963
		c0.749,0,1.225,0.595,1.762,1.034c0.666,0.543,1.354,1.061,2.055,1.558c1.287,0.912,2.615,1.768,3.959,2.592
		c1.113,0.682,2.228,1.364,3.313,2.088c1.176,0.482,2.327,1.025,3.479,1.562c2.449,1.143,4.885,2.341,7.478,3.129
		c1.615,0.491,3.252,0.917,4.923,1.168c0.848,0.128,1.699,0.215,2.555,0.26c0.141,0.428,1.172,0.204,1.512,0.432
		c-0.16,0.157-0.792-0.155-0.792,0.216c2.351,0.389,4.372-1.123,4.975-3.323c0.791-2.885-0.435-5.398-2.299-7.545
		c-3.204-3.691-7.724-6.006-12.237-7.668c-2.177-0.802-4.404-1.8-6.664-2.326c-2.08-0.484-4.166-0.943-6.257-1.388
		c-5.211-1.109-10.399-2.15-15.71-2.662c-0.445-0.043-5.08-0.46-5.08-0.289C69.979,23.662,74.408,27.298,78.793,30.963
		C78.889,30.963,72.361,25.587,78.793,30.963z M100.682,44.283c-0.144-0.192-0.385-0.288-0.72-0.288
		C99.961,44.09,100.201,44.186,100.682,44.283z M99.673,43.851c-0.332,0-0.722-0.433-1.008-0.144
		C98.898,43.765,99.427,43.971,99.673,43.851C99.577,43.851,99.577,43.898,99.673,43.851z M81.891,34.347
		c0.51,0,0.902,0.576,1.367,0.576c-0.203-0.256-0.512-0.316-0.744-0.556c-0.326-0.338-0.728-0.646-1.199-0.74
		C81.313,33.999,81.891,34.016,81.891,34.347c-0.611-0.356-1.186-0.772-1.729-1.224c0.355,0,0.529,0.432,0.863,0.432
		c-1.182-1.182-2.574-2.137-3.902-3.141c-0.652-0.492-1.295-1-1.905-1.543c-0.354-0.315-1.012-1.121-1.536-0.86
		c0.436,0.377,0.889,0.745,1.297,1.152c-1.279-0.852-2.514-1.791-3.601-2.88c0.151,0.105,0.319,0.153,0.504,0.144
		c-0.093-0.276-0.46-0.684-0.792-0.576c0.172,0.087,0.288,0.234,0.288,0.432c-1.046-0.793-2.127-1.632-2.952-2.664
		c0.276,0.139,0.451,0.504,0.792,0.504c-0.138-0.41-0.843-0.662-0.72-1.152c-0.33,0.657-1.129-1.129-1.439-0.504
		c-0.18-0.355-0.664-0.469-0.793-0.864c0.145,0.072,0.289,0.144,0.432,0.216c-0.409-0.696-0.973-1.333-1.727-1.656
		c0.119,0.485,1.141,0.689,1.008,1.224c-0.873-0.29-1.592-2.251-2.664-1.656c0.535,0.18,0.758,1.08,1.367,1.08
		c0.455,0.721,0.994,1.423,1.695,1.92c0.273,0.194,0.575,0.354,0.896,0.456c0.3,0.296,0.602,0.589,0.904,0.88
		c0.613,0.587,1.235,1.166,1.865,1.735c2.684,2.425,5.512,4.688,8.448,6.796c3.112,2.235,6.346,4.299,9.665,6.212
		c3.255,1.876,6.533,3.67,10.148,4.752c-3.67-1.838-7.447-3.526-10.943-5.688c0.117,0.019,0.242-0.014,0.359,0
		c-1.109-1.11-2.561-1.723-3.888-2.52c0.319,0.802,1.55,0.797,1.944,1.584C84.43,36.168,83.081,35.35,81.891,34.347
		C82.033,34.347,82.801,35.114,81.891,34.347z M114.361,37.875c0.715,1.664,0.193,3.308-0.217,4.968
		C115.488,41.863,115.214,39.069,114.361,37.875C114.505,38.21,114.841,38.546,114.361,37.875z M92.042,41.835
		c-0.14,0-0.442-0.42-0.576-0.144C91.602,41.754,91.965,42.062,92.042,41.835C91.993,41.835,91.993,41.979,92.042,41.835z
		 M89.736,40.899c0.045-0.223-0.057-0.36-0.287-0.36C89.325,40.784,89.736,40.717,89.736,40.899
		C89.785,40.658,89.736,40.851,89.736,40.899z M83.833,37.371c0.616,0.744,2.043,1.289,2.92,1.817
		c0.808,0.486,1.558,1.207,2.552,1.207c-0.572-0.358-1.236-0.58-1.873-0.792c-0.412-0.658-1.218-0.969-1.871-1.315
		c-0.443-0.235-1.012-0.917-1.477-0.917c-0.383,0-1.059-0.668-1.456-0.89c-0.209-0.117-0.413-0.262-0.562-0.454
		c-0.223-0.288-0.428,0.023-0.596-0.163c-0.25-0.28-0.549-0.521-0.84-0.756c-1.188-0.963-2.454-1.836-3.712-2.705
		C78.938,34.419,81.316,36.045,83.833,37.371z M90.891,39.675c0.023-0.048,0.047-0.096,0.071-0.144
		c-0.157-0.036-0.229,0.012-0.216,0.144C90.793,39.675,90.842,39.675,90.891,39.675z M89.954,38.955c-0.108,0-0.504-0.291-0.504,0
		C89.585,38.955,89.954,39.265,89.954,38.955C89.904,38.955,89.954,39.099,89.954,38.955z M89.232,38.523
		c-0.332,0-0.489-0.598-0.791-0.144C88.613,38.379,89.109,38.769,89.232,38.523C89.186,38.523,89.186,38.618,89.232,38.523z
		 M88.37,38.307c-0.004-0.096,0-0.192,0-0.288C88.113,38.019,88.18,38.274,88.37,38.307z M86.498,37.443
		c0.107-0.333,0.48,0.144,0.648,0.144C86.827,37.9,86.839,37.443,86.498,37.443C86.544,37.299,86.544,37.443,86.498,37.443z
		 M85.85,37.011c0.348-0.353,0.262,0.072,0.648,0.072C86.404,37.357,85.997,37.103,85.85,37.011z M83.475,35.354
		c0.387-0.048,0.047-0.28-0.072-0.36C83.379,35.124,83.402,35.244,83.475,35.354z M113.786,34.995
		c0.015,0.149-0.052,0.249,0.144,0.216c0.135-0.409-1.041-1.368-1.439-1.512C112.921,34.131,113.354,34.563,113.786,34.995z
		 M80.162,33.123c-1.584-1.056-2.641-1.872-3.168-2.448C78.529,31.634,79.585,32.45,80.162,33.123z M88.874,22.323
		c0.097,0.088,0.337,0.137,0.503,0.234c0.027,0.017,0.811,0.586,0.504,0.126c1.876,0.469,3.752,0.945,5.607,1.491
		c0.523,0.153,1.045,0.312,1.559,0.493c0.129,0.046,0.467,0.103,0.467,0.25c0,0.115,0.079,0.509,0.144,0.573
		c0.254,0.255,0.257-0.545,0.288-0.576c0.546,0.276,1.164,0.378,1.701,0.682c0.072,0.041,0.291,0.295,0.306,0.425
		c-0.128,0.177-0.077,0.265,0.153,0.261c0.135,0.114,0.278,0.138,0.432,0.072c-0.387-0.094-0.35-0.497-0.648-0.648
		c0.262-0.086,0.698-0.108,0.504,0.288c0.418-0.25,0.812,0.076,1.185,0.232c0.173,0.079,0.354,0.121,0.544,0.127
		c0,0.202,0.059,0.274,0.234,0.336c0.303,0.107,0.652,0.072,0.929,0.256c0.366,0.244-0.3,0.354-0.3,0.632
		c0.199-0.099,0.605,0.301,0.72,0.072c-0.396-0.097-0.088-0.313-0.216-0.576c0.281,0.375,0.855,0.336,1.256,0.458
		c0.244,0.074,0.466,0.209,0.626,0.411c0.103,0.128,0.414,0.309,0.207-0.004c0.928,1.329,2.772,1.574,3.96,2.592
		c-0.038-0.094-0.068-0.19-0.092-0.289c0.129-0.257,0.397,0.25,0.308,0.433c0.403,0.202,0.754,0.52,1.08,0.828
		c0.326,0.307,0.676,0.625,1.08,0.828c0.155,0.416,0.522,0.668,0.937,0.792c0.043-0.229-0.029-0.435-0.217-0.576
		c-0.148-0.083-0.244-0.203-0.288-0.36c-0.165-0.01-0.308,0.039-0.432,0.144c-0.043-0.13-0.019-0.25,0.071-0.36
		c-0.193,0.064-0.938-0.213-0.791-0.504c0.129,0,0.158,0.243,0.359,0.144c-0.132-0.309-0.381-0.528-0.72-0.576
		c0,0.123,0.303,0.36,0,0.36c-0.052-0.38-0.233-0.72-0.539-0.956c-0.196-0.154-0.974-0.352-0.974-0.52
		c0-0.869-2.016-0.328-2.016-0.972c0.135-0.136,0.377,0.126,0.504,0c-3.355-1.972-7.188-3.279-10.801-4.68
		c0.087-0.023,0.159-0.071,0.217-0.144c-0.174-0.171-0.406-0.115-0.576-0.288c0,0.195,0.194,0.36,0.359,0.432
		c-4.542-1.048-9.011-2.372-13.607-3.168c0.318,0.642,1.732-0.037,1.871,0.792C86.302,21.305,87.786,22.323,88.874,22.323z
		 M76.563,32.259c0,0.038-0.168,0.216,0,0.216C76.643,32.475,76.727,32.259,76.563,32.259
		C76.563,32.306,76.657,32.259,76.563,32.259z M76.346,32.259c0-0.336-0.098-0.504-0.289-0.504
		C75.865,31.946,75.96,32.115,76.346,32.259z M111.122,32.043c-0.251-0.127-0.603-0.745-0.937-0.576
		C110.376,31.659,110.799,32.199,111.122,32.043C111.025,31.994,111.025,32.09,111.122,32.043z M75.841,31.827
		c0.226-0.3-0.276-0.84-0.497-0.572C75.113,31.537,75.663,31.648,75.841,31.827C75.984,31.634,75.793,31.778,75.841,31.827z
		 M110.042,31.107c-0.144,0-0.414-0.269-0.504-0.36c0,0.268-0.222,0.273,0.09,0.396C109.777,31.202,110.042,31.458,110.042,31.107
		C109.993,31.107,110.042,31.298,110.042,31.107z M75.049,31.179c-0.136-0.948-1.558-1.34-2.16-1.944
		C73.128,30.214,74.423,30.552,75.049,31.179C75.001,30.842,75.001,31.13,75.049,31.179z M75.409,30.675
		c0.071,0.091,0.104,0.216,0.288,0.216C75.652,30.749,75.557,30.677,75.409,30.675z M75.625,29.739
		c0.5-0.063,0.859,0.414,1.08,0.792C76.34,30.286,76.021,29.935,75.625,29.739C76.009,29.69,75.721,29.786,75.625,29.739z
		 M108.961,30.315c-0.164-0.061-0.332-0.109-0.504-0.144C108.373,30.505,108.842,30.669,108.961,30.315
		C108.865,30.315,108.913,30.458,108.961,30.315z M108.241,30.171C108.122,29.975,108.046,30.051,108.241,30.171L108.241,30.171z
		 M109.32,30.027c0,0.096-0.071,0.119-0.215,0.072C109.105,29.955,109.177,29.93,109.32,30.027z M74.33,29.883
		c0-0.232-0.393-0.473-0.576-0.288C73.968,29.595,74.094,29.883,74.33,29.883C74.33,29.786,74.232,29.883,74.33,29.883z
		 M107.881,29.883c0.1-0.204-0.432-0.546-0.432-0.144C107.598,29.772,107.742,29.82,107.881,29.883
		C107.93,29.786,107.833,29.883,107.881,29.883z M75.409,29.451c-0.048,0-0.072-0.023-0.072-0.072
		C75.385,29.379,75.409,29.403,75.409,29.451z M74.979,29.163c0.144-0.047,0.263,0.025,0.359,0.216
		C75.241,29.379,75.122,29.307,74.979,29.163z M107.018,29.379c-0.021-0.113-0.094-0.161-0.216-0.144
		C106.792,29.235,107.005,29.37,107.018,29.379z M106.514,29.163c-0.088-0.087-0.293-0.282-0.433-0.144
		C106.213,29.019,106.404,29.382,106.514,29.163C106.32,28.972,106.465,29.259,106.514,29.163z M73.32,28.947
		c-0.271-0.267-0.647-0.863-1.079-0.576C72.622,28.371,72.941,29.201,73.32,28.947C73.273,28.899,73.177,29.043,73.32,28.947z
		 M70.945,27.867c0.313,0.47,0.803,1.073,1.439,1.008c-0.273-0.54-0.971-0.663-1.296-1.152
		C71.042,27.771,70.993,27.819,70.945,27.867c0.145-0.495-0.293-0.648-0.721-0.648c0.051,0.26,0.268,0.328,0.504,0.288
		C70.729,27.704,70.686,27.867,70.945,27.867C71.425,28.587,70.85,27.867,70.945,27.867z M105.434,28.587
		c-0.097-0.047-0.216-0.096-0.359-0.144C105.266,28.54,105.385,28.587,105.434,28.587z M104.568,28.083
		c0.041,0.042,0.104,0.282,0.252,0.172c-0.03,0.023-0.791-0.756-0.971-0.388C104.145,27.77,104.283,28.083,104.568,28.083z
		 M72.241,28.011c-0.011,0-0.433-0.178-0.433,0C71.861,28.011,72.241,28.218,72.241,28.011
		C72.193,28.011,72.241,28.107,72.241,28.011z M73.465,27.723c-0.191-0.247-0.463-0.637-0.792-0.72
		C72.673,27.569,73.168,27.432,73.465,27.723C73.129,27.291,73.417,27.675,73.465,27.723z M102.697,27.219
		c-0.28-0.137-0.586-0.219-0.864-0.36C101.909,27.164,102.473,27.665,102.697,27.219C102.602,27.171,102.602,27.411,102.697,27.219z
		 M71.162,27.291c-0.109-0.182-0.426-0.725-0.721-0.504C70.732,26.787,70.766,27.424,71.162,27.291
		C70.874,26.812,71.018,27.339,71.162,27.291z M70.082,27.003c0.082-0.101,0.072-0.035,0.072-0.216c0.019,0-0.504-0.022-0.504,0.072
		C69.773,26.965,69.917,27.013,70.082,27.003z M101.33,26.787c0-0.264-0.576-0.354-0.576-0.144
		C100.941,26.643,101.156,26.729,101.33,26.787C101.33,26.739,101.042,26.691,101.33,26.787z M69.29,26.427
		c0.015,0.268,0.433,0.247,0.433,0c-0.584,0.17-0.295-0.432-0.576-0.432C68.904,26.235,68.914,26.427,69.29,26.427z M101.186,26.283
		c-0.117-0.012-0.242,0-0.359,0c0.099,0.069,0.208,0.114,0.324,0.135C101.162,26.373,101.173,26.328,101.186,26.283z M70.082,26.354
		c0.063-0.126-0.057-0.281-0.199-0.233C69.661,26.195,69.952,26.42,70.082,26.354C70.129,26.259,69.984,26.403,70.082,26.354z
		 M68.786,26.139c0-0.384-0.121-0.576-0.36-0.576C68.473,25.851,68.593,26.043,68.786,26.139z M71.018,25.707
		c-0.166-0.162-0.383-1.03-0.72-0.864c0.097,0,0.144,0.048,0.144,0.144C69.684,24.987,70.889,25.579,71.018,25.707
		C70.969,25.66,70.921,25.611,71.018,25.707z M68.137,25.491c0-0.288-0.023-0.432-0.072-0.432
		C67.873,25.251,67.896,25.395,68.137,25.491z M99.673,24.987c0.173,0.173,0.525,0.469,0.72,0.144
		c-0.261-0.065-0.936-0.357-1.151-0.216C99.393,24.892,99.537,24.916,99.673,24.987C100.009,25.323,99.577,24.987,99.673,24.987z
		 M67.85,25.131c0-0.24-0.352-0.252-0.406-0.468c0.131-0.244,0.053-0.349-0.234-0.316c-0.104-0.042-0.178-0.021-0.225,0.064
		C67.361,24.411,67.389,25.131,67.85,25.131C67.85,25.035,67.657,25.131,67.85,25.131z M68.354,25.059
		c0.033-0.012,0.33,0.046,0.145-0.144C68.268,24.92,68.219,24.968,68.354,25.059z M68.137,24.843c0-0.191-0.048-0.288-0.144-0.288
		C67.994,24.651,68.041,24.747,68.137,24.843z M69.648,24.195c0.022-0.04,0.209-0.11,0-0.216c-0.133,0.052-0.147,0.104-0.359,0.144
		c0.115,0.163,0.334,0.504,0.576,0.504C69.973,24.301,69.648,24.434,69.648,24.195z M98.521,24.627c0-0.315-0.576-0.332-0.576-0.144
		C98.12,24.542,98.332,24.627,98.521,24.627C98.521,24.531,98.425,24.627,98.521,24.627z M99.098,24.555
		C98.979,24.359,98.902,24.435,99.098,24.555L99.098,24.555z M94.921,24.483c0-0.322-0.504-0.398-0.504-0.072
		C94.58,24.47,94.748,24.494,94.921,24.483C94.921,24.292,94.682,24.483,94.921,24.483z M97.801,24.267
		c-0.103,0-0.287-0.152-0.287,0.144C97.609,24.363,97.706,24.315,97.801,24.267C97.753,24.267,97.801,24.315,97.801,24.267z
		 M66.77,24.195c0-0.33-0.461-1.072-0.791-0.576C66.264,23.763,66.41,24.195,66.77,24.195C66.77,23.907,66.625,24.195,66.77,24.195z
		 M69.648,24.195c0-0.047-0.024-0.072-0.071-0.072C69.529,24.171,69.553,24.195,69.648,24.195z M93.914,24.195
		C93.794,23.999,93.718,24.075,93.914,24.195L93.914,24.195z M92.042,23.763C92.042,23.34,91.242,23.763,92.042,23.763
		C92.042,23.619,91.896,23.763,92.042,23.763z M91.177,23.619c0.048,0,0.097,0,0.144,0c0.1-0.199-0.287-0.27-0.287-0.072
		C91.081,23.571,91.129,23.595,91.177,23.619z M66.841,23.403c-0.143,0.143-0.309-0.321-0.432-0.072
		C66.553,23.331,66.747,23.686,66.841,23.403C66.793,23.451,66.793,23.547,66.841,23.403z M94.706,23.331
		c-0.151,0-0.36-0.22-0.36,0.072C94.475,23.418,94.596,23.394,94.706,23.331C94.657,23.331,94.657,23.379,94.706,23.331z
		 M67.488,22.827c0.369,0,0.425,0.504,0.793,0.504C67.962,23.545,67.577,23.094,67.488,22.827
		C67.633,22.827,67.537,22.971,67.488,22.827z M62.881,20.523c0.348-0.174,0.596,0.231,0.816,0.416
		c0.406,0.339,0.264,0.071,0.264,0.592c0.43,0.646,1.1,1.124,1.584,1.728c0.092-0.551-0.754-1.258-1.08-1.584
		c0.749-0.037-0.591-1.023-0.756-1.116c-0.434-0.245-1.072-1.373-1.62-1.044C62.343,19.845,62.583,20.23,62.881,20.523
		C63.073,20.427,62.833,20.476,62.881,20.523z M93.553,23.115c0.065,0.097,0.07,0.173,0.288,0.144
		C93.795,23.133,93.699,23.085,93.553,23.115z M88.874,22.971c0.104-0.212-0.211-0.125-0.288-0.072
		C88.682,22.922,88.777,22.946,88.874,22.971C88.921,22.875,88.825,22.971,88.874,22.971z M65.833,22.683
		c-0.144-0.383-0.409-0.648-0.792-0.792L65.833,22.683z M88.152,22.539C88.068,22.287,87.751,22.471,88.152,22.539L88.152,22.539z
		 M86.857,22.395c0-0.213-0.172-0.288-0.36-0.288C86.366,22.371,86.729,22.395,86.857,22.395
		C86.857,22.204,86.713,22.395,86.857,22.395z M67.129,22.035c-0.117,0-0.266-0.264-0.359-0.072
		C66.889,21.963,67.033,22.228,67.129,22.035C67.081,22.035,67.081,22.131,67.129,22.035z M66.266,21.603
		c-0.191,0-0.287-0.047-0.287-0.144C66.073,21.458,66.168,21.507,66.266,21.603z M87.938,21.531c0.106-0.322-0.228-0.223-0.359-0.36
		c-0.023,0.096-0.049,0.192-0.072,0.288C87.665,21.405,87.809,21.429,87.938,21.531C87.984,21.387,87.841,21.435,87.938,21.531z
		 M63.746,21.027l-0.359,0.144C63.625,21.171,63.746,21.124,63.746,21.027z M82.538,21.171c0.03-0.106,0-0.249,0-0.36
		c-0.644,0.162-1.511-0.506-2.088-0.072C81.137,20.912,81.874,20.907,82.538,21.171z M83.186,21.171
		c0-0.287-0.576-0.389-0.576-0.072C82.795,21.17,82.988,21.194,83.186,21.171C83.186,21.075,83.089,21.171,83.186,21.171z
		 M85.706,21.027c0-0.194-0.36-0.424-0.36-0.072C85.463,20.988,85.583,21.012,85.706,21.027
		C85.706,20.931,85.609,21.027,85.706,21.027z M83.833,20.595c0-0.309-0.354-0.234-0.433,0
		C83.538,20.595,83.701,20.622,83.833,20.595z M83.042,20.523c0.188-0.284-0.36-0.238-0.36-0.144
		C82.802,20.427,82.921,20.475,83.042,20.523C83.137,20.379,82.993,20.523,83.042,20.523z M81.529,20.163
		c-0.155,0-0.479-0.302-0.576,0C81.034,20.123,81.529,20.203,81.529,20.163C81.48,20.163,81.529,20.211,81.529,20.163z
		 M49.562,3.027c-0.209,0.105-0.23-0.216-0.432-0.216c-0.126,0.19,0.96,1.334,1.147,1.561c0.813,0.984,1.63,1.964,2.447,2.944
		c1.259,1.509,2.521,3.016,3.782,4.522c0.806,0.962,1.613,1.925,2.42,2.887c0.489,0.584,0.979,1.167,1.469,1.751
		c0.395,0.471,0.907,0.264,1.479,0.375c-0.512-0.709-1.053-1.421-1.701-2.011c-0.518-0.47-0.702-1.077-1.216-1.571
		c-0.271-0.261-0.582-0.478-0.909-0.662c-0.395-0.224-0.222-0.533-0.475-0.921c-0.511-0.783-1.464-1.147-1.935-1.968
		c-0.146-0.254-0.1-0.512-0.328-0.687c-0.303-0.233-0.587-0.49-0.862-0.755c-0.681-0.658-1.308-1.372-1.914-2.098
		c-1.131-1.355-2.192-2.867-3.548-4.015C48.86,2.592,49.488,2.578,49.562,3.027C49.466,3.075,49.514,2.739,49.562,3.027z
		 M54.961,10.659c0.137,1.358,1.827,2.344,2.509,3.431c0.129,0.207,0.251,0.432,0.299,0.673c0.314,0.04,0.578,0.257,0.785,0.48
		c0.417,0.45,0.823,1.488,1.59,1.392c-0.246-0.618-0.973-0.944-1.383-1.433c-0.135-0.16-0.272-0.364-0.272-0.583
		c-0.18-0.033-0.63-0.123-0.529-0.415c0.111-0.323-1.088-1.24-1.402-1.6C56.006,11.973,55.485,11.313,54.961,10.659
		C55.01,11.139,55.154,10.899,54.961,10.659z M57.481,12.099C57.612,11.732,57.855,12.309,57.481,12.099L57.481,12.099z
		 M54.673,10.659c-0.183-0.333-0.694-1.455-1.224-1.368C53.882,9.724,54.24,10.226,54.673,10.659
		C54.146,9.699,54.529,10.515,54.673,10.659z M53.377,9.003C53.636,8.49,52.737,9.073,53.377,9.003
		C53.426,8.907,53.377,9.003,53.377,9.003z M53.233,8.643c-0.36-0.176-0.387-0.728-0.792-0.864
		C52.574,8.142,52.805,8.583,53.233,8.643C53.138,8.596,52.898,8.596,53.233,8.643z M52.297,7.419c-0.341,0-0.331-0.458-0.648-0.144
		C51.72,7.31,52.211,7.594,52.297,7.419C52.25,7.419,52.25,7.516,52.297,7.419z M50.569,5.691c-0.297-0.297-0.675-1.008-1.152-1.008
		C49.949,4.861,49.892,5.691,50.569,5.691C50.474,5.595,50.281,5.691,50.569,5.691z M51.001,4.755
		c0.192,0.048,0.336,0.216,0.432,0.504C51.146,5.067,51.001,4.899,51.001,4.755z M51.001,4.755c-0.528-0.384-0.767-0.672-0.72-0.864
		C50.618,4.083,50.857,4.371,51.001,4.755z M49.417,4.395c-0.063-0.081-0.757-1.041-0.936-0.864
		C48.858,3.719,48.933,4.395,49.417,4.395C48.89,3.723,49.273,4.395,49.417,4.395z M49.706,3.099
		c0.265,0.132,0.238,0.518,0.504,0.648C49.762,3.973,49.602,3.416,49.706,3.099C49.802,3.147,49.658,3.243,49.706,3.099z"/>
</g>
</svg>
