<svg xmlns="http://www.w3.org/2000/svg" width="97.809" height="244.176"><path d="M17.975 191.563c.16 0 .145-.36.36-.36-.038-.16-.134-.184-.288-.072.089-.354.365-.118.553-.428.208-.343.463-.657.758-.929.575-.53 1.283-.892 2.023-1.127 1.347-.428 2.702-.756 4.111-.756 3.258 0 6.673 1.028 9.69 2.232 0 .266-.409.12-.504 0 0 .229 1.609.971 1.8 1.08.794.454 1.593.906 2.349 1.422.769.525 1.526 1.085 2.187 1.746.729 0 1.344.589 1.44 1.368.166 0-.116-.321.216 0 0 .097 1.102 1.368 1.224 1.368l.072-.144c.399.2.395.621.69.981.139.17 1.341 1.406 1.335 1.431l-.09-.216c-.12.479 1.874 2.28 1.521 2.627.176.044.288-.029.288-.216.093.606.273 1.228.655 1.719.179.231.402.425.66.564-.006-.003.517.453.341.453.072-.049.096-.121.072-.216.573 0 .222.725.648.864-.167.113-.216.315-.216.504.382-.187.134.014.216-.216.208.052.288.232.288.432.206-.48-.173-1.065-.432-1.44.669.168.684 1.593.72 2.088-.074-.044-.127-.108-.16-.192-.239-.409-.241-.096-.632-.096 0 .366.526.106.216.72.256 0 .509.084.288.36l-.288-.216c-.027.174.021.318.144.432.281-.138.11-.216.508-.216.176 0-.013.557.355.648l-.216.216c.361 0 .444.504.504.504 0 .646-.253-.253-.288-.288-.185 0-.112.412-.36.288.313.313-.074.391.405.446.156.018.363.058.458.202.094.278-.632.547.072.72 0-.15-.221-.36.072-.36-.112.578.72.471.72.936-.225.113-.134-.254-.36-.144-.04.123.588 1.255 0 .792-.003.345.215.289.504.432-.256.259.144.724-.072.936-.008 0 .525-.37.37-.009-.007.017-.446.34-.252.378-.012-.002.873-.031.387.207-.507.256.288.289.288.36-.17.175-.609.328-.504.648.317 0 .299-.432.576-.432 0 .324.189.709.288 1.008 0-.293.399-.39.288-.72.173 0 .155.668.36.36 0 .646.232 1.335.432 1.944-.323 0-.195-.648-.576-.648 0-.25.215-.576 0-.792-.083.336-.468.256-.36-.072-.304.102-.161.451-.36.648.11.221.573-.369.486.234-.071.501.052.24.312.673.125.209.075.426-.078.604.065 0-.324-.637-.324-.252 0 .365.666.222.396.756-.599 0-.835-.603-.36-1.08-.646 0-.413 1.031-.013 1.131.528.132.445.206.445.669-.128 0-.335-.263-.432-.072.112.223.904.144 1.08.144 0-.21-.322-.286-.216-.504.263.066.359-.208.36-.432.416.763.432 1.747.432 2.592.271-.361.25.827.432 1.008-.377 0-.538.313-.576.648 0 .247.229.496.333.702.284.567.009-.071.314.234.306-.303-.231-.846.072-1.152.273.272.435 1.224.144 1.512 0 .09.281.029.336.232.061.221.104.447.144.672.09.509.16 1.023.224 1.536.045.366.494.442.808.512.108.216-.457.648.216.648-.12-.011-.174-.071-.162-.18.154-.308.824.438.882.54.186 0 .057-.259.288-.144.238.099-.332.128.243.243.357.071.615.192.981.045.202.101 0 .213 0 .36.505.046 1.014.127 1.494.294.371.129.707.474 1.099.408.729-.121 1.693.173 2.409.383 2.194.643 4.389 1.286 6.584 1.926 1.124.328 2.247.656 3.372.979.21.06.419.123.63.178.125.033.222.339.325.441.455-.149.978.144 1.44.144-.265.265.36.584.36.072.783.449 1.792.252 2.645.415.186.036.812.141.812.384 0 .275.083.525-.288.426.063.121.158.193.288.216-.117.117-.293.205-.432.288.211.214-.216.438-.216.72-.343.259-.418-.016-.648.415-.134.251-.283.495-.432.738-.127-.073-.386-.197-.473.014-.107.26-.157.28-.479.139-.354-.155-.591-.03-.902-.176-2.286-1.074-4.823-1.495-7.228-2.219-.951-.286-1.919-.397-2.862-.758-.617-.236-1.224-.482-1.871-.625-.541-.119-1.08-.065-1.59-.264-2.274-.884-4.748-1.177-6.986-2.157 0 .623.181 2.921-.576 3.168.308.719-.438 1.226-.621 1.853-.148.507-.84 1.06-1.244 1.393-.974.805-3.029.665-4.232.521-.481-.058-.965-.163-1.404-.373-.637-.306-.491-.515-.491-1.161.549.2 1.057.5 1.512.864.173-.169.89-.157 1.125-.216.989-.251 1.4-1.246 1.681-2.128.17-.536.293-1.086.444-1.627.082-.293.294-.682.225-.96-.124-.494.45-1.38.126-1.764-2.045-.583-4.16-.884-6.213-1.432-.481-.128-.96-.269-1.433-.429-.275-.094-1.018-.54-1.281-.407-.408.205-1.19-.123-1.665-.2-.755-.123-1.517-.201-2.281-.233-1.399-.059-2.803.038-4.182.282-.529.094-1.275.131-1.687.484-.485.416-1.054.719-1.54 1.134-.334.287.041.422-.319.646-.527.327-1.104.646-1.521 1.115-.112.122-.203.258-.271.408-.054.048-.327-.057-.36 0-.105 0 0 .583 0 .504-.286.12-.584.211-.89.265-2.832.496-4.403-2.209-5.721-4.225-1.383-2.115-2.585-4.37-3.397-6.769.224.075.366.679.432.864l.072-.072c-.423-.764-.463-1.7-1.008-2.448 0 .469.708 1.245.432 1.656-.456-1.142-.994-2.259-1.296-3.456-.267 0 .289.072.288.072-.495-2.114-1.208-4.171-1.775-6.266-.657-2.426-.999-4.988-1.299-7.48-.251-2.079-.41-4.174-.382-6.27-.275-.013-.327-.161-.155-.444.057-.346.116-.69.179-1.035.104-.57.216-1.139.347-1.704.082-.352.171-.702.278-1.047.169-.542.164-.47.647-.666-.029-.058-.167-.892.144-.737.125.057 0 .194 0 .301.048 0 0-.144 0 0zm30.312 43.848c.045-.222.559 0 0 0 0 0 .097 0 0 0zm7.848-1.944c.023.023.128.144.144.144l-.144-.144zm.144-.144c.497-.561-.633 0 0 0 0 0-.048 0 0 0zm.648-1.08c-.125-.061-.195.11-.216.216.182.123.216-.079.216-.216-.096-.047 0 .241 0 0zm-2.664-.936c.133.268-.072.653-.072.936.374 0 .332-.805.072-.936.048.097.096.048 0 0zm2.52.576c-.33-.164.045-.8-.36-.936.233.348-.096.738.072 1.08 0-.243.098-.334.288-.144-.096-.047-.191-.191 0 0zm-2.448-1.008c0 .077-.072.161-.072.216.187.046.211-.026.072-.216zm2.448.072c.14-.208.165-.864-.216-.864.126-.145.247-.145.36 0 .139-.413-.158-.654-.323-.324-.149.296-.349.161-.117.458.16.209.24.479.296.73.096-.144-.096-.432 0 0zm-2.448-1.224c0 .144.024.241.072.288 0-.191-.024-.288-.072-.288zm1.08.072c-.031-.155-.007-.299.072-.432-.3-.098-.278.432-.072.432 0-.095-.096 0 0 0zm6.336-.359h.216-.216zm-.432-.217c-.083-.044-.169-.074-.261-.089-.16.105.261.344.261.089-.048 0 0 .144 0 0zm-1.44-.36c-.118-.012-.241 0-.36 0 .099.069.207.114.324.135l.036-.135zm-11.088-2.664c.234.101.544.198.792.072-.441-.439-.992.209-1.021-.531-.019-.472-.957-.577-1.408-.734-1.513-.525-3.008-1.099-4.496-1.689-2.448-.973-4.876-1.994-7.331-2.95 0 .786-1.516-.235-1.89-.449-1-.572-1.931-1.247-3.034-1.616-.452-.151-.982-.093-1.226-.519-.197-.344-.38-.753-.331-1.16.545-.545.322-1.674 1.163-1.97.573-.201 1.833.588 2.361.818 1.084.471 2.15.983 3.229 1.466.841.375 1.688.741 2.554 1.055.349.126.57.514.935.692.404.198 1.09.344 1.278.818-.044-.083-.074-.17-.089-.261.116-.174.667.293.737.405.089-.088-.177-.288 0-.288.378.188.276.486.8.56.39.055.124-.2.352-.2.116.233.411.193.576.36-.646.65.174.393.432.648.184-.364-.432-.088-.432-.36.165-.01.309.039.432.144v-.216c.523.175.754.661 1.16.712.06.007.712.494.712.511-.05-.152-.111-.432.144-.432-.037.134.033.296 0 .432.323-.157 1.015.208 1.264.372.491.323 1.041.552 1.6.728.337.106.679.194 1.024.268.063.251.357.349.576.396.179.038.506.11.576.324.258-.258.474.042.648.216v-.216c.354-.117.211.36.432.36 0-.182.105-.288.288-.288-.03.112.03.248 0 .36.228-.05.655-.13.792.144-.116-.028-.211-.004-.288.072.254.17 1.008-.055 1.008.36-.099-.2.217-.199.288-.306.129-.194-.21-.12-.288-.198.184-.429.066-.985-.026-1.419-.173-.811-.447-1.653-.594-2.416-.441-2.287-1.115-4.527-1.876-6.726-.444-1.283-.923-2.555-1.425-3.817-.572-1.437-1.062-3.194-1.961-4.451-.375-.525-.622-1.13-.741-1.763-.216-.213-.436-.159-.378-.45.063-.317-.239-.564-.412-.805-.901-1.256-1.853-2.477-2.862-3.649-3.48-4.04-7.584-7.494-12.768-9.04-2.378-.709-5.22-1.449-7.589-.342-2.201 1.028-3.345 3.479-3.668 5.775-.119.845-.08 1.646-.05 2.479.021.58-.114 1.179-.052 1.752.092.859-.004 1.814.296 2.616.196.198.184.333-.039.405-.165.219.094.661.153.884.152.577.27 1.172.279 1.771.002.159-.004.318-.021.476-.034.306.125.381.203.667.037.117.031.231-.019.342.214 0 .242.334.252.468.025.319.128.59.196.9.153.692.217 1.366.409 2.046.671 2.364 1.417 4.713 2.342 6.991.297.731.881 1.606.949 2.367.043.478.339.924.557 1.339.43.824.853 1.653 1.276 2.481.517 1.011 1.202 1.878 1.794 2.848.349.571.729 1.454 1.313 1.809.443.27.637.555.973.928.373.415.565-.11.846-.403.748-.781 1.59-1.474 2.439-2.141.493-.387.771-.613 1.364-.711.464-.077 1.109-.714 1.272-.057.753-.376 1.598-.704 2.454-.681.324.008.646.073.94.211.174.081 1.153.175 1.357.038 0 .194-.489.171-.36.432.51-.125.457-.444 1.039-.391.629.058 1.261.084 1.892.125 1.207.078 2.609.097 3.693.698-.028-.116-.004-.212.072-.288.159.095.382.209.576.144-.097.1-.146.22-.144.36.122-.003.32-.024.432-.072-.214-.053-.18-.216-.072-.36.177.522.825.94 1.37.72.336.144-.24.097 0 0zm1.224.432c.359.121.743-.152 1.08.072-.209-.315-.9-.417-1.224-.504 0 .235.484.206.144.432.144.049.144-.095 0 0zm5.112-.72l-.144.288c.192.097.336-.192.144-.288 0 .049.097.049 0 0zm2.304.217c.138-.339-.195-.52-.432-.288.15-.074.357.172.432.288zm-9.648-.217l.072-.216.288.144c-.102.081-.223.104-.36.072.048-.047.24 0 0 0zm8.496-.504c-.24.241-.24.36 0 .36v-.36zm.288.144c.316-.104-.12-.478-.216-.288.115 0 .024.288.216.288.144-.047-.047 0 0 0zm-3.744-7.92c-.266-.131-.054.297.072.36v-.216c.133 2.509 1.132 4.875 1.512 7.344.227-.113.628.135.657-.162.021-.206-.154-.413-.369-.342l.288-.216c-.019-.195-.053-.388-.091-.58-.119-.594-.28-1.179-.449-1.76-.147-.509-.282-1.023-.375-1.544-.04-.225-.073-.453-.086-.681-.013-.213-.294-.259-.294-.33.241 0-.069-.655 0-.864-.367.001-.458-1.298-.561-1.617-.2-.621-.308-1.72-.683-2.179-.222-.271-.46-1.82-.559-1.82-.356 0-.205-.247-.272-.558-.102-.468-.341-.89-.662-1.242.284 0 .225.086.095-.215-.104-.241-.21-.48-.316-.72-.401-.905-.799-1.812-1.227-2.704-.317-.663-.677-1.297-1.024-1.943-.325-.605-.837-1.18-1.057-1.833-.029.102-.113.187-.144.288 0-.213-.309-.276 0-.432-.05-.025-.41-.235-.504-.144 1.342 2.263 2.495 4.636 3.475 7.078.489 1.219.936 2.456 1.341 3.705.227.699.442 1.402.645 2.108.103.358.202.717.299 1.077.158.156.289-.197.289.142-.096-.047 0-.144 0 0zm2.808 5.76c.264.33.288.822.288 1.224.059-.019.547.375.576.432-.094-.426-.405-.769-.288-1.062.121-.303.155-.646 0-.954-.157-.315-.19-.847-.738-.666-.177.059.165.473.45.377-.155.158.26.449 0 .576-.083-.125-.273-.293-.432-.216.023.087.071.159.144.216-.106 0-.407.025-.504-.072l.144.288c-.096 0-.144.048-.144.144.228.116.283-.287.504-.287.192.241-.096 0 0 0zm-6.048 1.512c0 .048.072.072.216.072 0-.047-.072-.072-.216-.072zm1.8-.288c-.384-.191-.6-.191-.648 0 .192.144.408.144.648 0zm1.008.072c-.124-.105-.267-.154-.432-.144.123.107.267.154.432.144-.096-.095-.096.048 0 0zm3.312-.216l-.432.216c.288 0 .432-.072.432-.216zm.864-.504c.023.023.127.144.144.144-.048-.047-.096-.096-.144-.144zm-4.32 0c0-.297.185-.144.288-.144-.096.048-.191.1-.288.144zm-3.96-.576c-.102.056-.102.128 0 .216v-.216zm5.904-.144c.097.097.144.216.144.36-.144-.095-.191-.216-.144-.36zm-4.32-.072c-.108-.74.819.24 0 0zm5.4-.216c-.12-.195-.196-.12 0 0zm-33.264-.648c0 .048.048.072.144.072 0-.047-.047-.072-.144-.072zm32.328.072l-.072-.144c.048 0 .072.049.072.144zm.72-.072c-.084-.128-.149-.216-.36-.216-.082.249.219.216.36.216zm.504-.864c.068-.237.217-.489.504-.432-.191.32-.1.749 0 1.08-.397 0-.025-.765-.504-.648.097-.335.192-.047 0 0zm-9.792-.215c.127 0 .352.024.288.216-.219.035-.236-.063-.288-.216zm9.648-.721c-.363-.179-.091.288-.288.288-.011 0-.125-.121-.144-.144-.289.29-.043.598.216.792.082-.164.166-.325.252-.486.208-.382.036-.147.036-.486 0-.192.119-.972-.288-.972 0 .353-.504.294-.504.648 0 .157.626.17.72.36-.096-.047-.047-.095 0 0zm-.792.504c-.097.104-.122.225-.072.36.277 0 .298-.36.072-.36-.096.097.097 0 0 0zm-9.936.217h.144c-.048-.097-.096-.097-.144 0zm10.08-.649c-.144-.047-.264 0-.36.144.288 0 .408-.047.36-.144zm-12.312-.287c-.075-.235-.121-.162-.144.072.048-.025.096-.049.144-.072zm11.952-.217c.192-.001.203-.162.144-.36-.049.072-.121.096-.216.072l.072.288c-.113.126-.078-.036-.144.216.132.014.18-.059.144-.216zm.432 0c0-.127.334-.291.433-.096.061.123-.368.096-.433.096 0-.047.048 0 0 0zm-.072-.864c-.357-.237-.158.512 0 .432.081-.16-.131-.229-.036-.324.224-.224.344.108.54.108.222-.331-.019-1.08-.432-1.08-.6-.057.144.398.144.432 0 .166-.576-.124-.576.144.147.03.36.099.36.288-.144-.095 0-.144 0 0zm-.36.144c.009-.114.057-.21.144-.288-.167 0-.342.034-.432-.144-.207.208.155.375.288.432 0-.095-.335-.144 0 0zm-.864-.144c-.047 0-.072-.072-.072-.216.048 0 .072.072.072.216zm-33.048-.792c0 .097.025.144.072.144 0-.095-.024-.144-.072-.144zm1.08.072c0-.096-.047-.191-.144-.288 0 .097.048.193.144.288zm32.256-.144c0 .097.024.144.072.144 0-.095-.024-.144-.072-.144zm-33.408.072c.048-.144-.096-.6-.432-1.368 0 .481.144.936.432 1.368zm33.984-.72c.232 0 .288-.123.288.288-.246.125-.116-.288-.288-.288zm-32.976.217c-.068-.404-.251-.085 0 0zm31.464-.145l-.072-.144c-.096.097-.072.144.072.144zm2.232-.576l-.36-.072c.003.146.076.194.216.144-.52.26-.355-.759-.288-1.008.263 0 .003.504.288.504-.389.397.144-.052.144.432-.047 0 0-.144 0 0zm-33.984-.071c-.103-.318.012-.72-.432-.72 0 .215.239.624.432.72zm-1.584-.649c.097.097.144.192.144.288-.144-.096-.191-.191-.144-.288zm-.864-2.88c.385.72.696 1.656.936 2.808-.479-.911-.792-1.847-.936-2.808zm2.16 2.448c.213-.209-.072-.335-.216-.288-.018.172.054.268.216.288.048-.047-.144 0 0 0zm-.288-.576c0 .097.025.144.072.144 0-.095-.024-.144-.072-.144zm0-.288c-.12-.196-.196-.119 0 0zm32.832-.288c0 .097.025.144.072.144 0-.096-.024-.144-.072-.144zm-33.12-.36c.047.125 0 .206.216.144-.022-.112-.094-.16-.216-.144-.002-.121-.014-.241-.036-.36-.035-.212-.131-.263.036-.432-.301-.301-.567.365-.432.432.449-.442.113.36.432.36zm32.976-.072c0 .144.025.216.072.216 0-.144-.024-.216-.072-.216zm-32.256-.144c0-.115.106-.515-.144-.432-.027.175.021.319.144.432 0-.047-.096-.047 0 0zm32.256-.288l.072.144c.009-.046-.001-.144-.072-.144 0 .097.048 0 0 0zm.72-.144c-.104-.104-.265.167-.432 0 .225-.335-.216-.668-.216-1.008.208 0 .303.348.504.144 0 .305.251.547.144.864-.047-.047.048-.144 0 0zm-34.272-.144c0-.288-.047-.407-.144-.36 0 .193.048.313.144.36zm1.152 0c-.029-.147-.099-.36-.288-.36.091 0 .092.36.288.36-.047-.239-.096 0 0 0zm-1.008-.288c.087.021.197 0 .288 0-.193-.191-.024-.188.072-.288-.178 0-.402-.258-.504-.36-.033.118-.057.238-.072.36.226-.035.299.061.216.288zm-1.584-1.512c.337.337.079 1.014.504 1.296-.539.273-.504-1.075-.504-1.296.096.097 0 .097 0 0zm1.296 1.224c-.047-.191-.12-.312-.216-.36 0 .193.072.313.216.36zm32.616-.288c.095.024.167 0 .216-.072-.053-.074-.141-.165-.216-.216 0 .094-.015.197 0 .288zm1.08-.432c.097 0 .144.097.144.288-.144-.095-.191-.191-.144-.288zm-33.912.144c.015-.106.087-.432-.072-.432-.17.171-.165.338.072.432zm.36 0c0-.114.106-.515-.144-.432-.043.207-.07.429.144.432zm.792-.144c0-.139-.025-.36-.216-.36 0 .198-.045.36.216.36 0-.239-.096 0 0 0zm32.76 0c-.202-.378-.576-.917-.576-1.368.34.228.233.838.576 1.008.095 0 .071-.36.216-.36.104.31-.216.439-.216.72-.384-.72 0-.095 0 0zm-1.008-.144c-.117 0-.024-.288-.216-.288-.044.09.094.538.216.288-.047 0-.047.097 0 0zm-32.184 0c0-.127-.025-.351-.216-.288-.014.191.083.156.216.288 0-.239-.096-.095 0 0zm-.504-.36v.144-.144zm-.36 0c0-.304.53-.112.648-.072-.3-.399-.292-1.027-.591-1.308-.146-.137-.059-.78-.272-.78-.011.029-.09.225-.108.234-.165.082.042-1.276-.468-1.026.227.97.395 2.032.791 2.952 0-.191-.144-.335 0 0zm1.008-.072c0-.32.04-.896-.216-1.152-.303.457.216.706.216 1.152zm32.184-.144v-.144c-.126-.009-.222.039-.288.144.096 0 .192.003.288 0zm-.432-.072c0-.288-.096-.432-.288-.432 0 .097.097.241.288.432zm-33.912-.432c.048 0 .072.121.072.36-.144 0-.168-.119-.072-.36zm1.152 0c.136.072.184.191.144.36h-.216c.034-.118.058-.238.072-.36.096 0 0 .097 0 0zm.648.073c-.199-.201-.275.288-.072.288.024-.097.054-.192.072-.288zm-2.016-1.081c.144.288.216.624.216 1.008-.144-.095-.216-.432-.216-1.008zm34.632.36c.507-.098 0 .68 0 0 0 0 0 .144 0 0zm-33.336.144l-.144-.144c.023.024.127.144.144.144zm-2.016-10.944c-.493-.038-.178.845-.137 1.126.147 1.005.277 2.012.424 3.017.128.88.266 1.76.457 2.628.15.683.103 1.592.552 2.156-.069-.085-.093-.181-.072-.288.386.193.571-.292.648-.576 0-.203-.275-.367-.072-.576.161-.231.232.254.23.234.063.596.397 1.189.324 1.795-.016.133.215.983.382 1.066.099-.886-.238-1.782-.449-2.628-.078-.311-.096-.78-.574-.636-.273.082.016.684.016.888-.209-.104-.229.216-.432.216 0-.27.009-.787-.288-.936h.288c-.018-.153.006-.297.072-.432-.221 0-.211.288-.432.288 0-.409-.049-.197.072-.36h-.216c.082-.163.234-.305.36-.432.094-.097.331.656.45.576.275-.183.107-.226.558 0-.234-.712-.382-1.599-.468-2.341-.052-.446.093-1.042-.244-1.271-.294-.201-.153-.731-.512-.852.978 0 .006-1.11-.192-.12-.069.344.405.467.435.948.014.232-.318.532-.243.684.095.047.163-.216.36-.216-.117.477.072.961.072 1.44.389-.128.209.432.504.432-.272.138-.233.525-.432.72 0-.332-.408-.264-.576-.432.367-.178-.143-1.297-.072-1.584.057.037.094.045.144.072 0-.126.009-.427-.144-.504.062-.164.21-.577-.072-.648 0 .137.155 1.561-.216 1.008 0-.818-.144-1.63-.144-2.448-.04.119-.112.167-.216.144.019-.153-.005-.297-.072-.432.297.1.254-.216.504-.216-.325-.163-.328-1.25-.576-1.008.085-.157.131-.325.185-.524.131-.485-.229-.881-.059-1.249.135-.292.292-.544.082-.755-.173-.173-.287-.209-.249-.442.267-1.65.187-3.436.761-5.021-1.093.068-1.425 6.995-.721 7.489zm34.632 10.584l.072-.144c-.208 0-.104-.093-.216.072.079-.012.087.029.144.072zm-33.912-.144c-.144-.144-.216-.384-.216-.72.144.144.216.385.216.72zm34.992-.216v-.144.144zm-33.264-.072c-.096-.24-.191-.384-.288-.432 0 .288.097.432.288.432zm32.976-.215c0-.144.097-.216.288-.216.048.287-.048.359-.288.216zm-1.152-1.225c0-.319-.526-1.016-.216-1.224.316.158.352.84.531 1.117.234.36.477.835.477 1.332-.497-.164-.238-1.085-.792-1.225 0-.191.192.049 0 0zm-34.128-.359c.415.139.157.876.432 1.152-.322.108-.401-1-.432-1.152.144.048.097.48 0 0zm34.848.287c.336.192.385.36.144.504-.096-.191-.144-.36-.144-.504zm-33.192.072h-.216c-.1.204.332.42.432.216-.071-.071-.139-.152-.216-.216zm-1.728-.864c.144 0 .216.121.216.36-.144.049-.216-.072-.216-.36zm33.192-.216c-.2-.2-.275.288-.072.288-.029-.115-.005-.212.072-.288-.096-.095-.047 0 0 0zm.36.288c.263-.391-.801.025 0 0 .097-.144 0 0 0 0zm-.864-.576c-.035-.447-.448-.034 0 0zm1.08-.432c.168-.168.108-.395 0-.576.362.155.566.491.648.864-.252 0-.414-.288-.648-.288.144-.144.048 0 0 0zm-33.84.216c-.288-.143-.091-.595-.288-.792.357-.237.288.663.288.792-.096-.047 0-.239 0 0zm32.76-.216c0 .097.024.144.072.144 0-.096-.024-.144-.072-.144zm-31.032 0c-.096 0-.096-.047 0-.144v.144zm-.864-.792c0 .097-.024.144-.072.144 0-.096.025-.144.072-.144zm32.976.144c.003-.033-.045-.407.144-.216.047-.08-.144.476-.144.216zm-.72-.504c-.149-.049-.445.068-.377.271.077.235.447-.132.377-.271-.144-.047.048.097 0 0zm-33.552-.936c.359.241.124.749.288 1.08-.456-.15-.175-.742-.288-1.08.144.097.048.144 0 0zm1.656.36c0 .174.011.412-.072.576.296-.097.142-.366.072-.576 0 .288.048.144 0 0zm-.504.432c.051 0-.117-.193-.144-.216-.078 0 .131.196.144.216zm31.32-.288c0 .097.025.144.072.144 0-.096-.024-.144-.072-.144zm-31.176.072c-.047 0-.072-.024-.072-.072.048 0 .072.025.072.072zm31.824-.144c.068-.135-.104-.325-.243-.297.039-.008-.064.292-.054.333.016.062.271-.036.297-.036.048-.095-.144 0 0 0zm-1.944-.072c-.047 0-.072-.072-.072-.216.048 0 .072.073.072.216zm.504-.432c0 .12.192.432.36.432 0-.141-.381-.607-.504-.648l.144.216c0 .097-.047 0 0 0zm-.72 0c.052 0-.117-.194-.144-.216-.076 0 .13.195.144.216zm-31.392-3.168c.269.451.268 1.041.316 1.546.037.381.272 1.065.043 1.405.116-.943-.359-1.98-.359-2.951.144.241 0 .145 0 0zm30.528 1.081c.146.505.576.936.936 1.296.096-.381-.354-.678-.544-.936-.175-.238-.091-.53-.392-.36v-.216c-.167.168-.134-.226-.324-.036-.305.305.214.252.324.252.097.335-.047 0 0 0zm-29.16.359c-.029.116-.004.212.072.288.168-.144.144-.24-.072-.288 0 .193.096 0 0 0zm31.536-.216c.127 0 .291.334.096.433-.123.061-.096-.367-.096-.433.048 0 0 .048 0 0zm-30.6.432v-.576c-.305-.1-.102.474 0 .576zm.216-.648c-.069.13-.153.27-.072.432.222 0 .235-.35.072-.432zm30.024.216c.046-.125.142-.173.288-.144 0 .188-.176.125-.288.144zm-.072-.792c.192.048.288.241.288.576-.192 0-.288-.191-.288-.576zm-1.512.216c0 .144.024.216.072.216 0-.144-.024-.216-.072-.216zm-1.008-.216c-.184-.09-.513.19-.216.288-.11-.223.216-.06.216-.288-.096-.047 0 .048 0 0zm-.072-.144c.122-.241.272.288.36.288.07-.276-.457-1.152-.792-1.152-.029.108-.022.322 0 .432.553-.136.147.15.432.432.048-.095-.047-.047 0 0zm-28.152-.72c0 .338.201.634.432.864 0-.625-.072-1.247-.072-1.872-.473.159-.264-.329-.504-.504.121-.114.265-.138.432-.072-.041-.144-.095-.456-.216-.576.029.116.005.212-.072.288.045-.358-.142-.576-.504-.576 0 .205.321.082.216.288-.343.343-.072.302-.072.648h.216c.024.128.039.257.045.387.083.138.127.405-.189.405.07-.208.085-.46-.144-.576-.142.474.108.779.576.864 0 .181.204.394.135.576-.108.286-.266-.144-.279-.144 0 .288.048 0 0 0zm.792.72c0-.183-.105-.288-.288-.288.224 0 .064.288.288.288 0-.191-.096 0 0 0zm29.376 0l-.072-.144c.117.001.054.098.072.144zm.36 0c.12-.195.196-.12 0 0zm-30.672-.072h.144c.101-.199-.288-.27-.288-.072l.144.072zm27.864-.216c0 .144.025.216.072.216 0-.144-.024-.216-.072-.216zm1.512-.288c-.017-.091 0-.195 0-.288.248.166.432.411.432.72-.11-.054-.396-.467-.432-.432zm.504-.432c-.07-.111-.095-.231-.072-.36.373 0 .616.484.324.703-.147.111-.127.12-.036.233.082 0 .188-.211.216-.288.08.103.104.222.072.36-.106-.011-.202.014-.288.072-.398-.131-.052-.746-.107-.774-.037.019-.073.036-.109.054 0-.047.097-.095 0 0zm-31.464-.576c.125.127.072.576.072.72-.24-.118-.24-.549-.072-.72.048.049-.096.097 0 0zm2.448.649c0-.24-.072-.384-.216-.432 0 .287.072.432.216.432zm26.496-.721c-.032.126 0 .233.096.32.339.302.048.047.048.4.085.013.203.016.288 0 0-.217-.236-.621-.432-.72-.047.193.192.097 0 0zm1.728.648v-.144c.126.034.222.106.288.216-.13.035-.211-.072-.288-.072 0-.047.048 0 0 0zm-1.872-.144c0-1.031-.728 0 0 0 0-.383-.047 0 0 0zm-.576-.864c-.067.139.116.285.243.234.18-.072-.229-.378-.243-.378-.031.152-.104.152-.216 0-.011.106.013.202.072.288 0-.095.048-.144.144-.144-.047.097-.096 0 0 0zm2.592-.072c.144.048.216.144.216.288-.144-.047-.216-.144-.216-.288zm-30.888-.144c.08.103.104.223.072.36-.213-.096-.237-.216-.072-.36.048 0-.096.048 0 0zm28.872.216c-.105-.124-.154-.268-.144-.432-.397 0-.209.432.144.432 0-.047-.047 0 0 0zm-26.568-.216c0 .097.024.144.072.144 0-.096-.024-.144-.072-.144zm28.152-.432c.174.174.597.249.432.576 0-.233-.432-.305-.432-.576.048.049 0 .097 0 0zm-2.304.432c0-.291-.344-.242-.432-.504-.242.245.238.504.432.504 0-.144-.144 0 0 0zm.144-.432c.147-.291-.349-.154-.432-.072.155-.031.298-.007.432.072.048-.095-.047 0 0 0zm1.296 0c-.047 0-.072-.072-.072-.216.048 0 .072.072.072.216zm-.936-.072c.045-.224-.15-.636-.432-.36.243 0 .189.36.432.36.048-.24-.096 0 0 0zm.72-.216c-.022-.075-.119-.072 0-.144v.144zm-27.072-.072c.015-.129-.009-.25-.072-.36-.175.088-.136.36.072.36 0-.191-.096 0 0 0zm27.576-.287c.156-.231.339.237.36.288-.193-.001-.209-.288-.36-.288.097-.144.048 0 0 0zm-29.952.143c0-.258.031-.482.144-.72.039.186.211.72-.144.72 0-.095.097 0 0 0zm2.16-.143c-.134-.274-.053-.855-.36-1.008-.069.376-.044.834.36 1.008-.047-.096-.335-.144 0 0zm25.488-.144v.144-.144zm-.432.071v-.216c-.137-.032-.257-.008-.36.072.128 0 .159.245.36.144zm2.592-.504c.129 0 .003.36.216.36-.17.257-.44-.246-.216-.36.048 0-.096.049 0 0zm-.432.36l.054-.162c.213-.071.152.159.162.234-.072-.023-.144-.048-.216-.072 0-.191.097 0 0 0zm-27.648 0c.082-.162-.178-.505-.288-.288.139 0-.001.288.288.288.048-.095-.096 0 0 0zm25.2-.216c0-.144-.047-.216-.144-.216 0 .192.048.265.144.216zm-24.624-.432c0 .144.025.216.072.216 0-.144-.024-.216-.072-.216zm27.144.216c-.03-.093-.048-.192-.072-.288.16.13.066.197.072.288zm-2.88-.287c-.102.055-.102.127 0 .216v-.216zm2.232-.433c0 .196.16.376.288.504-.231.348-.382-.378-.432-.504h.144zm-28.656.433c-.096 0-.072-.606-.072-.576.206.102.072.424.072.576-.047 0 0-.096 0 0zm2.16-1.009c.137.273-.157.707.072.936 0-.178.081-.783-.072-.936.048.097.048.049 0 0zm24.984.936c.018-.171-.055-.267-.216-.288-.056.238.064.211.216.288zm1.728-.288c-.095 0-.119-.023-.072-.072.048 0 .072.025.072.072zm-27.144-.072c0-.203-.044-.82-.424-.44-.051.052.36.376.424.44 0-.288-.047-.047 0 0zm25.848 0c.048-.096.096-.096.144 0h-.144zm1.224 0c-.159-.024-.543-.276-.432-.504.081.082.432.356.432.504zm-1.728-1.512c.593-.295 1.199 1.051 1.296 1.44-.125-.023-.211-.098-.255-.224-.254-.507-.214.015-.5-.388-.256-.359-.323-.056-.229-.504.046-.228-.102-.324-.312-.324.192-.096.336 0 0 0zm-1.512 1.368c0-.096-.047-.191-.144-.288 0 .097.048.193.144.288zm-23.688-1.512c.264.392-.28 1.16.144 1.44 0-.641.02-1.314.144-1.944-.358-.118-.152.36-.36.36.049-.194-.043-.345-.216-.432.21.313-.079.632.072.936.027-.145.099-.265.216-.36.097.144-.144.144 0 0zm-1.872 1.224c-.319 0 0-.508 0-.648.116.117.118.533 0 .648-.144 0 .048-.047 0 0zm27.072-.144c.048-.066.096-.132.145-.198.235-.058.101.444-.145.198.097-.24.048.049 0 0zm-25.704-.288c0 .144.025.216.072.216 0-.144-.024-.216-.072-.216zm25.704-.072l-.144-.144c.023.023.127.144.144.144zm-27-.36v-.576c.294.099 0 .409 0 .576zm25.416-1.8c.61.34 1.316.841 1.44 1.584-.263-.379-.649-.936-1.152-1.008.218-.215-.288-.358-.288-.576.864.481 0 .097 0 0zm-24.12 1.296c0 .097.025.144.072.144 0-.095-.024-.144-.072-.144zm.216-.72c-.023.095 0 .167.072.216.034-.096.01-.168-.072-.216 0 .144.048 0 0 0zm.648-.215c-.204-.101-.284.432-.072.432.09-.137.114-.281.072-.432-.096-.048.048.096 0 0zm.072-.936l-.072-.216c-.441.074-.274.811-.216 1.08.212-.208-.017-.711.288-.864-.048-.048-.096.048 0 0zm22.896.431c-.027-.067-.085-.056-.072-.144.143-.004.167.044.072.144zm-.072-.144c-.288-.144-.432-.288-.432-.432.288.193.432.337.432.432zm-1.296-.864c.105-.418.36.053.36.216-.189 0-.122-.332-.36-.216.048-.191.097-.047 0 0zm-20.952-.864c0-.632-.432-.052-.432.288.276.093.159-.288.432-.288 0-.239-.096 0 0 0zm19.584-.143c.144 0 .313.097.504.288-.144.143-.312.047-.504-.288zm-2.088-1.297c.434.136 1.151.358 1.296.864-.351.178-1.157-.588-1.296-.864.768.241.097.193 0 0zm-17.28.288c0 .097.025.144.072.144 0-.095-.024-.144-.072-.144zm16.272-.72c.311-.207.991.182.792.576-.327-.107-.494-.427-.792-.576.144-.095.096.049 0 0zm-2.664-.36c.01.006.216.371.216.072-.095.011-.114-.072-.216-.072zm1.512 0c.048 0 .272-.104.306-.036.111.223-.265.078-.306.036.144 0 .097.097 0 0zm-1.08-.576c.241-.047.552.072.936.36-.144.241-.456.12-.936-.36zm-.432-.216c.163 0 .373.035.432.216-.24 0-.432.051-.432-.216.24 0 0 .048 0 0zm-2.592-.072c-.16.055-.304.031-.432-.072-.098.2.432.38.432.072-.192.049 0 .144 0 0zm2.592.072c-.576.097-.864 0-.864-.288.385.097.673.192.864.288zm-2.088-.576c.22.032.985.07 1.08.36-.319-.157-.885.031-1.08-.36.673.097.048.097 0 0zm0 0c-1.186.149-2.346-.432-3.528-.432.662-.059 1.262-.037 1.915.079.413.074 1.36.106 1.613.353zM59.375 184.724c.268-.05.67.98.864 1.224.104-.564-.236-.982-.72-1.224-.035-.323-.219-.644-.366-.925-.588-1.127-1.244-2.308-1.953-3.357-1.328-1.966-2.568-4.044-3.802-6.085.945 0 .933 1.291 1.517 1.915.375.402.657.581.914 1.084.302.593.632 1.172.981 1.739.69 1.121 1.413 2.223 2.132 3.326.375.574.747 1.15 1.115 1.729.097.152.541 1.08.685 1.08 0-.354-.635-1.094-.833-1.446-.245-.434-.49-.868-.741-1.299-.272-.468-.546-.933-.821-1.399-.633-1.072-1.346-2.093-2.036-3.128-.219-.329-.439-.657-.651-.99-.131-.206-.016-.146-.101-.423-.076-.246-.36-.317-.36-.604.229-.111.276.26.504.144 0 .485.13.49.396.756.093.093.619.707.468.108.123.114.171.258.144.432.28-.055.531.099.72.288 0 .346-.504.531-.504.072-.39.652 1.152 1.075 1.152 1.728.585-.636.597.384.216.288 0 .181.337.047.216.288.255 0 .042-.392.36-.288.193.288-.144.433-.144.72.27.091.204-.144.432-.144.096.192-.119.219-.162.369-.12.421.355-.081.306-.081.871.954 1.675 1.997 2.232 3.168 0 .037.328.077.389.311.06.225.221.386.432.475.534.227.836.877 1.119 1.386 1.338 2.409 1.9 5.558.525 8.079-.525.963-1.383 1.666-2.395 2.072-1.15.462-2.359.253-3.552.047-1.094-.19-2.146-.621-3.205-.951-1.373-.428-2.79-.869-4.036-1.605-.545-.322-1.043-.722-1.472-1.189-.453-.495-.438-.813-.157-1.418.221-.476 1.923-2.023 2.135-1.174.105.421-.043.389.396.639.328.187.659.367.994.541.646.335 1.305.647 1.976.93 1.364.576 2.779 1.033 4.229 1.332 1.075.222 1.934.58 3.065.439.534-.066.417-.542.399-1.021-.019-.532-.104-1.062-.224-1.58-.265-1.142-.698-2.243-1.187-3.307-.302-.657-.63-1.301-.974-1.937-.453-.836-.176.101-.547-.27-.041-.213-.178-.643-.07-.864zm-21.816 1.8c.946-.532 2.138-.544 3.04.097.338.24.596.572.757.953.2.473-.297 1.177-.584 1.566-.218.296-.489.563-.826.72-.493.23-.65-.212-.994-.548-.819-.799-1.502-1.571-1.393-2.788.768-.432-.047.529 0 0zm23.472-.72c0-.132-.023-.488-.288-.36.023.174.119.294.288.36 0-.144-.191-.096 0 0zm-2.16-1.224c-.021-.087 0-.197 0-.288.083 0 .288.2.288 0 .156.156-.239.272-.288.288zm-5.472-10.44c0-.25-.111-.346-.144-.576-.144 0-.216.072-.216.216-.266-.266-.475-.623-.864-.72.767 1.686 1.824 3.236 2.836 4.78.529.807 1.045 1.624 1.523 2.462.201.353.395.709.574 1.072.137.279.231.789.539.326.193.672.7 1.18 1.053 1.766.129.214.247.441.315.682-.34 0-.588-.558-.82-.891-1.028-1.474-2.031-2.965-2.995-4.481-1.451-2.281-2.838-4.622-3.961-7.084.224 0 .208.576.432.576.146 0-.134-.448-.072-.576.779.779 1.805 1.384 2.088 2.52-.085-.069-.181-.093-.288-.072 0-.24.048-.047 0 0zm4.248 7.56c0-.047.024-.072.072-.072 0 .048-.024.072-.072.072zm.072-.072c0-.047.025-.072.072-.072 0 .048-.024.072-.072.072zm-.072-2.952c.191-.475.733.206.504.432-.171 0-.347-.353-.504-.432.097-.239.097.049 0 0zm-.072-.216c-.191-.096-.191-.239 0-.432.096.049.096.193 0 .432zm-1.512-1.656c-.043-.222.07-.276.288-.216 0 .376-.11.216-.288.216zm-.864-.864c-.047 0-.072-.072-.072-.216.048.048.072.12.072.216zm-.072-.216c-.335-.047-.504-.36-.504-.936.241.192.408.504.504.936zm-.792-1.368c.048 0 .12.121.216.36-.144 0-.216-.119-.216-.36zm-1.08-.576c0 .229.121.354.144.576-.17-.084-.562-.576-.144-.576 0 .193-.047 0 0 0zm-1.08-.792c0-.24-.072-.36-.216-.36 0 .241.072.36.216.36z"/><path d="M47.567 164.925c.252-.126.413-.118.424-.398.02-.463.237-.923.439-1.33.072.049.096.121.072.216.633-.633 1.624-1.467 2.592-1.08-.016 0-.095-.48 0-.576.271 0 .432.241.72.144-.018.173.006.341.072.504.089-.176.688-.176.504-.36.446-.146.431.36.792.36-.071-.136-.095-.28-.072-.432.57.57 1.533.436 2.16.936.08-.102.104-.222.072-.36 1.584.634 3.29.514 4.83-.188.824-.375.499.285.499.836-.482.604-1.102 1.092-1.824 1.376-2.971 1.169-6.281-.465-9.336-.008.412.659 1.092 1.115 1.688 1.589.638.507 1.081 1.043 1.804 1.419.819.426 1.619.894 2.376 1.422.633.442 1.182 1 1.85 1.386 1.342.774 2.905 1.351 3.971 2.516.572.625 1.038 1.309 1.167 2.164.109.72-.689 1.313-1.296 1.544-1.466.559-3.484.233-4.791-.592-1.081-.18-2.143-.598-3.172-.96-.842-.296-1.68-.606-2.516-.92-.548-.207-.34-.587-.255-1.107.067-.413.166-.83.345-1.209.303-.641.538-.742 1.17-.474.779.33 1.513.792 2.34.999-.507-.763-1.474-1.085-2.116-1.712-.525-.512-1.109-.877-1.736-1.276-1.598-1.017-3.205-2.271-2.773-4.429zm6.84 5.832c-.057-.465-.296-.171-.432.072.133-.079.277-.103.432-.072-.048-.383-.096-.047 0 0zm-5.76-4.752c.328.488 1.17.587 1.296 1.224-.443 0-.497-.825-1.152-.504.167 0-.052.255 0 .36.243.108.425.315.558.54.135.229.228.481.3.736.206.723.109.092.438.092 0 .309.623.847.864 1.008-.041-.124-.241-.639 0-.72.354 0 .144.687.144.936.234 0 .541-.109.432.216.36.121.28-.432.576-.432.115.232-.141.72.432.72.209-.412-.333-.293-.216-.648.152.081.308.153.468.216.25.168-.036.201-.036.396 0 .275.576.001.576.108-.062.104-.206.364 0 .432.19-.564.426-.072.72-.072 0-.668-.936-.657-1.166-1.195-.06-.148-.079-.302-.058-.461-.168-.045-.296-.141-.384-.288-.122-.244-.414-.294-.696-.576-.332-.336-.262-.443-.713-.642-.343-.151-.654-.372-.94-.611-.485-.404-.968-.987-1.586-1.195-.011.145.037.265.143.36h-.216c.046.091-.043.432.144.432.103-.128.127-.272.072-.432.097.144.048.193 0 0zm2.88 2.952c.192.097.288.241.288.432-.336 0-.432-.144-.288-.432zm.504.072c0-.48.648.005.648.288-.276 0-.392-.288-.648-.288 0-.288.096 0 0 0zm-1.656-.216c.657.132.221-.792-.288-.792 0 .261.197.36.432.36-.106.123-.154.267-.144.432.241.048-.047-.095 0 0zm1.512 0c.067-.402.252-.085 0 0zm-1.08-.864c.238-.078.669.269.432.504 0-.216-.432-.244-.432-.504.144-.047 0 .097 0 0zm-.72-.72c.123.246.388.388.576.576-.289-.072-.576-.242-.576-.576.048.097 0 .288 0 0zm-1.728-.72v-.216c-.144 0-.216.072-.216.216h.216zm8.208-2.304c0-.191-.144-.335-.432-.432 0 .336.144.48.432.432zm.504 0c0-.228-.36-.313-.36-.072l.36.072c0-.144-.048 0 0 0zm-1.8-.288c.115-.229-.279-.113-.36-.072.107.08.227.104.36.072.048-.096-.096.048 0 0zm.504 0c.03-.011.332.044.144-.144-.231.005-.278.053-.144.144zM48.215 145.63c.517.13 1.077.051 1.584.216.639.214.841.814 1.388 1.066 1.181.544 2.076 1.532 2.861 2.541.658.845 1.325 1.571 1.628 2.587.324 1.084.944 2.588.099 3.597.629.49 3.779 1.544 4.111.995 1.002-1.658.567-3.854-.036-5.571-.604-1.721-1.19-3.574-2.08-5.167-.526-.943-1.027-1.9-1.491-2.875-.398-.836-.698-1.981-1.369-2.646.721-.178 1.128 1.416 1.512 1.8.077-.076.101-.172.072-.288 1.763 1.982 2.946 4.426 3.816 6.912 0-.72.001-1.583-.36-2.232.282.071.46.415.576.648.057-.088.093-.184.108-.288.004-.004 1.045 1.533 1.045 1.854 0 .553-.015.229.431.45.206.461.396.93.569 1.404.529 1.455 1.221 3.457.695 4.989-.892 2.602-3.646 3.119-6.092 2.924-1.757-.14-3.471-1.055-4.977-1.932-1.668-.97-3.251-2.138-4.515-3.606-.995-1.157-1.864-2.385-1.934-3.938-.017-.376-.101-.841.049-1.193.129-.304.38-.548.48-.864.083-.26.369-.255.618-.399.453-.26.846-.618 1.212-.984.192.048-.72.72 0 0zm1.296 5.616c0-.235-.44-.494-.216-.72.929 1.194 1.975 2.306 3.168 3.24-1.144-2.25-2.637-4.543-4.824-5.904.382 1.138.906 2.611 1.872 3.384 0-.096-.24-.191 0 0zm11.448 1.008c0-.374.063-.432.432-.432-.185-.296-.273-.662 0-.936-.31-.31-.365.233-.45-.414-.072-.552-.333-1.068-.63-1.53.51 1.019.071 2.352.648 3.312 0-.047-.144-.24 0 0zM47.567 107.326c.252-.126.413-.118.424-.398.02-.463.237-.923.439-1.33.072.049.096.121.072.216.633-.633 1.624-1.467 2.592-1.08-.016 0-.095-.48 0-.576.271 0 .432.241.72.144-.018.173.006.341.072.504.089-.176.688-.176.504-.36.446-.146.431.36.792.36-.071-.136-.095-.28-.072-.432.57.57 1.533.436 2.16.936.08-.102.104-.222.072-.36 1.584.634 3.29.514 4.83-.188.824-.375.499.285.499.836-.482.604-1.102 1.092-1.824 1.376-2.971 1.169-6.281-.465-9.336-.008.412.659 1.092 1.115 1.688 1.589.638.507 1.081 1.043 1.804 1.419.819.426 1.619.894 2.376 1.422.633.442 1.182 1 1.85 1.386 1.342.774 2.905 1.351 3.971 2.516.572.625 1.038 1.309 1.167 2.164.109.72-.689 1.313-1.296 1.544-1.466.559-3.484.233-4.791-.592-1.081-.18-2.143-.598-3.172-.96-.842-.296-1.68-.605-2.516-.92-.548-.207-.34-.587-.255-1.107.067-.413.166-.83.345-1.209.303-.641.538-.742 1.17-.474.779.331 1.513.793 2.34.999-.507-.763-1.474-1.085-2.116-1.712-.525-.512-1.109-.877-1.736-1.276-1.598-1.017-3.205-2.272-2.773-4.429zm6.84 5.832c-.057-.465-.296-.171-.432.072.133-.079.277-.103.432-.072-.048-.384-.096-.047 0 0zm-5.76-4.752c.328.488 1.17.587 1.296 1.224-.443 0-.497-.825-1.152-.504.167 0-.052.255 0 .36.243.108.425.315.558.54.135.229.228.481.3.736.206.723.109.092.438.092 0 .309.623.847.864 1.008-.041-.124-.241-.639 0-.72.354 0 .144.687.144.936.234 0 .541-.109.432.216.36.121.28-.432.576-.432.115.232-.141.72.432.72.209-.412-.333-.293-.216-.648.152.081.308.153.468.216.25.168-.036.201-.036.396 0 .275.576.001.576.108-.062.104-.206.364 0 .432.19-.564.426-.072.72-.072 0-.668-.936-.657-1.166-1.195-.06-.149-.079-.302-.058-.461-.168-.045-.296-.141-.384-.288-.122-.244-.414-.294-.696-.576-.332-.336-.262-.443-.713-.642-.343-.151-.654-.372-.94-.611-.485-.404-.968-.987-1.586-1.195-.011.145.037.265.143.36h-.216c.046.091-.043.432.144.432.103-.128.127-.272.072-.432.097.144.048.193 0 0zm2.88 2.952c.192.097.288.241.288.432-.336 0-.432-.144-.288-.432zm.504.072c0-.48.648.005.648.288-.276 0-.392-.288-.648-.288 0-.288.096 0 0 0zm-1.656-.216c.657.132.221-.792-.288-.792 0 .261.197.36.432.36-.106.123-.154.267-.144.432.241.048-.047-.095 0 0zm1.512 0c.067-.402.252-.085 0 0zm-1.08-.864c.238-.078.669.269.432.504 0-.216-.432-.244-.432-.504.144-.047 0 .097 0 0zm-.72-.72c.123.246.388.388.576.576-.289-.072-.576-.242-.576-.576.048.097 0 .288 0 0zm-1.728-.72v-.216c-.144 0-.216.072-.216.216h.216zm8.208-2.304c0-.191-.144-.335-.432-.432 0 .336.144.48.432.432zm.504 0c0-.228-.36-.313-.36-.072l.36.072c0-.144-.048 0 0 0zm-1.8-.288c.115-.229-.279-.113-.36-.072.107.08.227.104.36.072.048-.096-.096.048 0 0zm.504 0c.03-.011.332.044.144-.144-.231.005-.278.053-.144.144zM57.071 90.335l-.072-.072c.11.127.182.234.252.396.153.361.379.328.608.597.345.405.443.967.78 1.392.976 1.229 2.166 2.269 3.238 3.41 1.14 1.213 2.399 2.643 2.945 4.245.28.822.311 1.703.06 2.536-.203.675-1.182.451-1.538.924-.057.076.202.252-.009.252-.276.184-.596.269-.882.432-.566.324-1.767-.23-2.385-.432-1.139-.369-2.254-.888-3.328-1.417-1.813-.895-3.44-2.227-5.042-3.446-1.064-.81-1.796-1.438-2.43-2.662-.611-1.18-.726-2.145-.275-3.396.863-2.399 2.742-3.167 4.981-1.822 0-1.116-1.084-2.24.324-2.966.603-.312 1.369-.394 2.036-.33.417.041 1.201.588 1.469.481 1.084-.433 2.279.399 3.394.295.379-.036.35-.02.269-.449-.091-.488-.197-.973-.318-1.454-.198-.784-.434-1.564-.735-2.315-1.827-4.553-6.005-8.092-9.391-11.478 3.444.431 5.456 3.624 7.547 6.03 1.405 1.618 2.434 3.636 3.397 5.562.16-.156-.144-.546-.144-.72.161 0 .145.36.36.36-1.005-2.762-3.379-4.714-4.608-7.344-.207 0 0 .381 0 .432-.183-.114-.523-.376-.144-.504-.851-.377-1.402-1.108-1.584-2.016 3.136 2.574 5.494 5.995 7.377 9.557.521.984 1.3 2.037 1.083 3.187-.184.988-.33 1.647-1.176 2.301-.939.725-2.1.563-3.241.565-.939 0-1.884-.019-2.818-.131zm5.544 12.456c-.284-.191-.237.36-.144.36l.144-.36c-.144-.097 0 .047 0 0zm-1.44-.432c.48.288.745.407.792.36-.384-.241-.648-.36-.792-.36zm.864-.576c-1.67-3.495-4.764-6.119-7.344-8.928-.524.659-2.14.36-2.88.36 1.335 4.671 6.292 6.581 10.224 8.568-.528-1.105-.191-.097 0 0zm-5.904-9.216c-.066.136.103.325.243.297.022-.004-.171-.349-.171-.441-.086-.059-.182-.083-.288-.072 0 .144.072.216.216.216-.048.097-.144 0 0 0zm-.432-.432c.188-.092-.077-.396-.188-.396-.207 0 .009.487.188.396.097-.048-.096.048 0 0zm6.624-6.912c-.011-.025-.181-.504-.288-.504 0 .204-.044.615.288.504-.144-.335-.144.048 0 0zm.288-.144c-.24-.479-.383-.72-.432-.72.097.385.241.624.432.72zm-2.592-2.016c-.101.206.034.484.216.576 0-.223-.207-.335-.216-.576.236.118.398.58.504.792l-.252-.126c-.087.043.589.515.324.846.448.167.678.189.407-.325-.332-.631-.678-1.254-1.041-1.867-.622-1.053-1.292-2.079-2.019-3.063-1.347-1.822-2.896-3.508-4.691-4.897 2.393 2.737 4.974 5.453 6.768 8.64-.047.097-.432-.768 0 0zm1.512.288c.19 0 .155.288.288.288-.155.156-.273-.242-.288-.288.097 0 .097.288 0 0zm-6.192-8.928c.411-.135.206.301.072.432-.08-.133-.103-.277-.072-.432.144-.048-.048.097 0 0zm-.648-.144c.177-.263.455.1.36.288-.152 0-.166-.288-.36-.288.097-.144.097 0 0 0zm-1.512.072c.144-.144.048-.263-.288-.36.144.24.241.36.288.36z"/><path d="M13.655 58.655c1.109.448 2.694.108 3.528 1.152 1.256.082 2.499.366 3.712.688 2.47.657 4.866 1.689 7.376 2.191.173-1.385.144-2.801.115-4.193-.032-1.568.144-3.104.187-4.674.099-3.579.012-7.441 1.857-10.645.329.662-.05 1.468-.223 2.13-.236.904-.4 1.826-.531 2.75-.336 2.386-.425 4.792-.507 7.197-.064 1.903-.128 3.809-.259 5.709-.033.479-.064.962-.136 1.438.099.394.405.634.792.72.395 0 .143-.718.432-.864-.055-.021-.576-.171-.576-.288.337 0 .448-.498.416-.751-.025-.177-.116-.311-.272-.4.116-.289.192-.596.192-.908 0-.374-.121-.735-.121-1.108.024-.048.9-.576.36-.576 0-.012.121-.125.144-.144-.102-.31-.316.268-.368.008.036-.108.11-.183.224-.225 0-.207-.381 0-.432 0 .511-.445.943-3.456.504-3.456.208-.311-.025-.668.144-1.008-.12-.12-.309.432-.504.432.103-.204-.066-.864.216-.864-.042 0 .069.208.072.216.397-.554.287-1.295.272-1.93-.015-.62.4-1.404-.272-1.742 0-.211.632.021.504-.36 0-.071-.372.072-.432.072.125-.1.652-.609.864-.504 0-.239-.244-.288-.432-.288.362-.359.009-.864-.36-.864.538-.713.055-2.028.432-2.88.229.777.243 1.601 0 2.376.295.295 1.003.767.144.936.364.182.213.712.36 1.008.073.146.443.084.279.315-.094.132-.423.04-.423.261.406 0 .238.475.36.72-.283 0-.095-.433-.359-.256-.176.118.035.388.215.328 0 .318-.574.362-.096.76.388.322.15.94.105 1.438-.113 1.247-.172 2.498-.2 3.75-.03 1.353-.022 2.706.01 4.059.018.749.043 1.497.075 2.245.009.211-.075.73.12.873.214.157.57.126.735.352.181.246.91.205 1.263.281.651.14 1.288.344 1.913.571 1.058.385 2.167.617 3.218 1 2.471.901 4.941 1.804 7.411 2.708 1.848.677 3.608 1.41 5.353 2.33 2.385 1.258 4.79 2.746 7.506 3.146.621.092 1.265.041 1.893.104.535.054 1.052.222 1.586.198 1.136-.052 2.336-.1 3.453.162 2.411-.047 4.979-.228 7.223-1.19.83-.355 1.626-.846 2.209-1.545-.365 2.799-2.939 4.061-5.412 4.607-2.238.496-4.815.733-7.116.504.056-.094.134-.154.234-.18.047-.095-1.507-.093-1.747-.252.172.341.601.36.936.36-1.081 0-2.386.066-3.405-.372-.78-.336-2.546.012-3.219.516-1.521-1.536-4.26-1.422-6.292-1.801-5.708-1.064-11.354-2.47-16.964-3.959-.325 2.12.964 4.217.819 6.344-.079 1.156-.659 1.466-1.791 1.396-1.137-.071-1.978-.692-1.692-1.908-.533-2.14-.495-4.383-.817-6.557-.084-.569-1.564-.755-2.088-.914-1.357-.409-2.718-.809-4.079-1.206-4.239-1.235-8.552-2.422-12.724-3.866-1.157-.4-2.261-1.035-3.263-1.733-.512-.357-.997-.756-1.426-1.21-.446-.472-.393-.835-.139-1.428.454-1.061 1.542-1.533 2.613-1.732.719-.133 1.458-.135 2.178-.007.373.066.74.166 1.097.293.227-.226.563-.253.864-.216 0-.158-.265-.127-.36-.144.79-.395 1.513.592 2.304.432.009-.016-.072.395-.072.216.099.021.262.022.36 0-.076-.046-.041-.086-.07-.144zm54.432 17.857h.216c0 .144-.072.216-.216.216v-.216zm-4.968-.073c-.073-.001-.432-.041-.432.072.084.029.432.15.432-.072zm1.44-.071c-.161 0-.267-.191-.36 0-.017 0 .36.272.36 0-.049 0 0 .047 0 0zm.72-.073c.007 0-.432-.022-.432.072.119.12.432.19.432-.072-.288 0 0 .096 0 0zm-4.536.144c0-.241-.119-.36-.36-.36 0 .24.12.36.36.36zm2.952-.144c-.15 0-.496-.087-.576.072.15.001.474.134.576-.072-.096 0-.048.096 0 0zm-4.176 0c-.132-.053-.367-.122-.432.072.031.001.432.045.432-.072-.24-.096 0 .048 0 0zm6.48-.432c-.258 0-1.156-.214-1.296.072.205.001 1.296.262 1.296-.072-.097 0 0 .144 0 0zm-2.448-.071c.042 0-.59-.033-.504.144.18-.004.348-.052.504-.144-.384 0-.048.047 0 0zm1.008.071c-.247-.071-.549-.123-.792 0 .157.155.618.085.792 0-.336-.096-.097.048 0 0zm-4.104-.071c.19-.284-.36-.237-.36-.144.127.031.247.079.36.144.097-.145-.047 0 0 0zm-15.336-2.088c.176.064.208.105.417.168.156.047.15.336.16.336 0-.579.925-.001 1.184.081.526.167 1.068.315 1.62.36.396.033.604.073.978.164.582.142 1.107.51 1.69.187-.087.058-.111.13-.072.216.29.285.168-.216.287-.216.289 0 .36.432.648.432.012-.094-.051-.288.144-.288 0 .305.347.417.432.072.186.265.546.647.792.216-.322.106-.856-.358-1.156-.409-.757-.129-1.513-.269-2.268-.415-1.413-.273-2.819-.581-4.24-.812-2.146-.349-4.242-1.445-6.448-1.317.59.297 1.297.285 1.915.504.3.106 1.105.435 1.396.216 0 .318.617.141 1.027.281.268.092 1.532.779 1.494.224zm5.904.648c-.575 0-.859-.433-1.44-.144.472.049.964.144 1.44.144zm-1.728-.289c-.501 0-.988-.549-1.512-.288.55 0 .932.435 1.512.288-.047 0-.191.049 0 0zm-5.256-1.08c.275.224.921.136 1.182.315.412.284.975.12 1.41.333-.327-.433-1.155-.36-1.632-.487-.358-.095-.789-.047-1.056-.287-.3-.27-.853-.159-1.2-.09.432.072.864.145 1.296.216zm-1.872-.432l-.432-.216c-.128.26.306.216.432.216zm-.792-.216c-.223-.089-.69-.307-.936-.144.269 0 .695.388.936.144-.479-.191-.096.097 0 0zm-4.896-.719c.74.482 1.783 1.017 2.664.576-2.413-.753-4.916-1.178-7.344-1.872-.103.502 1.063.548 1.438.646 1.068.28 2.135.577 3.242.65 1.104.719-.72-.048 0 0zm3.456.287c-.191 0-.62-.298-.72 0h.72zm-.792-.287c-.313 0-.916-.425-1.152-.072.139.037 1.061.346 1.152.072-.096 0-.047.143 0 0zm-7.632-3.456c2.336.711 4.736 1.205 7.105 1.789.537.132 6.112 1.91 6.287 1.379-4.446-1.708-8.908-3.427-13.464-4.824-.093.563.072 1.096.072 1.656 1.105.336 0-.144 0 0zm6.264 3.168c-.116-.232-.934-.288-1.224-.288.197.46.838.37 1.224.288zm-2.16-.432v-.144c-.126-.009-.223.039-.288.144.096 0 .192.002.288 0zm-.792-.289c-.673 0-1.277-.618-1.944-.288.573 0 1.418.685 1.944.288-.191 0-.191.144 0 0zm2.376-4.031c0-.013-.401-.186-.432-.216 0 .407-.845-.19-1.116-.27-.137-.04-.687-.025-.707-.086-.241-.721-1.329-.373-1.921-.868-.118.358-.779.267-.864-.072h.144c-.697-.697-1.507.537-.704.687.951.177 1.848.545 2.747.891.805.311 1.719.452 2.479.835.979.495 2.026.863 3.11 1.043-.084.054-.134.16-.216.216.248.124.762-.172.936 0 0 .321-.493.205.256.377.471.108.93.264 1.38.439.89.348 1.753.823 2.685 1.055-.096-.192-.096-.384 0-.576-.214-.066-.426-.14-.636-.218-.582-.215-1.153-.458-1.72-.708-.941-.416-1.874-.852-2.829-1.234 0-.226.36.051.36-.144-.123.017-.195-.031-.216-.144-.251 0-.335.216-.576.216.106-.155.106-.299 0-.432-.23.185-.978.185-.576-.216-.307-.204-.488.216-.792.216 0-.15.123-.162.216-.216-.207-.207-.425.151-.576 0 .036-.141.108-.261.216-.36-.241.001-.408-.215-.648-.215 0-.048.096 0 0 0zm-4.392 3.672c0-.264-.795-.565-.936-.288.28.094.637.288.936.288 0-.096-.047 0 0 0zm-9.432-2.232c1.639.498 3.336 1.126 5.04 1.368-1.319-.481-2.663-.965-4.042-1.245-.461-.093-.895-.078-1.312-.291-.479-.245-1.073-.542-1.63-.48.414.414 1.413.515 1.944.648 2.688.816-1.152-.288 0 0zm5.04.863c-1.16-.574-2.588-.838-3.816-1.224-.026.458 3.216 1.158 3.816 1.224-.096-.047-.432-.047 0 0zm12.24-.863c-.096-.096-.167-.096-.216 0h.216zm-18.288-.865c.212.336 1.645.514 2.088.576-.58-.464-1.368-.576-2.088-.576zm7.056-.719c-.394 0-.313.889-.072 1.008 0-.327.463-.309.36-.72-.142-.009-.273.018-.396.081.559.136.313-1.367-.18-.873.441 0-.025.387-.144.504.151.151.309-.249.432 0-.096 0-.048-.096 0 0zm-8.064.936c0-.268-.434-.285-.576-.144.165 0 .452.019.576.144 0-.096-.047-.048 0 0zm-9.504-5.113c.362.182.316.653.864.432.25.088.975.845 1.296.36-.217 0-1.512-.279-1.512-.504 5.312 1.449 10.524 3.245 15.84 4.68.082-.407.038-.822.016-1.232-.022-.428.054-.476-.358-.586-.667-.179-1.33-.372-1.992-.568-2.017-.598-4.017-1.249-6.031-1.856-4.066-1.226-8.19-2.308-12.443-2.598 1.305.872 2.829 1.414 4.32 1.872.192.097-1.872-.575 0 0zm15.336 4.752c-.155-.104-.299-.104-.432 0 .142 0 .331.206.432 0-.24-.095-.047.097 0 0zm-6.552 0c-.354 0-.663-.477-.936-.072.21-.069.834.284.936.072-.047 0-.047.097 0 0zm1.44-.071c-.177-.053-.685-.249-.864-.072.251-.001.631.189.864.072-.479-.144-.096.048 0 0zm-2.448-.073c-.189-.264-.47-.448-.792-.288.273.001.538.206.792.288-.24-.335-.144-.047 0 0zm6.552-.071c-.092-.112-.212-.184-.36-.216-.082.249.219.216.36.216 0-.048-.047 0 0 0zm-5.4-.216c-.075 0-.315-.16-.216.144.022-.028.216-.197.216-.144-.047 0 0 .048 0 0zm16.416 0c-.047.048-.096.097-.144.144 0-.096.048-.144.144-.144zm-12.168-.073c0-.19-.221-.216-.36-.216-.113.231.36.068.36.216zm-6.696-.071c-.154-.145-.712-.288-1.008-.288.331.111.669.203 1.008.288zm1.368 0c.03-.011.332.044.144-.144-.23.004-.278.052-.144.144zm-.72-.288c.119-.235-.229-.216-.36-.216-.113.23.36.066.36.216.048-.096 0-.048 0 0zm-1.8-.144c-.124 0-.36-.303-.36 0 .113 0 .252.027.36 0zm-.504-.072c-.028-.022-.33-.216-.432-.216.061.18.269.216.432.216zm6.264-.217c-.038.013-.288.14-.288.144.157.091.253.043.288-.144zm-5.256-.071c-.065 0-.671-.289-.576 0 .138 0 .576.314.576 0-.047 0 0 .144 0 0zm-1.656.071c-.093-.093-.38-.216-.504-.216 0 .223.383.216.504.216-.048-.047-.335 0 0 0zm-.864-.144h.216c.101-.199-.288-.27-.288-.072.089-.013.113.011.072.072zm1.584-.288c-.171.087-.576-.153-.576.144.105-.102.576.089.576-.144-.096.049 0 .049 0 0zm-.792-.143c-.012 0-.334-.17-.216.072.094.023.167 0 .216-.072-.047 0 0 .048 0 0zm13.464-.72c-.197 0-.195-.332-.432-.216 0 .241-.006.524.081.756.048.128.482.272.711.18 0-.273-.2-.56-.36-.72-.048 0 .097.096 0 0zm.792.432l.072-.144c-.156-.035-.229.013-.216.144h.144zm-15.552-.144c0 .048.072.072.216.072 0-.048-.072-.072-.216-.072zm13.464-.936c-.388-.258-.509.179-.882-.009-.207-.104-.411-.206-.63-.279-.46-.151-.401-.01-.611-.432-.098-.196-.17-.145-.361-.145-.279 0-.216.216-.324.216-.204-.101-.466-.136-.684-.18-.193-.031-.375-.095-.543-.192-.19-.096-.189-.164.003-.204-.333-.167-.772-.477-1.152-.288.185.185.586.017.72.288-.352.118-.992-.238-1.296-.36l.288-.144c-.953-.353-1.941-.718-2.952-.864.595.446 2.027.31 2.376 1.008-2.148-.536-4.252-1.24-6.387-1.826-1.199-.329-2.402-.643-3.624-.876-.691-.132-1.387-.241-2.085-.322 0-.134-.278.04-.324.045-.206.025-.222-.262-.396-.262-.068.171-.193.311-.36.144.532.213 1.104.332 1.665.44.403.078.809.145 1.216.205.234.035.469.068.704.099.619.082.304.025.304.409.316 0 .36-.241.642-.004.2.168.448.278.691.367.554.202 1.207.348 1.762.069.218.218-.152.456.264.543.208.043.416.09.623.139.489.115.975.242 1.458.375 1.265.346 2.52.731 3.77 1.13 2.111.674 4.236 1.41 6.414 1.845.079-.313-.317-.677-.504-.864.02 0 .152-.068.215-.071zm-10.008.576c-.065 0-.36-.204-.36 0 .119 0 .24.003.36 0zm-1.944-.576c-.099-.049-.568-.31-.648-.072.164-.001.507.216.648.072-.384-.192-.048.048 0 0zm-.864-.289c-.107 0-.576-.295-.576 0 .148 0 .576.298.576 0-.047 0 0 .145 0 0zm-.72-.071c.101-.3-.432-.278-.432-.072.152-.023.296 0 .432.072.048-.144-.048 0 0 0zm11.088-.073c.01-.573.462.25 0 0zm-13.536-.792c-.027.01.36-.162.36 0-.12 0-.24.001-.36 0zm8.64-.144c-.143-.661.88.256 0 0zm-2.88-1.584c0-.242-.45-.247-.36-.432-.143.147-.504-.196-.504.144.294 0 .591.199.864.288 0-.144-.144-.047 0 0zm-3.024-.144c0-.144.072-.216.216-.216.059.118-.107.216-.216.216 0-.144.048 0 0 0zm2.016-.288c-.191-.144-.288-.144-.288 0 .192.144.288.144.288 0zm-.648 0c.029-.01.332.043.144-.144-.23.006-.278.054-.144.144zm2.808 0c-.12-.195-.196-.119 0 0zm-1.584-.36c-.093 0-.288-.176-.288.072.116.03.212.006.288-.072-.096 0 0 .049 0 0zm-2.736-.071c-.12-.196-.196-.12 0 0zm1.008-.721c-.144-.005-.288 0-.432 0 .174.088.297.046.432 0zm-5.904-.071c.075.022.071.119.144 0h-.144zm3.528-.217c-.099-.201-.476-.198-.576 0 .22 0 .423.315.576 0-.047-.095-.047.097 0 0zm16.632-.719c-.096.144-.312.264-.648.36.097-.145.313-.264.648-.36zm-.36-1.296l.072-.36c.166-.001.136.463-.072.36 0-.048.097.048 0 0zm-.216-1.584c.058-.229.163-.581.432-.648-.008.115-.056.211-.144.288-.183.275.325.252.144.432-.059.059-.375-.015-.432-.072.097-.384.048.048 0 0zm1.512-.288c-.241-.12-.108.216-.288.216.171.017.267-.055.288-.216-.096-.048 0 .144 0 0zm-1.368-2.52c-.122-.247.288-.116.288-.288-.004.165-.1.261-.288.288-.047-.096.241-.096 0 0zm.144-.504c.059-.086.083-.182.072-.288.132 0 .099.288.288.288 0 .205-.267-.092-.36 0zm0-.576c-.071-.049-.095-.121-.072-.216h.216c-.059.047-.144.143-.144.216-.047 0 0-.048 0 0zm-.072-.504c0-.219.346-.247.432-.072 0 .158-.354.072-.432.072 0-.096.048 0 0 0zm1.08-.865c-.12-.195-.196-.119 0 0zm0-.504c-.144 0-.216.048-.216.144.192.001.264-.047.216-.144zm-.72-.863c0-.191.097-.24.288-.144 0 .096-.096.144-.288.144zm0-.361c0-.096.097-.144.288-.144 0 .098-.096.144-.288.144z"/><path d="M53.615 37.416c.133.051.253.123.36.216 0-.492-.563-1.142-.72-1.728 1.928.665 3.331 1.882 4.579 3.44 1.405 1.756 3.01 3.507 3.938 5.581.675 1.51 1.004 3.314.023 4.772-1.015 1.509-2.959 2.133-4.651 2.479.975 1.558 2.456 2.923 3.672 4.284 1.689 1.892 3.415 4.01 4.248 6.444.077 2.648-2.385 3.589-4.662 3.743-1.553.104-2.855-.235-4.287-.703-2.146-.702-4.294-1.392-6.443-2.083-.672-.216-.862-.435-1.344-.916-.432-.432.188-.876.536-1.283.35-.408.459-.501.998-.423.638.092 1.271.223 1.896.378 2.718.674 5.254 1.89 7.953 2.624.318.086 2.472.738 2.472.248 0-1.167-1.226-2.729-1.899-3.724-1.153-1.703-2.482-3.288-3.857-4.813-.677-.751-1.36-1.498-2.028-2.258-.397-.453-.872-1.312-1.324-1.652-.117.021-.225.066-.324.135.338-.902 1.184-1.532 1.772-2.264.322-.4.404-.276.903-.204.444.065.894.099 1.342.117.548.022 1.098.02 1.646.004.248-.007.496-.017.743-.03.108-.34.181-.691.208-1.048.089-1.153-.359-2.193-.913-3.176-.6-1.064-1.362-2.006-2.078-2.99-.471-.648-.84-1.393-1.383-1.965-.361-.38-.65-.827-1.087-1.13-.475-.33.166-.394-.288-.684-.895-.571-1.606-1.631-2.234-2.47-.103.419.36.554.36.936-.74-.318-1.176-1.038-1.728-1.584.179-.087.942.195.945.18-.062-.123-.089-.255-.081-.396.335.167 1.08.112 1.08.648.195 0 .111-.181.243-.233.115-.046.301.334.477.377 0 .297-.261.171-.36.072.131.35.373.643.72.792.226-.224-.216-.487-.216-.72.161 0 .706.627.648.685.006-.006-.262.101-.288.107.096.144.216.264.36.36.025-.049.049-.098.073-.145.096 0 0 .097 0 0zm6.408 21.744c.223-.044 0-.568 0 0 0 0 0-.048 0 0zm-.288-.72c-.369-.369-.5-1.08-1.08-1.08.18.361.555 1.156 1.08 1.08-.336-.336-.336.048 0 0zm-1.008-1.584c-.221.032-.898-.196-.432-.432-.852-.566.056 1.309.432.432-.335.048-.144.336 0 0zm-3.024-3.24l-.36-.072c.071.282.415.459.648.576 0 .453.227.859.484 1.217.129.167.258.335.388.503.271.379.053.295.551.351.72.08.089-.03.089-.415.151 0 .356.439.504.288-.264-.352-.408-.926-.827-.891-.327.027-.752-.257-.973-.478.17-.168-.228-.725-.396-.792-.531-.21.578-.543.396 0-.07-.035-.057-.073-.144-.072 0 .301.55.424.648.72.084-.163.156-.331.216-.504-.293-.293-.561.221-.607-.304-.035-.395-.696-.613-.473-1.064-.197 0-.454-.12-.648.072.342.098.38.362.216.648.176-.043.288.031.288.217-.047 0 0-.192 0 0zm-.144-1.368c-.144 0-.264.097-.36.288.24 0 .36-.096.36-.288zm.648-11.088c.367.184.313-.268.239-.406-.126-.236-.318-.483-.6-.53-.089.366.5.661.361.936.097.048.048-.096 0 0zm-.648-1.8c-.214-.106-.317-.504-.576-.504.059.233.238.843.576.504-.096-.047-.24.241 0 0zm-.792-.504c0-.425-.432-.281-.432 0 .133 0 .303.031.432 0zm.216-.072c0-.229-.488-.687-.072-.792-.187-.093-.475-.056-.576.144.283.141.364.508.648.648 0-.096-.096-.048 0 0zm-.864-.504c.196-.711-.622.12 0 0zm-.216-.36c.062-.122-.046-.322-.198-.297-.207.034.049.372.198.297.048-.096-.096.048 0 0zm.576-.216c-.24-.096-.36-.023-.36.216.24 0 .36-.072.36-.216zm-3.168-1.512c-.035-.448-.448-.035 0 0z"/><path d="M48.719 21.072c-.226.317-.667.825-.485 1.205.233.485.518.945.816 1.392.704 1.054 1.536 2.016 2.208 3.091.21.336.41.683.562 1.05.151.364.88.385 1.17.776.771 1.044 2.099 1.755 3.198 2.505 1.679 1.147 3.378 2.275 5.143 3.287 1.664.954 3.601.984 4.381 3.037-.955 2.025-3.61 2.236-5.56 1.993-2.01-.25-4.013-.62-5.946-1.176-1.113-.32-2.266-.467-3.379-.788-.351-.102-.704-.215-1.03-.382-.341-.174.208-1.088.394-1.338 1.148-1.554 4.354-.628 5.873-.252-2.478-1.626-4.648-3.781-6.768-5.832-1.709-2.101-3.964-6.871-.577-8.568-.24.336-1.055.529 0 0zm-.504 5.328c.082-.323-.342-.607-.216-.864-.449.227-.167-.648-.576-.648.113.454.062 1.021.296 1.406.309.508.639 1.003.989 1.483.712.979 1.505 1.897 2.364 2.75 1.933 1.922 4.183 3.502 6.575 4.8-3.538-2.449-7.048-5.292-9.432-8.927.048-.192 1.92 2.928 0 0zm4.032 2.88c-.011 0-.336-.169-.216.072.094.023.167 0 .216-.072-.047 0 0 .048 0 0zm-.576-.72c-.209-.207-.463-.576-.792-.576.011.18.589.782.792.576-.047-.047-.096.097 0 0zm-1.224-.936c-.077-.123-.304-.576-.504-.576.147.147.165.748.504.576-.24-.384-.096.048 0 0zm-.576-.576c0-.476-.778-1.603-1.152-1.728-.391 0 .267.562.349.67.266.351.49.744.803 1.058 0-.192-.144-.144 0 0zm-1.08-2.016c0-.178-.258-.402-.36-.504-.186.281-.012.692.36.504 0-.096-.191.096 0 0zm-.648-.72c.115.009.21.057.288.144-.052-.235-.147-.648-.432-.72.058.174.144.387.144.576.097 0 0-.096 0 0zM48.215 10.056c.517.13 1.077.051 1.584.216.639.214.841.814 1.388 1.066 1.181.544 2.076 1.532 2.861 2.541.658.845 1.325 1.571 1.628 2.587.324 1.084.944 2.588.099 3.597.629.49 3.779 1.544 4.111.995 1.002-1.658.567-3.854-.036-5.571-.604-1.721-1.19-3.574-2.08-5.167-.526-.943-1.027-1.9-1.491-2.875-.397-.835-.697-1.98-1.368-2.645.721-.178 1.128 1.416 1.512 1.8.077-.076.101-.172.072-.288 1.763 1.982 2.946 4.426 3.816 6.912 0-.72.001-1.583-.36-2.232.282.071.46.415.576.648.057-.088.093-.184.108-.288.004-.004 1.045 1.533 1.045 1.854 0 .554-.015.229.431.45.206.461.396.93.569 1.404.529 1.455 1.221 3.457.695 4.989-.892 2.602-3.646 3.119-6.092 2.924-1.757-.14-3.471-1.055-4.977-1.932-1.668-.97-3.251-2.138-4.515-3.606-.995-1.157-1.864-2.386-1.934-3.938-.017-.376-.101-.841.049-1.193.129-.304.38-.548.48-.864.083-.26.369-.255.618-.399.452-.261.845-.619 1.211-.985.192.048-.72.72 0 0zm1.296 5.616c0-.235-.44-.494-.216-.72.929 1.194 1.975 2.306 3.168 3.24-1.144-2.25-2.637-4.543-4.824-5.904.382 1.138.906 2.611 1.872 3.384 0-.095-.24-.191 0 0zm11.448 1.008c0-.374.063-.432.432-.432-.185-.296-.273-.662 0-.936-.31-.31-.365.233-.45-.414-.072-.552-.333-1.068-.63-1.53.51 1.019.071 2.352.648 3.312 0-.047-.144-.24 0 0z"/></svg>