<?xml version="1.0" encoding="utf-8"?>
<!-- Generator: Adobe Illustrator 16.0.0, SVG Export Plug-In . SVG Version: 6.00 Build 0)  -->
<!DOCTYPE svg PUBLIC "-//W3C//DTD SVG 1.1//EN" "http://www.w3.org/Graphics/SVG/1.1/DTD/svg11.dtd">
<svg version="1.1" id="Layer_1" xmlns="http://www.w3.org/2000/svg" xmlns:xlink="http://www.w3.org/1999/xlink" x="0px" y="0px"
	 width="612px" height="443px" viewBox="0 98.5 612 443" enable-background="new 0 98.5 612 443" xml:space="preserve">
<title>Tripadvisor_Logo_horizontal-lockup-stack_registered_RGB</title>
<path d="M152.831,402.634c29.915,0.004,54.169-24.244,54.174-54.159c0.004-29.915-24.244-54.169-54.159-54.173
	c-29.915-0.004-54.169,24.243-54.174,54.158c0,0.005,0,0.01,0,0.015C98.676,378.384,122.921,402.629,152.831,402.634z"/>
<circle cx="458.183" cy="348.475" r="54.166"/>
<path d="M0.158,348.475c0,84.329,68.351,152.673,152.672,152.673c38.491,0.053,75.57-14.49,103.762-40.696l48.941,53.255
	l48.94-53.225c28.19,26.186,65.257,40.714,103.732,40.658c84.328,0,152.74-68.358,152.74-152.672
	c0.044-42.956-18.052-83.933-49.829-112.835l49.957-54.354H500.325c-117.449-79.921-271.818-79.921-389.268,0H0l49.957,54.354
	C18.188,264.542,0.103,305.521,0.158,348.475z M561.508,348.475c0,57.065-46.26,103.325-103.325,103.325
	c-57.064,0-103.325-46.26-103.325-103.325c0.001-57.065,46.261-103.325,103.325-103.325
	C515.248,245.149,561.508,291.41,561.508,348.475L561.508,348.475z M305.511,171.287c39.38-0.049,78.375,7.748,114.709,22.935
	c-65.211,24.952-114.656,83.29-114.656,151.272c0-67.99-49.46-126.335-114.68-151.279
	C227.192,179.039,266.159,171.245,305.511,171.287z M152.831,245.149c57.065,0,103.325,46.26,103.325,103.325
	c0,57.065-46.26,103.325-103.325,103.325S49.505,405.54,49.505,348.475C49.505,291.41,95.766,245.149,152.831,245.149
	L152.831,245.149L152.831,245.149z"/>
</svg>
